G04*
G04 #@! TF.GenerationSoftware,Altium Limited,Altium Designer,24.1.2 (44)*
G04*
G04 Layer_Color=255*
%FSLAX44Y44*%
%MOMM*%
G71*
G04*
G04 #@! TF.SameCoordinates,B2B3494C-DAF2-46AE-B00F-8016F5E32D17*
G04*
G04*
G04 #@! TF.FilePolarity,Positive*
G04*
G01*
G75*
%ADD22R,0.9500X0.9000*%
%ADD23R,0.7000X0.8000*%
%ADD24C,1.5000*%
%ADD25R,2.3000X2.2860*%
%ADD26R,1.7018X0.8128*%
%ADD27R,3.0988X2.2098*%
%ADD28R,1.0000X0.6000*%
%ADD29R,0.8000X0.7000*%
%ADD30R,2.3622X1.8796*%
G04:AMPARAMS|DCode=31|XSize=0.2746mm|YSize=0.8048mm|CornerRadius=0.1373mm|HoleSize=0mm|Usage=FLASHONLY|Rotation=90.000|XOffset=0mm|YOffset=0mm|HoleType=Round|Shape=RoundedRectangle|*
%AMROUNDEDRECTD31*
21,1,0.2746,0.5302,0,0,90.0*
21,1,0.0000,0.8048,0,0,90.0*
1,1,0.2746,0.2651,0.0000*
1,1,0.2746,0.2651,0.0000*
1,1,0.2746,-0.2651,0.0000*
1,1,0.2746,-0.2651,0.0000*
%
%ADD31ROUNDEDRECTD31*%
%ADD32R,3.3000X3.1500*%
%ADD33O,1.8000X0.6000*%
%ADD34R,2.3000X2.8000*%
%ADD35R,3.1725X2.3455*%
%ADD36R,0.6325X2.3455*%
%ADD37O,1.3000X0.3500*%
%ADD38R,1.8000X0.4000*%
%ADD39R,2.5000X2.5000*%
G04:AMPARAMS|DCode=40|XSize=0.2746mm|YSize=0.8048mm|CornerRadius=0.1373mm|HoleSize=0mm|Usage=FLASHONLY|Rotation=180.000|XOffset=0mm|YOffset=0mm|HoleType=Round|Shape=RoundedRectangle|*
%AMROUNDEDRECTD40*
21,1,0.2746,0.5302,0,0,180.0*
21,1,0.0000,0.8048,0,0,180.0*
1,1,0.2746,0.0000,0.2651*
1,1,0.2746,0.0000,0.2651*
1,1,0.2746,0.0000,-0.2651*
1,1,0.2746,0.0000,-0.2651*
%
%ADD40ROUNDEDRECTD40*%
%ADD66C,6.0000*%
%ADD67C,0.8000*%
%ADD68R,1.0500X1.0500*%
%ADD69C,1.0500*%
G36*
G01X675178Y287614D02*
G02Y302386I1302J7386D01*
G01Y287614D01*
D02*
G37*
G36*
G01X677782Y302386D02*
G02Y287614I-1302J-7386D01*
G01Y302386D01*
D02*
G37*
D22*
X692484Y521644D02*
D03*
X667484Y512144D02*
D03*
X692484Y502644D02*
D03*
Y560536D02*
D03*
X667484Y551036D02*
D03*
X692484Y541536D02*
D03*
Y599428D02*
D03*
X667484Y589928D02*
D03*
X692484Y580428D02*
D03*
Y638320D02*
D03*
X667484Y628820D02*
D03*
X692484Y619320D02*
D03*
Y658211D02*
D03*
X667484Y667711D02*
D03*
X692484Y677211D02*
D03*
D23*
X352487Y135341D02*
D03*
X368487D02*
D03*
X241948Y134441D02*
D03*
X257948D02*
D03*
X336458Y309184D02*
D03*
X320458D02*
D03*
X663560Y172720D02*
D03*
X679560D02*
D03*
X313218Y135341D02*
D03*
X297218D02*
D03*
X297219Y261377D02*
D03*
X313219D02*
D03*
X368488D02*
D03*
X352488D02*
D03*
X313218Y160548D02*
D03*
X297218D02*
D03*
X352488D02*
D03*
X368488D02*
D03*
X423756Y228517D02*
D03*
X407756D02*
D03*
X407758Y160998D02*
D03*
X423758D02*
D03*
X407757Y193858D02*
D03*
X423757D02*
D03*
X423757Y261377D02*
D03*
X407757D02*
D03*
X423757Y126339D02*
D03*
X407757D02*
D03*
X423757Y58820D02*
D03*
X407757D02*
D03*
X423757Y92579D02*
D03*
X407757D02*
D03*
X257948Y160548D02*
D03*
X241948D02*
D03*
X257948Y185755D02*
D03*
X241948D02*
D03*
X257948Y210963D02*
D03*
X241948D02*
D03*
X241950Y236170D02*
D03*
X257950D02*
D03*
X257948Y261377D02*
D03*
X241948D02*
D03*
X257950Y110134D02*
D03*
X241950D02*
D03*
X257948Y59720D02*
D03*
X241948D02*
D03*
X241949Y84027D02*
D03*
X257949D02*
D03*
X413244Y470816D02*
D03*
X429244D02*
D03*
X413244Y686816D02*
D03*
X429244D02*
D03*
X429242Y669584D02*
D03*
X413242D02*
D03*
X413244Y614816D02*
D03*
X429244D02*
D03*
X429242Y597584D02*
D03*
X413242D02*
D03*
X413244Y542816D02*
D03*
X429244D02*
D03*
X429242Y525584D02*
D03*
X413242D02*
D03*
X429242Y453584D02*
D03*
X413242D02*
D03*
X413244Y398816D02*
D03*
X429244D02*
D03*
X429242Y381584D02*
D03*
X413242D02*
D03*
Y326814D02*
D03*
X429242D02*
D03*
Y309584D02*
D03*
X413242D02*
D03*
X320458Y614816D02*
D03*
X336458D02*
D03*
X320458Y668684D02*
D03*
X336458D02*
D03*
X320458Y542816D02*
D03*
X336458D02*
D03*
X320458Y596684D02*
D03*
X336458D02*
D03*
X320458Y524684D02*
D03*
X336458D02*
D03*
Y452684D02*
D03*
X320458D02*
D03*
Y380684D02*
D03*
X336458D02*
D03*
Y470816D02*
D03*
X320458D02*
D03*
Y398816D02*
D03*
X336458D02*
D03*
X320460Y326814D02*
D03*
X336460D02*
D03*
X320458Y686816D02*
D03*
X336458D02*
D03*
D24*
X190420Y267627D02*
D03*
X106600Y267627D02*
D03*
X148510Y267627D02*
D03*
X190420Y200373D02*
D03*
X148510D02*
D03*
X106600D02*
D03*
Y65866D02*
D03*
X148510D02*
D03*
X190420D02*
D03*
Y133120D02*
D03*
X148510D02*
D03*
X106600D02*
D03*
D25*
X747061Y207957D02*
D03*
Y247957D02*
D03*
D26*
X750955Y541752D02*
D03*
Y554252D02*
D03*
Y566752D02*
D03*
Y579252D02*
D03*
Y591752D02*
D03*
Y604252D02*
D03*
Y616752D02*
D03*
Y629252D02*
D03*
Y641752D02*
D03*
D27*
X779955Y667252D02*
D03*
Y516252D02*
D03*
D28*
X657910Y54171D02*
D03*
Y63671D02*
D03*
Y73171D02*
D03*
X632410D02*
D03*
Y54171D02*
D03*
D29*
X709740Y55671D02*
D03*
Y71671D02*
D03*
X709740Y123053D02*
D03*
Y107053D02*
D03*
X580670Y123054D02*
D03*
Y107054D02*
D03*
X601970Y55671D02*
D03*
Y71671D02*
D03*
X709740Y161169D02*
D03*
Y145169D02*
D03*
X580670Y55671D02*
D03*
Y71671D02*
D03*
Y161170D02*
D03*
Y145170D02*
D03*
X687080Y71671D02*
D03*
Y55671D02*
D03*
X597970Y123054D02*
D03*
Y107054D02*
D03*
Y161170D02*
D03*
Y145170D02*
D03*
X562469Y107054D02*
D03*
Y123054D02*
D03*
X464820Y107054D02*
D03*
Y123054D02*
D03*
Y145169D02*
D03*
Y161169D02*
D03*
X562469Y145169D02*
D03*
Y161169D02*
D03*
D30*
X586740Y211328D02*
D03*
Y256032D02*
D03*
X530860D02*
D03*
Y211328D02*
D03*
X476120Y256151D02*
D03*
Y211447D02*
D03*
X747061Y111760D02*
D03*
Y156464D02*
D03*
D31*
X393374Y367500D02*
D03*
X355326Y630500D02*
D03*
X355326Y635500D02*
D03*
Y640500D02*
D03*
Y645500D02*
D03*
Y650500D02*
D03*
Y655500D02*
D03*
X393374D02*
D03*
X393374Y650500D02*
D03*
Y645500D02*
D03*
Y640500D02*
D03*
Y635500D02*
D03*
Y630500D02*
D03*
Y702500D02*
D03*
Y707500D02*
D03*
Y712500D02*
D03*
Y717500D02*
D03*
Y722500D02*
D03*
Y727500D02*
D03*
X355326D02*
D03*
Y722500D02*
D03*
Y717500D02*
D03*
Y712500D02*
D03*
Y707500D02*
D03*
Y702500D02*
D03*
X393374Y558500D02*
D03*
Y563500D02*
D03*
Y568500D02*
D03*
Y573500D02*
D03*
Y578500D02*
D03*
Y583500D02*
D03*
X355326D02*
D03*
Y578500D02*
D03*
Y573500D02*
D03*
Y568500D02*
D03*
Y563500D02*
D03*
Y558500D02*
D03*
X393374Y486500D02*
D03*
Y491500D02*
D03*
Y496500D02*
D03*
Y501500D02*
D03*
Y506500D02*
D03*
Y511500D02*
D03*
X355326D02*
D03*
Y506500D02*
D03*
Y501500D02*
D03*
Y496500D02*
D03*
Y491500D02*
D03*
Y486500D02*
D03*
X393374Y414500D02*
D03*
Y419500D02*
D03*
Y424500D02*
D03*
Y429500D02*
D03*
Y434500D02*
D03*
Y439500D02*
D03*
X355326D02*
D03*
Y434500D02*
D03*
Y429500D02*
D03*
Y424500D02*
D03*
Y419500D02*
D03*
Y414500D02*
D03*
X393374Y342500D02*
D03*
Y347500D02*
D03*
Y352500D02*
D03*
Y357500D02*
D03*
Y362500D02*
D03*
X355326Y367500D02*
D03*
Y362500D02*
D03*
Y357500D02*
D03*
Y352500D02*
D03*
Y347500D02*
D03*
Y342500D02*
D03*
D32*
X692980Y233680D02*
D03*
X637980D02*
D03*
D33*
X623060Y151384D02*
D03*
Y138684D02*
D03*
Y125984D02*
D03*
Y113284D02*
D03*
X679560Y151384D02*
D03*
Y138684D02*
D03*
Y125984D02*
D03*
Y113284D02*
D03*
D34*
X651310Y132334D02*
D03*
D35*
X515620Y101977D02*
D03*
D36*
X490220Y162183D02*
D03*
X502920D02*
D03*
X515620D02*
D03*
X528320D02*
D03*
X541020D02*
D03*
D37*
X305203Y101470D02*
D03*
Y94970D02*
D03*
Y88470D02*
D03*
Y81970D02*
D03*
Y75470D02*
D03*
Y68970D02*
D03*
Y62470D02*
D03*
Y55970D02*
D03*
X362203Y101470D02*
D03*
Y94970D02*
D03*
Y88470D02*
D03*
Y81970D02*
D03*
Y75470D02*
D03*
Y68970D02*
D03*
Y62470D02*
D03*
Y55970D02*
D03*
D38*
X359230Y233637D02*
D03*
Y227287D02*
D03*
Y220937D02*
D03*
Y214587D02*
D03*
Y208237D02*
D03*
Y201887D02*
D03*
Y195537D02*
D03*
Y189187D02*
D03*
X308176D02*
D03*
Y195537D02*
D03*
Y201887D02*
D03*
Y208237D02*
D03*
Y214587D02*
D03*
Y220937D02*
D03*
Y227287D02*
D03*
Y233637D02*
D03*
D39*
X374350Y643000D02*
D03*
Y715000D02*
D03*
Y571000D02*
D03*
Y499000D02*
D03*
Y427000D02*
D03*
Y355000D02*
D03*
D40*
X386850Y623976D02*
D03*
X381850Y623976D02*
D03*
X376850D02*
D03*
X371850D02*
D03*
X366850D02*
D03*
X361850D02*
D03*
Y662024D02*
D03*
X366850Y662024D02*
D03*
X371850D02*
D03*
X376850D02*
D03*
X381850D02*
D03*
X386850D02*
D03*
Y734024D02*
D03*
X381850D02*
D03*
X376850D02*
D03*
X371850D02*
D03*
X366850D02*
D03*
X361850D02*
D03*
Y695976D02*
D03*
X366850D02*
D03*
X371850D02*
D03*
X376850D02*
D03*
X381850D02*
D03*
X386850D02*
D03*
Y590024D02*
D03*
X381850D02*
D03*
X376850D02*
D03*
X371850D02*
D03*
X366850D02*
D03*
X361850D02*
D03*
Y551976D02*
D03*
X366850D02*
D03*
X371850D02*
D03*
X376850D02*
D03*
X381850D02*
D03*
X386850D02*
D03*
Y518024D02*
D03*
X381850D02*
D03*
X376850D02*
D03*
X371850D02*
D03*
X366850D02*
D03*
X361850D02*
D03*
Y479976D02*
D03*
X366850D02*
D03*
X371850D02*
D03*
X376850D02*
D03*
X381850D02*
D03*
X386850D02*
D03*
Y446024D02*
D03*
X381850D02*
D03*
X376850D02*
D03*
X371850D02*
D03*
X366850D02*
D03*
X361850D02*
D03*
Y407976D02*
D03*
X366850D02*
D03*
X371850D02*
D03*
X376850D02*
D03*
X381850D02*
D03*
X386850D02*
D03*
Y374024D02*
D03*
X381850D02*
D03*
X376850D02*
D03*
X371850D02*
D03*
X366850D02*
D03*
X361850D02*
D03*
Y335976D02*
D03*
X366850D02*
D03*
X371850D02*
D03*
X376850D02*
D03*
X381850D02*
D03*
X386850D02*
D03*
D66*
X36000Y814000D02*
D03*
Y256000D02*
D03*
Y364000D02*
D03*
X814477Y256000D02*
D03*
X814000Y364000D02*
D03*
Y36000D02*
D03*
Y814000D02*
D03*
X36000Y36000D02*
D03*
D67*
X27252Y835120D02*
D03*
X14880Y805252D02*
D03*
X44748Y792880D02*
D03*
X57120Y822748D02*
D03*
X44748Y835120D02*
D03*
X14880Y822748D02*
D03*
X27252Y792880D02*
D03*
X57120Y805252D02*
D03*
X27252Y277120D02*
D03*
X14880Y247252D02*
D03*
X44748Y234880D02*
D03*
X57120Y264748D02*
D03*
X44748Y277120D02*
D03*
X14880Y264748D02*
D03*
X27252Y234880D02*
D03*
X57120Y247252D02*
D03*
X27252Y385120D02*
D03*
X14880Y355252D02*
D03*
X44748Y342880D02*
D03*
X57120Y372748D02*
D03*
X44748Y385120D02*
D03*
X14880Y372748D02*
D03*
X27252Y342880D02*
D03*
X57120Y355252D02*
D03*
X805729Y277120D02*
D03*
X793357Y247252D02*
D03*
X823225Y234880D02*
D03*
X835597Y264748D02*
D03*
X823225Y277120D02*
D03*
X793357Y264748D02*
D03*
X805729Y234880D02*
D03*
X835597Y247252D02*
D03*
X805252Y385120D02*
D03*
X792880Y355252D02*
D03*
X822748Y342880D02*
D03*
X835120Y372748D02*
D03*
X822748Y385120D02*
D03*
X792880Y372748D02*
D03*
X805252Y342880D02*
D03*
X835120Y355252D02*
D03*
X805252Y57120D02*
D03*
X792880Y27252D02*
D03*
X822748Y14880D02*
D03*
X835120Y44748D02*
D03*
X822748Y57120D02*
D03*
X792880Y44748D02*
D03*
X805252Y14880D02*
D03*
X835120Y27252D02*
D03*
X805252Y835120D02*
D03*
X792880Y805252D02*
D03*
X822748Y792880D02*
D03*
X835120Y822748D02*
D03*
X822748Y835120D02*
D03*
X792880Y822748D02*
D03*
X805252Y792880D02*
D03*
X835120Y805252D02*
D03*
X27252Y57120D02*
D03*
X14880Y27252D02*
D03*
X44748Y14880D02*
D03*
X57120Y44748D02*
D03*
X44748Y57120D02*
D03*
X14880Y44748D02*
D03*
X27252Y14880D02*
D03*
X57120Y27252D02*
D03*
D68*
X487680Y62820D02*
D03*
D69*
X500380D02*
D03*
X513080D02*
D03*
M02*
