M48
;Layer_Color=9474304
;FILE_FORMAT=4:2
METRIC,TZ
;TYPE=PLATED
T01F00S00C0.20
T02F00S00C0.30
T03F00S00C0.50
T04F00S00C0.60
T05F00S00C0.65
T06F00S00C3.30
%
T01
X65Y121
Y221
Y321
Y421
Y521
Y621
Y721
Y821
Y921
Y1021
Y1121
Y1221
Y1321
Y1421
Y1521
Y1621
Y1721
Y1821
Y1921
Y2021
Y2121
Y2221
Y2321
Y2421
X147Y65
X247
X347
X447
X547
X647
X747
X847
X947
X1047
X1147
X1247
X1347
X1447
X1547
X1647
X1747
X1847
X1947
X2047
X2147
X2247
X2347
X2447
X2547
X2647
X2747
X2847
X2947
X3047
X3147
X2579Y483
X2700Y2189
X4098Y2146
X4039Y2464
X3685Y1448
X3769Y950
Y755
X3839Y690
Y560
X4158Y737
Y926
X4078Y1099
X4331
X4420Y1392
X4447Y65
X4347
X4247
X4147
X4047
X3947
X3847
X3747
X3647
X3547
X3447
X3347
X3247
X3465Y820
X4547Y65
X4647
X4747
X4847
X4947
X5047
X5147
X5247
X5347
X5447
X5547
X5647
X5747
X5847
X5947
X6047
X6147
X6247
X6347
X6447
X6547
X6647
X6747
X6847
X6947
X7047
X6324Y607
X7147Y65
X7247
X7347
X7447
X7547
X7647
X7747
X7847
X7947
X8047
X8147
X8247
X8347
X8435Y114
X8435Y214
Y314
Y414
Y514
Y614
Y714
Y814
Y914
Y1014
Y1114
Y1214
Y1314
Y1414
Y1514
Y1614
Y1714
Y1814
Y1914
Y2014
Y2114
Y2214
Y2314
Y2414
X7553Y1561
X7471
X7388
X8435Y2514
Y2614
Y2714
Y2814
Y2914
Y3014
Y3114
Y3214
Y3314
Y3414
Y3514
Y3614
Y3714
Y3814
Y3914
Y4014
Y4114
Y4214
Y4314
Y4414
Y4514
Y4614
Y4714
Y4814
Y4914
X8434Y5014
X8337Y5040
X8238Y5053
X8177Y5132
X8174Y5232
Y5332
Y5432
Y5532
Y5632
Y5732
Y5832
Y5932
Y6032
Y6132
Y6232
Y6332
Y6432
X6800Y6383
Y6193
Y5994
Y5804
X6782Y5605
Y5428
X6410Y5610
Y4890
X6925Y4902
X6410Y4170
Y3450
X7035Y2950
X5476Y3650
Y4370
Y5090
Y5810
X5664Y6020
X6410Y6330
X4550Y5835
X4039Y5900
Y5735
X3969Y5520
Y5354
X4039Y5180
Y5015
X3969Y4800
Y4635
X4132Y4708
X4132Y4778
X4039Y4460
Y4296
X3969Y4080
Y3915
X4039Y3740
Y3576
X3969Y3360
X4132Y3338
X3769Y3268
X3719Y3308
X3669Y3268
X3498Y3268
X3652Y3475
Y3575
X3669Y3807
X3819
X3769Y3988
X3719Y4028
X3669Y3988
X3498Y3988
X3652Y4195
Y4295
X3669Y4527
X3819
X3769Y4708
X3719Y4748
X3669Y4708
X3498Y4708
X3655Y4915
Y5015
X3669Y5247
X3819
X3769Y5428
X3719Y5468
X3669Y5428
X3498Y5428
X3655Y5635
Y5735
X3669Y5967
X3819
X3769Y6148
X3719Y6188
X3669Y6148
X3498Y6148
X3652Y6341
X3969Y6240
Y6074
X4132Y6218
Y5498
X4550Y5115
Y4395
X4557Y3675
X4132Y4058
X3205Y3897
Y4617
Y5338
Y6058
X3205Y3177
X2580Y2743
X1743Y3650
Y4370
Y5090
Y5810
X65Y5821
Y5921
Y6021
Y6121
Y6221
Y6321
Y6421
Y5721
Y5621
Y5521
Y5421
Y5321
Y5221
Y5121
Y5021
Y4921
Y4821
Y4721
Y4621
Y4521
Y4421
Y4321
Y4221
Y4121
Y4021
Y3921
Y3821
Y3721
Y3621
Y3521
Y3421
Y3321
Y3221
Y3121
Y3021
Y2921
Y2821
Y2721
Y2621
Y2521
Y6521
Y6621
Y6721
Y6821
Y6921
Y7021
Y7121
Y7221
Y7321
Y7421
Y7521
Y7621
Y7721
Y7821
Y7921
Y8021
Y8121
Y8221
Y8321
X81Y8420
X180Y8435
X280
X380
X480
X580
X680
X780
X880
X980
X1080
X1180
X1280
X1380
X1480
X1580
X1680
X1780
X1880
X1980
X2080
X2180
X2280
X2380
X2480
X2580
X2680
X2780
X2880
X2980
X3080
X1743Y7250
Y6530
X3205Y6778
X3498Y6868
X3669Y6868
X3719Y6908
X3769Y6868
X3819Y6687
X3669
X3652Y6456
X4039
Y6620
X3969Y6794
Y6960
X4132Y6938
X4039Y7175
Y7340
X3819Y7407
X3669
X3652Y7175
Y7075
X4550Y7275
Y6555
X5476Y6530
X5664Y6585
X5476Y7250
X6410Y7050
X6800Y6772
X6780Y8435
X6880
X6980
X7080
X6680
X6580
X6480
X6380
X6280
X6180
X6080
X5980
X5880
X5780
X5680
X5580
X5480
X5380
X5280
X5180
X5080
X4980
X4880
X4780
X4680
X4580
X4480
X4380
X4280
X4180
X4080
X3980
X3880
X3780
X3680
X3580
X3480
X3380
X3280
X3180
X7180
X7280
X7380
X7480
X7580
X7680
X7780
X7880
X7980
X8080
X8180
X8280
X8380Y8435
X8435Y8366
Y8266
Y8166
Y8066
Y7966
Y7866
Y7766
Y7666
Y7566
Y7466
Y7366
Y7266
Y7166
Y7066
Y6966
Y6866
X8365Y6795
X8265Y6792
X8186Y6731
X8174Y6632
Y6532
T02
X1001Y315
X1601
X2201
X2801
Y1515
X2201
X1601
X1001
X401
X701Y915
X1301
Y2115
X701
X3401Y315
X4001
X4601
X5201
X5801
X6401
X7001
X6701Y2115
X4901Y915
X7301
X7901
X7601Y315
X7901Y2115
X7601Y2715
X7901Y3315
X7301
X7601Y3915
X7901Y4515
X7301
X7901Y5715
X6701
Y4515
X6101
X5501
X5201Y3915
X5801
X6401
X7001
X6701Y3315
X6101
X5501
X4901
X4601Y2715
X5201
X5801
X5501Y5715
X4901
X2801Y6315
X1901Y5715
Y4515
X1301
X701
X401Y5115
X1001
X701Y5715
X401Y6315
X1001
Y3915
X1601
X2201
X2801
X3101Y3315
X2501
X1901
X1301
X701
X2201Y2715
X2801
X2501Y4515
Y6915
X1901
X1301
X701
X401Y7515
X1001
X1601
X2201
X2801
X3101Y6915
X3401Y7515
X4001
X4601
X5201
X5801
X6401
X7001
X6701Y6915
X6101
X5501
X4901
X7301
X7901
X7601Y7515
T03
X149Y273
X149Y447
X273Y571
X447Y571
X571Y447
X571Y273
X447Y149
X273Y149
Y2349
X447Y2349
X571Y2473
X149
X7934
X8057Y2349
X8232Y2349
X8356Y2473
X8351Y447
X8351Y273
X8227Y149
X8053Y149
X7929Y273
X7929Y447
X8053Y571
X8227Y571
X8232Y2771
X8057Y2771
X7934Y2647
X8356
X8227Y3429
X8053Y3429
X7929Y3553
X7929Y3727
X8053Y3851
X8227Y3851
X8351Y3727
X8351Y3553
X571
X571Y3727
X447Y3851
X273Y3851
X149Y3727
X149Y3553
X273Y3429
X447Y3429
Y2771
X273Y2771
X149Y2647
X571
X447Y7929
X273Y7929
X149Y8053
X149Y8227
X273Y8351
X447Y8351
X571Y8227
X571Y8053
X7929
X7929Y8227
X8053Y8351
X8227Y8351
X8351Y8227
X8351Y8053
X8227Y7929
X8053Y7929
T04
X1066Y659
X1485
Y1331
X1904
Y2004
X1485
X1066Y1331
T05
X4877Y628
X5004
X5131
T06
X360Y360
X8140
X8145Y2560
X8140Y3640
X360
Y2560
Y8140
X8140
M30
