G04*
G04 #@! TF.GenerationSoftware,Altium Limited,Altium Designer,24.1.2 (44)*
G04*
G04 Layer_Physical_Order=4*
G04 Layer_Color=16711680*
%FSLAX44Y44*%
%MOMM*%
G71*
G04*
G04 #@! TF.SameCoordinates,52C518B6-3B34-4F5E-B58B-C532D04EA081*
G04*
G04*
G04 #@! TF.FilePolarity,Positive*
G04*
G01*
G75*
%ADD18C,0.2540*%
%ADD39C,1.2700*%
%ADD62C,0.4000*%
%ADD63R,1.0500X1.0500*%
%ADD64C,1.0500*%
%ADD65C,0.4000*%
%ADD66C,6.3500*%
%ADD67C,1.0000*%
%ADD68C,1.2000*%
%ADD69C,6.0000*%
%ADD70C,0.5000*%
%ADD71C,0.9000*%
%ADD72R,1.1938X0.7620*%
%ADD73R,2.4892X3.0988*%
G36*
X843526Y840146D02*
X842830D01*
X842117Y839851D01*
X843464Y838504D01*
X841668Y836708D01*
X840321Y838055D01*
X840026Y837342D01*
Y835950D01*
X840321Y835237D01*
X841668Y836584D01*
X843464Y834788D01*
X842117Y833441D01*
X842830Y833146D01*
X843526D01*
Y830146D01*
X842830D01*
X842117Y829851D01*
X843464Y828504D01*
X841668Y826708D01*
X840321Y828055D01*
X840026Y827342D01*
Y825950D01*
X840321Y825238D01*
X841668Y826584D01*
X843464Y824788D01*
X842117Y823441D01*
X842830Y823146D01*
X843526D01*
Y820146D01*
X842830D01*
X842117Y819851D01*
X843464Y818504D01*
X841668Y816709D01*
X840321Y818055D01*
X840026Y817343D01*
Y815950D01*
X840321Y815238D01*
X841668Y816584D01*
X843464Y814788D01*
X842117Y813441D01*
X842830Y813146D01*
X843526D01*
Y810146D01*
X842830D01*
X842117Y809851D01*
X843464Y808504D01*
X841668Y806709D01*
X840321Y808055D01*
X840026Y807343D01*
Y805950D01*
X840321Y805238D01*
X841668Y806584D01*
X843464Y804788D01*
X842117Y803441D01*
X842830Y803146D01*
X843526D01*
Y800146D01*
X842830D01*
X842117Y799851D01*
X843464Y798504D01*
X841668Y796709D01*
X840321Y798055D01*
X840026Y797343D01*
Y795950D01*
X840321Y795238D01*
X841668Y796584D01*
X843464Y794788D01*
X842117Y793441D01*
X842830Y793146D01*
X843526D01*
Y790146D01*
X842830D01*
X842117Y789851D01*
X843464Y788505D01*
X841668Y786709D01*
X840321Y788055D01*
X840026Y787343D01*
Y785950D01*
X840321Y785238D01*
X841668Y786584D01*
X843464Y784788D01*
X842117Y783441D01*
X842830Y783146D01*
X843526D01*
Y781000D01*
X809293D01*
Y781000D01*
X807438Y781000D01*
X803761Y781484D01*
X800179Y782444D01*
X796752Y783863D01*
X793540Y785718D01*
X790598Y787975D01*
X787975Y790598D01*
X785718Y793540D01*
X783863Y796752D01*
X782444Y800179D01*
X781484Y803761D01*
X781000Y807438D01*
X781000Y809293D01*
X781000Y841582D01*
X781517Y842830D01*
Y843526D01*
X784517D01*
Y842830D01*
X784812Y842117D01*
X786159Y843464D01*
X787955Y841668D01*
X786608Y840321D01*
X787321Y840026D01*
X788713D01*
X789426Y840321D01*
X788079Y841668D01*
X789875Y843464D01*
X791222Y842117D01*
X791517Y842830D01*
Y843526D01*
X794517D01*
Y842830D01*
X794812Y842117D01*
X796159Y843464D01*
X797955Y841668D01*
X796608Y840321D01*
X797321Y840026D01*
X798713D01*
X799426Y840321D01*
X798079Y841668D01*
X799875Y843464D01*
X801222Y842117D01*
X801517Y842830D01*
Y843526D01*
X804517D01*
Y842830D01*
X804812Y842117D01*
X806159Y843464D01*
X807955Y841668D01*
X806608Y840321D01*
X807321Y840026D01*
X808713D01*
X809426Y840321D01*
X808079Y841668D01*
X809875Y843464D01*
X811222Y842117D01*
X811517Y842830D01*
Y843526D01*
X814517D01*
Y842830D01*
X814812Y842117D01*
X816159Y843464D01*
X817955Y841668D01*
X816608Y840321D01*
X817321Y840026D01*
X818713D01*
X819426Y840321D01*
X818079Y841668D01*
X819875Y843464D01*
X821222Y842117D01*
X821517Y842830D01*
Y843526D01*
X824517D01*
Y842830D01*
X824812Y842117D01*
X826159Y843464D01*
X827955Y841668D01*
X826608Y840321D01*
X827321Y840026D01*
X828713D01*
X829426Y840321D01*
X828079Y841668D01*
X829875Y843464D01*
X831222Y842117D01*
X831517Y842830D01*
Y843526D01*
X834517D01*
Y842833D01*
X834812Y842121D01*
X836159Y843467D01*
X837955Y841671D01*
X836608Y840324D01*
X837321Y840029D01*
X838713D01*
X839426Y840324D01*
X838079Y841671D01*
X839875Y843467D01*
X841222Y842121D01*
X841517Y842833D01*
Y843526D01*
X843526D01*
Y840146D01*
D02*
G37*
G36*
X64518Y842830D02*
X64813Y842117D01*
X66160Y843464D01*
X67956Y841668D01*
X66610Y840321D01*
X67322Y840026D01*
X68714D01*
X69000Y839835D01*
Y809293D01*
X69000D01*
X69000Y807438D01*
X68516Y803761D01*
X67556Y800179D01*
X66137Y796752D01*
X64282Y793540D01*
X62024Y790598D01*
X59402Y787975D01*
X56460Y785718D01*
X53248Y783863D01*
X49821Y782444D01*
X46239Y781484D01*
X42562Y781000D01*
X40707Y781000D01*
X11080Y781000D01*
X9974Y782270D01*
Y782789D01*
X9679Y783502D01*
X8332Y782155D01*
X6536Y783951D01*
X7883Y785298D01*
X7171Y785593D01*
X6474D01*
Y788593D01*
X7171D01*
X7883Y788888D01*
X6536Y790235D01*
X8332Y792031D01*
X9679Y790684D01*
X9974Y791397D01*
Y792789D01*
X9679Y793502D01*
X8332Y792155D01*
X6536Y793951D01*
X7883Y795298D01*
X7171Y795593D01*
X6474D01*
Y798593D01*
X7171D01*
X7883Y798888D01*
X6536Y800235D01*
X8332Y802031D01*
X9679Y800684D01*
X9974Y801397D01*
Y802789D01*
X9679Y803502D01*
X8332Y802155D01*
X6536Y803951D01*
X7883Y805298D01*
X7171Y805593D01*
X6474D01*
Y808593D01*
X7171D01*
X7883Y808888D01*
X6536Y810235D01*
X8332Y812031D01*
X9679Y810684D01*
X9974Y811397D01*
Y812789D01*
X9679Y813502D01*
X8332Y812155D01*
X6536Y813951D01*
X7883Y815298D01*
X7171Y815593D01*
X6474D01*
Y818593D01*
X7171D01*
X7883Y818888D01*
X6536Y820235D01*
X8332Y822031D01*
X9679Y820684D01*
X9974Y821397D01*
Y822789D01*
X9679Y823502D01*
X8332Y822155D01*
X6536Y823951D01*
X7883Y825298D01*
X7171Y825593D01*
X6474D01*
Y828593D01*
X7171D01*
X7883Y828888D01*
X6536Y830235D01*
X8332Y832031D01*
X9679Y830684D01*
X9974Y831397D01*
Y832789D01*
X9679Y833502D01*
X8332Y832155D01*
X6536Y833951D01*
X7883Y835298D01*
X7171Y835593D01*
X6474D01*
Y837803D01*
X7447Y838453D01*
X8839D01*
X9552Y838748D01*
X8205Y840095D01*
X10001Y841891D01*
X11348Y840544D01*
X11643Y841257D01*
Y842649D01*
X12229Y843526D01*
X14518D01*
Y842830D01*
X14814Y842117D01*
X16160Y843464D01*
X17956Y841668D01*
X16610Y840321D01*
X17322Y840026D01*
X18715D01*
X19427Y840321D01*
X18081Y841668D01*
X19877Y843464D01*
X21223Y842117D01*
X21518Y842830D01*
Y843526D01*
X24518D01*
Y842830D01*
X24814Y842117D01*
X26160Y843464D01*
X27956Y841668D01*
X26610Y840321D01*
X27322Y840026D01*
X28715D01*
X29427Y840321D01*
X28081Y841668D01*
X29877Y843464D01*
X31223Y842117D01*
X31518Y842830D01*
Y843526D01*
X34518D01*
Y842830D01*
X34813Y842117D01*
X36160Y843464D01*
X37956Y841668D01*
X36610Y840321D01*
X37322Y840026D01*
X38715D01*
X39427Y840321D01*
X38080Y841668D01*
X39877Y843464D01*
X41223Y842117D01*
X41518Y842830D01*
Y843526D01*
X44518D01*
Y842830D01*
X44813Y842117D01*
X46160Y843464D01*
X47956Y841668D01*
X46610Y840321D01*
X47322Y840026D01*
X48714D01*
X49427Y840321D01*
X48081Y841668D01*
X49877Y843464D01*
X51223Y842117D01*
X51518Y842830D01*
Y843526D01*
X54518D01*
Y842830D01*
X54813Y842117D01*
X56160Y843464D01*
X57956Y841668D01*
X56610Y840321D01*
X57322Y840026D01*
X58714D01*
X59427Y840321D01*
X58081Y841668D01*
X59877Y843464D01*
X61223Y842117D01*
X61518Y842830D01*
Y843526D01*
X64518D01*
Y842830D01*
D02*
G37*
G36*
X779376Y809293D02*
X779376Y807438D01*
X779419Y807335D01*
X779390Y807226D01*
X779874Y803549D01*
X779930Y803452D01*
X779916Y803341D01*
X780876Y799759D01*
X780944Y799669D01*
Y799557D01*
X782363Y796131D01*
X782443Y796052D01*
X782457Y795940D01*
X784312Y792729D01*
X784401Y792660D01*
X784430Y792552D01*
X786687Y789610D01*
X786785Y789554D01*
X786827Y789450D01*
X789450Y786827D01*
X789554Y786785D01*
X789610Y786687D01*
X792552Y784430D01*
X792660Y784400D01*
X792729Y784312D01*
X795940Y782457D01*
X796052Y782443D01*
X796131Y782363D01*
X799557Y780944D01*
X799669D01*
X799759Y780876D01*
X803341Y779916D01*
X803452Y779930D01*
X803549Y779874D01*
X807226Y779390D01*
X807335Y779419D01*
X807438Y779376D01*
X809293Y779376D01*
X809293Y779376D01*
X835232D01*
Y687825D01*
X828860D01*
X828860Y687853D01*
X824998Y687472D01*
X821285Y686346D01*
X817862Y684517D01*
X814863Y682055D01*
X812401Y679055D01*
X810572Y675633D01*
X809445Y671919D01*
X809065Y668057D01*
X809092D01*
Y515497D01*
X809065D01*
X809445Y511635D01*
X810572Y507922D01*
X812401Y504499D01*
X814863Y501500D01*
X817862Y499038D01*
X821285Y497209D01*
X824998Y496082D01*
X828860Y495702D01*
X828860Y495729D01*
X835232D01*
Y388808D01*
X834079Y388276D01*
X832572Y389563D01*
X828345Y392154D01*
X823764Y394051D01*
X818943Y395208D01*
X814000Y395597D01*
X809057Y395208D01*
X804236Y394051D01*
X799655Y392154D01*
X795427Y389563D01*
X791657Y386343D01*
X788437Y382573D01*
X785846Y378345D01*
X783949Y373764D01*
X782792Y368943D01*
X782403Y364000D01*
X782792Y359057D01*
X783949Y354236D01*
X785846Y349655D01*
X788437Y345428D01*
X791657Y341657D01*
X795427Y338437D01*
X799655Y335846D01*
X804236Y333949D01*
X809057Y332792D01*
X814000Y332403D01*
X818943Y332792D01*
X823764Y333949D01*
X828345Y335846D01*
X832572Y338437D01*
X834079Y339724D01*
X835232Y339192D01*
Y283514D01*
X834620Y283231D01*
X833962Y283056D01*
X829619Y285718D01*
X824783Y287720D01*
X819694Y288942D01*
X814477Y289353D01*
X809259Y288942D01*
X804170Y287720D01*
X799335Y285718D01*
X794873Y282983D01*
X790893Y279584D01*
X787494Y275604D01*
X784759Y271142D01*
X782757Y266307D01*
X781535Y261217D01*
X781124Y256000D01*
X781535Y250783D01*
X782757Y245693D01*
X784759Y240858D01*
X787494Y236396D01*
X790893Y232416D01*
X794873Y229017D01*
X799335Y226282D01*
X804170Y224280D01*
X809259Y223058D01*
X814477Y222647D01*
X819694Y223058D01*
X824783Y224280D01*
X829619Y226282D01*
X833962Y228944D01*
X834620Y228769D01*
X835232Y228486D01*
Y70624D01*
X809293Y70624D01*
X807438Y70624D01*
X807335Y70581D01*
X807226Y70610D01*
X803549Y70126D01*
X803452Y70069D01*
X803341Y70084D01*
X799759Y69124D01*
X799669Y69056D01*
X799557D01*
X796131Y67637D01*
X796052Y67557D01*
X795940Y67543D01*
X792729Y65688D01*
X792660Y65599D01*
X792552Y65570D01*
X789610Y63313D01*
X789554Y63215D01*
X789450Y63173D01*
X786827Y60550D01*
X786785Y60447D01*
X786687Y60390D01*
X784430Y57448D01*
X784400Y57340D01*
X784312Y57271D01*
X782457Y54060D01*
X782443Y53948D01*
X782363Y53869D01*
X780944Y50443D01*
Y50331D01*
X780876Y50241D01*
X779916Y46659D01*
X779930Y46548D01*
X779874Y46451D01*
X779390Y42774D01*
X779419Y42665D01*
X779376Y42562D01*
X779376Y40707D01*
X779376Y40707D01*
Y14768D01*
X70624D01*
Y40707D01*
X70624Y40708D01*
X70624Y42562D01*
X70581Y42665D01*
X70610Y42774D01*
X70126Y46451D01*
X70069Y46548D01*
X70084Y46659D01*
X69124Y50241D01*
X69056Y50331D01*
Y50443D01*
X67637Y53869D01*
X67557Y53948D01*
X67543Y54060D01*
X65688Y57271D01*
X65599Y57340D01*
X65570Y57448D01*
X63313Y60390D01*
X63215Y60447D01*
X63173Y60550D01*
X60550Y63173D01*
X60447Y63215D01*
X60390Y63313D01*
X57448Y65570D01*
X57340Y65599D01*
X57271Y65688D01*
X54060Y67543D01*
X53948Y67557D01*
X53869Y67637D01*
X50443Y69056D01*
X50331D01*
X50241Y69124D01*
X46659Y70084D01*
X46548Y70069D01*
X46451Y70126D01*
X42774Y70610D01*
X42665Y70581D01*
X42562Y70624D01*
X40707Y70624D01*
X14768Y70624D01*
Y231192D01*
X15921Y231724D01*
X17428Y230437D01*
X21655Y227847D01*
X26236Y225949D01*
X31057Y224792D01*
X36000Y224403D01*
X40943Y224792D01*
X45764Y225949D01*
X50345Y227847D01*
X54573Y230437D01*
X58343Y233657D01*
X61563Y237428D01*
X64153Y241655D01*
X66051Y246236D01*
X67208Y251057D01*
X67597Y256000D01*
X67208Y260943D01*
X66051Y265764D01*
X64153Y270345D01*
X61563Y274573D01*
X58343Y278343D01*
X54573Y281563D01*
X50345Y284153D01*
X45764Y286051D01*
X40943Y287208D01*
X36000Y287597D01*
X31057Y287208D01*
X26236Y286051D01*
X21655Y284153D01*
X17428Y281563D01*
X15921Y280276D01*
X14768Y280808D01*
Y339192D01*
X15921Y339724D01*
X17428Y338437D01*
X21655Y335846D01*
X26236Y333949D01*
X31057Y332792D01*
X36000Y332403D01*
X40943Y332792D01*
X45764Y333949D01*
X50345Y335846D01*
X54573Y338437D01*
X58343Y341657D01*
X61563Y345428D01*
X64153Y349655D01*
X66051Y354236D01*
X67208Y359057D01*
X67597Y364000D01*
X67208Y368943D01*
X66051Y373764D01*
X64153Y378345D01*
X61563Y382573D01*
X58343Y386343D01*
X54573Y389563D01*
X50345Y392154D01*
X45764Y394051D01*
X40943Y395208D01*
X36000Y395597D01*
X31057Y395208D01*
X26236Y394051D01*
X21655Y392154D01*
X17428Y389563D01*
X15921Y388276D01*
X14768Y388808D01*
Y779376D01*
X40707Y779376D01*
X42562Y779376D01*
X42665Y779419D01*
X42774Y779390D01*
X46451Y779874D01*
X46548Y779930D01*
X46659Y779916D01*
X50241Y780876D01*
X50331Y780944D01*
X50443D01*
X53869Y782363D01*
X53948Y782443D01*
X54060Y782457D01*
X57271Y784312D01*
X57340Y784401D01*
X57448Y784430D01*
X60390Y786687D01*
X60447Y786785D01*
X60550Y786827D01*
X63173Y789450D01*
X63215Y789554D01*
X63313Y789610D01*
X65570Y792552D01*
X65599Y792660D01*
X65688Y792729D01*
X67543Y795940D01*
X67557Y796052D01*
X67637Y796131D01*
X69056Y799557D01*
Y799669D01*
X69124Y799759D01*
X70084Y803341D01*
X70069Y803452D01*
X70126Y803549D01*
X70610Y807226D01*
X70581Y807335D01*
X70624Y807438D01*
X70624Y809292D01*
X70624Y809293D01*
Y835232D01*
X779376D01*
X779376Y809293D01*
D02*
G37*
G36*
X841543Y68424D02*
X842830Y67891D01*
X843526D01*
Y64891D01*
X842830D01*
X842117Y64596D01*
X843464Y63249D01*
X841668Y61453D01*
X840321Y62800D01*
X840026Y62087D01*
Y60695D01*
X840321Y59982D01*
X841668Y61329D01*
X843464Y59533D01*
X842117Y58186D01*
X842830Y57891D01*
X843526D01*
Y54891D01*
X842830D01*
X842117Y54596D01*
X843464Y53249D01*
X841668Y51453D01*
X840321Y52800D01*
X840026Y52087D01*
Y50695D01*
X840321Y49982D01*
X841668Y51329D01*
X843464Y49533D01*
X842117Y48186D01*
X842830Y47891D01*
X843526D01*
Y44891D01*
X842830D01*
X842117Y44596D01*
X843464Y43249D01*
X841668Y41453D01*
X840321Y42800D01*
X840026Y42087D01*
Y40695D01*
X840321Y39982D01*
X841668Y41329D01*
X843464Y39533D01*
X842117Y38186D01*
X842830Y37891D01*
X843526D01*
Y34891D01*
X842830D01*
X842117Y34596D01*
X843464Y33249D01*
X841668Y31453D01*
X840321Y32800D01*
X840026Y32087D01*
Y30695D01*
X840321Y29982D01*
X841668Y31329D01*
X843464Y29533D01*
X842117Y28186D01*
X842830Y27891D01*
X843526D01*
Y24891D01*
X842830D01*
X842117Y24596D01*
X843464Y23249D01*
X841668Y21453D01*
X840321Y22800D01*
X840026Y22087D01*
Y20695D01*
X840321Y19982D01*
X841668Y21329D01*
X843464Y19533D01*
X842117Y18186D01*
X842830Y17891D01*
X843526D01*
Y14891D01*
X842755D01*
X842042Y14596D01*
X843389Y13250D01*
X841593Y11454D01*
X840246Y12800D01*
X839951Y12088D01*
Y10695D01*
X840246Y9983D01*
X841593Y11329D01*
X843389Y9533D01*
X842042Y8187D01*
X842755Y7891D01*
X843526D01*
Y6474D01*
X838244D01*
Y7171D01*
X837949Y7883D01*
X836602Y6536D01*
X834806Y8332D01*
X836152Y9679D01*
X835440Y9974D01*
X834047D01*
X833335Y9679D01*
X834681Y8332D01*
X832886Y6536D01*
X831539Y7883D01*
X831244Y7171D01*
Y6474D01*
X828244D01*
Y7171D01*
X827949Y7883D01*
X826602Y6536D01*
X824806Y8332D01*
X826152Y9679D01*
X825440Y9974D01*
X824047D01*
X823335Y9679D01*
X824681Y8332D01*
X822886Y6536D01*
X821539Y7883D01*
X821244Y7171D01*
Y6474D01*
X818244D01*
Y7171D01*
X817949Y7883D01*
X816602Y6536D01*
X814806Y8332D01*
X816152Y9679D01*
X815440Y9974D01*
X814047D01*
X813335Y9679D01*
X814682Y8332D01*
X812886Y6536D01*
X811539Y7883D01*
X811244Y7171D01*
Y6474D01*
X808244D01*
Y7171D01*
X807949Y7883D01*
X806602Y6536D01*
X804806Y8332D01*
X806152Y9679D01*
X805440Y9974D01*
X804048D01*
X803335Y9679D01*
X804682Y8332D01*
X802886Y6536D01*
X801539Y7883D01*
X801244Y7171D01*
Y6474D01*
X798244D01*
Y7171D01*
X797949Y7883D01*
X796602Y6536D01*
X794806Y8332D01*
X796153Y9679D01*
X795440Y9974D01*
X794048D01*
X793335Y9679D01*
X794682Y8332D01*
X792886Y6536D01*
X791539Y7883D01*
X791244Y7171D01*
Y6474D01*
X788244D01*
Y7171D01*
X787949Y7883D01*
X786602Y6536D01*
X784806Y8332D01*
X786153Y9679D01*
X785440Y9974D01*
X784048D01*
X782761Y9441D01*
X782270Y8950D01*
X781000Y9476D01*
Y40707D01*
X781000Y40707D01*
X781000Y40707D01*
X781000Y42562D01*
X781484Y46239D01*
X782444Y49821D01*
X783863Y53248D01*
X785718Y56460D01*
X787975Y59402D01*
X790598Y62024D01*
X793540Y64282D01*
X796752Y66137D01*
X800179Y67556D01*
X803761Y68516D01*
X807438Y69000D01*
X809293Y69000D01*
X840967Y69000D01*
X841543Y68424D01*
D02*
G37*
G36*
X40707Y69000D02*
X42562Y69000D01*
X46239Y68516D01*
X49821Y67556D01*
X53248Y66137D01*
X56460Y64282D01*
X59402Y62024D01*
X62024Y59402D01*
X64282Y56460D01*
X66137Y53248D01*
X67556Y49821D01*
X68516Y46239D01*
X69000Y42562D01*
X69000Y40707D01*
X69000D01*
X69000Y40707D01*
Y8667D01*
X68668Y8601D01*
X66603Y6536D01*
X64807Y8332D01*
X66154Y9679D01*
X65441Y9974D01*
X64049D01*
X63336Y9679D01*
X64683Y8332D01*
X62887Y6536D01*
X61540Y7883D01*
X61245Y7171D01*
Y6474D01*
X58245D01*
Y7171D01*
X57950Y7883D01*
X56603Y6536D01*
X54807Y8332D01*
X56154Y9679D01*
X55441Y9974D01*
X54049D01*
X53337Y9679D01*
X54683Y8332D01*
X52887Y6536D01*
X51540Y7883D01*
X51245Y7171D01*
Y6474D01*
X48245D01*
Y7171D01*
X47950Y7883D01*
X46603Y6536D01*
X44808Y8332D01*
X46154Y9679D01*
X45441Y9974D01*
X44049D01*
X43337Y9679D01*
X44683Y8332D01*
X42887Y6536D01*
X41540Y7883D01*
X41245Y7171D01*
Y6474D01*
X38245D01*
Y7171D01*
X37950Y7883D01*
X36604Y6536D01*
X34808Y8332D01*
X36154Y9679D01*
X35442Y9974D01*
X34049D01*
X33337Y9679D01*
X34683Y8332D01*
X32887Y6536D01*
X31541Y7883D01*
X31245Y7171D01*
Y6474D01*
X28245D01*
Y7171D01*
X27950Y7883D01*
X26604Y6536D01*
X24808Y8332D01*
X26154Y9679D01*
X25442Y9974D01*
X24049D01*
X23337Y9679D01*
X24683Y8332D01*
X22887Y6536D01*
X21541Y7883D01*
X21245Y7171D01*
Y6474D01*
X18245D01*
Y7171D01*
X17950Y7883D01*
X16604Y6536D01*
X14807Y8332D01*
X16154Y9679D01*
X15441Y9974D01*
X14049D01*
X13336Y9679D01*
X14683Y8332D01*
X12887Y6536D01*
X11540Y7883D01*
X11245Y7171D01*
Y6474D01*
X6474D01*
Y8595D01*
X7171D01*
X7883Y8890D01*
X6536Y10237D01*
X8332Y12033D01*
X9679Y10686D01*
X9974Y11399D01*
Y12791D01*
X9679Y13504D01*
X8332Y12157D01*
X6536Y13953D01*
X7883Y15300D01*
X7171Y15595D01*
X6474D01*
Y18595D01*
X7171D01*
X7883Y18890D01*
X6536Y20236D01*
X8332Y22032D01*
X9679Y20686D01*
X9974Y21398D01*
Y22791D01*
X9679Y23503D01*
X8332Y22157D01*
X6536Y23953D01*
X7883Y25299D01*
X7171Y25595D01*
X6474D01*
Y28595D01*
X7171D01*
X7883Y28890D01*
X6536Y30236D01*
X8332Y32032D01*
X9679Y30686D01*
X9974Y31398D01*
Y32791D01*
X9679Y33503D01*
X8332Y32157D01*
X6536Y33953D01*
X7883Y35299D01*
X7171Y35595D01*
X6474D01*
Y38595D01*
X7171D01*
X7883Y38890D01*
X6536Y40236D01*
X8332Y42032D01*
X9679Y40686D01*
X9974Y41398D01*
Y42791D01*
X9679Y43503D01*
X8332Y42157D01*
X6536Y43953D01*
X7883Y45300D01*
X7171Y45595D01*
X6474D01*
Y48595D01*
X7171D01*
X7883Y48890D01*
X6536Y50236D01*
X8332Y52032D01*
X9679Y50686D01*
X9974Y51398D01*
Y52791D01*
X9679Y53503D01*
X8332Y52157D01*
X6536Y53953D01*
X7883Y55299D01*
X7171Y55595D01*
X6474D01*
Y58595D01*
X7171D01*
X7883Y58890D01*
X6536Y60236D01*
X8332Y62032D01*
X9679Y60686D01*
X9974Y61398D01*
Y62791D01*
X9679Y63503D01*
X8332Y62157D01*
X6536Y63953D01*
X7883Y65299D01*
X7171Y65595D01*
X6474D01*
Y68595D01*
X7171D01*
X8149Y69000D01*
X40707Y69000D01*
D02*
G37*
%LPC*%
G36*
X367546Y744184D02*
X366154D01*
X364867Y743651D01*
X364725Y743508D01*
X292940D01*
X292940Y743508D01*
X291859Y743293D01*
X290943Y742681D01*
X290943Y742681D01*
X276086Y727824D01*
X263907D01*
Y730310D01*
X248969D01*
X248286Y731297D01*
Y731994D01*
X220394D01*
Y731297D01*
X219711Y730310D01*
X219124Y730310D01*
X204773D01*
Y719690D01*
X219124D01*
X219711Y719690D01*
X220394Y718703D01*
Y711297D01*
X219711Y710310D01*
X219124Y710310D01*
X213512D01*
Y708622D01*
X210972D01*
Y710310D01*
X204773D01*
Y706270D01*
X206461D01*
Y703730D01*
X204773D01*
Y699690D01*
X210972D01*
Y701377D01*
X213512D01*
Y699690D01*
X219124D01*
X219711Y699690D01*
X220394Y698703D01*
Y698006D01*
X248286D01*
Y698703D01*
X248969Y699690D01*
X263907D01*
Y710310D01*
X259262D01*
Y719690D01*
X263907D01*
Y722176D01*
X277256D01*
X277256Y722176D01*
X278337Y722391D01*
X279253Y723003D01*
X294110Y737860D01*
X364725D01*
X364867Y737717D01*
X366154Y737184D01*
X367546D01*
X368833Y737717D01*
X369817Y738701D01*
X370350Y739988D01*
Y741380D01*
X369817Y742667D01*
X368833Y743651D01*
X367546Y744184D01*
D02*
G37*
G36*
X382546D02*
X381154D01*
X379868Y743651D01*
X378883Y742667D01*
X378350Y741380D01*
Y739988D01*
X378883Y738701D01*
X379026Y738559D01*
Y731117D01*
X375733Y727824D01*
X357247D01*
Y730310D01*
X342309D01*
X341626Y731297D01*
Y731994D01*
X313734D01*
Y731297D01*
X313051Y730310D01*
X312464Y730310D01*
X298113D01*
Y719690D01*
X312464D01*
X313051Y719690D01*
X313734Y718703D01*
Y711297D01*
X313051Y710310D01*
X312464Y710310D01*
X306852D01*
Y708622D01*
X304312D01*
Y710310D01*
X298113D01*
Y706270D01*
X299801D01*
Y703730D01*
X298113D01*
Y699690D01*
X304312D01*
Y701377D01*
X306852D01*
Y699690D01*
X312464D01*
X313051Y699690D01*
X313734Y698703D01*
Y698006D01*
X341626D01*
Y698703D01*
X342309Y699690D01*
X357247D01*
Y710310D01*
X352602D01*
Y719690D01*
X357247D01*
Y722176D01*
X376903D01*
X376903Y722176D01*
X377984Y722391D01*
X378900Y723003D01*
X383847Y727950D01*
X384459Y728866D01*
X384674Y729947D01*
X384674Y729947D01*
Y738559D01*
X384817Y738701D01*
X385350Y739988D01*
Y741380D01*
X384817Y742667D01*
X383833Y743651D01*
X382546Y744184D01*
D02*
G37*
G36*
X404556Y737524D02*
X403164D01*
X401877Y736991D01*
X400893Y736007D01*
X400360Y734720D01*
Y733328D01*
X400893Y732041D01*
X401354Y731580D01*
X400828Y730310D01*
X391453D01*
Y719690D01*
X399583D01*
X400432Y718420D01*
X400360Y718246D01*
Y716854D01*
X400893Y715567D01*
X401877Y714583D01*
X403164Y714050D01*
X404556D01*
X405843Y714583D01*
X407074Y714018D01*
Y711297D01*
X406391Y710310D01*
X405804Y710310D01*
X400192D01*
Y708622D01*
X397652D01*
Y710310D01*
X391453D01*
Y706270D01*
X393141D01*
Y703730D01*
X391453D01*
Y699690D01*
X393884D01*
X394410Y698420D01*
X393949Y697959D01*
X393416Y696672D01*
Y695280D01*
X393949Y693993D01*
X394933Y693009D01*
X396220Y692476D01*
X396422D01*
X410175Y678723D01*
X410175Y678723D01*
X411091Y678111D01*
X412172Y677896D01*
X543024D01*
X562920Y658000D01*
Y657798D01*
X563453Y656511D01*
X564437Y655527D01*
X565724Y654994D01*
X567116D01*
X568403Y655527D01*
X569387Y656511D01*
X569920Y657798D01*
Y659190D01*
X569387Y660477D01*
X568403Y661461D01*
X567116Y661994D01*
X566914D01*
X546191Y682717D01*
X545275Y683329D01*
X544194Y683544D01*
X544194Y683544D01*
X413342D01*
X400416Y696470D01*
Y696672D01*
X399883Y697959D01*
X399422Y698420D01*
X399948Y699690D01*
X405804D01*
X406391Y699690D01*
X407074Y698703D01*
Y698006D01*
X410963D01*
X411239Y696839D01*
X411241Y696736D01*
X410275Y695770D01*
X409742Y694483D01*
Y693091D01*
X410275Y691804D01*
X411259Y690820D01*
X412545Y690287D01*
X413938D01*
X415224Y690820D01*
X416209Y691804D01*
X416742Y693091D01*
Y694483D01*
X416209Y695770D01*
X415242Y696736D01*
X415244Y696839D01*
X415521Y698006D01*
X434966D01*
Y698703D01*
X435649Y699690D01*
X450587D01*
Y710310D01*
X445942D01*
Y719690D01*
X450587D01*
Y724676D01*
X452874D01*
X453016Y724533D01*
X454303Y724000D01*
X455695D01*
X456982Y724533D01*
X457966Y725517D01*
X458499Y726804D01*
Y728196D01*
X457966Y729483D01*
X456982Y730467D01*
X455695Y731000D01*
X454303D01*
X453016Y730467D01*
X452874Y730324D01*
X445618D01*
X445618Y730324D01*
X445618Y730324D01*
X434966D01*
Y731994D01*
X408182D01*
X407333Y733264D01*
X407360Y733328D01*
Y734720D01*
X406827Y736007D01*
X405843Y736991D01*
X404556Y737524D01*
D02*
G37*
G36*
X528306Y731994D02*
X500414D01*
Y731297D01*
X499731Y730310D01*
X499144Y730310D01*
X484793D01*
Y719690D01*
X499144D01*
X499731Y719690D01*
X500414Y718703D01*
Y711297D01*
X499731Y710310D01*
X499144Y710310D01*
X493532D01*
Y708622D01*
X490992D01*
Y710310D01*
X484793D01*
Y706270D01*
X486481D01*
Y703730D01*
X484793D01*
Y699690D01*
X490992D01*
Y701377D01*
X493532D01*
Y699690D01*
X499144D01*
X499731Y699690D01*
X500414Y698703D01*
Y698006D01*
X528306D01*
Y698703D01*
X528989Y699690D01*
X543927D01*
Y710310D01*
X539282D01*
Y719690D01*
X543927D01*
Y722176D01*
X545499D01*
X545641Y722033D01*
X546928Y721500D01*
X548320D01*
X549607Y722033D01*
X550591Y723017D01*
X551124Y724304D01*
Y725696D01*
X550591Y726982D01*
X549607Y727967D01*
X548320Y728500D01*
X546928D01*
X545641Y727967D01*
X545499Y727824D01*
X543927D01*
Y730310D01*
X528989D01*
X528306Y731297D01*
Y731994D01*
D02*
G37*
G36*
X154946D02*
X127054D01*
Y731297D01*
X126371Y730310D01*
X125784Y730310D01*
X111433D01*
Y719690D01*
X125784D01*
X126371Y719690D01*
X127054Y718703D01*
Y711297D01*
X126371Y710310D01*
X125784Y710310D01*
X120172D01*
Y708622D01*
X117632D01*
Y710310D01*
X111433D01*
Y706270D01*
X113121D01*
Y703730D01*
X111433D01*
Y699690D01*
X117632D01*
Y701377D01*
X120172D01*
Y699690D01*
X125784D01*
X126371Y699690D01*
X127054Y698703D01*
Y698006D01*
X154946D01*
Y698703D01*
X155629Y699690D01*
X170567D01*
Y710310D01*
X165922D01*
Y719690D01*
X170567D01*
Y722176D01*
X172139D01*
X172281Y722033D01*
X173568Y721500D01*
X174960D01*
X176247Y722033D01*
X177231Y723017D01*
X177764Y724304D01*
Y725696D01*
X177231Y726982D01*
X176247Y727967D01*
X174960Y728500D01*
X173568D01*
X172281Y727967D01*
X172139Y727824D01*
X170567D01*
Y730310D01*
X155629D01*
X154946Y731297D01*
Y731994D01*
D02*
G37*
G36*
X621646D02*
X593754D01*
Y731297D01*
X593071Y730310D01*
X592484Y730310D01*
X578133D01*
Y719690D01*
X592484D01*
X593071Y719690D01*
X593754Y718703D01*
Y711297D01*
X593071Y710310D01*
X592484Y710310D01*
X586872D01*
Y708622D01*
X584332D01*
Y710310D01*
X578133D01*
Y706270D01*
X579821D01*
Y703730D01*
X578133D01*
Y699690D01*
X584332D01*
Y701377D01*
X586872D01*
Y699690D01*
X592484D01*
X593071Y699690D01*
X593754Y698703D01*
Y698006D01*
X621646D01*
Y698703D01*
X622329Y699690D01*
X637267D01*
Y702176D01*
X638839D01*
X638981Y702033D01*
X640268Y701500D01*
X641660D01*
X642947Y702033D01*
X643931Y703017D01*
X644464Y704304D01*
Y705696D01*
X643931Y706982D01*
X642947Y707967D01*
X641660Y708500D01*
X640268D01*
X638981Y707967D01*
X638839Y707824D01*
X637267D01*
Y710310D01*
X632622D01*
Y719690D01*
X637267D01*
Y730310D01*
X622329D01*
X621646Y731297D01*
Y731994D01*
D02*
G37*
G36*
X372546Y694314D02*
X371154D01*
X369868Y693781D01*
X368883Y692797D01*
X368350Y691510D01*
Y691358D01*
X367546Y690316D01*
X366154D01*
X364867Y689783D01*
X364725Y689640D01*
X351902D01*
X351761Y689781D01*
X350474Y690314D01*
X349082D01*
X347795Y689781D01*
X346811Y688797D01*
X346278Y687511D01*
Y686118D01*
X346811Y684832D01*
X347795Y683847D01*
X349082Y683314D01*
X350474D01*
X351761Y683847D01*
X351905Y683992D01*
X364725D01*
X364867Y683849D01*
X366154Y683316D01*
X367546D01*
X368833Y683849D01*
X369817Y684833D01*
X370350Y686120D01*
Y686273D01*
X371154Y687314D01*
X372546D01*
X373350Y686273D01*
Y686118D01*
X373883Y684832D01*
X374867Y683847D01*
X376154Y683314D01*
X377546D01*
X378833Y683847D01*
X379817Y684832D01*
X380350Y686118D01*
Y687511D01*
X379817Y688797D01*
X378833Y689781D01*
X377546Y690314D01*
X376154D01*
X375350Y691356D01*
Y691510D01*
X374817Y692797D01*
X373833Y693781D01*
X372546Y694314D01*
D02*
G37*
G36*
X397612Y682950D02*
X396220D01*
X394933Y682417D01*
X393949Y681433D01*
X393416Y680146D01*
Y678754D01*
X393949Y677467D01*
X394933Y676483D01*
X396220Y675950D01*
X397612D01*
X398899Y676483D01*
X399883Y677467D01*
X400416Y678754D01*
Y680146D01*
X399883Y681433D01*
X398899Y682417D01*
X397612Y682950D01*
D02*
G37*
G36*
X321155Y681252D02*
X319762D01*
X318476Y680719D01*
X317491Y679734D01*
X316959Y678448D01*
Y677055D01*
X317491Y675769D01*
X318476Y674784D01*
X319762Y674252D01*
X321155D01*
X322441Y674784D01*
X323426Y675769D01*
X323959Y677055D01*
Y678448D01*
X323426Y679734D01*
X322441Y680719D01*
X321155Y681252D01*
D02*
G37*
G36*
X680680Y680711D02*
X679288D01*
X678001Y680179D01*
X677017Y679194D01*
X676484Y677908D01*
Y676515D01*
X677017Y675229D01*
X678001Y674244D01*
X679288Y673711D01*
X680680D01*
X681967Y674244D01*
X682951Y675229D01*
X683484Y676515D01*
Y677908D01*
X682951Y679194D01*
X681967Y680179D01*
X680680Y680711D01*
D02*
G37*
G36*
X367546Y672184D02*
X366154D01*
X364867Y671651D01*
X364725Y671508D01*
X290739D01*
X290739Y671508D01*
X289658Y671293D01*
X288742Y670681D01*
X288742Y670681D01*
X273885Y655824D01*
X263907D01*
Y658310D01*
X248969D01*
X248286Y659297D01*
Y659994D01*
X220394D01*
Y659297D01*
X219711Y658310D01*
X219124Y658310D01*
X204773D01*
Y647690D01*
X219124D01*
X219711Y647690D01*
X220394Y646703D01*
Y639297D01*
X219711Y638310D01*
X219124Y638310D01*
X213512D01*
Y636622D01*
X210972D01*
Y638310D01*
X204773D01*
Y634270D01*
X206461D01*
Y631730D01*
X204773D01*
Y627690D01*
X210972D01*
Y629378D01*
X213512D01*
Y627690D01*
X219124D01*
X219711Y627690D01*
X220394Y626703D01*
Y626006D01*
X248286D01*
Y626703D01*
X248969Y627690D01*
X263907D01*
Y638310D01*
X259262D01*
Y647690D01*
X263907D01*
Y650176D01*
X275055D01*
X275055Y650176D01*
X276136Y650391D01*
X277052Y651003D01*
X291909Y665860D01*
X364725D01*
X364867Y665717D01*
X366154Y665184D01*
X367546D01*
X368833Y665717D01*
X369817Y666701D01*
X370350Y667988D01*
Y669380D01*
X369817Y670667D01*
X368833Y671651D01*
X367546Y672184D01*
D02*
G37*
G36*
X382546D02*
X381154D01*
X379868Y671651D01*
X378883Y670667D01*
X378350Y669380D01*
Y667988D01*
X378883Y666701D01*
X379026Y666559D01*
Y659117D01*
X375733Y655824D01*
X357247D01*
Y658310D01*
X342309D01*
X341626Y659297D01*
Y659994D01*
X313734D01*
Y659297D01*
X313051Y658310D01*
X312464Y658310D01*
X298113D01*
Y647690D01*
X312464D01*
X313051Y647690D01*
X313734Y646703D01*
Y639297D01*
X313051Y638310D01*
X312464Y638310D01*
X306852D01*
Y636622D01*
X304312D01*
Y638310D01*
X298113D01*
Y634270D01*
X299801D01*
Y631730D01*
X298113D01*
Y627690D01*
X304312D01*
Y629378D01*
X306852D01*
Y627690D01*
X312464D01*
X313051Y627690D01*
X313734Y626703D01*
Y626006D01*
X341626D01*
Y626703D01*
X342309Y627690D01*
X357247D01*
Y638310D01*
X352602D01*
Y647690D01*
X357247D01*
Y650176D01*
X376903D01*
X376903Y650176D01*
X377984Y650391D01*
X378900Y651003D01*
X383847Y655950D01*
X384459Y656867D01*
X384674Y657947D01*
X384674Y657947D01*
Y666559D01*
X384817Y666701D01*
X385350Y667988D01*
Y669380D01*
X384817Y670667D01*
X383833Y671651D01*
X382546Y672184D01*
D02*
G37*
G36*
X404556Y665524D02*
X403164D01*
X401877Y664991D01*
X400893Y664007D01*
X400360Y662720D01*
Y661328D01*
X400893Y660041D01*
X401354Y659580D01*
X400828Y658310D01*
X391453D01*
Y647690D01*
X399583D01*
X400432Y646420D01*
X400360Y646246D01*
Y644854D01*
X400893Y643567D01*
X401877Y642583D01*
X403164Y642050D01*
X404556D01*
X405843Y642583D01*
X407074Y642018D01*
Y639297D01*
X406391Y638310D01*
X405804Y638310D01*
X400192D01*
Y636622D01*
X397652D01*
Y638310D01*
X391453D01*
Y634270D01*
X393141D01*
Y631730D01*
X391453D01*
Y627690D01*
X393884D01*
X394410Y626420D01*
X393949Y625959D01*
X393416Y624672D01*
Y623280D01*
X393949Y621993D01*
X394933Y621009D01*
X396220Y620476D01*
X397612D01*
X398899Y621009D01*
X399883Y621993D01*
X400416Y623280D01*
Y624672D01*
X399883Y625959D01*
X399422Y626420D01*
X399948Y627690D01*
X405804D01*
X406391Y627690D01*
X407074Y626703D01*
Y626006D01*
X410963D01*
X411239Y624840D01*
X411241Y624736D01*
X410275Y623769D01*
X409742Y622483D01*
Y621091D01*
X410275Y619804D01*
X411169Y618910D01*
X411126Y618486D01*
X410788Y617640D01*
X389991D01*
X383847Y623784D01*
X382931Y624396D01*
X381850Y624611D01*
X381850Y624611D01*
X374823D01*
X373742Y624396D01*
X372826Y623784D01*
X372826Y623784D01*
X371356Y622314D01*
X371154D01*
X369868Y621781D01*
X368883Y620797D01*
X368350Y619510D01*
Y619358D01*
X367546Y618316D01*
X366154D01*
X364867Y617783D01*
X364725Y617640D01*
X351902D01*
X351761Y617782D01*
X350474Y618314D01*
X349082D01*
X347795Y617782D01*
X346811Y616797D01*
X346278Y615511D01*
Y614118D01*
X346811Y612832D01*
X347795Y611847D01*
X349082Y611314D01*
X350474D01*
X351761Y611847D01*
X351905Y611992D01*
X364725D01*
X364867Y611849D01*
X366154Y611316D01*
X367546D01*
X368833Y611849D01*
X369817Y612833D01*
X370350Y614120D01*
Y614272D01*
X371154Y615314D01*
X372546D01*
X373350Y614272D01*
Y614118D01*
X373883Y612832D01*
X374867Y611847D01*
X376154Y611314D01*
X377546D01*
X378833Y611847D01*
X379817Y612832D01*
X380350Y614118D01*
Y615511D01*
X379817Y616797D01*
X378922Y617693D01*
X378963Y618111D01*
X379300Y618963D01*
X380680D01*
X386824Y612819D01*
X387740Y612207D01*
X388821Y611992D01*
X388821Y611992D01*
X395416D01*
X395669Y610722D01*
X394933Y610417D01*
X393949Y609433D01*
X393416Y608146D01*
Y606754D01*
X393949Y605467D01*
X394933Y604483D01*
X396220Y603950D01*
X397612D01*
X398899Y604483D01*
X399883Y605467D01*
X400416Y606754D01*
Y608146D01*
X399883Y609433D01*
X398899Y610417D01*
X398163Y610722D01*
X398416Y611992D01*
X642262D01*
X656823Y597431D01*
X656823Y597431D01*
X657739Y596819D01*
X658820Y596604D01*
X677859D01*
X678001Y596461D01*
X679288Y595928D01*
X680680D01*
X681967Y596461D01*
X682951Y597445D01*
X683484Y598732D01*
Y600124D01*
X682951Y601410D01*
X681967Y602395D01*
X680680Y602928D01*
X679288D01*
X678001Y602395D01*
X677859Y602252D01*
X659990D01*
X645429Y616813D01*
X644512Y617425D01*
X643432Y617640D01*
X643432Y617640D01*
X415695D01*
X415358Y618486D01*
X415315Y618910D01*
X416209Y619804D01*
X416742Y621091D01*
Y622483D01*
X416209Y623769D01*
X415242Y624736D01*
X415244Y624840D01*
X415521Y626006D01*
X434966D01*
Y626703D01*
X435649Y627690D01*
X450587D01*
Y638310D01*
X445942D01*
Y647690D01*
X450587D01*
Y652676D01*
X452874D01*
X453016Y652533D01*
X454303Y652000D01*
X455695D01*
X456982Y652533D01*
X457966Y653517D01*
X458499Y654804D01*
Y656196D01*
X457966Y657483D01*
X456982Y658467D01*
X455695Y659000D01*
X454303D01*
X453016Y658467D01*
X452874Y658324D01*
X434966D01*
Y659994D01*
X408182D01*
X407334Y661264D01*
X407360Y661328D01*
Y662720D01*
X406827Y664007D01*
X405843Y664991D01*
X404556Y665524D01*
D02*
G37*
G36*
X528306Y659994D02*
X500414D01*
Y659297D01*
X499731Y658310D01*
X499144Y658310D01*
X484793D01*
Y647690D01*
X499144D01*
X499731Y647690D01*
X500414Y646703D01*
Y639297D01*
X499731Y638310D01*
X499144Y638310D01*
X493532D01*
Y636622D01*
X490992D01*
Y638310D01*
X484793D01*
Y634270D01*
X486481D01*
Y631730D01*
X484793D01*
Y627690D01*
X490992D01*
Y629378D01*
X493532D01*
Y627690D01*
X499144D01*
X499731Y627690D01*
X500414Y626703D01*
Y626006D01*
X528306D01*
Y626703D01*
X528989Y627690D01*
X543927D01*
Y638310D01*
X539282D01*
Y647690D01*
X543927D01*
Y650176D01*
X545499D01*
X545641Y650033D01*
X546928Y649500D01*
X548320D01*
X549607Y650033D01*
X550591Y651017D01*
X551124Y652304D01*
Y653696D01*
X550591Y654983D01*
X549607Y655967D01*
X548320Y656500D01*
X546928D01*
X545641Y655967D01*
X545499Y655824D01*
X543927D01*
Y658310D01*
X528989D01*
X528306Y659297D01*
Y659994D01*
D02*
G37*
G36*
X154946D02*
X127054D01*
Y659297D01*
X126371Y658310D01*
X125784Y658310D01*
X111433D01*
Y647690D01*
X125784D01*
X126371Y647690D01*
X127054Y646703D01*
Y639297D01*
X126371Y638310D01*
X125784Y638310D01*
X120172D01*
Y636622D01*
X117632D01*
Y638310D01*
X111433D01*
Y634270D01*
X113121D01*
Y631730D01*
X111433D01*
Y627690D01*
X117632D01*
Y629378D01*
X120172D01*
Y627690D01*
X125784D01*
X126371Y627690D01*
X127054Y626703D01*
Y626006D01*
X154946D01*
Y626703D01*
X155629Y627690D01*
X170567D01*
Y638310D01*
X165922D01*
Y647690D01*
X170567D01*
Y650176D01*
X172139D01*
X172281Y650033D01*
X173568Y649500D01*
X174960D01*
X176247Y650033D01*
X177231Y651017D01*
X177764Y652304D01*
Y653696D01*
X177231Y654983D01*
X176247Y655967D01*
X174960Y656500D01*
X173568D01*
X172281Y655967D01*
X172139Y655824D01*
X170567D01*
Y658310D01*
X155629D01*
X154946Y659297D01*
Y659994D01*
D02*
G37*
G36*
X621646D02*
X593754D01*
Y659297D01*
X593071Y658310D01*
X592484Y658310D01*
X578133D01*
Y647690D01*
X592484D01*
X593071Y647690D01*
X593754Y646703D01*
Y639297D01*
X593071Y638310D01*
X592484Y638310D01*
X586872D01*
Y636622D01*
X584332D01*
Y638310D01*
X578133D01*
Y634270D01*
X579821D01*
Y631730D01*
X578133D01*
Y627690D01*
X584332D01*
Y629378D01*
X586872D01*
Y627690D01*
X592484D01*
X593071Y627690D01*
X593754Y626703D01*
Y626006D01*
X621646D01*
Y626703D01*
X622329Y627690D01*
X637267D01*
Y630176D01*
X638839D01*
X638981Y630033D01*
X640268Y629500D01*
X641660D01*
X642947Y630033D01*
X643931Y631017D01*
X644464Y632304D01*
Y633696D01*
X643931Y634983D01*
X642947Y635967D01*
X641660Y636500D01*
X640268D01*
X638981Y635967D01*
X638839Y635824D01*
X637267D01*
Y638310D01*
X632622D01*
Y647690D01*
X637267D01*
Y658310D01*
X622329D01*
X621646Y659297D01*
Y659994D01*
D02*
G37*
G36*
X680680Y641820D02*
X679288D01*
X678001Y641287D01*
X677017Y640302D01*
X676484Y639016D01*
Y637623D01*
X677017Y636337D01*
X678001Y635352D01*
X679288Y634820D01*
X680680D01*
X681967Y635352D01*
X682951Y636337D01*
X683484Y637623D01*
Y639016D01*
X682951Y640302D01*
X681967Y641287D01*
X680680Y641820D01*
D02*
G37*
G36*
Y622820D02*
X679288D01*
X678001Y622287D01*
X677017Y621302D01*
X676484Y620016D01*
Y618623D01*
X677017Y617337D01*
X678001Y616352D01*
X679288Y615820D01*
X680680D01*
X681967Y616352D01*
X682951Y617337D01*
X683484Y618623D01*
Y620016D01*
X682951Y621302D01*
X681967Y622287D01*
X680680Y622820D01*
D02*
G37*
G36*
X321154Y609250D02*
X319762D01*
X318475Y608717D01*
X317491Y607733D01*
X316958Y606446D01*
Y605054D01*
X317491Y603767D01*
X318475Y602783D01*
X319762Y602250D01*
X321154D01*
X322441Y602783D01*
X323425Y603767D01*
X323958Y605054D01*
Y606446D01*
X323425Y607733D01*
X322441Y608717D01*
X321154Y609250D01*
D02*
G37*
G36*
X367546Y600184D02*
X366154D01*
X364867Y599651D01*
X364725Y599508D01*
X288189D01*
X288189Y599508D01*
X287108Y599293D01*
X286192Y598681D01*
X286192Y598681D01*
X271335Y583824D01*
X263907D01*
Y586310D01*
X248969D01*
X248286Y587297D01*
Y587994D01*
X220394D01*
Y587297D01*
X219711Y586310D01*
X219124Y586310D01*
X204773D01*
Y575690D01*
X219124D01*
X219711Y575690D01*
X220394Y574703D01*
Y567297D01*
X219711Y566310D01*
X219124Y566310D01*
X213512D01*
Y564622D01*
X210972D01*
Y566310D01*
X204773D01*
Y562270D01*
X206461D01*
Y559730D01*
X204773D01*
Y555690D01*
X210972D01*
Y557378D01*
X213512D01*
Y555690D01*
X219124D01*
X219711Y555690D01*
X220394Y554703D01*
Y554006D01*
X248286D01*
Y554703D01*
X248969Y555690D01*
X263907D01*
Y566310D01*
X259262D01*
Y575690D01*
X263907D01*
Y578176D01*
X272504D01*
X272505Y578176D01*
X273585Y578391D01*
X274502Y579003D01*
X289359Y593860D01*
X364725D01*
X364867Y593717D01*
X366154Y593184D01*
X367546D01*
X368833Y593717D01*
X369817Y594701D01*
X370350Y595988D01*
Y597380D01*
X369817Y598667D01*
X368833Y599651D01*
X367546Y600184D01*
D02*
G37*
G36*
X382546D02*
X381154D01*
X379868Y599651D01*
X378883Y598667D01*
X378350Y597380D01*
Y595988D01*
X378883Y594701D01*
X379026Y594558D01*
Y587117D01*
X375733Y583824D01*
X357247D01*
Y586310D01*
X342309D01*
X341626Y587297D01*
Y587994D01*
X313734D01*
Y587297D01*
X313051Y586310D01*
X312464Y586310D01*
X298113D01*
Y575690D01*
X312464D01*
X313051Y575690D01*
X313734Y574703D01*
Y567297D01*
X313051Y566310D01*
X312464Y566310D01*
X306852D01*
Y564622D01*
X304312D01*
Y566310D01*
X298113D01*
Y562270D01*
X299801D01*
Y559730D01*
X298113D01*
Y555690D01*
X304312D01*
Y557378D01*
X306852D01*
Y555690D01*
X312464D01*
X313051Y555690D01*
X313734Y554703D01*
Y554006D01*
X341626D01*
Y554703D01*
X342309Y555690D01*
X357247D01*
Y566310D01*
X352602D01*
Y575690D01*
X357247D01*
Y578176D01*
X376903D01*
X376903Y578176D01*
X377984Y578391D01*
X378900Y579003D01*
X383847Y583950D01*
X384459Y584866D01*
X384674Y585947D01*
X384674Y585947D01*
Y594558D01*
X384817Y594701D01*
X385350Y595988D01*
Y597380D01*
X384817Y598667D01*
X383833Y599651D01*
X382546Y600184D01*
D02*
G37*
G36*
X404556Y593524D02*
X403164D01*
X401877Y592991D01*
X400893Y592007D01*
X400360Y590720D01*
Y589328D01*
X400893Y588041D01*
X401354Y587580D01*
X400828Y586310D01*
X391453D01*
Y575690D01*
X399583D01*
X400432Y574420D01*
X400360Y574246D01*
Y572854D01*
X400893Y571567D01*
X401877Y570583D01*
X403164Y570050D01*
X404556D01*
X405843Y570583D01*
X407074Y570018D01*
Y567297D01*
X406391Y566310D01*
X405804Y566310D01*
X400192D01*
Y564622D01*
X397652D01*
Y566310D01*
X391453D01*
Y562270D01*
X393141D01*
Y559730D01*
X391453D01*
Y555690D01*
X393884D01*
X394410Y554420D01*
X393949Y553959D01*
X393416Y552672D01*
Y551280D01*
X393949Y549993D01*
X394933Y549009D01*
X396220Y548476D01*
X397612D01*
X398899Y549009D01*
X399883Y549993D01*
X400416Y551280D01*
Y552672D01*
X399883Y553959D01*
X399422Y554420D01*
X399948Y555690D01*
X405804D01*
X406391Y555690D01*
X407074Y554703D01*
Y554006D01*
X410963D01*
X411239Y552839D01*
X411241Y552736D01*
X410275Y551769D01*
X409742Y550483D01*
Y549091D01*
X410275Y547804D01*
X411170Y546909D01*
X411129Y546490D01*
X410792Y545639D01*
X378975D01*
X378833Y545782D01*
X377546Y546314D01*
X376154D01*
X375350Y547356D01*
Y547510D01*
X374817Y548797D01*
X373833Y549781D01*
X372546Y550314D01*
X371154D01*
X369868Y549781D01*
X368883Y548797D01*
X368350Y547510D01*
Y547358D01*
X367546Y546316D01*
X366154D01*
X364867Y545783D01*
X364725Y545640D01*
X351902D01*
X351761Y545782D01*
X350474Y546314D01*
X349082D01*
X347795Y545782D01*
X346811Y544797D01*
X346278Y543511D01*
Y542118D01*
X346811Y540832D01*
X347795Y539847D01*
X349082Y539314D01*
X350474D01*
X351761Y539847D01*
X351905Y539992D01*
X364725D01*
X364867Y539849D01*
X366154Y539316D01*
X367546D01*
X368833Y539849D01*
X369817Y540833D01*
X370350Y542120D01*
Y542272D01*
X371154Y543314D01*
X372546D01*
X373350Y542272D01*
Y542118D01*
X373883Y540832D01*
X374867Y539847D01*
X376154Y539314D01*
X377546D01*
X378833Y539847D01*
X378975Y539990D01*
X395412D01*
X395665Y538720D01*
X394933Y538417D01*
X393949Y537433D01*
X393416Y536146D01*
Y534754D01*
X393949Y533467D01*
X394933Y532483D01*
X396220Y531950D01*
X397612D01*
X398899Y532483D01*
X399883Y533467D01*
X400416Y534754D01*
Y536146D01*
X399883Y537433D01*
X398899Y538417D01*
X398167Y538720D01*
X398420Y539990D01*
X676055D01*
X676197Y539847D01*
X677484Y539314D01*
X678876D01*
X680163Y539847D01*
X681147Y540832D01*
X681680Y542118D01*
Y543511D01*
X681147Y544797D01*
X680163Y545782D01*
X678876Y546314D01*
X677484D01*
X676197Y545782D01*
X676055Y545639D01*
X415691D01*
X415354Y546490D01*
X415313Y546909D01*
X416209Y547804D01*
X416742Y549091D01*
Y550483D01*
X416209Y551769D01*
X415242Y552736D01*
X415244Y552839D01*
X415521Y554006D01*
X434966D01*
Y554703D01*
X435649Y555690D01*
X450587D01*
Y566310D01*
X445942D01*
Y575690D01*
X450587D01*
Y580676D01*
X452874D01*
X453016Y580533D01*
X454303Y580000D01*
X455695D01*
X456982Y580533D01*
X457966Y581517D01*
X458499Y582804D01*
Y584196D01*
X457966Y585482D01*
X456982Y586467D01*
X455695Y587000D01*
X454303D01*
X453016Y586467D01*
X452874Y586324D01*
X434966D01*
Y587994D01*
X408182D01*
X407333Y589264D01*
X407360Y589328D01*
Y590720D01*
X406827Y592007D01*
X405843Y592991D01*
X404556Y593524D01*
D02*
G37*
G36*
X528306Y587994D02*
X500414D01*
Y587297D01*
X499731Y586310D01*
X499144Y586310D01*
X484793D01*
Y575690D01*
X499144D01*
X499731Y575690D01*
X500414Y574703D01*
Y567297D01*
X499731Y566310D01*
X499144Y566310D01*
X493532D01*
Y564622D01*
X490992D01*
Y566310D01*
X484793D01*
Y562270D01*
X486481D01*
Y559730D01*
X484793D01*
Y555690D01*
X490992D01*
Y557378D01*
X493532D01*
Y555690D01*
X499144D01*
X499731Y555690D01*
X500414Y554703D01*
Y554006D01*
X528306D01*
Y554703D01*
X528989Y555690D01*
X543927D01*
Y566310D01*
X539282D01*
Y575690D01*
X543927D01*
Y578176D01*
X545499D01*
X545641Y578033D01*
X546928Y577500D01*
X548320D01*
X549607Y578033D01*
X550591Y579017D01*
X551124Y580304D01*
Y581696D01*
X550591Y582982D01*
X549607Y583967D01*
X548320Y584500D01*
X546928D01*
X545641Y583967D01*
X545499Y583824D01*
X543927D01*
Y586310D01*
X528989D01*
X528306Y587297D01*
Y587994D01*
D02*
G37*
G36*
X154946D02*
X127054D01*
Y587297D01*
X126371Y586310D01*
X125784Y586310D01*
X111433D01*
Y575690D01*
X125784D01*
X126371Y575690D01*
X127054Y574703D01*
Y567297D01*
X126371Y566310D01*
X125784Y566310D01*
X120172D01*
Y564622D01*
X117632D01*
Y566310D01*
X111433D01*
Y562270D01*
X113121D01*
Y559730D01*
X111433D01*
Y555690D01*
X117632D01*
Y557378D01*
X120172D01*
Y555690D01*
X125784D01*
X126371Y555690D01*
X127054Y554703D01*
Y554006D01*
X154946D01*
Y554703D01*
X155629Y555690D01*
X170567D01*
Y566310D01*
X165922D01*
Y575690D01*
X170567D01*
Y578176D01*
X172139D01*
X172281Y578033D01*
X173568Y577500D01*
X174960D01*
X176247Y578033D01*
X177231Y579017D01*
X177764Y580304D01*
Y581696D01*
X177231Y582982D01*
X176247Y583967D01*
X174960Y584500D01*
X173568D01*
X172281Y583967D01*
X172139Y583824D01*
X170567D01*
Y586310D01*
X155629D01*
X154946Y587297D01*
Y587994D01*
D02*
G37*
G36*
X567116Y605480D02*
X565724D01*
X564437Y604947D01*
X563453Y603963D01*
X562920Y602676D01*
Y601284D01*
X563453Y599997D01*
X564437Y599013D01*
X565724Y598480D01*
X567116D01*
X567935Y598819D01*
X636464D01*
X656853Y578431D01*
X657769Y577818D01*
X658850Y577603D01*
X658850Y577603D01*
X677859D01*
X678001Y577461D01*
X679288Y576928D01*
X680680D01*
X681967Y577461D01*
X682951Y578445D01*
X683484Y579732D01*
Y581124D01*
X682951Y582410D01*
X681967Y583395D01*
X680680Y583928D01*
X679288D01*
X678001Y583395D01*
X677859Y583252D01*
X660020D01*
X639631Y603641D01*
X638715Y604253D01*
X637634Y604468D01*
X637634Y604468D01*
X568882D01*
X568403Y604947D01*
X567116Y605480D01*
D02*
G37*
G36*
X621646Y587994D02*
X593754D01*
Y587297D01*
X593071Y586310D01*
X592484Y586310D01*
X578133D01*
Y575690D01*
X592484D01*
X593071Y575690D01*
X593754Y574703D01*
Y567297D01*
X593071Y566310D01*
X592484Y566310D01*
X586872D01*
Y564622D01*
X584332D01*
Y566310D01*
X578133D01*
Y562270D01*
X579821D01*
Y559730D01*
X578133D01*
Y555690D01*
X584332D01*
Y557378D01*
X586872D01*
Y555690D01*
X592484D01*
X593071Y555690D01*
X593754Y554703D01*
Y554006D01*
X621646D01*
Y554703D01*
X622329Y555690D01*
X637267D01*
Y558176D01*
X638839D01*
X638981Y558033D01*
X640268Y557500D01*
X641660D01*
X642947Y558033D01*
X643931Y559017D01*
X644464Y560304D01*
Y561696D01*
X643931Y562982D01*
X642947Y563967D01*
X641660Y564500D01*
X640268D01*
X638981Y563967D01*
X638839Y563824D01*
X637267D01*
Y566310D01*
X632622D01*
Y575690D01*
X637267D01*
Y586310D01*
X622329D01*
X621646Y587297D01*
Y587994D01*
D02*
G37*
G36*
X678876Y564036D02*
X677484D01*
X676197Y563503D01*
X675213Y562519D01*
X674680Y561232D01*
Y559840D01*
X675213Y558553D01*
X676197Y557569D01*
X677484Y557036D01*
X678876D01*
X680163Y557569D01*
X681147Y558553D01*
X681680Y559840D01*
Y561232D01*
X681147Y562519D01*
X680163Y563503D01*
X678876Y564036D01*
D02*
G37*
G36*
X321154Y537250D02*
X319762D01*
X318475Y536717D01*
X317491Y535733D01*
X316958Y534446D01*
Y533054D01*
X317491Y531767D01*
X318475Y530783D01*
X319762Y530250D01*
X321154D01*
X322441Y530783D01*
X323425Y531767D01*
X323958Y533054D01*
Y534446D01*
X323425Y535733D01*
X322441Y536717D01*
X321154Y537250D01*
D02*
G37*
G36*
X367546Y528184D02*
X366154D01*
X364867Y527651D01*
X364725Y527508D01*
X289825D01*
X289825Y527508D01*
X288744Y527293D01*
X287828Y526681D01*
X287828Y526681D01*
X272971Y511824D01*
X263907D01*
Y514310D01*
X248969D01*
X248286Y515297D01*
Y515994D01*
X220394D01*
Y515297D01*
X219711Y514310D01*
X219124Y514310D01*
X204773D01*
Y503690D01*
X219124D01*
X219711Y503690D01*
X220394Y502703D01*
Y495297D01*
X219711Y494310D01*
X219124Y494310D01*
X213512D01*
Y492622D01*
X210972D01*
Y494310D01*
X204773D01*
Y490270D01*
X206461D01*
Y487730D01*
X204773D01*
Y483690D01*
X210972D01*
Y485378D01*
X213512D01*
Y483690D01*
X219124D01*
X219711Y483690D01*
X220394Y482703D01*
Y482006D01*
X248286D01*
Y482703D01*
X248969Y483690D01*
X263907D01*
Y494310D01*
X259262D01*
Y503690D01*
X263907D01*
Y506176D01*
X274141D01*
X274141Y506176D01*
X275222Y506391D01*
X276138Y507003D01*
X290995Y521860D01*
X364725D01*
X364867Y521717D01*
X366154Y521184D01*
X367546D01*
X368833Y521717D01*
X369817Y522701D01*
X370350Y523988D01*
Y525380D01*
X369817Y526667D01*
X368833Y527651D01*
X367546Y528184D01*
D02*
G37*
G36*
X382546D02*
X381154D01*
X379868Y527651D01*
X378883Y526667D01*
X378350Y525380D01*
Y523988D01*
X378883Y522701D01*
X379026Y522559D01*
Y515117D01*
X375733Y511824D01*
X357247D01*
Y514310D01*
X342309D01*
X341626Y515297D01*
Y515994D01*
X313734D01*
Y515297D01*
X313051Y514310D01*
X312464Y514310D01*
X298113D01*
Y503690D01*
X312464D01*
X313051Y503690D01*
X313734Y502703D01*
Y495297D01*
X313051Y494310D01*
X312464Y494310D01*
X306852D01*
Y492622D01*
X304312D01*
Y494310D01*
X298113D01*
Y490270D01*
X299801D01*
Y487730D01*
X298113D01*
Y483690D01*
X304312D01*
Y485378D01*
X306852D01*
Y483690D01*
X312464D01*
X313051Y483690D01*
X313734Y482703D01*
Y482006D01*
X341626D01*
Y482703D01*
X342309Y483690D01*
X357247D01*
Y494310D01*
X352602D01*
Y503690D01*
X357247D01*
Y506176D01*
X376903D01*
X376903Y506176D01*
X377984Y506391D01*
X378900Y507003D01*
X383847Y511950D01*
X384459Y512866D01*
X384674Y513947D01*
X384674Y513947D01*
Y522559D01*
X384817Y522701D01*
X385350Y523988D01*
Y525380D01*
X384817Y526667D01*
X383833Y527651D01*
X382546Y528184D01*
D02*
G37*
G36*
X404556Y521524D02*
X403164D01*
X401877Y520991D01*
X400893Y520007D01*
X400360Y518720D01*
Y517328D01*
X400893Y516041D01*
X401354Y515580D01*
X400828Y514310D01*
X391453D01*
Y503690D01*
X399583D01*
X400432Y502420D01*
X400360Y502246D01*
Y500854D01*
X400893Y499567D01*
X401877Y498583D01*
X403164Y498050D01*
X404556D01*
X405843Y498583D01*
X407074Y498018D01*
Y495297D01*
X406391Y494310D01*
X405804Y494310D01*
X400192D01*
Y492622D01*
X397652D01*
Y494310D01*
X391453D01*
Y490270D01*
X393141D01*
Y487730D01*
X391453D01*
Y483690D01*
X393884D01*
X394410Y482420D01*
X393949Y481959D01*
X393416Y480672D01*
Y479280D01*
X393949Y477993D01*
X394933Y477009D01*
X396220Y476476D01*
X397612D01*
X398899Y477009D01*
X399883Y477993D01*
X400416Y479280D01*
Y480672D01*
X399883Y481959D01*
X399422Y482420D01*
X399948Y483690D01*
X405804D01*
X406391Y483690D01*
X407074Y482703D01*
Y482006D01*
X410963D01*
X411239Y480839D01*
X411241Y480736D01*
X411011Y480505D01*
X410718Y480310D01*
X410523Y480018D01*
X410275Y479770D01*
X410140Y479445D01*
X409945Y479152D01*
X409876Y478808D01*
X409742Y478483D01*
Y478132D01*
X409673Y477787D01*
X409742Y477442D01*
Y477091D01*
X409876Y476766D01*
X409945Y476421D01*
X410140Y476129D01*
X410275Y475804D01*
X410523Y475556D01*
X410718Y475263D01*
X411011Y475068D01*
X411015Y475064D01*
X411022Y475049D01*
X411163Y474304D01*
X411023Y473553D01*
X411015Y473538D01*
X411012Y473535D01*
X410720Y473339D01*
X410525Y473047D01*
X410276Y472799D01*
X410142Y472474D01*
X409947Y472182D01*
X409878Y471837D01*
X409744Y471512D01*
Y471161D01*
X409675Y470816D01*
X409744Y470471D01*
Y470120D01*
X409878Y469795D01*
X409947Y469450D01*
X410142Y469158D01*
X410276Y468833D01*
X410525Y468585D01*
X410720Y468293D01*
X411012Y468097D01*
X411261Y467849D01*
X411586Y467714D01*
X411878Y467519D01*
X412223Y467450D01*
X412547Y467316D01*
X412899D01*
X413244Y467247D01*
X660010D01*
X677151Y450106D01*
Y246380D01*
X677423Y245014D01*
X678197Y243857D01*
X738746Y183307D01*
Y156464D01*
X738815Y156119D01*
Y155768D01*
X738950Y155443D01*
X739018Y155098D01*
X739213Y154806D01*
X739348Y154481D01*
X739596Y154233D01*
X739792Y153941D01*
X740084Y153745D01*
X740332Y153497D01*
X740657Y153362D01*
X740949Y153167D01*
X741294Y153098D01*
X741619Y152964D01*
X741970D01*
X742315Y152895D01*
X742660Y152964D01*
X743011D01*
X743336Y153098D01*
X743681Y153167D01*
X743973Y153362D01*
X744298Y153497D01*
X744546Y153745D01*
X744688Y153840D01*
X744830Y153745D01*
X745078Y153497D01*
X745403Y153362D01*
X745695Y153167D01*
X746040Y153098D01*
X746365Y152964D01*
X746716D01*
X747061Y152895D01*
X747406Y152964D01*
X747757D01*
X748082Y153098D01*
X748427Y153167D01*
X748719Y153362D01*
X749044Y153497D01*
X749292Y153745D01*
X749451Y153851D01*
X749609Y153745D01*
X749857Y153497D01*
X750182Y153362D01*
X750474Y153167D01*
X750819Y153098D01*
X751144Y152964D01*
X751495D01*
X751840Y152895D01*
X752185Y152964D01*
X752536D01*
X752861Y153098D01*
X753206Y153167D01*
X753498Y153362D01*
X753823Y153497D01*
X754071Y153745D01*
X754363Y153941D01*
X754559Y154233D01*
X754807Y154481D01*
X754942Y154806D01*
X755137Y155098D01*
X755206Y155443D01*
X755340Y155768D01*
Y156119D01*
X755409Y156464D01*
Y246640D01*
X755137Y248006D01*
X754363Y249163D01*
X706003Y297523D01*
X705711Y297719D01*
X705463Y297967D01*
X705138Y298102D01*
X704846Y298297D01*
X704501Y298365D01*
X704176Y298500D01*
X703825D01*
X703480Y298569D01*
X703135Y298500D01*
X702784D01*
X702459Y298365D01*
X702114Y298297D01*
X701822Y298102D01*
X701497Y297967D01*
X701249Y297719D01*
X700957Y297523D01*
X700761Y297231D01*
X700513Y296983D01*
X700378Y296658D01*
X700183Y296366D01*
X700115Y296021D01*
X699980Y295696D01*
Y295345D01*
X699911Y295000D01*
X699980Y294655D01*
Y294304D01*
X700115Y293979D01*
X700183Y293634D01*
X700378Y293342D01*
X700513Y293017D01*
X700761Y292769D01*
X700957Y292477D01*
X748271Y245162D01*
Y201880D01*
X747098Y201394D01*
X696053Y252439D01*
Y490220D01*
X695984Y490565D01*
Y490916D01*
X695850Y491241D01*
X695781Y491586D01*
X695586Y491878D01*
X695451Y492203D01*
X695203Y492451D01*
X695007Y492743D01*
X694715Y492939D01*
X694467Y493187D01*
X694142Y493322D01*
X693850Y493517D01*
X693505Y493586D01*
X693180Y493720D01*
X692829D01*
X692484Y493789D01*
X692139Y493720D01*
X691788D01*
X691463Y493586D01*
X691118Y493517D01*
X690826Y493322D01*
X690501Y493187D01*
X690253Y492939D01*
X689961Y492743D01*
X689765Y492451D01*
X689517Y492203D01*
X689382Y491878D01*
X689187Y491586D01*
X689119Y491241D01*
X688984Y490916D01*
Y490565D01*
X688915Y490220D01*
Y250961D01*
X689187Y249596D01*
X689961Y248438D01*
X743493Y194906D01*
Y190314D01*
X742319Y189828D01*
X684289Y247858D01*
Y451584D01*
X684017Y452950D01*
X683243Y454108D01*
X664012Y473339D01*
X662854Y474113D01*
X661488Y474385D01*
X445062D01*
X439137Y480310D01*
X437979Y481084D01*
X436613Y481356D01*
X435967D01*
X435506Y481655D01*
X435366Y482537D01*
X436311Y483690D01*
X450587D01*
Y494310D01*
X445942D01*
Y503690D01*
X450587D01*
Y508676D01*
X452874D01*
X453016Y508533D01*
X454303Y508000D01*
X455695D01*
X456982Y508533D01*
X457966Y509517D01*
X458499Y510804D01*
Y512196D01*
X457966Y513483D01*
X456982Y514467D01*
X455695Y515000D01*
X454303D01*
X453016Y514467D01*
X452874Y514324D01*
X434966D01*
Y515994D01*
X408182D01*
X407333Y517264D01*
X407360Y517328D01*
Y518720D01*
X406827Y520007D01*
X405843Y520991D01*
X404556Y521524D01*
D02*
G37*
G36*
X528306Y515994D02*
X500414D01*
Y515297D01*
X499731Y514310D01*
X499144Y514310D01*
X484793D01*
Y503690D01*
X499144D01*
X499731Y503690D01*
X500414Y502703D01*
Y495297D01*
X499731Y494310D01*
X499144Y494310D01*
X493532D01*
Y492622D01*
X490992D01*
Y494310D01*
X484793D01*
Y490270D01*
X486481D01*
Y487730D01*
X484793D01*
Y483690D01*
X490992D01*
Y485378D01*
X493532D01*
Y483690D01*
X499144D01*
X499731Y483690D01*
X500414Y482703D01*
Y482006D01*
X528306D01*
Y482703D01*
X528989Y483690D01*
X543927D01*
Y494310D01*
X539282D01*
Y503690D01*
X543927D01*
Y506176D01*
X545499D01*
X545641Y506033D01*
X546928Y505500D01*
X548320D01*
X549607Y506033D01*
X550591Y507017D01*
X551124Y508304D01*
Y509696D01*
X550591Y510983D01*
X549607Y511967D01*
X548320Y512500D01*
X546928D01*
X545641Y511967D01*
X545499Y511824D01*
X543927D01*
Y514310D01*
X528989D01*
X528306Y515297D01*
Y515994D01*
D02*
G37*
G36*
X154946D02*
X127054D01*
Y515297D01*
X126371Y514310D01*
X125784Y514310D01*
X111433D01*
Y503690D01*
X125784D01*
X126371Y503690D01*
X127054Y502703D01*
Y495297D01*
X126371Y494310D01*
X125784Y494310D01*
X120172D01*
Y492622D01*
X117632D01*
Y494310D01*
X111433D01*
Y490270D01*
X113121D01*
Y487730D01*
X111433D01*
Y483690D01*
X117632D01*
Y485378D01*
X120172D01*
Y483690D01*
X125784D01*
X126371Y483690D01*
X127054Y482703D01*
Y482006D01*
X154946D01*
Y482703D01*
X155629Y483690D01*
X170567D01*
Y494310D01*
X165922D01*
Y503690D01*
X170567D01*
Y506176D01*
X172139D01*
X172281Y506033D01*
X173568Y505500D01*
X174960D01*
X176247Y506033D01*
X177231Y507017D01*
X177764Y508304D01*
Y509696D01*
X177231Y510983D01*
X176247Y511967D01*
X174960Y512500D01*
X173568D01*
X172281Y511967D01*
X172139Y511824D01*
X170567D01*
Y514310D01*
X155629D01*
X154946Y515297D01*
Y515994D01*
D02*
G37*
G36*
X621646D02*
X593754D01*
Y515297D01*
X593071Y514310D01*
X592484Y514310D01*
X578133D01*
Y503690D01*
X592484D01*
X593071Y503690D01*
X593754Y502703D01*
Y495297D01*
X593071Y494310D01*
X592484Y494310D01*
X586872D01*
Y492622D01*
X584332D01*
Y494310D01*
X578133D01*
Y490270D01*
X579821D01*
Y487730D01*
X578133D01*
Y483690D01*
X584332D01*
Y485378D01*
X586872D01*
Y483690D01*
X592484D01*
X593071Y483690D01*
X593754Y482703D01*
Y482006D01*
X621646D01*
Y482703D01*
X622329Y483690D01*
X637267D01*
Y486176D01*
X638839D01*
X638981Y486033D01*
X640268Y485500D01*
X641660D01*
X642947Y486033D01*
X643931Y487017D01*
X644464Y488304D01*
Y489696D01*
X643931Y490983D01*
X642947Y491967D01*
X641660Y492500D01*
X640268D01*
X638981Y491967D01*
X638839Y491824D01*
X637267D01*
Y494310D01*
X632622D01*
Y503690D01*
X637267D01*
Y514310D01*
X622329D01*
X621646Y515297D01*
Y515994D01*
D02*
G37*
G36*
X372546Y478314D02*
X371154D01*
X369868Y477781D01*
X368883Y476797D01*
X368350Y475510D01*
Y475358D01*
X367546Y474316D01*
X366154D01*
X364867Y473783D01*
X364725Y473640D01*
X351902D01*
X351761Y473782D01*
X350474Y474314D01*
X349082D01*
X347795Y473782D01*
X346811Y472797D01*
X346278Y471511D01*
Y470118D01*
X346811Y468832D01*
X347795Y467847D01*
X349082Y467314D01*
X350474D01*
X351761Y467847D01*
X351905Y467992D01*
X364725D01*
X364867Y467849D01*
X366154Y467316D01*
X367546D01*
X368833Y467849D01*
X369817Y468833D01*
X370350Y470120D01*
Y470272D01*
X371154Y471314D01*
X372546D01*
X373350Y470272D01*
Y470118D01*
X373883Y468832D01*
X374867Y467847D01*
X376154Y467314D01*
X377546D01*
X378833Y467847D01*
X379817Y468832D01*
X380350Y470118D01*
Y471511D01*
X379817Y472797D01*
X378833Y473782D01*
X377546Y474314D01*
X376154D01*
X375350Y475356D01*
Y475510D01*
X374817Y476797D01*
X373833Y477781D01*
X372546Y478314D01*
D02*
G37*
G36*
X397612Y466950D02*
X396220D01*
X394933Y466417D01*
X393949Y465433D01*
X393416Y464146D01*
Y462754D01*
X393949Y461467D01*
X394933Y460483D01*
X396220Y459950D01*
X397612D01*
X398899Y460483D01*
X399883Y461467D01*
X400416Y462754D01*
Y464146D01*
X399883Y465433D01*
X398899Y466417D01*
X397612Y466950D01*
D02*
G37*
G36*
X321154Y465250D02*
X319762D01*
X318475Y464717D01*
X317491Y463733D01*
X316958Y462446D01*
Y461054D01*
X317491Y459767D01*
X318475Y458783D01*
X319762Y458250D01*
X321154D01*
X322441Y458783D01*
X323425Y459767D01*
X323958Y461054D01*
Y462446D01*
X323425Y463733D01*
X322441Y464717D01*
X321154Y465250D01*
D02*
G37*
G36*
X367546Y456184D02*
X366154D01*
X364867Y455651D01*
X364725Y455508D01*
X290679D01*
X290679Y455508D01*
X289598Y455293D01*
X288682Y454681D01*
X288682Y454681D01*
X273825Y439824D01*
X263907D01*
Y442310D01*
X248969D01*
X248286Y443297D01*
Y443994D01*
X220394D01*
Y443297D01*
X219711Y442310D01*
X219124Y442310D01*
X204773D01*
Y431690D01*
X219124D01*
X219711Y431690D01*
X220394Y430703D01*
Y423297D01*
X219711Y422310D01*
X219124Y422310D01*
X213512D01*
Y420622D01*
X210972D01*
Y422310D01*
X204773D01*
Y418270D01*
X206461D01*
Y415730D01*
X204773D01*
Y411690D01*
X210972D01*
Y413377D01*
X213512D01*
Y411690D01*
X219124D01*
X219711Y411690D01*
X220394Y410703D01*
Y410006D01*
X248286D01*
Y410703D01*
X248969Y411690D01*
X263907D01*
Y422310D01*
X259262D01*
Y431690D01*
X263907D01*
Y434176D01*
X274995D01*
X274995Y434176D01*
X276076Y434391D01*
X276992Y435003D01*
X291849Y449860D01*
X364725D01*
X364867Y449717D01*
X366154Y449184D01*
X367546D01*
X368833Y449717D01*
X369817Y450701D01*
X370350Y451988D01*
Y453380D01*
X369817Y454667D01*
X368833Y455651D01*
X367546Y456184D01*
D02*
G37*
G36*
X382546D02*
X381154D01*
X379868Y455651D01*
X378883Y454667D01*
X378350Y453380D01*
Y451988D01*
X378883Y450701D01*
X379026Y450559D01*
Y443117D01*
X375733Y439824D01*
X357247D01*
Y442310D01*
X342309D01*
X341626Y443297D01*
Y443994D01*
X313734D01*
Y443297D01*
X313051Y442310D01*
X312464Y442310D01*
X298113D01*
Y431690D01*
X312464D01*
X313051Y431690D01*
X313734Y430703D01*
Y423297D01*
X313051Y422310D01*
X312464Y422310D01*
X306852D01*
Y420622D01*
X304312D01*
Y422310D01*
X298113D01*
Y418270D01*
X299801D01*
Y415730D01*
X298113D01*
Y411690D01*
X304312D01*
Y413377D01*
X306852D01*
Y411690D01*
X312464D01*
X313051Y411690D01*
X313734Y410703D01*
Y410006D01*
X341626D01*
Y410703D01*
X342309Y411690D01*
X357247D01*
Y422310D01*
X352602D01*
Y431690D01*
X357247D01*
Y434176D01*
X376903D01*
X376903Y434176D01*
X377984Y434391D01*
X378900Y435003D01*
X383847Y439950D01*
X384459Y440867D01*
X384674Y441947D01*
X384674Y441947D01*
Y450559D01*
X384817Y450701D01*
X385350Y451988D01*
Y453380D01*
X384817Y454667D01*
X383833Y455651D01*
X382546Y456184D01*
D02*
G37*
G36*
X404556Y449524D02*
X403164D01*
X401877Y448991D01*
X400893Y448007D01*
X400360Y446720D01*
Y445328D01*
X400893Y444041D01*
X401354Y443580D01*
X400828Y442310D01*
X391453D01*
Y431690D01*
X399583D01*
X400432Y430420D01*
X400360Y430246D01*
Y428854D01*
X400893Y427567D01*
X401877Y426583D01*
X403164Y426050D01*
X404556D01*
X405843Y426583D01*
X407074Y426018D01*
Y423297D01*
X406391Y422310D01*
X405804Y422310D01*
X400192D01*
Y420622D01*
X397652D01*
Y422310D01*
X391453D01*
Y418270D01*
X393141D01*
Y415730D01*
X391453D01*
Y411690D01*
X393884D01*
X394410Y410420D01*
X393949Y409959D01*
X393416Y408672D01*
Y407280D01*
X393949Y405993D01*
X394933Y405009D01*
X396220Y404476D01*
X397612D01*
X398899Y405009D01*
X399883Y405993D01*
X400416Y407280D01*
Y408672D01*
X399883Y409959D01*
X399422Y410420D01*
X399948Y411690D01*
X405804D01*
X406391Y411690D01*
X407074Y410703D01*
Y410006D01*
X410963D01*
X411239Y408839D01*
X411241Y408736D01*
X410275Y407770D01*
X409742Y406483D01*
Y405091D01*
X410275Y403804D01*
X411259Y402820D01*
X412545Y402287D01*
X413938D01*
X415224Y402820D01*
X416209Y403804D01*
X416742Y405091D01*
Y406483D01*
X416209Y407770D01*
X415242Y408736D01*
X415244Y408839D01*
X415521Y410006D01*
X434966D01*
Y410703D01*
X435649Y411690D01*
X450587D01*
Y422310D01*
X445942D01*
Y431690D01*
X450587D01*
Y436676D01*
X452874D01*
X453016Y436533D01*
X454303Y436000D01*
X455695D01*
X456982Y436533D01*
X457966Y437517D01*
X458499Y438804D01*
Y440196D01*
X457966Y441483D01*
X456982Y442467D01*
X455695Y443000D01*
X454303D01*
X453016Y442467D01*
X452874Y442324D01*
X434966D01*
Y443994D01*
X408182D01*
X407333Y445264D01*
X407360Y445328D01*
Y446720D01*
X406827Y448007D01*
X405843Y448991D01*
X404556Y449524D01*
D02*
G37*
G36*
X528306Y443994D02*
X500414D01*
Y443297D01*
X499731Y442310D01*
X499144Y442310D01*
X484793D01*
Y431690D01*
X499144D01*
X499731Y431690D01*
X500414Y430703D01*
Y423297D01*
X499731Y422310D01*
X499144Y422310D01*
X493532D01*
Y420622D01*
X490992D01*
Y422310D01*
X484793D01*
Y418270D01*
X486481D01*
Y415730D01*
X484793D01*
Y411690D01*
X490992D01*
Y413377D01*
X493532D01*
Y411690D01*
X499144D01*
X499731Y411690D01*
X500414Y410703D01*
Y410006D01*
X528306D01*
Y410703D01*
X528989Y411690D01*
X543927D01*
Y422310D01*
X539282D01*
Y431690D01*
X543927D01*
Y434176D01*
X545499D01*
X545641Y434033D01*
X546928Y433500D01*
X548320D01*
X549607Y434033D01*
X550591Y435017D01*
X551124Y436304D01*
Y437696D01*
X550591Y438983D01*
X549607Y439967D01*
X548320Y440500D01*
X546928D01*
X545641Y439967D01*
X545499Y439824D01*
X543927D01*
Y442310D01*
X528989D01*
X528306Y443297D01*
Y443994D01*
D02*
G37*
G36*
X154946D02*
X127054D01*
Y443297D01*
X126371Y442310D01*
X125784Y442310D01*
X111433D01*
Y431690D01*
X125784D01*
X126371Y431690D01*
X127054Y430703D01*
Y423297D01*
X126371Y422310D01*
X125784Y422310D01*
X120172D01*
Y420622D01*
X117632D01*
Y422310D01*
X111433D01*
Y418270D01*
X113121D01*
Y415730D01*
X111433D01*
Y411690D01*
X117632D01*
Y413377D01*
X120172D01*
Y411690D01*
X125784D01*
X126371Y411690D01*
X127054Y410703D01*
Y410006D01*
X154946D01*
Y410703D01*
X155629Y411690D01*
X170567D01*
Y422310D01*
X165922D01*
Y431690D01*
X170567D01*
Y434176D01*
X172139D01*
X172281Y434033D01*
X173568Y433500D01*
X174960D01*
X176247Y434033D01*
X177231Y435017D01*
X177764Y436304D01*
Y437696D01*
X177231Y438983D01*
X176247Y439967D01*
X174960Y440500D01*
X173568D01*
X172281Y439967D01*
X172139Y439824D01*
X170567D01*
Y442310D01*
X155629D01*
X154946Y443297D01*
Y443994D01*
D02*
G37*
G36*
X621646D02*
X593754D01*
Y443297D01*
X593071Y442310D01*
X592484Y442310D01*
X578133D01*
Y431690D01*
X592484D01*
X593071Y431690D01*
X593754Y430703D01*
Y423297D01*
X593071Y422310D01*
X592484Y422310D01*
X586872D01*
Y420622D01*
X584332D01*
Y422310D01*
X578133D01*
Y418270D01*
X579821D01*
Y415730D01*
X578133D01*
Y411690D01*
X584332D01*
Y413377D01*
X586872D01*
Y411690D01*
X592484D01*
X593071Y411690D01*
X593754Y410703D01*
Y410006D01*
X621646D01*
Y410703D01*
X622329Y411690D01*
X637267D01*
Y414176D01*
X638839D01*
X638981Y414033D01*
X640268Y413500D01*
X641660D01*
X642947Y414033D01*
X643931Y415017D01*
X644464Y416304D01*
Y417696D01*
X643931Y418983D01*
X642947Y419967D01*
X641660Y420500D01*
X640268D01*
X638981Y419967D01*
X638839Y419824D01*
X637267D01*
Y422310D01*
X632622D01*
Y431690D01*
X637267D01*
Y442310D01*
X622329D01*
X621646Y443297D01*
Y443994D01*
D02*
G37*
G36*
X372546Y406314D02*
X371154D01*
X369868Y405781D01*
X368883Y404797D01*
X368350Y403510D01*
Y403358D01*
X367546Y402316D01*
X366154D01*
X364867Y401783D01*
X364725Y401640D01*
X351902D01*
X351761Y401782D01*
X350474Y402314D01*
X349082D01*
X347795Y401782D01*
X346811Y400797D01*
X346278Y399511D01*
Y398118D01*
X346811Y396832D01*
X347795Y395847D01*
X349082Y395314D01*
X350474D01*
X351761Y395847D01*
X351905Y395992D01*
X364725D01*
X364867Y395849D01*
X366154Y395316D01*
X367546D01*
X368833Y395849D01*
X369817Y396833D01*
X370350Y398120D01*
Y398273D01*
X371154Y399314D01*
X372546D01*
X373350Y398273D01*
Y398118D01*
X373883Y396832D01*
X374867Y395847D01*
X376154Y395314D01*
X377546D01*
X378833Y395847D01*
X379817Y396832D01*
X380350Y398118D01*
Y399511D01*
X379817Y400797D01*
X378833Y401782D01*
X377546Y402314D01*
X376154D01*
X375350Y403356D01*
Y403510D01*
X374817Y404797D01*
X373833Y405781D01*
X372546Y406314D01*
D02*
G37*
G36*
X397612Y394950D02*
X396220D01*
X394933Y394417D01*
X393949Y393433D01*
X393416Y392146D01*
Y390754D01*
X393949Y389467D01*
X394933Y388483D01*
X396220Y387950D01*
X397612D01*
X398899Y388483D01*
X399883Y389467D01*
X400416Y390754D01*
Y392146D01*
X399883Y393433D01*
X398899Y394417D01*
X397612Y394950D01*
D02*
G37*
G36*
X321154Y393250D02*
X319762D01*
X318475Y392717D01*
X317491Y391733D01*
X316958Y390446D01*
Y389054D01*
X317491Y387767D01*
X318475Y386783D01*
X319762Y386250D01*
X321154D01*
X322441Y386783D01*
X323425Y387767D01*
X323958Y389054D01*
Y390446D01*
X323425Y391733D01*
X322441Y392717D01*
X321154Y393250D01*
D02*
G37*
G36*
X367546Y384184D02*
X366154D01*
X364867Y383651D01*
X364725Y383508D01*
X291784D01*
X290703Y383293D01*
X289787Y382681D01*
X289787Y382681D01*
X274930Y367824D01*
X263907D01*
Y370310D01*
X248969D01*
X248286Y371297D01*
Y371994D01*
X220394D01*
Y371297D01*
X219711Y370310D01*
X219124Y370310D01*
X204773D01*
Y359690D01*
X219124D01*
X219711Y359690D01*
X220394Y358703D01*
Y351297D01*
X219711Y350310D01*
X219124Y350310D01*
X213512D01*
Y348622D01*
X210972D01*
Y350310D01*
X204773D01*
Y346270D01*
X206461D01*
Y343730D01*
X204773D01*
Y339690D01*
X210972D01*
Y341378D01*
X213512D01*
Y339690D01*
X219124D01*
X219711Y339690D01*
X220394Y338703D01*
Y338006D01*
X248286D01*
Y338703D01*
X248969Y339690D01*
X263907D01*
Y350310D01*
X259262D01*
Y359690D01*
X263907D01*
Y362176D01*
X276100D01*
X276100Y362176D01*
X277181Y362391D01*
X278097Y363003D01*
X292954Y377860D01*
X364725D01*
X364867Y377717D01*
X366154Y377184D01*
X367546D01*
X368833Y377717D01*
X369817Y378701D01*
X370350Y379988D01*
Y381380D01*
X369817Y382667D01*
X368833Y383651D01*
X367546Y384184D01*
D02*
G37*
G36*
X382546D02*
X381154D01*
X379868Y383651D01*
X378883Y382667D01*
X378350Y381380D01*
Y379988D01*
X378883Y378701D01*
X379026Y378559D01*
Y371117D01*
X375733Y367824D01*
X357247D01*
Y370310D01*
X342309D01*
X341626Y371297D01*
Y371994D01*
X313734D01*
Y371297D01*
X313051Y370310D01*
X312464Y370310D01*
X298113D01*
Y359690D01*
X312464D01*
X313051Y359690D01*
X313734Y358703D01*
Y351297D01*
X313051Y350310D01*
X312464Y350310D01*
X306852D01*
Y348622D01*
X304312D01*
Y350310D01*
X298113D01*
Y346270D01*
X299801D01*
Y343730D01*
X298113D01*
Y339690D01*
X304312D01*
Y341378D01*
X306852D01*
Y339690D01*
X312464D01*
X313051Y339690D01*
X313734Y338703D01*
Y338006D01*
X341626D01*
Y338703D01*
X342309Y339690D01*
X357247D01*
Y350310D01*
X352602D01*
Y359690D01*
X357247D01*
Y362176D01*
X376903D01*
X376903Y362176D01*
X377984Y362391D01*
X378900Y363003D01*
X383847Y367950D01*
X384459Y368866D01*
X384674Y369947D01*
X384674Y369947D01*
Y378559D01*
X384817Y378701D01*
X385350Y379988D01*
Y381380D01*
X384817Y382667D01*
X383833Y383651D01*
X382546Y384184D01*
D02*
G37*
G36*
X404556Y377524D02*
X403164D01*
X401877Y376991D01*
X400893Y376007D01*
X400360Y374720D01*
Y373328D01*
X400893Y372041D01*
X401354Y371580D01*
X400828Y370310D01*
X391453D01*
Y359690D01*
X399583D01*
X400432Y358420D01*
X400360Y358246D01*
Y356854D01*
X400893Y355567D01*
X401877Y354583D01*
X403164Y354050D01*
X404556D01*
X405843Y354583D01*
X407074Y354018D01*
Y351297D01*
X406391Y350310D01*
X405804Y350310D01*
X400192D01*
Y348622D01*
X397652D01*
Y350310D01*
X391453D01*
Y346270D01*
X393141D01*
Y343730D01*
X391453D01*
Y339690D01*
X393884D01*
X394410Y338420D01*
X393949Y337958D01*
X393416Y336672D01*
Y335280D01*
X393949Y333993D01*
X394933Y333009D01*
X396220Y332476D01*
X397612D01*
X398899Y333009D01*
X399883Y333993D01*
X400416Y335280D01*
Y336672D01*
X399883Y337958D01*
X399422Y338420D01*
X399948Y339690D01*
X405804D01*
X406391Y339690D01*
X407074Y338703D01*
Y338006D01*
X410965D01*
X411239Y336830D01*
X411241Y336736D01*
X410273Y335768D01*
X409740Y334482D01*
Y333089D01*
X410273Y331803D01*
X411257Y330818D01*
X412544Y330285D01*
X413936D01*
X415223Y330818D01*
X416207Y331803D01*
X416740Y333089D01*
Y334482D01*
X416207Y335768D01*
X415239Y336736D01*
X415241Y336830D01*
X415515Y338006D01*
X434966D01*
Y338703D01*
X435649Y339690D01*
X450587D01*
Y350310D01*
X445942D01*
Y359690D01*
X450587D01*
Y364676D01*
X453599D01*
X453742Y364533D01*
X455028Y364000D01*
X456420D01*
X457707Y364533D01*
X458691Y365517D01*
X459224Y366804D01*
Y368196D01*
X458691Y369482D01*
X457707Y370467D01*
X456420Y371000D01*
X455028D01*
X453742Y370467D01*
X453599Y370324D01*
X434966D01*
Y371994D01*
X408182D01*
X407334Y373264D01*
X407360Y373328D01*
Y374720D01*
X406827Y376007D01*
X405843Y376991D01*
X404556Y377524D01*
D02*
G37*
G36*
X528306Y371994D02*
X500414D01*
Y371297D01*
X499731Y370310D01*
X499144Y370310D01*
X484793D01*
Y359690D01*
X499144D01*
X499731Y359690D01*
X500414Y358703D01*
Y351297D01*
X499731Y350310D01*
X499144Y350310D01*
X493532D01*
Y348622D01*
X490992D01*
Y350310D01*
X484793D01*
Y346270D01*
X486481D01*
Y343730D01*
X484793D01*
Y339690D01*
X490992D01*
Y341378D01*
X493532D01*
Y339690D01*
X499144D01*
X499731Y339690D01*
X500414Y338703D01*
Y338006D01*
X528306D01*
Y338703D01*
X528989Y339690D01*
X543927D01*
Y350310D01*
X539282D01*
Y359690D01*
X543927D01*
Y362176D01*
X545499D01*
X545641Y362033D01*
X546928Y361500D01*
X548320D01*
X549607Y362033D01*
X550591Y363017D01*
X551124Y364304D01*
Y365696D01*
X550591Y366982D01*
X549607Y367967D01*
X548320Y368500D01*
X546928D01*
X545641Y367967D01*
X545499Y367824D01*
X543927D01*
Y370310D01*
X528989D01*
X528306Y371297D01*
Y371994D01*
D02*
G37*
G36*
X154946D02*
X127054D01*
Y371297D01*
X126371Y370310D01*
X125784Y370310D01*
X111433D01*
Y359690D01*
X125784D01*
X126371Y359690D01*
X127054Y358703D01*
Y351297D01*
X126371Y350310D01*
X125784Y350310D01*
X120172D01*
Y348622D01*
X117632D01*
Y350310D01*
X111433D01*
Y346270D01*
X113121D01*
Y343730D01*
X111433D01*
Y339690D01*
X117632D01*
Y341378D01*
X120172D01*
Y339690D01*
X125784D01*
X126371Y339690D01*
X127054Y338703D01*
Y338006D01*
X154946D01*
Y338703D01*
X155629Y339690D01*
X170567D01*
Y350310D01*
X165922D01*
Y359690D01*
X170567D01*
Y362176D01*
X172139D01*
X172281Y362033D01*
X173568Y361500D01*
X174960D01*
X176247Y362033D01*
X177231Y363017D01*
X177764Y364304D01*
Y365696D01*
X177231Y366982D01*
X176247Y367967D01*
X174960Y368500D01*
X173568D01*
X172281Y367967D01*
X172139Y367824D01*
X170567D01*
Y370310D01*
X155629D01*
X154946Y371297D01*
Y371994D01*
D02*
G37*
G36*
X621646D02*
X593754D01*
Y371297D01*
X593071Y370310D01*
X592484Y370310D01*
X578133D01*
Y359690D01*
X592484D01*
X593071Y359690D01*
X593754Y358703D01*
Y351297D01*
X593071Y350310D01*
X592484Y350310D01*
X586872D01*
Y348622D01*
X584332D01*
Y350310D01*
X578133D01*
Y346270D01*
X579821D01*
Y343730D01*
X578133D01*
Y339690D01*
X584332D01*
Y341378D01*
X586872D01*
Y339690D01*
X592484D01*
X593071Y339690D01*
X593754Y338703D01*
Y338006D01*
X621646D01*
Y338703D01*
X622329Y339690D01*
X637267D01*
Y342176D01*
X638839D01*
X638981Y342033D01*
X640268Y341500D01*
X641660D01*
X642947Y342033D01*
X643931Y343017D01*
X644464Y344304D01*
Y345696D01*
X643931Y346982D01*
X642947Y347967D01*
X641660Y348500D01*
X640268D01*
X638981Y347967D01*
X638839Y347824D01*
X637267D01*
Y350310D01*
X632622D01*
Y359690D01*
X637267D01*
Y370310D01*
X622329D01*
X621646Y371297D01*
Y371994D01*
D02*
G37*
G36*
X372546Y334314D02*
X371154D01*
X369868Y333781D01*
X368883Y332797D01*
X368350Y331510D01*
Y331358D01*
X367546Y330316D01*
X366154D01*
X364867Y329783D01*
X364725Y329640D01*
X351902D01*
X351761Y329781D01*
X350474Y330314D01*
X349082D01*
X347795Y329781D01*
X346811Y328797D01*
X346278Y327510D01*
Y326118D01*
X346811Y324832D01*
X347795Y323847D01*
X349082Y323314D01*
X350474D01*
X351761Y323847D01*
X351905Y323992D01*
X364725D01*
X364867Y323849D01*
X366154Y323316D01*
X367546D01*
X368833Y323849D01*
X369817Y324833D01*
X370350Y326120D01*
Y326272D01*
X371154Y327314D01*
X372546D01*
X373350Y326272D01*
Y326118D01*
X373883Y324832D01*
X374867Y323847D01*
X376154Y323314D01*
X377546D01*
X378833Y323847D01*
X379817Y324832D01*
X380350Y326118D01*
Y327510D01*
X379817Y328797D01*
X378833Y329781D01*
X377546Y330314D01*
X376154D01*
X375350Y331356D01*
Y331510D01*
X374817Y332797D01*
X373833Y333781D01*
X372546Y334314D01*
D02*
G37*
G36*
X321156Y321248D02*
X319764D01*
X318477Y320715D01*
X317493Y319731D01*
X316960Y318444D01*
Y317052D01*
X317493Y315766D01*
X318477Y314781D01*
X319764Y314248D01*
X321156D01*
X322442Y314781D01*
X323427Y315766D01*
X323960Y317052D01*
Y318444D01*
X323427Y319731D01*
X322442Y320715D01*
X321156Y321248D01*
D02*
G37*
G36*
X258646Y277820D02*
X257254D01*
X255967Y277287D01*
X254983Y276303D01*
X254450Y275016D01*
Y273624D01*
X254983Y272337D01*
X255967Y271353D01*
X257254Y270820D01*
X258646D01*
X259933Y271353D01*
X260917Y272337D01*
X261450Y273624D01*
Y275016D01*
X260917Y276303D01*
X259933Y277287D01*
X258646Y277820D01*
D02*
G37*
G36*
X404556Y249880D02*
X403164D01*
X401877Y249347D01*
X401735Y249204D01*
X279800D01*
X279800Y249204D01*
X278719Y248989D01*
X277803Y248377D01*
X277803Y248377D01*
X258811Y229385D01*
X193621D01*
X192540Y229170D01*
X191624Y228558D01*
X191624Y228558D01*
X166263Y203197D01*
X153834D01*
X153596Y203772D01*
X151909Y205460D01*
X149703Y206373D01*
X147316D01*
X145111Y205460D01*
X143423Y203772D01*
X142510Y201567D01*
Y199180D01*
X143423Y196974D01*
X145111Y195287D01*
X147316Y194373D01*
X149703D01*
X151909Y195287D01*
X153596Y196974D01*
X153834Y197549D01*
X167433D01*
X167433Y197549D01*
X168514Y197764D01*
X169430Y198376D01*
X194791Y223737D01*
X259981D01*
X259981Y223737D01*
X261062Y223952D01*
X261978Y224564D01*
X280970Y243556D01*
X401735D01*
X401877Y243413D01*
X403164Y242880D01*
X404556D01*
X405843Y243413D01*
X406827Y244397D01*
X407360Y245684D01*
Y247076D01*
X406827Y248363D01*
X405843Y249347D01*
X404556Y249880D01*
D02*
G37*
G36*
X410522Y218087D02*
X409130D01*
X407844Y217554D01*
X407701Y217411D01*
X314410D01*
X314410Y217411D01*
X313329Y217196D01*
X312413Y216584D01*
X299026Y203197D01*
X195744D01*
X195506Y203772D01*
X193819Y205460D01*
X191613Y206373D01*
X189226D01*
X187021Y205460D01*
X185333Y203772D01*
X184420Y201567D01*
Y199180D01*
X185333Y196974D01*
X187021Y195287D01*
X189226Y194373D01*
X191613D01*
X193819Y195287D01*
X195506Y196974D01*
X195744Y197549D01*
X300196D01*
X300196Y197549D01*
X301277Y197764D01*
X302193Y198376D01*
X315579Y211763D01*
X407701D01*
X407844Y211620D01*
X409130Y211087D01*
X410522D01*
X411809Y211620D01*
X412793Y212604D01*
X413326Y213891D01*
Y215283D01*
X412793Y216569D01*
X411809Y217554D01*
X410522Y218087D01*
D02*
G37*
G36*
X270681Y222437D02*
X269288D01*
X268002Y221904D01*
X267017Y220919D01*
X266485Y219633D01*
Y218241D01*
X267017Y216954D01*
X268002Y215970D01*
X269288Y215437D01*
X270681D01*
X271967Y215970D01*
X272952Y216954D01*
X273484Y218241D01*
Y219633D01*
X272952Y220919D01*
X271967Y221904D01*
X270681Y222437D01*
D02*
G37*
G36*
X369183Y148280D02*
X367791D01*
X366504Y147747D01*
X365520Y146763D01*
X364987Y145476D01*
Y144084D01*
X365520Y142797D01*
X366504Y141813D01*
X367791Y141280D01*
X369183D01*
X370469Y141813D01*
X371454Y142797D01*
X371987Y144084D01*
Y145476D01*
X371454Y146763D01*
X370469Y147747D01*
X369183Y148280D01*
D02*
G37*
G36*
X442656Y142700D02*
X441264D01*
X439977Y142167D01*
X438993Y141183D01*
X438460Y139896D01*
Y138504D01*
X438993Y137217D01*
X439977Y136233D01*
X441264Y135700D01*
X442656D01*
X443943Y136233D01*
X444927Y137217D01*
X445460Y138504D01*
Y139896D01*
X444927Y141183D01*
X443943Y142167D01*
X442656Y142700D01*
D02*
G37*
G36*
X433810Y113450D02*
X432417D01*
X431131Y112917D01*
X430988Y112774D01*
X409882D01*
X409739Y112917D01*
X408453Y113450D01*
X407061D01*
X405774Y112917D01*
X404790Y111933D01*
X404257Y110646D01*
Y109254D01*
X404790Y107967D01*
X405774Y106983D01*
X407061Y106450D01*
X408453D01*
X409739Y106983D01*
X409882Y107126D01*
X430988D01*
X431131Y106983D01*
X432417Y106450D01*
X433810D01*
X435096Y106983D01*
X436080Y107967D01*
X436613Y109254D01*
Y110646D01*
X436080Y111933D01*
X435096Y112917D01*
X433810Y113450D01*
D02*
G37*
G36*
X191613Y139120D02*
X189226D01*
X187021Y138206D01*
X185333Y136518D01*
X184420Y134313D01*
Y131926D01*
X185333Y129721D01*
X187021Y128033D01*
X189226Y127120D01*
X191613D01*
X193819Y128033D01*
X195506Y129721D01*
X195744Y130295D01*
X287070D01*
X324393Y92973D01*
X325309Y92361D01*
X326390Y92146D01*
X326390Y92146D01*
X374725D01*
X374867Y92003D01*
X376154Y91470D01*
X377546D01*
X378833Y92003D01*
X379817Y92987D01*
X380350Y94274D01*
Y95666D01*
X379817Y96953D01*
X378833Y97937D01*
X377546Y98470D01*
X376154D01*
X374867Y97937D01*
X374725Y97794D01*
X327560D01*
X290237Y135117D01*
X289321Y135729D01*
X288240Y135944D01*
X288240Y135944D01*
X195744D01*
X195506Y136518D01*
X193819Y138206D01*
X191613Y139120D01*
D02*
G37*
G36*
X416453Y96080D02*
X415061D01*
X413774Y95547D01*
X412790Y94562D01*
X412257Y93276D01*
Y91883D01*
X412790Y90597D01*
X413774Y89612D01*
X415061Y89080D01*
X416453D01*
X417739Y89612D01*
X418724Y90597D01*
X419257Y91883D01*
Y93276D01*
X418724Y94562D01*
X417739Y95547D01*
X416453Y96080D01*
D02*
G37*
G36*
X149703Y139120D02*
X147316D01*
X145111Y138206D01*
X143423Y136518D01*
X142510Y134313D01*
Y131926D01*
X143423Y129721D01*
X145111Y128033D01*
X147316Y127120D01*
X149703D01*
X150278Y127358D01*
X165830Y111805D01*
X166746Y111193D01*
X167827Y110978D01*
X167827Y110978D01*
X278701D01*
X309706Y79973D01*
X310318Y79564D01*
X309969Y78294D01*
X288920D01*
X268697Y98517D01*
X267781Y99129D01*
X266700Y99344D01*
X266700Y99344D01*
X144369D01*
X112362Y131352D01*
X112600Y131926D01*
Y134313D01*
X111686Y136518D01*
X109999Y138206D01*
X107793Y139120D01*
X105406D01*
X103201Y138206D01*
X101513Y136518D01*
X100600Y134313D01*
Y131926D01*
X101513Y129721D01*
X103201Y128033D01*
X105406Y127120D01*
X107793D01*
X108368Y127358D01*
X141202Y94523D01*
X141202Y94523D01*
X142119Y93911D01*
X143200Y93696D01*
X143200Y93696D01*
X265530D01*
X285753Y73473D01*
X285753Y73473D01*
X286364Y73064D01*
X286016Y71794D01*
X210926D01*
X210926Y71794D01*
X209845Y71579D01*
X208929Y70967D01*
X208929Y70967D01*
X206652Y68690D01*
X153834D01*
X153596Y69265D01*
X151909Y70953D01*
X149703Y71866D01*
X147316D01*
X145111Y70953D01*
X143423Y69265D01*
X142510Y67060D01*
Y64673D01*
X143423Y62467D01*
X145111Y60780D01*
X146838Y60064D01*
X146585Y58794D01*
X117666D01*
X112362Y64098D01*
X112600Y64673D01*
Y67060D01*
X111686Y69265D01*
X109999Y70953D01*
X107793Y71866D01*
X105406D01*
X103201Y70953D01*
X101513Y69265D01*
X100600Y67060D01*
Y64673D01*
X101513Y62467D01*
X103201Y60780D01*
X105406Y59866D01*
X107793D01*
X108368Y60104D01*
X114499Y53973D01*
X114499Y53973D01*
X115415Y53361D01*
X116496Y53146D01*
X381805D01*
X381947Y53003D01*
X383234Y52470D01*
X384626D01*
X385913Y53003D01*
X386897Y53987D01*
X387430Y55274D01*
Y56666D01*
X386897Y57953D01*
X385913Y58937D01*
X384626Y59470D01*
X383234D01*
X381947Y58937D01*
X381805Y58794D01*
X150435D01*
X150182Y60064D01*
X151909Y60780D01*
X153596Y62467D01*
X153834Y63042D01*
X207822D01*
X207822Y63042D01*
X208903Y63257D01*
X209819Y63869D01*
X212096Y66146D01*
X381805D01*
X381947Y66003D01*
X383234Y65470D01*
X384626D01*
X385913Y66003D01*
X386897Y66987D01*
X387430Y68274D01*
Y69666D01*
X386897Y70953D01*
X385913Y71937D01*
X384626Y72470D01*
X383234D01*
X381947Y71937D01*
X381805Y71794D01*
X379920D01*
X379394Y73064D01*
X379817Y73488D01*
X380350Y74774D01*
Y76166D01*
X379817Y77453D01*
X378833Y78437D01*
X377546Y78970D01*
X376154D01*
X374867Y78437D01*
X374725Y78294D01*
X349588D01*
X349062Y79564D01*
X349485Y79987D01*
X350018Y81274D01*
Y82666D01*
X349485Y83953D01*
X348500Y84937D01*
X347214Y85470D01*
X345821D01*
X344535Y84937D01*
X344392Y84794D01*
X312873D01*
X281868Y115800D01*
X280952Y116412D01*
X279871Y116627D01*
X279871Y116627D01*
X168997D01*
X154272Y131352D01*
X154510Y131926D01*
Y134313D01*
X153596Y136518D01*
X151909Y138206D01*
X149703Y139120D01*
D02*
G37*
G36*
X416453Y77160D02*
X415061D01*
X413774Y76627D01*
X412790Y75643D01*
X412257Y74356D01*
Y72964D01*
X412790Y71677D01*
X413774Y70693D01*
X415061Y70160D01*
X416453D01*
X417739Y70693D01*
X418724Y71677D01*
X419257Y72964D01*
Y74356D01*
X418724Y75643D01*
X417739Y76627D01*
X416453Y77160D01*
D02*
G37*
G36*
X513969Y69570D02*
X512191D01*
X510475Y69110D01*
X508935Y68221D01*
X507679Y66965D01*
X507463Y66592D01*
X505997D01*
X505781Y66965D01*
X504525Y68221D01*
X502985Y69110D01*
X501269Y69570D01*
X499491D01*
X497775Y69110D01*
X496235Y68221D01*
X495700Y67686D01*
X494430Y68212D01*
Y69570D01*
X488950D01*
Y67882D01*
X486410D01*
Y69570D01*
X480930D01*
Y64090D01*
X482618D01*
Y61550D01*
X480930D01*
Y56070D01*
X486410D01*
Y57758D01*
X488950D01*
Y56070D01*
X494430D01*
Y57428D01*
X495700Y57954D01*
X496235Y57419D01*
X497775Y56530D01*
X499491Y56070D01*
X501269D01*
X502985Y56530D01*
X504525Y57419D01*
X505781Y58675D01*
X505997Y59049D01*
X507463D01*
X507679Y58675D01*
X508935Y57419D01*
X510475Y56530D01*
X512191Y56070D01*
X513969D01*
X515685Y56530D01*
X517225Y57419D01*
X518481Y58675D01*
X519370Y60215D01*
X519830Y61931D01*
Y63709D01*
X519370Y65426D01*
X518481Y66965D01*
X517225Y68221D01*
X515685Y69110D01*
X513969Y69570D01*
D02*
G37*
G36*
X633106Y64171D02*
X631714D01*
X630427Y63638D01*
X630285Y63495D01*
X596490D01*
X595409Y63280D01*
X594493Y62668D01*
X594493Y62668D01*
X575289Y43464D01*
X266738D01*
X261448Y48754D01*
Y48956D01*
X260916Y50243D01*
X259931Y51227D01*
X258645Y51760D01*
X257252D01*
X255966Y51227D01*
X254981Y50243D01*
X254448Y48956D01*
Y47564D01*
X254981Y46277D01*
X255966Y45293D01*
X257252Y44760D01*
X257454D01*
X263571Y38643D01*
X264488Y38031D01*
X265568Y37816D01*
X576459D01*
X576459Y37816D01*
X577540Y38031D01*
X578456Y38643D01*
X597660Y57846D01*
X630285D01*
X630427Y57704D01*
X631714Y57171D01*
X633106D01*
X634393Y57704D01*
X635377Y58688D01*
X635910Y59975D01*
Y61367D01*
X635377Y62653D01*
X634393Y63638D01*
X633106Y64171D01*
D02*
G37*
%LPD*%
D18*
X148510Y200373D02*
X167433D01*
X193621Y226561D02*
X259981D01*
X167433Y200373D02*
X193621Y226561D01*
X279800Y246380D02*
X403860D01*
X259981Y226561D02*
X279800Y246380D01*
X148510Y133120D02*
X167827Y113802D01*
X279871D01*
X106600Y133120D02*
X143200Y96520D01*
X266700D01*
X210926Y68970D02*
X383930D01*
X148510Y65866D02*
X207822D01*
X210926Y68970D01*
X116496Y55970D02*
X383930D01*
X106600Y65866D02*
X116496Y55970D01*
X349778Y326814D02*
X349780Y326816D01*
X366850D01*
X407757Y109950D02*
X433113D01*
X287750Y75470D02*
X376850D01*
X266700Y96520D02*
X287750Y75470D01*
X279871Y113802D02*
X311703Y81970D01*
X346518D01*
X190420Y133120D02*
X288240D01*
X326390Y94970D02*
X376850D01*
X288240Y133120D02*
X326390Y94970D01*
X314410Y214587D02*
X409826D01*
X300196Y200373D02*
X314410Y214587D01*
X190420Y200373D02*
X300196D01*
X432196Y367500D02*
X455724D01*
X536458Y509000D02*
X547624D01*
X256438Y725000D02*
X277256D01*
X292940Y740684D01*
X366850D01*
X256438Y653000D02*
X275055D01*
X290739Y668684D01*
X366850D01*
X256438Y581000D02*
X272505D01*
X288189Y596684D01*
X366850D01*
X256438Y509000D02*
X274141D01*
X289825Y524684D01*
X366850D01*
X256438Y437000D02*
X274995D01*
X290679Y452684D01*
X366850D01*
X276100Y365000D02*
X291784Y380684D01*
X256438Y365000D02*
X276100D01*
X291784Y380684D02*
X366850D01*
X629798Y561000D02*
X640964D01*
X536458Y437000D02*
X547624D01*
X376850Y542814D02*
X677039D01*
X412172Y680720D02*
X544194D01*
X566420Y658494D01*
X396916Y695976D02*
X412172Y680720D01*
X566756Y601644D02*
X637634D01*
X566420Y601980D02*
X566756Y601644D01*
X388821Y614816D02*
X643432D01*
X381850Y621787D02*
X388821Y614816D01*
X381850Y585947D02*
Y596684D01*
X637634Y601644D02*
X658850Y580428D01*
X679984D01*
X643432Y614816D02*
X658820Y599428D01*
X679984D01*
X374823Y621787D02*
X381850D01*
X371850Y618814D02*
X374823Y621787D01*
X381850Y657947D02*
Y668684D01*
X265568Y40640D02*
X576459D01*
X596490Y60671D02*
X632410D01*
X576459Y40640D02*
X596490Y60671D01*
X257948Y48260D02*
X265568Y40640D01*
X349778Y686814D02*
X349780Y686816D01*
X366850D01*
X349780Y614816D02*
X366850D01*
X629798Y345000D02*
Y365000D01*
Y345000D02*
X640964D01*
X617700D02*
X629798D01*
X536458Y365000D02*
X547624D01*
X524360D02*
X536458D01*
Y345000D02*
Y365000D01*
X443118Y345000D02*
Y365000D01*
X349778D02*
X376903D01*
X381850Y369947D01*
Y380684D01*
X337680Y365000D02*
X349778D01*
Y345000D02*
Y365000D01*
X244340D02*
X256438D01*
Y345000D02*
Y365000D01*
X163098D02*
X174264D01*
X151000D02*
X163098D01*
Y345000D02*
Y365000D01*
X349780Y398816D02*
X366850D01*
X349778Y398814D02*
X349780Y398816D01*
X163098Y417000D02*
Y437000D01*
X151000D02*
X163098D01*
X174264D01*
X256438Y417000D02*
Y437000D01*
X244340D02*
X256438D01*
X349778Y417000D02*
Y437000D01*
X337680D02*
X349778D01*
X381850Y441947D02*
Y452684D01*
X376903Y437000D02*
X381850Y441947D01*
X349778Y437000D02*
X376903D01*
X443118Y417000D02*
Y437000D01*
X432196Y439500D02*
X445618D01*
X454999D01*
X536458Y417000D02*
Y437000D01*
X524360D02*
X536458D01*
X617700Y417000D02*
X629798D01*
X640964D01*
X629798D02*
Y437000D01*
X349780Y470816D02*
X366850D01*
X349778Y470814D02*
X349780Y470816D01*
X163098Y489000D02*
Y509000D01*
X151000D02*
X163098D01*
X174264D01*
X256438Y489000D02*
Y509000D01*
X244340D02*
X256438D01*
X349778Y489000D02*
Y509000D01*
X337680D02*
X349778D01*
X381850Y513947D02*
Y524684D01*
X376903Y509000D02*
X381850Y513947D01*
X349778Y509000D02*
X376903D01*
X443118Y489000D02*
Y509000D01*
X432196Y511500D02*
X445618D01*
X454999D01*
X536458Y489000D02*
Y509000D01*
X524360D02*
X536458D01*
X617700Y489000D02*
X629798D01*
X640964D01*
X629798D02*
Y509000D01*
X349780Y542816D02*
X366850D01*
X349778Y542814D02*
X349780Y542816D01*
X163098Y561000D02*
Y581000D01*
X151000D02*
X163098D01*
X174264D01*
X256438Y561000D02*
Y581000D01*
X244340D02*
X256438D01*
X349778Y561000D02*
Y581000D01*
X337680D02*
X349778D01*
X376903D02*
X381850Y585947D01*
X349778Y581000D02*
X376903D01*
X443118Y561000D02*
Y581000D01*
X432196Y583500D02*
X445618D01*
X454999D01*
X536458Y561000D02*
Y581000D01*
X524360D02*
X536458D01*
X547624D01*
X617700Y561000D02*
X629798D01*
Y581000D01*
X349778Y614814D02*
X349780Y614816D01*
X163098Y633000D02*
Y653000D01*
X151000D02*
X163098D01*
X174264D01*
X256438Y633000D02*
Y653000D01*
X244340D02*
X256438D01*
X349778Y633000D02*
Y653000D01*
X337680D02*
X349778D01*
X376903D02*
X381850Y657947D01*
X349778Y653000D02*
X376903D01*
X443118Y633000D02*
Y653000D01*
X432196Y655500D02*
X445618D01*
X454999D01*
X536458Y633000D02*
Y653000D01*
X524360D02*
X536458D01*
X547624D01*
X617700Y633000D02*
X629798D01*
X640964D01*
X629798D02*
Y653000D01*
X381850Y729947D02*
Y740684D01*
X349778Y725000D02*
X376903D01*
X381850Y729947D01*
X163098Y705000D02*
Y725000D01*
X151000D02*
X163098D01*
X141000Y715000D02*
X151000Y725000D01*
X163098D02*
X174264D01*
X234340Y715000D02*
X244340Y725000D01*
X256438D01*
X327680Y715000D02*
X337680Y725000D01*
X349778D01*
X256438Y705000D02*
Y725000D01*
X349778Y705000D02*
Y725000D01*
X629798Y705000D02*
Y725000D01*
X617700Y705000D02*
X629798D01*
X607700Y715000D02*
X617700Y705000D01*
X629798D02*
X640964D01*
X536458Y725000D02*
X547624D01*
X514360Y715000D02*
X524360Y725000D01*
X536458D01*
Y705000D02*
Y725000D01*
X445618Y727500D02*
X454999D01*
X432196D02*
X445618D01*
X421020Y716324D02*
X432196Y727500D01*
X421020Y715000D02*
Y716324D01*
X443118Y725000D02*
X445618Y727500D01*
X443118Y705000D02*
Y725000D01*
D39*
X6850Y12000D02*
X7540Y9425D01*
X9425Y7540D01*
X12000Y6850D01*
X843150Y838000D02*
X842460Y840575D01*
X840575Y842460D01*
X838000Y843150D01*
X12000Y843150D02*
X9425Y842460D01*
X7540Y840575D01*
X6850Y838000D01*
X840000Y679908D02*
X842227Y680830D01*
X843150Y683057D01*
X838000Y6850D02*
X840575Y7540D01*
X842460Y9425D01*
X843150Y12000D01*
X817010Y515497D02*
X817307Y512860D01*
X818184Y510356D01*
X819595Y508109D01*
X821472Y506232D01*
X823719Y504821D01*
X826223Y503944D01*
X828860Y503647D01*
X843150Y500497D02*
X842227Y502724D01*
X840000Y503647D01*
X828860Y679908D02*
X826223Y679610D01*
X823719Y678734D01*
X821472Y677322D01*
X819595Y675446D01*
X818184Y673199D01*
X817307Y670694D01*
X817010Y668057D01*
X828860Y679908D02*
X840000D01*
X12000Y843150D02*
X837941D01*
X828860Y503647D02*
X840000D01*
X12059Y6850D02*
X838000D01*
X817010Y515497D02*
Y668057D01*
X843150Y683099D02*
Y838000D01*
X843150Y12042D02*
Y500497D01*
X6850Y12000D02*
Y837941D01*
D62*
X703480Y295000D02*
X751840Y246640D01*
Y156464D02*
Y246640D01*
X692484Y250961D02*
X747061Y196384D01*
Y156464D02*
Y196384D01*
X680720Y246380D02*
Y451584D01*
X692484Y250961D02*
Y490220D01*
X680720Y246380D02*
X742315Y184785D01*
X661488Y470816D02*
X680720Y451584D01*
X742315Y156464D02*
Y184785D01*
X443584Y470816D02*
X661488D01*
X436613Y477787D02*
X443584Y470816D01*
X413244D02*
X443584D01*
X413242Y477787D02*
X436613D01*
D63*
X487680Y62820D02*
D03*
D64*
X500380D02*
D03*
X513080D02*
D03*
D65*
X843526Y836646D02*
D03*
Y826646D02*
D03*
Y816646D02*
D03*
Y806646D02*
D03*
Y796646D02*
D03*
Y786646D02*
D03*
Y776646D02*
D03*
Y766646D02*
D03*
Y756646D02*
D03*
Y746646D02*
D03*
Y736646D02*
D03*
Y726646D02*
D03*
Y716646D02*
D03*
Y706646D02*
D03*
Y696646D02*
D03*
Y686646D02*
D03*
X836499Y679532D02*
D03*
X826504Y679234D02*
D03*
X818616Y673087D02*
D03*
X817386Y663163D02*
D03*
Y653163D02*
D03*
Y643163D02*
D03*
Y633163D02*
D03*
Y623163D02*
D03*
Y613163D02*
D03*
Y603163D02*
D03*
Y593163D02*
D03*
Y583163D02*
D03*
Y573163D02*
D03*
Y563163D02*
D03*
Y553163D02*
D03*
Y543163D02*
D03*
Y533163D02*
D03*
Y523163D02*
D03*
X817680Y513168D02*
D03*
X823805Y505263D02*
D03*
X833728Y504023D02*
D03*
X843375Y501389D02*
D03*
X843526Y491390D02*
D03*
Y481390D02*
D03*
Y471390D02*
D03*
Y461390D02*
D03*
Y451390D02*
D03*
Y441390D02*
D03*
Y431390D02*
D03*
Y421390D02*
D03*
Y411390D02*
D03*
Y401390D02*
D03*
Y391390D02*
D03*
Y381390D02*
D03*
Y371390D02*
D03*
Y361390D02*
D03*
Y351390D02*
D03*
Y341390D02*
D03*
Y331390D02*
D03*
Y321390D02*
D03*
Y311391D02*
D03*
Y301391D02*
D03*
Y291391D02*
D03*
Y281391D02*
D03*
Y271391D02*
D03*
Y261391D02*
D03*
Y251391D02*
D03*
Y241391D02*
D03*
Y231391D02*
D03*
Y221391D02*
D03*
Y211391D02*
D03*
Y201391D02*
D03*
Y191391D02*
D03*
Y181391D02*
D03*
Y171391D02*
D03*
Y161391D02*
D03*
Y151391D02*
D03*
Y141391D02*
D03*
Y131391D02*
D03*
Y121391D02*
D03*
Y111391D02*
D03*
Y101391D02*
D03*
Y91391D02*
D03*
Y81391D02*
D03*
Y71391D02*
D03*
Y61391D02*
D03*
Y51391D02*
D03*
Y41391D02*
D03*
Y31391D02*
D03*
Y21391D02*
D03*
X843451Y11391D02*
D03*
X834744Y6474D02*
D03*
X824744D02*
D03*
X814744D02*
D03*
X804744D02*
D03*
X794744D02*
D03*
X784744D02*
D03*
X774744D02*
D03*
X764744D02*
D03*
X754744D02*
D03*
X744744D02*
D03*
X734744D02*
D03*
X724744D02*
D03*
X714744D02*
D03*
X704744D02*
D03*
X694744D02*
D03*
X684744D02*
D03*
X674744D02*
D03*
X664744D02*
D03*
X654744D02*
D03*
X644744D02*
D03*
X634744D02*
D03*
X624744D02*
D03*
X614744D02*
D03*
X604744D02*
D03*
X594744D02*
D03*
X584744D02*
D03*
X574744D02*
D03*
X564744D02*
D03*
X554744D02*
D03*
X544744D02*
D03*
X534744D02*
D03*
X524744D02*
D03*
X514744D02*
D03*
X504744D02*
D03*
X494744D02*
D03*
X484744D02*
D03*
X474744D02*
D03*
X464744D02*
D03*
X454744D02*
D03*
X444744D02*
D03*
X434744D02*
D03*
X424744D02*
D03*
X414744D02*
D03*
X404745D02*
D03*
X394745D02*
D03*
X384745D02*
D03*
X374745D02*
D03*
X364745D02*
D03*
X354745D02*
D03*
X344745D02*
D03*
X334745D02*
D03*
X324745D02*
D03*
X314745D02*
D03*
X304745D02*
D03*
X294745D02*
D03*
X284745D02*
D03*
X274745D02*
D03*
X264745D02*
D03*
X254745D02*
D03*
X244745D02*
D03*
X234745D02*
D03*
X224745D02*
D03*
X214745D02*
D03*
X204745D02*
D03*
X194745D02*
D03*
X184745D02*
D03*
X174745D02*
D03*
X164745D02*
D03*
X154745D02*
D03*
X144745D02*
D03*
X134745D02*
D03*
X124745D02*
D03*
X114745D02*
D03*
X104745D02*
D03*
X94745D02*
D03*
X84745D02*
D03*
X74745D02*
D03*
X64745D02*
D03*
X54745D02*
D03*
X44745D02*
D03*
X34745D02*
D03*
X24745D02*
D03*
X14745D02*
D03*
X6474Y12095D02*
D03*
Y22095D02*
D03*
Y32095D02*
D03*
Y42095D02*
D03*
Y52095D02*
D03*
Y62095D02*
D03*
Y72095D02*
D03*
Y82095D02*
D03*
Y92094D02*
D03*
Y102094D02*
D03*
Y112094D02*
D03*
Y122094D02*
D03*
Y132094D02*
D03*
Y142094D02*
D03*
Y152094D02*
D03*
Y162094D02*
D03*
Y172094D02*
D03*
Y182094D02*
D03*
Y192094D02*
D03*
Y202094D02*
D03*
Y212094D02*
D03*
Y222094D02*
D03*
Y232094D02*
D03*
Y242094D02*
D03*
Y252094D02*
D03*
Y262094D02*
D03*
Y272094D02*
D03*
Y282094D02*
D03*
Y292094D02*
D03*
Y302094D02*
D03*
Y312094D02*
D03*
Y322094D02*
D03*
Y332094D02*
D03*
Y342094D02*
D03*
Y352094D02*
D03*
Y362094D02*
D03*
Y372094D02*
D03*
Y382094D02*
D03*
Y392094D02*
D03*
Y402094D02*
D03*
Y412094D02*
D03*
Y422094D02*
D03*
Y432094D02*
D03*
Y442094D02*
D03*
Y452094D02*
D03*
Y462094D02*
D03*
Y472094D02*
D03*
Y482094D02*
D03*
Y492094D02*
D03*
Y502094D02*
D03*
Y512094D02*
D03*
Y522094D02*
D03*
Y532094D02*
D03*
Y542094D02*
D03*
Y552094D02*
D03*
Y562094D02*
D03*
Y572094D02*
D03*
Y582094D02*
D03*
Y592094D02*
D03*
Y602094D02*
D03*
Y612094D02*
D03*
Y622094D02*
D03*
Y632094D02*
D03*
Y642093D02*
D03*
Y652093D02*
D03*
Y662093D02*
D03*
Y672093D02*
D03*
Y682093D02*
D03*
Y692093D02*
D03*
Y702093D02*
D03*
Y712093D02*
D03*
Y722093D02*
D03*
Y732093D02*
D03*
Y742093D02*
D03*
Y752093D02*
D03*
Y762093D02*
D03*
Y772093D02*
D03*
Y782093D02*
D03*
Y792093D02*
D03*
Y802093D02*
D03*
Y812093D02*
D03*
Y822093D02*
D03*
Y832093D02*
D03*
X8143Y841953D02*
D03*
X18018Y843526D02*
D03*
X28018D02*
D03*
X38018D02*
D03*
X48018D02*
D03*
X58018D02*
D03*
X68018D02*
D03*
X78018D02*
D03*
X88018D02*
D03*
X98018D02*
D03*
X108018D02*
D03*
X118018D02*
D03*
X128018D02*
D03*
X138018D02*
D03*
X148018D02*
D03*
X158018D02*
D03*
X168018D02*
D03*
X178018D02*
D03*
X188018D02*
D03*
X198018D02*
D03*
X208018D02*
D03*
X218018D02*
D03*
X228018D02*
D03*
X238018D02*
D03*
X248018D02*
D03*
X258018D02*
D03*
X268018D02*
D03*
X278018D02*
D03*
X288018D02*
D03*
X298018D02*
D03*
X308018D02*
D03*
X318018D02*
D03*
X328018D02*
D03*
X338018D02*
D03*
X348018D02*
D03*
X358018D02*
D03*
X368018D02*
D03*
X378018D02*
D03*
X388018D02*
D03*
X398018D02*
D03*
X408018D02*
D03*
X418018D02*
D03*
X428018D02*
D03*
X438018D02*
D03*
X448018D02*
D03*
X458018D02*
D03*
X468018D02*
D03*
X478018D02*
D03*
X488018D02*
D03*
X498017D02*
D03*
X508017D02*
D03*
X518017D02*
D03*
X528017D02*
D03*
X538017D02*
D03*
X548017D02*
D03*
X558017D02*
D03*
X568017D02*
D03*
X578017D02*
D03*
X588017D02*
D03*
X598017D02*
D03*
X608017D02*
D03*
X618017D02*
D03*
X628017D02*
D03*
X638017D02*
D03*
X648017D02*
D03*
X658017D02*
D03*
X668017D02*
D03*
X678017D02*
D03*
X688017D02*
D03*
X698017D02*
D03*
X708017D02*
D03*
X718017D02*
D03*
X728017D02*
D03*
X738017D02*
D03*
X748017D02*
D03*
X758017D02*
D03*
X768017D02*
D03*
X778017D02*
D03*
X788017D02*
D03*
X798017D02*
D03*
X808017D02*
D03*
X818017D02*
D03*
X828017D02*
D03*
X838017Y843529D02*
D03*
X703480Y295000D02*
D03*
X747061Y156464D02*
D03*
X269985Y218937D02*
D03*
X349778Y326814D02*
D03*
X366850Y326816D02*
D03*
X365216Y357500D02*
D03*
Y347500D02*
D03*
Y419500D02*
D03*
Y429500D02*
D03*
X365477Y491500D02*
D03*
Y501500D02*
D03*
Y563500D02*
D03*
Y573550D02*
D03*
X365216Y717550D02*
D03*
Y707500D02*
D03*
Y645550D02*
D03*
Y634127D02*
D03*
X441960Y139200D02*
D03*
X407757Y109950D02*
D03*
X433113D02*
D03*
X368487Y144780D02*
D03*
X257950Y274320D02*
D03*
X403860Y246380D02*
D03*
X409826Y214587D02*
D03*
X751840Y156464D02*
D03*
X742315D02*
D03*
X413244Y470816D02*
D03*
X455724Y367500D02*
D03*
X415757Y73660D02*
D03*
Y92579D02*
D03*
X547624Y509000D02*
D03*
X679984Y619320D02*
D03*
X413240Y333785D02*
D03*
X403860Y357550D02*
D03*
X396916Y335976D02*
D03*
X679984Y677211D02*
D03*
Y638320D02*
D03*
X346518Y81970D02*
D03*
X376850Y75470D02*
D03*
X413242Y477787D02*
D03*
X692484Y490220D02*
D03*
X640964Y561000D02*
D03*
X547624Y437000D02*
D03*
X383930Y68970D02*
D03*
X413242Y549787D02*
D03*
X396916Y551976D02*
D03*
Y535450D02*
D03*
X678180Y560536D02*
D03*
X566420Y658494D02*
D03*
X413242Y693787D02*
D03*
X396916Y695976D02*
D03*
X566420Y601980D02*
D03*
X396916Y607450D02*
D03*
Y623976D02*
D03*
X403860Y590024D02*
D03*
X381850Y596684D02*
D03*
X679984Y580428D02*
D03*
X678180Y542814D02*
D03*
X679984Y599428D02*
D03*
X376850Y614814D02*
D03*
X396916Y679450D02*
D03*
X403860Y662024D02*
D03*
X381850Y668684D02*
D03*
X371850Y690814D02*
D03*
X376850Y686814D02*
D03*
X383930Y55970D02*
D03*
X257948Y48260D02*
D03*
X632410Y60671D02*
D03*
X371850Y330814D02*
D03*
X376850Y94970D02*
D03*
X413242Y621787D02*
D03*
X320460Y317748D02*
D03*
X320458Y389750D02*
D03*
Y461750D02*
D03*
Y533750D02*
D03*
X320458Y677752D02*
D03*
X320458Y605750D02*
D03*
X413242Y405787D02*
D03*
X366850Y686816D02*
D03*
Y668684D02*
D03*
X371850Y618814D02*
D03*
X366850Y614816D02*
D03*
X376850Y326814D02*
D03*
X396916Y407976D02*
D03*
X371850Y402814D02*
D03*
X376850Y398814D02*
D03*
X396916Y391450D02*
D03*
Y479976D02*
D03*
X371850Y474814D02*
D03*
X376850Y470814D02*
D03*
X396916Y463450D02*
D03*
X371850Y546814D02*
D03*
X376850Y542814D02*
D03*
X403860Y374024D02*
D03*
Y429550D02*
D03*
Y446024D02*
D03*
Y501550D02*
D03*
Y518024D02*
D03*
Y573550D02*
D03*
Y645550D02*
D03*
X640964Y345000D02*
D03*
X547624Y365000D02*
D03*
X381850Y380684D02*
D03*
X366850D02*
D03*
X174264Y365000D02*
D03*
X366850Y398816D02*
D03*
X349778Y398814D02*
D03*
X174264Y437000D02*
D03*
X366850Y452684D02*
D03*
X381850D02*
D03*
X454999Y439500D02*
D03*
X640964Y417000D02*
D03*
X366850Y470816D02*
D03*
X349778Y470814D02*
D03*
X174264Y509000D02*
D03*
X366850Y524684D02*
D03*
X381850D02*
D03*
X454999Y511500D02*
D03*
X640964Y489000D02*
D03*
X366850Y542816D02*
D03*
X349778Y542814D02*
D03*
X174264Y581000D02*
D03*
X366850Y596684D02*
D03*
X454999Y583500D02*
D03*
X547624Y581000D02*
D03*
X349778Y614814D02*
D03*
X174264Y653000D02*
D03*
X454999Y655500D02*
D03*
X547624Y653000D02*
D03*
X640964Y633000D02*
D03*
X349778Y686814D02*
D03*
X366850Y740684D02*
D03*
X381850D02*
D03*
X403860Y734024D02*
D03*
X174264Y725000D02*
D03*
X403860Y717550D02*
D03*
X640964Y705000D02*
D03*
X547624Y725000D02*
D03*
X454999Y727500D02*
D03*
D66*
X814477Y256000D02*
D03*
D67*
X805729Y277120D02*
D03*
X793357Y247252D02*
D03*
X823225Y234880D02*
D03*
X835597Y264748D02*
D03*
X823225Y277120D02*
D03*
X793357Y264748D02*
D03*
X805729Y234880D02*
D03*
X835597Y247252D02*
D03*
D68*
X835120Y822748D02*
D03*
X805252Y835120D02*
D03*
X792880Y44748D02*
D03*
X822748Y57120D02*
D03*
X835120Y355252D02*
D03*
X822748Y14880D02*
D03*
X805252Y57120D02*
D03*
X835120Y44748D02*
D03*
X792880Y27252D02*
D03*
X805252Y342880D02*
D03*
X792880Y372748D02*
D03*
X822748Y385120D02*
D03*
X835120Y372748D02*
D03*
X822748Y342880D02*
D03*
X57120Y372748D02*
D03*
X44748Y342880D02*
D03*
X14880Y355252D02*
D03*
X27252Y385120D02*
D03*
X792880Y355252D02*
D03*
X805252Y385120D02*
D03*
X835120Y805252D02*
D03*
X805252Y792880D02*
D03*
X792880Y822748D02*
D03*
X822748Y835120D02*
D03*
Y792880D02*
D03*
X792880Y805252D02*
D03*
X57120D02*
D03*
X27252Y792880D02*
D03*
X14880Y822748D02*
D03*
X44748Y835120D02*
D03*
X57120Y822748D02*
D03*
X44748Y792880D02*
D03*
X14880Y805252D02*
D03*
X27252Y835120D02*
D03*
X57120Y355252D02*
D03*
X27252Y342880D02*
D03*
X14880Y372748D02*
D03*
X44748Y385120D02*
D03*
X805252Y14880D02*
D03*
X44748Y14880D02*
D03*
X57120Y247252D02*
D03*
X57120Y44748D02*
D03*
X835120Y27252D02*
D03*
X14880Y264748D02*
D03*
X14880Y27252D02*
D03*
X44748Y234880D02*
D03*
X57120Y264748D02*
D03*
X44748Y277120D02*
D03*
X27252Y277120D02*
D03*
Y234880D02*
D03*
X44748Y57120D02*
D03*
X57120Y27252D02*
D03*
X27252Y14880D02*
D03*
Y57120D02*
D03*
X14880Y44748D02*
D03*
X14880Y247252D02*
D03*
D69*
X36000Y256000D02*
D03*
Y36000D02*
D03*
X814000D02*
D03*
Y364000D02*
D03*
Y814000D02*
D03*
X36000D02*
D03*
Y364000D02*
D03*
D70*
X760070Y751490D02*
D03*
X790070Y691490D02*
D03*
Y571490D02*
D03*
Y451490D02*
D03*
X760070Y391490D02*
D03*
X790070Y331490D02*
D03*
X760070Y271490D02*
D03*
X790070Y211490D02*
D03*
Y91490D02*
D03*
X760070Y31490D02*
D03*
X700070Y751490D02*
D03*
X730070Y691490D02*
D03*
Y451490D02*
D03*
X700070Y391490D02*
D03*
X730070Y331490D02*
D03*
X700070Y271490D02*
D03*
X730070Y91490D02*
D03*
X700070Y31490D02*
D03*
X640070Y751490D02*
D03*
X670070Y691490D02*
D03*
Y571490D02*
D03*
Y451490D02*
D03*
X640070Y391490D02*
D03*
X670070Y331490D02*
D03*
Y211490D02*
D03*
X640070Y31490D02*
D03*
X580070Y751490D02*
D03*
X610070Y691490D02*
D03*
Y451490D02*
D03*
X580070Y391490D02*
D03*
X610070Y331490D02*
D03*
X580070Y271490D02*
D03*
Y31490D02*
D03*
X520070Y751490D02*
D03*
X550070Y691490D02*
D03*
Y571490D02*
D03*
Y451490D02*
D03*
X520070Y391490D02*
D03*
X550070Y331490D02*
D03*
X520070Y271490D02*
D03*
Y31490D02*
D03*
X460070Y751490D02*
D03*
X490070Y691490D02*
D03*
Y571490D02*
D03*
Y331490D02*
D03*
X460070Y271490D02*
D03*
X490070Y91490D02*
D03*
X460070Y31490D02*
D03*
X400070Y751490D02*
D03*
Y31490D02*
D03*
X340070Y751490D02*
D03*
Y31490D02*
D03*
X280070Y751490D02*
D03*
X310070Y691490D02*
D03*
X280070Y631490D02*
D03*
Y391490D02*
D03*
X310070Y331490D02*
D03*
X280070Y271490D02*
D03*
Y151490D02*
D03*
Y31490D02*
D03*
X220070Y751490D02*
D03*
X250070Y691490D02*
D03*
Y451490D02*
D03*
X220070Y391490D02*
D03*
X250070Y331490D02*
D03*
X220070Y271490D02*
D03*
Y151490D02*
D03*
Y31490D02*
D03*
X160070Y751490D02*
D03*
X190070Y691490D02*
D03*
Y571490D02*
D03*
Y451490D02*
D03*
X160070Y391490D02*
D03*
X190070Y331490D02*
D03*
X160070Y151490D02*
D03*
Y31490D02*
D03*
X100070Y751490D02*
D03*
X130070Y691490D02*
D03*
X100070Y631490D02*
D03*
Y511490D02*
D03*
X130070Y451490D02*
D03*
X100070Y391490D02*
D03*
X130070Y331490D02*
D03*
Y211490D02*
D03*
X100070Y151490D02*
D03*
X130070Y91490D02*
D03*
X100070Y31490D02*
D03*
X40070Y751490D02*
D03*
X70070Y691490D02*
D03*
X40070Y631490D02*
D03*
X70070Y571490D02*
D03*
X40070Y511490D02*
D03*
X70070Y451490D02*
D03*
Y331490D02*
D03*
Y211490D02*
D03*
X40070Y151490D02*
D03*
X70070Y91490D02*
D03*
D71*
X148510Y200373D02*
D03*
Y133120D02*
D03*
Y65866D02*
D03*
X190420Y200373D02*
D03*
Y133120D02*
D03*
X106600D02*
D03*
Y65866D02*
D03*
D72*
X163098Y705000D02*
D03*
X118902Y725000D02*
D03*
Y705000D02*
D03*
X163098Y725000D02*
D03*
Y653000D02*
D03*
X118902Y633000D02*
D03*
Y653000D02*
D03*
X163098Y633000D02*
D03*
X256438Y653000D02*
D03*
X212242Y633000D02*
D03*
Y653000D02*
D03*
X256438Y633000D02*
D03*
Y725000D02*
D03*
X212242Y705000D02*
D03*
Y725000D02*
D03*
X256438Y705000D02*
D03*
X349778Y653000D02*
D03*
X305582Y633000D02*
D03*
Y653000D02*
D03*
X349778Y633000D02*
D03*
Y705000D02*
D03*
X305582Y725000D02*
D03*
Y705000D02*
D03*
X349778Y725000D02*
D03*
X536458Y653000D02*
D03*
X492262Y633000D02*
D03*
Y653000D02*
D03*
X536458Y633000D02*
D03*
X443118D02*
D03*
X398922Y653000D02*
D03*
Y633000D02*
D03*
X443118Y653000D02*
D03*
Y725000D02*
D03*
X398922Y705000D02*
D03*
Y725000D02*
D03*
X443118Y705000D02*
D03*
X536458D02*
D03*
X492262Y725000D02*
D03*
Y705000D02*
D03*
X536458Y725000D02*
D03*
X629798Y705000D02*
D03*
X585602Y725000D02*
D03*
Y705000D02*
D03*
X629798Y725000D02*
D03*
Y653000D02*
D03*
X585602Y633000D02*
D03*
Y653000D02*
D03*
X629798Y633000D02*
D03*
Y581000D02*
D03*
X585602Y561000D02*
D03*
Y581000D02*
D03*
X629798Y561000D02*
D03*
X536458D02*
D03*
X492262Y581000D02*
D03*
Y561000D02*
D03*
X536458Y581000D02*
D03*
X443118D02*
D03*
X398922Y561000D02*
D03*
Y581000D02*
D03*
X443118Y561000D02*
D03*
X349778Y581000D02*
D03*
X305582Y561000D02*
D03*
Y581000D02*
D03*
X349778Y561000D02*
D03*
X256438Y581000D02*
D03*
X212242Y561000D02*
D03*
Y581000D02*
D03*
X256438Y561000D02*
D03*
X163098D02*
D03*
X118902Y581000D02*
D03*
Y561000D02*
D03*
X163098Y581000D02*
D03*
Y345000D02*
D03*
X118902Y365000D02*
D03*
Y345000D02*
D03*
X163098Y365000D02*
D03*
Y509000D02*
D03*
X118902Y489000D02*
D03*
Y509000D02*
D03*
X163098Y489000D02*
D03*
X256438Y509000D02*
D03*
X212242Y489000D02*
D03*
Y509000D02*
D03*
X256438Y489000D02*
D03*
X349778Y509000D02*
D03*
X305582Y489000D02*
D03*
Y509000D02*
D03*
X349778Y489000D02*
D03*
X256438Y365000D02*
D03*
X212242Y345000D02*
D03*
Y365000D02*
D03*
X256438Y345000D02*
D03*
X349778D02*
D03*
X305582Y365000D02*
D03*
Y345000D02*
D03*
X349778Y365000D02*
D03*
X443118Y345000D02*
D03*
X398922Y365000D02*
D03*
Y345000D02*
D03*
X443118Y365000D02*
D03*
X536458Y345000D02*
D03*
X492262Y365000D02*
D03*
Y345000D02*
D03*
X536458Y365000D02*
D03*
X629798D02*
D03*
X585602Y345000D02*
D03*
Y365000D02*
D03*
X629798Y345000D02*
D03*
X443118Y509000D02*
D03*
X398922Y489000D02*
D03*
Y509000D02*
D03*
X443118Y489000D02*
D03*
X536458Y509000D02*
D03*
X492262Y489000D02*
D03*
Y509000D02*
D03*
X536458Y489000D02*
D03*
X629798D02*
D03*
X585602Y509000D02*
D03*
Y489000D02*
D03*
X629798Y509000D02*
D03*
X163098Y437000D02*
D03*
X118902Y417000D02*
D03*
Y437000D02*
D03*
X163098Y417000D02*
D03*
X443118Y437000D02*
D03*
X398922Y417000D02*
D03*
Y437000D02*
D03*
X443118Y417000D02*
D03*
X536458Y437000D02*
D03*
X492262Y417000D02*
D03*
Y437000D02*
D03*
X536458Y417000D02*
D03*
X256438Y437000D02*
D03*
X212242Y417000D02*
D03*
Y437000D02*
D03*
X256438Y417000D02*
D03*
X349778Y437000D02*
D03*
X305582Y417000D02*
D03*
Y437000D02*
D03*
X349778Y417000D02*
D03*
X629798Y437000D02*
D03*
X585602Y417000D02*
D03*
Y437000D02*
D03*
X629798Y417000D02*
D03*
D73*
X141000Y715000D02*
D03*
Y643000D02*
D03*
X234340D02*
D03*
Y715000D02*
D03*
X327680Y643000D02*
D03*
Y715000D02*
D03*
X514360Y643000D02*
D03*
X421020D02*
D03*
Y715000D02*
D03*
X514360D02*
D03*
X607700D02*
D03*
Y643000D02*
D03*
Y571000D02*
D03*
X514360D02*
D03*
X421020D02*
D03*
X327680D02*
D03*
X234340D02*
D03*
X141000D02*
D03*
Y355000D02*
D03*
Y499000D02*
D03*
X234340D02*
D03*
X327680D02*
D03*
X234340Y355000D02*
D03*
X327680D02*
D03*
X421020D02*
D03*
X514360D02*
D03*
X607700D02*
D03*
X421020Y499000D02*
D03*
X514360D02*
D03*
X607700D02*
D03*
X141000Y427000D02*
D03*
X421020D02*
D03*
X514360D02*
D03*
X234340D02*
D03*
X327680D02*
D03*
X607700D02*
D03*
M02*
