G04*
G04 #@! TF.GenerationSoftware,Altium Limited,Altium Designer,24.1.2 (44)*
G04*
G04 Layer_Color=255*
%FSLAX44Y44*%
%MOMM*%
G71*
G04*
G04 #@! TF.SameCoordinates,547FC346-5DB1-4F5D-A62A-A18CB5EC7F78*
G04*
G04*
G04 #@! TF.FilePolarity,Positive*
G04*
G01*
G75*
%ADD21R,3.3000X3.1500*%
%ADD22C,1.5000*%
%ADD23R,0.7000X0.8000*%
%ADD24O,1.8000X0.6000*%
%ADD25R,2.3000X2.8000*%
%ADD26R,2.3622X1.8796*%
%ADD27R,2.3000X2.2860*%
%ADD28R,3.1725X2.3455*%
%ADD29R,0.6325X2.3455*%
%ADD30O,1.3000X0.3500*%
%ADD31R,1.8000X0.4000*%
%ADD32R,0.9500X0.9000*%
%ADD33R,0.8000X0.7000*%
%ADD34R,2.5000X2.5000*%
%ADD35R,0.2540X0.8048*%
%ADD36R,0.8048X0.2540*%
%ADD37R,1.0000X0.6000*%
%ADD38R,1.7018X0.8128*%
%ADD59R,3.0988X2.2098*%
%ADD61R,1.0500X1.0500*%
%ADD62C,1.0500*%
%ADD63C,0.4000*%
%ADD64C,6.3500*%
%ADD65C,1.0000*%
%ADD66C,1.2000*%
%ADD67C,6.0000*%
G36*
G01X675178Y287614D02*
G02Y302386I1302J7386D01*
G01Y287614D01*
D02*
G37*
G36*
G01X677782Y302386D02*
G02Y287614I-1302J-7386D01*
G01Y302386D01*
D02*
G37*
D21*
X692980Y233680D02*
D03*
X637980D02*
D03*
D22*
X106600Y267627D02*
D03*
X148510Y267627D02*
D03*
X190420D02*
D03*
Y200373D02*
D03*
X148510D02*
D03*
X106600D02*
D03*
Y65866D02*
D03*
X148510D02*
D03*
X190420D02*
D03*
Y133120D02*
D03*
X148510D02*
D03*
X106600D02*
D03*
D23*
X336458Y309184D02*
D03*
X320458D02*
D03*
X663560Y172720D02*
D03*
X679560D02*
D03*
X368487Y135341D02*
D03*
X352487D02*
D03*
X313218D02*
D03*
X297218D02*
D03*
X297219Y261377D02*
D03*
X313219D02*
D03*
X368488D02*
D03*
X352488D02*
D03*
X313218Y160548D02*
D03*
X297218D02*
D03*
X352488D02*
D03*
X368488D02*
D03*
X423756Y228517D02*
D03*
X407756D02*
D03*
X407758Y160998D02*
D03*
X423758D02*
D03*
X407757Y193858D02*
D03*
X423757D02*
D03*
X423757Y261377D02*
D03*
X407757D02*
D03*
X423757Y126339D02*
D03*
X407757D02*
D03*
X423757Y58820D02*
D03*
X407757D02*
D03*
X423757Y92579D02*
D03*
X407757D02*
D03*
X257948Y160548D02*
D03*
X241948D02*
D03*
X257948Y185755D02*
D03*
X241948D02*
D03*
X257948Y210963D02*
D03*
X241948D02*
D03*
X241950Y236170D02*
D03*
X257950D02*
D03*
X257948Y261377D02*
D03*
X241948D02*
D03*
X257950Y110134D02*
D03*
X241950D02*
D03*
X257948Y59720D02*
D03*
X241948D02*
D03*
X257948Y134441D02*
D03*
X241948D02*
D03*
X241949Y84027D02*
D03*
X257949D02*
D03*
X413244Y470816D02*
D03*
X429244D02*
D03*
X413244Y686816D02*
D03*
X429244D02*
D03*
X429242Y669584D02*
D03*
X413242D02*
D03*
X413244Y614816D02*
D03*
X429244D02*
D03*
X429242Y597584D02*
D03*
X413242D02*
D03*
X413244Y542816D02*
D03*
X429244D02*
D03*
X429242Y525584D02*
D03*
X413242D02*
D03*
X429242Y453584D02*
D03*
X413242D02*
D03*
X413244Y398816D02*
D03*
X429244D02*
D03*
X429242Y381584D02*
D03*
X413242D02*
D03*
Y326814D02*
D03*
X429242D02*
D03*
Y309584D02*
D03*
X413242D02*
D03*
X320458Y614816D02*
D03*
X336458D02*
D03*
X320458Y668684D02*
D03*
X336458D02*
D03*
X320458Y542816D02*
D03*
X336458D02*
D03*
X320458Y596684D02*
D03*
X336458D02*
D03*
X320458Y524684D02*
D03*
X336458D02*
D03*
Y452684D02*
D03*
X320458D02*
D03*
Y380684D02*
D03*
X336458D02*
D03*
Y470816D02*
D03*
X320458D02*
D03*
Y398816D02*
D03*
X336458D02*
D03*
X320460Y326814D02*
D03*
X336460D02*
D03*
X320458Y686816D02*
D03*
X336458D02*
D03*
D24*
X623060Y151384D02*
D03*
Y138684D02*
D03*
Y125984D02*
D03*
Y113284D02*
D03*
X679560Y151384D02*
D03*
Y138684D02*
D03*
Y125984D02*
D03*
Y113284D02*
D03*
D25*
X651310Y132334D02*
D03*
D26*
X586740Y256032D02*
D03*
Y211328D02*
D03*
X476120Y256151D02*
D03*
Y211447D02*
D03*
X747061Y111760D02*
D03*
Y156464D02*
D03*
X530860Y211328D02*
D03*
Y256032D02*
D03*
D27*
X747061Y247957D02*
D03*
Y207957D02*
D03*
D28*
X515620Y101977D02*
D03*
D29*
X490220Y162183D02*
D03*
X502920D02*
D03*
X515620D02*
D03*
X528320D02*
D03*
X541020D02*
D03*
D30*
X305203Y101470D02*
D03*
Y94970D02*
D03*
Y88470D02*
D03*
Y81970D02*
D03*
Y75470D02*
D03*
Y68970D02*
D03*
Y62470D02*
D03*
Y55970D02*
D03*
X362203Y101470D02*
D03*
Y94970D02*
D03*
Y88470D02*
D03*
Y81970D02*
D03*
Y75470D02*
D03*
Y68970D02*
D03*
Y62470D02*
D03*
Y55970D02*
D03*
D31*
X359230Y233637D02*
D03*
Y227287D02*
D03*
Y220937D02*
D03*
Y214587D02*
D03*
Y208237D02*
D03*
Y201887D02*
D03*
Y195537D02*
D03*
Y189187D02*
D03*
X308176D02*
D03*
Y195537D02*
D03*
Y201887D02*
D03*
Y208237D02*
D03*
Y214587D02*
D03*
Y220937D02*
D03*
Y227287D02*
D03*
Y233637D02*
D03*
D32*
X692484Y541536D02*
D03*
X667484Y551036D02*
D03*
X692484Y560536D02*
D03*
Y502644D02*
D03*
X667484Y512144D02*
D03*
X692484Y521644D02*
D03*
Y580428D02*
D03*
X667484Y589928D02*
D03*
X692484Y599428D02*
D03*
Y619320D02*
D03*
X667484Y628820D02*
D03*
X692484Y638320D02*
D03*
Y677211D02*
D03*
X667484Y667711D02*
D03*
X692484Y658211D02*
D03*
D33*
X597970Y123054D02*
D03*
Y107054D02*
D03*
Y161170D02*
D03*
Y145170D02*
D03*
X562469Y107054D02*
D03*
Y123054D02*
D03*
X464820Y107054D02*
D03*
Y123054D02*
D03*
Y145169D02*
D03*
Y161169D02*
D03*
X562469Y145169D02*
D03*
Y161169D02*
D03*
X580670Y107054D02*
D03*
Y123054D02*
D03*
X709740Y107053D02*
D03*
Y123053D02*
D03*
X580670Y145170D02*
D03*
Y161170D02*
D03*
X709740Y145169D02*
D03*
Y161169D02*
D03*
X709740Y71671D02*
D03*
Y55671D02*
D03*
X687080D02*
D03*
Y71671D02*
D03*
X580670D02*
D03*
Y55671D02*
D03*
X601970Y71671D02*
D03*
Y55671D02*
D03*
D34*
X374350Y643000D02*
D03*
Y715000D02*
D03*
Y571000D02*
D03*
Y499000D02*
D03*
Y427000D02*
D03*
Y355000D02*
D03*
D35*
X386850Y623976D02*
D03*
X381850Y623976D02*
D03*
X376850D02*
D03*
X371850D02*
D03*
X366850D02*
D03*
X361850D02*
D03*
Y662024D02*
D03*
X366850Y662024D02*
D03*
X371850D02*
D03*
X376850D02*
D03*
X381850D02*
D03*
X386850D02*
D03*
Y734024D02*
D03*
X381850D02*
D03*
X376850D02*
D03*
X371850D02*
D03*
X366850D02*
D03*
X361850D02*
D03*
Y695976D02*
D03*
X366850D02*
D03*
X371850D02*
D03*
X376850D02*
D03*
X381850D02*
D03*
X386850D02*
D03*
Y590024D02*
D03*
X381850D02*
D03*
X376850D02*
D03*
X371850D02*
D03*
X366850D02*
D03*
X361850D02*
D03*
Y551976D02*
D03*
X366850D02*
D03*
X371850D02*
D03*
X376850D02*
D03*
X381850D02*
D03*
X386850D02*
D03*
Y518024D02*
D03*
X381850D02*
D03*
X376850D02*
D03*
X371850D02*
D03*
X366850D02*
D03*
X361850D02*
D03*
Y479976D02*
D03*
X366850D02*
D03*
X371850D02*
D03*
X376850D02*
D03*
X381850D02*
D03*
X386850D02*
D03*
Y446024D02*
D03*
X381850D02*
D03*
X376850D02*
D03*
X371850D02*
D03*
X366850D02*
D03*
X361850D02*
D03*
Y407976D02*
D03*
X366850D02*
D03*
X371850D02*
D03*
X376850D02*
D03*
X381850D02*
D03*
X386850D02*
D03*
Y374024D02*
D03*
X381850D02*
D03*
X376850D02*
D03*
X371850D02*
D03*
X366850D02*
D03*
X361850D02*
D03*
Y335976D02*
D03*
X366850D02*
D03*
X371850D02*
D03*
X376850D02*
D03*
X381850D02*
D03*
X386850D02*
D03*
D36*
X355326Y630500D02*
D03*
X355326Y635500D02*
D03*
Y640500D02*
D03*
Y645500D02*
D03*
Y650500D02*
D03*
Y655500D02*
D03*
X393374D02*
D03*
X393374Y650500D02*
D03*
Y645500D02*
D03*
Y640500D02*
D03*
Y635500D02*
D03*
Y630500D02*
D03*
Y702500D02*
D03*
Y707500D02*
D03*
Y712500D02*
D03*
Y717500D02*
D03*
Y722500D02*
D03*
Y727500D02*
D03*
X355326D02*
D03*
Y722500D02*
D03*
Y717500D02*
D03*
Y712500D02*
D03*
Y707500D02*
D03*
Y702500D02*
D03*
X393374Y558500D02*
D03*
Y563500D02*
D03*
Y568500D02*
D03*
Y573500D02*
D03*
Y578500D02*
D03*
Y583500D02*
D03*
X355326D02*
D03*
Y578500D02*
D03*
Y573500D02*
D03*
Y568500D02*
D03*
Y563500D02*
D03*
Y558500D02*
D03*
X393374Y486500D02*
D03*
Y491500D02*
D03*
Y496500D02*
D03*
Y501500D02*
D03*
Y506500D02*
D03*
Y511500D02*
D03*
X355326D02*
D03*
Y506500D02*
D03*
Y501500D02*
D03*
Y496500D02*
D03*
Y491500D02*
D03*
Y486500D02*
D03*
X393374Y414500D02*
D03*
Y419500D02*
D03*
Y424500D02*
D03*
Y429500D02*
D03*
Y434500D02*
D03*
Y439500D02*
D03*
X355326D02*
D03*
Y434500D02*
D03*
Y429500D02*
D03*
Y424500D02*
D03*
Y419500D02*
D03*
Y414500D02*
D03*
X393374Y342500D02*
D03*
Y347500D02*
D03*
Y352500D02*
D03*
Y357500D02*
D03*
Y362500D02*
D03*
Y367500D02*
D03*
X355326D02*
D03*
Y362500D02*
D03*
Y357500D02*
D03*
Y352500D02*
D03*
Y347500D02*
D03*
Y342500D02*
D03*
D37*
X632410Y54171D02*
D03*
Y73171D02*
D03*
X657910D02*
D03*
Y63671D02*
D03*
Y54171D02*
D03*
D38*
X750955Y641752D02*
D03*
Y629252D02*
D03*
Y616752D02*
D03*
Y604252D02*
D03*
Y591752D02*
D03*
Y579252D02*
D03*
Y566752D02*
D03*
Y554252D02*
D03*
Y541752D02*
D03*
D59*
X779955Y516252D02*
D03*
Y667252D02*
D03*
D61*
X487680Y62820D02*
D03*
D62*
X500380D02*
D03*
X513080D02*
D03*
D63*
X843526Y836646D02*
D03*
Y826646D02*
D03*
Y816646D02*
D03*
Y806646D02*
D03*
Y796646D02*
D03*
Y786646D02*
D03*
Y776646D02*
D03*
Y766646D02*
D03*
Y756646D02*
D03*
Y746646D02*
D03*
Y736646D02*
D03*
Y726646D02*
D03*
Y716646D02*
D03*
Y706646D02*
D03*
Y696646D02*
D03*
Y686646D02*
D03*
X836499Y679532D02*
D03*
X826504Y679234D02*
D03*
X818616Y673087D02*
D03*
X817386Y663163D02*
D03*
Y653163D02*
D03*
Y643163D02*
D03*
Y633163D02*
D03*
Y623163D02*
D03*
Y613163D02*
D03*
Y603163D02*
D03*
Y593163D02*
D03*
Y583163D02*
D03*
Y573163D02*
D03*
Y563163D02*
D03*
Y553163D02*
D03*
Y543163D02*
D03*
Y533163D02*
D03*
Y523163D02*
D03*
X817680Y513168D02*
D03*
X823805Y505263D02*
D03*
X833728Y504023D02*
D03*
X843375Y501389D02*
D03*
X843526Y491390D02*
D03*
Y481390D02*
D03*
Y471390D02*
D03*
Y461390D02*
D03*
Y451390D02*
D03*
Y441390D02*
D03*
Y431390D02*
D03*
Y421390D02*
D03*
Y411390D02*
D03*
Y401390D02*
D03*
Y391390D02*
D03*
Y381390D02*
D03*
Y371390D02*
D03*
Y361390D02*
D03*
Y351390D02*
D03*
Y341390D02*
D03*
Y331390D02*
D03*
Y321390D02*
D03*
Y311391D02*
D03*
Y301391D02*
D03*
Y291391D02*
D03*
Y281391D02*
D03*
Y271391D02*
D03*
Y261391D02*
D03*
Y251391D02*
D03*
Y241391D02*
D03*
Y231391D02*
D03*
Y221391D02*
D03*
Y211391D02*
D03*
Y201391D02*
D03*
Y191391D02*
D03*
Y181391D02*
D03*
Y171391D02*
D03*
Y161391D02*
D03*
Y151391D02*
D03*
Y141391D02*
D03*
Y131391D02*
D03*
Y121391D02*
D03*
Y111391D02*
D03*
Y101391D02*
D03*
Y91391D02*
D03*
Y81391D02*
D03*
Y71391D02*
D03*
Y61391D02*
D03*
Y51391D02*
D03*
Y41391D02*
D03*
Y31391D02*
D03*
Y21391D02*
D03*
X843451Y11391D02*
D03*
X834744Y6474D02*
D03*
X824744D02*
D03*
X814744D02*
D03*
X804744D02*
D03*
X794744D02*
D03*
X784744D02*
D03*
X774744D02*
D03*
X764744D02*
D03*
X754744D02*
D03*
X744744D02*
D03*
X734744D02*
D03*
X724744D02*
D03*
X714744D02*
D03*
X704744D02*
D03*
X694744D02*
D03*
X684744D02*
D03*
X674744D02*
D03*
X664744D02*
D03*
X654744D02*
D03*
X644744D02*
D03*
X634744D02*
D03*
X624744D02*
D03*
X614744D02*
D03*
X604744D02*
D03*
X594744D02*
D03*
X584744D02*
D03*
X574744D02*
D03*
X564744D02*
D03*
X554744D02*
D03*
X544744D02*
D03*
X534744D02*
D03*
X524744D02*
D03*
X514744D02*
D03*
X504744D02*
D03*
X494744D02*
D03*
X484744D02*
D03*
X474744D02*
D03*
X464744D02*
D03*
X454744D02*
D03*
X444744D02*
D03*
X434744D02*
D03*
X424744D02*
D03*
X414744D02*
D03*
X404745D02*
D03*
X394745D02*
D03*
X384745D02*
D03*
X374745D02*
D03*
X364745D02*
D03*
X354745D02*
D03*
X344745D02*
D03*
X334745D02*
D03*
X324745D02*
D03*
X314745D02*
D03*
X304745D02*
D03*
X294745D02*
D03*
X284745D02*
D03*
X274745D02*
D03*
X264745D02*
D03*
X254745D02*
D03*
X244745D02*
D03*
X234745D02*
D03*
X224745D02*
D03*
X214745D02*
D03*
X204745D02*
D03*
X194745D02*
D03*
X184745D02*
D03*
X174745D02*
D03*
X164745D02*
D03*
X154745D02*
D03*
X144745D02*
D03*
X134745D02*
D03*
X124745D02*
D03*
X114745D02*
D03*
X104745D02*
D03*
X94745D02*
D03*
X84745D02*
D03*
X74745D02*
D03*
X64745D02*
D03*
X54745D02*
D03*
X44745D02*
D03*
X34745D02*
D03*
X24745D02*
D03*
X14745D02*
D03*
X6474Y12095D02*
D03*
Y22095D02*
D03*
Y32095D02*
D03*
Y42095D02*
D03*
Y52095D02*
D03*
Y62095D02*
D03*
Y72095D02*
D03*
Y82095D02*
D03*
Y92094D02*
D03*
Y102094D02*
D03*
Y112094D02*
D03*
Y122094D02*
D03*
Y132094D02*
D03*
Y142094D02*
D03*
Y152094D02*
D03*
Y162094D02*
D03*
Y172094D02*
D03*
Y182094D02*
D03*
Y192094D02*
D03*
Y202094D02*
D03*
Y212094D02*
D03*
Y222094D02*
D03*
Y232094D02*
D03*
Y242094D02*
D03*
Y252094D02*
D03*
Y262094D02*
D03*
Y272094D02*
D03*
Y282094D02*
D03*
Y292094D02*
D03*
Y302094D02*
D03*
Y312094D02*
D03*
Y322094D02*
D03*
Y332094D02*
D03*
Y342094D02*
D03*
Y352094D02*
D03*
Y362094D02*
D03*
Y372094D02*
D03*
Y382094D02*
D03*
Y392094D02*
D03*
Y402094D02*
D03*
Y412094D02*
D03*
Y422094D02*
D03*
Y432094D02*
D03*
Y442094D02*
D03*
Y452094D02*
D03*
Y462094D02*
D03*
Y472094D02*
D03*
Y482094D02*
D03*
Y492094D02*
D03*
Y502094D02*
D03*
Y512094D02*
D03*
Y522094D02*
D03*
Y532094D02*
D03*
Y542094D02*
D03*
Y552094D02*
D03*
Y562094D02*
D03*
Y572094D02*
D03*
Y582094D02*
D03*
Y592094D02*
D03*
Y602094D02*
D03*
Y612094D02*
D03*
Y622094D02*
D03*
Y632094D02*
D03*
Y642093D02*
D03*
Y652093D02*
D03*
Y662093D02*
D03*
Y672093D02*
D03*
Y682093D02*
D03*
Y692093D02*
D03*
Y702093D02*
D03*
Y712093D02*
D03*
Y722093D02*
D03*
Y732093D02*
D03*
Y742093D02*
D03*
Y752093D02*
D03*
Y762093D02*
D03*
Y772093D02*
D03*
Y782093D02*
D03*
Y792093D02*
D03*
Y802093D02*
D03*
Y812093D02*
D03*
Y822093D02*
D03*
Y832093D02*
D03*
X8143Y841953D02*
D03*
X18018Y843526D02*
D03*
X28018D02*
D03*
X38018D02*
D03*
X48018D02*
D03*
X58018D02*
D03*
X68018D02*
D03*
X78018D02*
D03*
X88018D02*
D03*
X98018D02*
D03*
X108018D02*
D03*
X118018D02*
D03*
X128018D02*
D03*
X138018D02*
D03*
X148018D02*
D03*
X158018D02*
D03*
X168018D02*
D03*
X178018D02*
D03*
X188018D02*
D03*
X198018D02*
D03*
X208018D02*
D03*
X218018D02*
D03*
X228018D02*
D03*
X238018D02*
D03*
X248018D02*
D03*
X258018D02*
D03*
X268018D02*
D03*
X278018D02*
D03*
X288018D02*
D03*
X298018D02*
D03*
X308018D02*
D03*
X318018D02*
D03*
X328018D02*
D03*
X338018D02*
D03*
X348018D02*
D03*
X358018D02*
D03*
X368018D02*
D03*
X378018D02*
D03*
X388018D02*
D03*
X398018D02*
D03*
X408018D02*
D03*
X418018D02*
D03*
X428018D02*
D03*
X438018D02*
D03*
X448018D02*
D03*
X458018D02*
D03*
X468018D02*
D03*
X478018D02*
D03*
X488018D02*
D03*
X498017D02*
D03*
X508017D02*
D03*
X518017D02*
D03*
X528017D02*
D03*
X538017D02*
D03*
X548017D02*
D03*
X558017D02*
D03*
X568017D02*
D03*
X578017D02*
D03*
X588017D02*
D03*
X598017D02*
D03*
X608017D02*
D03*
X618017D02*
D03*
X628017D02*
D03*
X638017D02*
D03*
X648017D02*
D03*
X658017D02*
D03*
X668017D02*
D03*
X678017D02*
D03*
X688017D02*
D03*
X698017D02*
D03*
X708017D02*
D03*
X718017D02*
D03*
X728017D02*
D03*
X738017D02*
D03*
X748017D02*
D03*
X758017D02*
D03*
X768017D02*
D03*
X778017D02*
D03*
X788017D02*
D03*
X798017D02*
D03*
X808017D02*
D03*
X818017D02*
D03*
X828017D02*
D03*
X838017Y843529D02*
D03*
D64*
X814477Y256000D02*
D03*
D65*
X805729Y277120D02*
D03*
X793357Y247252D02*
D03*
X823225Y234880D02*
D03*
X835597Y264748D02*
D03*
X823225Y277120D02*
D03*
X793357Y264748D02*
D03*
X805729Y234880D02*
D03*
X835597Y247252D02*
D03*
D66*
X835120Y822748D02*
D03*
X805252Y835120D02*
D03*
X792880Y44748D02*
D03*
X822748Y57120D02*
D03*
X835120Y355252D02*
D03*
X822748Y14880D02*
D03*
X805252Y57120D02*
D03*
X835120Y44748D02*
D03*
X792880Y27252D02*
D03*
X805252Y342880D02*
D03*
X792880Y372748D02*
D03*
X822748Y385120D02*
D03*
X835120Y372748D02*
D03*
X822748Y342880D02*
D03*
X57120Y372748D02*
D03*
X44748Y342880D02*
D03*
X14880Y355252D02*
D03*
X27252Y385120D02*
D03*
X792880Y355252D02*
D03*
X805252Y385120D02*
D03*
X835120Y805252D02*
D03*
X805252Y792880D02*
D03*
X792880Y822748D02*
D03*
X822748Y835120D02*
D03*
Y792880D02*
D03*
X792880Y805252D02*
D03*
X57120D02*
D03*
X27252Y792880D02*
D03*
X14880Y822748D02*
D03*
X44748Y835120D02*
D03*
X57120Y822748D02*
D03*
X44748Y792880D02*
D03*
X14880Y805252D02*
D03*
X27252Y835120D02*
D03*
X57120Y355252D02*
D03*
X27252Y342880D02*
D03*
X14880Y372748D02*
D03*
X44748Y385120D02*
D03*
X805252Y14880D02*
D03*
X44748Y14880D02*
D03*
X57120Y247252D02*
D03*
X57120Y44748D02*
D03*
X835120Y27252D02*
D03*
X14880Y264748D02*
D03*
X14880Y27252D02*
D03*
X44748Y234880D02*
D03*
X57120Y264748D02*
D03*
X44748Y277120D02*
D03*
X27252Y277120D02*
D03*
Y234880D02*
D03*
X44748Y57120D02*
D03*
X57120Y27252D02*
D03*
X27252Y14880D02*
D03*
Y57120D02*
D03*
X14880Y44748D02*
D03*
X14880Y247252D02*
D03*
D67*
X36000Y256000D02*
D03*
Y36000D02*
D03*
X814000D02*
D03*
Y364000D02*
D03*
Y814000D02*
D03*
X36000D02*
D03*
Y364000D02*
D03*
M02*
