G04*
G04 #@! TF.GenerationSoftware,Altium Limited,Altium Designer,24.1.2 (44)*
G04*
G04 Layer_Color=255*
%FSLAX44Y44*%
%MOMM*%
G71*
G04*
G04 #@! TF.SameCoordinates,547FC346-5DB1-4F5D-A62A-A18CB5EC7F78*
G04*
G04*
G04 #@! TF.FilePolarity,Positive*
G04*
G01*
G75*
%ADD61R,1.0500X1.0500*%
%ADD62C,1.0500*%
%ADD63C,0.4000*%
%ADD64C,6.3500*%
%ADD65C,1.0000*%
%ADD66C,1.2000*%
%ADD67C,6.0000*%
%ADD70R,1.1938X0.7620*%
%ADD71R,2.4892X3.0988*%
D61*
X487680Y62820D02*
D03*
D62*
X500380D02*
D03*
X513080D02*
D03*
D63*
X843526Y836646D02*
D03*
Y826646D02*
D03*
Y816646D02*
D03*
Y806646D02*
D03*
Y796646D02*
D03*
Y786646D02*
D03*
Y776646D02*
D03*
Y766646D02*
D03*
Y756646D02*
D03*
Y746646D02*
D03*
Y736646D02*
D03*
Y726646D02*
D03*
Y716646D02*
D03*
Y706646D02*
D03*
Y696646D02*
D03*
Y686646D02*
D03*
X836499Y679532D02*
D03*
X826504Y679234D02*
D03*
X818616Y673087D02*
D03*
X817386Y663163D02*
D03*
Y653163D02*
D03*
Y643163D02*
D03*
Y633163D02*
D03*
Y623163D02*
D03*
Y613163D02*
D03*
Y603163D02*
D03*
Y593163D02*
D03*
Y583163D02*
D03*
Y573163D02*
D03*
Y563163D02*
D03*
Y553163D02*
D03*
Y543163D02*
D03*
Y533163D02*
D03*
Y523163D02*
D03*
X817680Y513168D02*
D03*
X823805Y505263D02*
D03*
X833728Y504023D02*
D03*
X843375Y501389D02*
D03*
X843526Y491390D02*
D03*
Y481390D02*
D03*
Y471390D02*
D03*
Y461390D02*
D03*
Y451390D02*
D03*
Y441390D02*
D03*
Y431390D02*
D03*
Y421390D02*
D03*
Y411390D02*
D03*
Y401390D02*
D03*
Y391390D02*
D03*
Y381390D02*
D03*
Y371390D02*
D03*
Y361390D02*
D03*
Y351390D02*
D03*
Y341390D02*
D03*
Y331390D02*
D03*
Y321390D02*
D03*
Y311391D02*
D03*
Y301391D02*
D03*
Y291391D02*
D03*
Y281391D02*
D03*
Y271391D02*
D03*
Y261391D02*
D03*
Y251391D02*
D03*
Y241391D02*
D03*
Y231391D02*
D03*
Y221391D02*
D03*
Y211391D02*
D03*
Y201391D02*
D03*
Y191391D02*
D03*
Y181391D02*
D03*
Y171391D02*
D03*
Y161391D02*
D03*
Y151391D02*
D03*
Y141391D02*
D03*
Y131391D02*
D03*
Y121391D02*
D03*
Y111391D02*
D03*
Y101391D02*
D03*
Y91391D02*
D03*
Y81391D02*
D03*
Y71391D02*
D03*
Y61391D02*
D03*
Y51391D02*
D03*
Y41391D02*
D03*
Y31391D02*
D03*
Y21391D02*
D03*
X843451Y11391D02*
D03*
X834744Y6474D02*
D03*
X824744D02*
D03*
X814744D02*
D03*
X804744D02*
D03*
X794744D02*
D03*
X784744D02*
D03*
X774744D02*
D03*
X764744D02*
D03*
X754744D02*
D03*
X744744D02*
D03*
X734744D02*
D03*
X724744D02*
D03*
X714744D02*
D03*
X704744D02*
D03*
X694744D02*
D03*
X684744D02*
D03*
X674744D02*
D03*
X664744D02*
D03*
X654744D02*
D03*
X644744D02*
D03*
X634744D02*
D03*
X624744D02*
D03*
X614744D02*
D03*
X604744D02*
D03*
X594744D02*
D03*
X584744D02*
D03*
X574744D02*
D03*
X564744D02*
D03*
X554744D02*
D03*
X544744D02*
D03*
X534744D02*
D03*
X524744D02*
D03*
X514744D02*
D03*
X504744D02*
D03*
X494744D02*
D03*
X484744D02*
D03*
X474744D02*
D03*
X464744D02*
D03*
X454744D02*
D03*
X444744D02*
D03*
X434744D02*
D03*
X424744D02*
D03*
X414744D02*
D03*
X404745D02*
D03*
X394745D02*
D03*
X384745D02*
D03*
X374745D02*
D03*
X364745D02*
D03*
X354745D02*
D03*
X344745D02*
D03*
X334745D02*
D03*
X324745D02*
D03*
X314745D02*
D03*
X304745D02*
D03*
X294745D02*
D03*
X284745D02*
D03*
X274745D02*
D03*
X264745D02*
D03*
X254745D02*
D03*
X244745D02*
D03*
X234745D02*
D03*
X224745D02*
D03*
X214745D02*
D03*
X204745D02*
D03*
X194745D02*
D03*
X184745D02*
D03*
X174745D02*
D03*
X164745D02*
D03*
X154745D02*
D03*
X144745D02*
D03*
X134745D02*
D03*
X124745D02*
D03*
X114745D02*
D03*
X104745D02*
D03*
X94745D02*
D03*
X84745D02*
D03*
X74745D02*
D03*
X64745D02*
D03*
X54745D02*
D03*
X44745D02*
D03*
X34745D02*
D03*
X24745D02*
D03*
X14745D02*
D03*
X6474Y12095D02*
D03*
Y22095D02*
D03*
Y32095D02*
D03*
Y42095D02*
D03*
Y52095D02*
D03*
Y62095D02*
D03*
Y72095D02*
D03*
Y82095D02*
D03*
Y92094D02*
D03*
Y102094D02*
D03*
Y112094D02*
D03*
Y122094D02*
D03*
Y132094D02*
D03*
Y142094D02*
D03*
Y152094D02*
D03*
Y162094D02*
D03*
Y172094D02*
D03*
Y182094D02*
D03*
Y192094D02*
D03*
Y202094D02*
D03*
Y212094D02*
D03*
Y222094D02*
D03*
Y232094D02*
D03*
Y242094D02*
D03*
Y252094D02*
D03*
Y262094D02*
D03*
Y272094D02*
D03*
Y282094D02*
D03*
Y292094D02*
D03*
Y302094D02*
D03*
Y312094D02*
D03*
Y322094D02*
D03*
Y332094D02*
D03*
Y342094D02*
D03*
Y352094D02*
D03*
Y362094D02*
D03*
Y372094D02*
D03*
Y382094D02*
D03*
Y392094D02*
D03*
Y402094D02*
D03*
Y412094D02*
D03*
Y422094D02*
D03*
Y432094D02*
D03*
Y442094D02*
D03*
Y452094D02*
D03*
Y462094D02*
D03*
Y472094D02*
D03*
Y482094D02*
D03*
Y492094D02*
D03*
Y502094D02*
D03*
Y512094D02*
D03*
Y522094D02*
D03*
Y532094D02*
D03*
Y542094D02*
D03*
Y552094D02*
D03*
Y562094D02*
D03*
Y572094D02*
D03*
Y582094D02*
D03*
Y592094D02*
D03*
Y602094D02*
D03*
Y612094D02*
D03*
Y622094D02*
D03*
Y632094D02*
D03*
Y642093D02*
D03*
Y652093D02*
D03*
Y662093D02*
D03*
Y672093D02*
D03*
Y682093D02*
D03*
Y692093D02*
D03*
Y702093D02*
D03*
Y712093D02*
D03*
Y722093D02*
D03*
Y732093D02*
D03*
Y742093D02*
D03*
Y752093D02*
D03*
Y762093D02*
D03*
Y772093D02*
D03*
Y782093D02*
D03*
Y792093D02*
D03*
Y802093D02*
D03*
Y812093D02*
D03*
Y822093D02*
D03*
Y832093D02*
D03*
X8143Y841953D02*
D03*
X18018Y843526D02*
D03*
X28018D02*
D03*
X38018D02*
D03*
X48018D02*
D03*
X58018D02*
D03*
X68018D02*
D03*
X78018D02*
D03*
X88018D02*
D03*
X98018D02*
D03*
X108018D02*
D03*
X118018D02*
D03*
X128018D02*
D03*
X138018D02*
D03*
X148018D02*
D03*
X158018D02*
D03*
X168018D02*
D03*
X178018D02*
D03*
X188018D02*
D03*
X198018D02*
D03*
X208018D02*
D03*
X218018D02*
D03*
X228018D02*
D03*
X238018D02*
D03*
X248018D02*
D03*
X258018D02*
D03*
X268018D02*
D03*
X278018D02*
D03*
X288018D02*
D03*
X298018D02*
D03*
X308018D02*
D03*
X318018D02*
D03*
X328018D02*
D03*
X338018D02*
D03*
X348018D02*
D03*
X358018D02*
D03*
X368018D02*
D03*
X378018D02*
D03*
X388018D02*
D03*
X398018D02*
D03*
X408018D02*
D03*
X418018D02*
D03*
X428018D02*
D03*
X438018D02*
D03*
X448018D02*
D03*
X458018D02*
D03*
X468018D02*
D03*
X478018D02*
D03*
X488018D02*
D03*
X498017D02*
D03*
X508017D02*
D03*
X518017D02*
D03*
X528017D02*
D03*
X538017D02*
D03*
X548017D02*
D03*
X558017D02*
D03*
X568017D02*
D03*
X578017D02*
D03*
X588017D02*
D03*
X598017D02*
D03*
X608017D02*
D03*
X618017D02*
D03*
X628017D02*
D03*
X638017D02*
D03*
X648017D02*
D03*
X658017D02*
D03*
X668017D02*
D03*
X678017D02*
D03*
X688017D02*
D03*
X698017D02*
D03*
X708017D02*
D03*
X718017D02*
D03*
X728017D02*
D03*
X738017D02*
D03*
X748017D02*
D03*
X758017D02*
D03*
X768017D02*
D03*
X778017D02*
D03*
X788017D02*
D03*
X798017D02*
D03*
X808017D02*
D03*
X818017D02*
D03*
X828017D02*
D03*
X838017Y843529D02*
D03*
D64*
X814477Y256000D02*
D03*
D65*
X805729Y277120D02*
D03*
X793357Y247252D02*
D03*
X823225Y234880D02*
D03*
X835597Y264748D02*
D03*
X823225Y277120D02*
D03*
X793357Y264748D02*
D03*
X805729Y234880D02*
D03*
X835597Y247252D02*
D03*
D66*
X835120Y822748D02*
D03*
X805252Y835120D02*
D03*
X792880Y44748D02*
D03*
X822748Y57120D02*
D03*
X835120Y355252D02*
D03*
X822748Y14880D02*
D03*
X805252Y57120D02*
D03*
X835120Y44748D02*
D03*
X792880Y27252D02*
D03*
X805252Y342880D02*
D03*
X792880Y372748D02*
D03*
X822748Y385120D02*
D03*
X835120Y372748D02*
D03*
X822748Y342880D02*
D03*
X57120Y372748D02*
D03*
X44748Y342880D02*
D03*
X14880Y355252D02*
D03*
X27252Y385120D02*
D03*
X792880Y355252D02*
D03*
X805252Y385120D02*
D03*
X835120Y805252D02*
D03*
X805252Y792880D02*
D03*
X792880Y822748D02*
D03*
X822748Y835120D02*
D03*
Y792880D02*
D03*
X792880Y805252D02*
D03*
X57120D02*
D03*
X27252Y792880D02*
D03*
X14880Y822748D02*
D03*
X44748Y835120D02*
D03*
X57120Y822748D02*
D03*
X44748Y792880D02*
D03*
X14880Y805252D02*
D03*
X27252Y835120D02*
D03*
X57120Y355252D02*
D03*
X27252Y342880D02*
D03*
X14880Y372748D02*
D03*
X44748Y385120D02*
D03*
X805252Y14880D02*
D03*
X44748Y14880D02*
D03*
X57120Y247252D02*
D03*
X57120Y44748D02*
D03*
X835120Y27252D02*
D03*
X14880Y264748D02*
D03*
X14880Y27252D02*
D03*
X44748Y234880D02*
D03*
X57120Y264748D02*
D03*
X44748Y277120D02*
D03*
X27252Y277120D02*
D03*
Y234880D02*
D03*
X44748Y57120D02*
D03*
X57120Y27252D02*
D03*
X27252Y14880D02*
D03*
Y57120D02*
D03*
X14880Y44748D02*
D03*
X14880Y247252D02*
D03*
D67*
X36000Y256000D02*
D03*
Y36000D02*
D03*
X814000D02*
D03*
Y364000D02*
D03*
Y814000D02*
D03*
X36000D02*
D03*
Y364000D02*
D03*
D70*
X163098Y705000D02*
D03*
X118902Y725000D02*
D03*
Y705000D02*
D03*
X163098Y725000D02*
D03*
Y653000D02*
D03*
X118902Y633000D02*
D03*
Y653000D02*
D03*
X163098Y633000D02*
D03*
X256438Y653000D02*
D03*
X212242Y633000D02*
D03*
Y653000D02*
D03*
X256438Y633000D02*
D03*
Y725000D02*
D03*
X212242Y705000D02*
D03*
Y725000D02*
D03*
X256438Y705000D02*
D03*
X349778Y653000D02*
D03*
X305582Y633000D02*
D03*
Y653000D02*
D03*
X349778Y633000D02*
D03*
Y705000D02*
D03*
X305582Y725000D02*
D03*
Y705000D02*
D03*
X349778Y725000D02*
D03*
X536458Y653000D02*
D03*
X492262Y633000D02*
D03*
Y653000D02*
D03*
X536458Y633000D02*
D03*
X443118D02*
D03*
X398922Y653000D02*
D03*
Y633000D02*
D03*
X443118Y653000D02*
D03*
Y725000D02*
D03*
X398922Y705000D02*
D03*
Y725000D02*
D03*
X443118Y705000D02*
D03*
X536458D02*
D03*
X492262Y725000D02*
D03*
Y705000D02*
D03*
X536458Y725000D02*
D03*
X629798Y705000D02*
D03*
X585602Y725000D02*
D03*
Y705000D02*
D03*
X629798Y725000D02*
D03*
Y653000D02*
D03*
X585602Y633000D02*
D03*
Y653000D02*
D03*
X629798Y633000D02*
D03*
Y581000D02*
D03*
X585602Y561000D02*
D03*
Y581000D02*
D03*
X629798Y561000D02*
D03*
X536458D02*
D03*
X492262Y581000D02*
D03*
Y561000D02*
D03*
X536458Y581000D02*
D03*
X443118D02*
D03*
X398922Y561000D02*
D03*
Y581000D02*
D03*
X443118Y561000D02*
D03*
X349778Y581000D02*
D03*
X305582Y561000D02*
D03*
Y581000D02*
D03*
X349778Y561000D02*
D03*
X256438Y581000D02*
D03*
X212242Y561000D02*
D03*
Y581000D02*
D03*
X256438Y561000D02*
D03*
X163098D02*
D03*
X118902Y581000D02*
D03*
Y561000D02*
D03*
X163098Y581000D02*
D03*
Y345000D02*
D03*
X118902Y365000D02*
D03*
Y345000D02*
D03*
X163098Y365000D02*
D03*
Y509000D02*
D03*
X118902Y489000D02*
D03*
Y509000D02*
D03*
X163098Y489000D02*
D03*
X256438Y509000D02*
D03*
X212242Y489000D02*
D03*
Y509000D02*
D03*
X256438Y489000D02*
D03*
X349778Y509000D02*
D03*
X305582Y489000D02*
D03*
Y509000D02*
D03*
X349778Y489000D02*
D03*
X256438Y365000D02*
D03*
X212242Y345000D02*
D03*
Y365000D02*
D03*
X256438Y345000D02*
D03*
X349778D02*
D03*
X305582Y365000D02*
D03*
Y345000D02*
D03*
X349778Y365000D02*
D03*
X443118Y345000D02*
D03*
X398922Y365000D02*
D03*
Y345000D02*
D03*
X443118Y365000D02*
D03*
X536458Y345000D02*
D03*
X492262Y365000D02*
D03*
Y345000D02*
D03*
X536458Y365000D02*
D03*
X629798D02*
D03*
X585602Y345000D02*
D03*
Y365000D02*
D03*
X629798Y345000D02*
D03*
X443118Y509000D02*
D03*
X398922Y489000D02*
D03*
Y509000D02*
D03*
X443118Y489000D02*
D03*
X536458Y509000D02*
D03*
X492262Y489000D02*
D03*
Y509000D02*
D03*
X536458Y489000D02*
D03*
X629798D02*
D03*
X585602Y509000D02*
D03*
Y489000D02*
D03*
X629798Y509000D02*
D03*
X163098Y437000D02*
D03*
X118902Y417000D02*
D03*
Y437000D02*
D03*
X163098Y417000D02*
D03*
X443118Y437000D02*
D03*
X398922Y417000D02*
D03*
Y437000D02*
D03*
X443118Y417000D02*
D03*
X536458Y437000D02*
D03*
X492262Y417000D02*
D03*
Y437000D02*
D03*
X536458Y417000D02*
D03*
X256438Y437000D02*
D03*
X212242Y417000D02*
D03*
Y437000D02*
D03*
X256438Y417000D02*
D03*
X349778Y437000D02*
D03*
X305582Y417000D02*
D03*
Y437000D02*
D03*
X349778Y417000D02*
D03*
X629798Y437000D02*
D03*
X585602Y417000D02*
D03*
Y437000D02*
D03*
X629798Y417000D02*
D03*
D71*
X141000Y715000D02*
D03*
Y643000D02*
D03*
X234340D02*
D03*
Y715000D02*
D03*
X327680Y643000D02*
D03*
Y715000D02*
D03*
X514360Y643000D02*
D03*
X421020D02*
D03*
Y715000D02*
D03*
X514360D02*
D03*
X607700D02*
D03*
Y643000D02*
D03*
Y571000D02*
D03*
X514360D02*
D03*
X421020D02*
D03*
X327680D02*
D03*
X234340D02*
D03*
X141000D02*
D03*
Y355000D02*
D03*
Y499000D02*
D03*
X234340D02*
D03*
X327680D02*
D03*
X234340Y355000D02*
D03*
X327680D02*
D03*
X421020D02*
D03*
X514360D02*
D03*
X607700D02*
D03*
X421020Y499000D02*
D03*
X514360D02*
D03*
X607700D02*
D03*
X141000Y427000D02*
D03*
X421020D02*
D03*
X514360D02*
D03*
X234340D02*
D03*
X327680D02*
D03*
X607700D02*
D03*
M02*
