G04*
G04 #@! TF.GenerationSoftware,Altium Limited,Altium Designer,24.1.2 (44)*
G04*
G04 Layer_Physical_Order=1*
G04 Layer_Color=255*
%FSLAX44Y44*%
%MOMM*%
G71*
G04*
G04 #@! TF.SameCoordinates,B2B3494C-DAF2-46AE-B00F-8016F5E32D17*
G04*
G04*
G04 #@! TF.FilePolarity,Positive*
G04*
G01*
G75*
%ADD16C,0.6000*%
%ADD20C,0.2540*%
%ADD22R,0.9500X0.9000*%
%ADD23R,0.7000X0.8000*%
%ADD24C,1.5000*%
%ADD25R,2.3000X2.2860*%
%ADD26R,1.7018X0.8128*%
%ADD27R,3.0988X2.2098*%
%ADD28R,1.0000X0.6000*%
%ADD29R,0.8000X0.7000*%
%ADD30R,2.3622X1.8796*%
G04:AMPARAMS|DCode=31|XSize=0.2746mm|YSize=0.8048mm|CornerRadius=0.1373mm|HoleSize=0mm|Usage=FLASHONLY|Rotation=90.000|XOffset=0mm|YOffset=0mm|HoleType=Round|Shape=RoundedRectangle|*
%AMROUNDEDRECTD31*
21,1,0.2746,0.5302,0,0,90.0*
21,1,0.0000,0.8048,0,0,90.0*
1,1,0.2746,0.2651,0.0000*
1,1,0.2746,0.2651,0.0000*
1,1,0.2746,-0.2651,0.0000*
1,1,0.2746,-0.2651,0.0000*
%
%ADD31ROUNDEDRECTD31*%
%ADD32R,3.3000X3.1500*%
%ADD33O,1.8000X0.6000*%
%ADD34R,2.3000X2.8000*%
%ADD35R,3.1725X2.3455*%
%ADD36R,0.6325X2.3455*%
%ADD37O,1.3000X0.3500*%
%ADD38R,1.8000X0.4000*%
%ADD39R,2.5000X2.5000*%
G04:AMPARAMS|DCode=40|XSize=0.2746mm|YSize=0.8048mm|CornerRadius=0.1373mm|HoleSize=0mm|Usage=FLASHONLY|Rotation=180.000|XOffset=0mm|YOffset=0mm|HoleType=Round|Shape=RoundedRectangle|*
%AMROUNDEDRECTD40*
21,1,0.2746,0.5302,0,0,180.0*
21,1,0.0000,0.8048,0,0,180.0*
1,1,0.2746,0.0000,0.2651*
1,1,0.2746,0.0000,0.2651*
1,1,0.2746,0.0000,-0.2651*
1,1,0.2746,0.0000,-0.2651*
%
%ADD40ROUNDEDRECTD40*%
%ADD41C,1.2700*%
%ADD65C,0.4000*%
%ADD66C,6.0000*%
%ADD67C,0.8000*%
%ADD68R,1.0500X1.0500*%
%ADD69C,1.0500*%
%ADD70C,0.5000*%
%ADD71C,0.4000*%
%ADD72C,0.9000*%
G36*
X843526Y781000D02*
X809293Y781000D01*
X807438Y781000D01*
X803761Y781484D01*
X800179Y782444D01*
X796752Y783863D01*
X793540Y785718D01*
X790598Y787975D01*
X787975Y790598D01*
X785718Y793540D01*
X783863Y796752D01*
X782444Y800179D01*
X781484Y803761D01*
X781000Y807438D01*
X781000Y809293D01*
X781000D01*
Y843526D01*
X843526D01*
Y781000D01*
D02*
G37*
G36*
X69000Y809293D02*
X69000D01*
X69000Y807438D01*
X68516Y803761D01*
X67556Y800179D01*
X66137Y796752D01*
X64282Y793540D01*
X62024Y790598D01*
X59402Y787975D01*
X56460Y785718D01*
X53248Y783863D01*
X49821Y782444D01*
X46239Y781484D01*
X42562Y781000D01*
X40707Y781000D01*
X6474Y781000D01*
Y843526D01*
X69000D01*
Y809293D01*
D02*
G37*
G36*
X779376D02*
X779376Y809293D01*
X779376Y807438D01*
X779419Y807335D01*
X779390Y807226D01*
X779874Y803549D01*
X779930Y803452D01*
X779916Y803341D01*
X780876Y799759D01*
X780944Y799669D01*
Y799557D01*
X782363Y796131D01*
X782443Y796052D01*
X782457Y795940D01*
X784312Y792729D01*
X784400Y792660D01*
X784430Y792552D01*
X786687Y789610D01*
X786785Y789554D01*
X786827Y789450D01*
X789450Y786827D01*
X789554Y786785D01*
X789610Y786687D01*
X792552Y784430D01*
X792660Y784401D01*
X792729Y784312D01*
X795940Y782457D01*
X796052Y782443D01*
X796131Y782363D01*
X799557Y780944D01*
X799669D01*
X799759Y780876D01*
X803341Y779916D01*
X803452Y779930D01*
X803549Y779874D01*
X807226Y779390D01*
X807335Y779419D01*
X807438Y779376D01*
X809293Y779376D01*
X835232Y779376D01*
Y687825D01*
X828860D01*
X828860Y687853D01*
X824998Y687472D01*
X821285Y686346D01*
X817862Y684517D01*
X814863Y682055D01*
X812401Y679055D01*
X810572Y675633D01*
X809445Y671919D01*
X809065Y668057D01*
X809092D01*
Y515497D01*
X809065D01*
X809445Y511635D01*
X810572Y507922D01*
X812401Y504499D01*
X814863Y501500D01*
X817862Y499038D01*
X821285Y497209D01*
X824998Y496082D01*
X828860Y495702D01*
X828860Y495729D01*
X835232D01*
Y388808D01*
X834079Y388276D01*
X832572Y389563D01*
X828345Y392154D01*
X823764Y394051D01*
X818943Y395208D01*
X814000Y395597D01*
X809057Y395208D01*
X804236Y394051D01*
X799655Y392154D01*
X795427Y389563D01*
X791657Y386343D01*
X788437Y382573D01*
X785846Y378345D01*
X783949Y373764D01*
X782792Y368943D01*
X782403Y364000D01*
X782792Y359057D01*
X783949Y354236D01*
X785846Y349655D01*
X788437Y345428D01*
X791657Y341657D01*
X795427Y338437D01*
X799655Y335846D01*
X804236Y333949D01*
X809057Y332792D01*
X814000Y332403D01*
X818943Y332792D01*
X823764Y333949D01*
X828345Y335846D01*
X832572Y338437D01*
X834079Y339724D01*
X835232Y339192D01*
Y281215D01*
X834079Y280683D01*
X833049Y281563D01*
X828822Y284153D01*
X824241Y286051D01*
X819420Y287208D01*
X814477Y287597D01*
X809534Y287208D01*
X804713Y286051D01*
X800132Y284153D01*
X795904Y281563D01*
X792134Y278343D01*
X788914Y274573D01*
X786323Y270345D01*
X784426Y265764D01*
X783269Y260943D01*
X782879Y256000D01*
X783269Y251057D01*
X784426Y246236D01*
X786323Y241655D01*
X788914Y237428D01*
X792134Y233657D01*
X795904Y230437D01*
X800132Y227847D01*
X804713Y225949D01*
X809534Y224792D01*
X814477Y224403D01*
X819420Y224792D01*
X824241Y225949D01*
X828822Y227847D01*
X833049Y230437D01*
X834079Y231317D01*
X835232Y230785D01*
Y70624D01*
X809293Y70624D01*
X807438Y70624D01*
X807335Y70581D01*
X807226Y70610D01*
X803549Y70126D01*
X803452Y70069D01*
X803341Y70084D01*
X799759Y69124D01*
X799669Y69056D01*
X799557D01*
X796131Y67637D01*
X796052Y67557D01*
X795940Y67543D01*
X792729Y65688D01*
X792660Y65599D01*
X792552Y65570D01*
X789610Y63313D01*
X789554Y63215D01*
X789450Y63173D01*
X786827Y60550D01*
X786785Y60447D01*
X786687Y60390D01*
X784430Y57448D01*
X784400Y57340D01*
X784312Y57271D01*
X782457Y54060D01*
X782443Y53948D01*
X782363Y53869D01*
X780944Y50443D01*
Y50331D01*
X780876Y50241D01*
X779916Y46659D01*
X779930Y46548D01*
X779874Y46451D01*
X779390Y42774D01*
X779419Y42665D01*
X779376Y42562D01*
X779376Y40707D01*
X779376Y40707D01*
Y14768D01*
X70624D01*
Y40707D01*
X70624Y40708D01*
X70624Y42562D01*
X70581Y42665D01*
X70610Y42774D01*
X70126Y46451D01*
X70069Y46548D01*
X70084Y46659D01*
X69124Y50241D01*
X69056Y50331D01*
Y50443D01*
X67637Y53869D01*
X67557Y53948D01*
X67543Y54060D01*
X65688Y57271D01*
X65599Y57340D01*
X65570Y57448D01*
X63313Y60390D01*
X63215Y60447D01*
X63173Y60550D01*
X60550Y63173D01*
X60447Y63215D01*
X60390Y63313D01*
X57448Y65570D01*
X57340Y65599D01*
X57271Y65688D01*
X54060Y67543D01*
X53948Y67557D01*
X53869Y67637D01*
X50443Y69056D01*
X50331D01*
X50241Y69124D01*
X46659Y70084D01*
X46548Y70069D01*
X46451Y70126D01*
X42774Y70610D01*
X42665Y70581D01*
X42562Y70624D01*
X40707Y70624D01*
X14768Y70624D01*
Y231192D01*
X15921Y231724D01*
X17428Y230437D01*
X21655Y227847D01*
X26236Y225949D01*
X31057Y224792D01*
X36000Y224403D01*
X40943Y224792D01*
X45764Y225949D01*
X50345Y227847D01*
X54573Y230437D01*
X58343Y233657D01*
X61563Y237428D01*
X64153Y241655D01*
X66051Y246236D01*
X67208Y251057D01*
X67597Y256000D01*
X67208Y260943D01*
X66051Y265764D01*
X64153Y270345D01*
X61563Y274573D01*
X58343Y278343D01*
X54573Y281563D01*
X50345Y284153D01*
X45764Y286051D01*
X40943Y287208D01*
X36000Y287597D01*
X31057Y287208D01*
X26236Y286051D01*
X21655Y284153D01*
X17428Y281563D01*
X15921Y280276D01*
X14768Y280808D01*
Y339192D01*
X15921Y339724D01*
X17428Y338437D01*
X21655Y335846D01*
X26236Y333949D01*
X31057Y332792D01*
X36000Y332403D01*
X40943Y332792D01*
X45764Y333949D01*
X50345Y335846D01*
X54573Y338437D01*
X58343Y341657D01*
X61563Y345428D01*
X64153Y349655D01*
X66051Y354236D01*
X67208Y359057D01*
X67597Y364000D01*
X67208Y368943D01*
X66051Y373764D01*
X64153Y378345D01*
X61563Y382573D01*
X58343Y386343D01*
X54573Y389563D01*
X50345Y392154D01*
X45764Y394051D01*
X40943Y395208D01*
X36000Y395597D01*
X31057Y395208D01*
X26236Y394051D01*
X21655Y392154D01*
X17428Y389563D01*
X15921Y388276D01*
X14768Y388808D01*
Y779376D01*
X40707Y779376D01*
X42562Y779376D01*
X42665Y779419D01*
X42774Y779390D01*
X46451Y779874D01*
X46548Y779930D01*
X46659Y779916D01*
X50241Y780876D01*
X50331Y780944D01*
X50443D01*
X53869Y782363D01*
X53948Y782443D01*
X54060Y782457D01*
X57271Y784312D01*
X57340Y784401D01*
X57448Y784430D01*
X60390Y786687D01*
X60447Y786785D01*
X60550Y786827D01*
X63173Y789450D01*
X63215Y789554D01*
X63313Y789610D01*
X65570Y792552D01*
X65599Y792660D01*
X65688Y792729D01*
X67543Y795940D01*
X67557Y796052D01*
X67637Y796131D01*
X69056Y799557D01*
Y799669D01*
X69124Y799759D01*
X70084Y803341D01*
X70069Y803452D01*
X70126Y803549D01*
X70610Y807226D01*
X70581Y807335D01*
X70624Y807438D01*
X70624Y809292D01*
X70624Y809293D01*
Y835232D01*
X779376D01*
Y809293D01*
D02*
G37*
G36*
X843526Y6474D02*
X781000D01*
Y40707D01*
X781000Y40707D01*
X781000Y40707D01*
X781000Y42562D01*
X781484Y46239D01*
X782444Y49821D01*
X783863Y53248D01*
X785718Y56460D01*
X787975Y59402D01*
X790598Y62024D01*
X793540Y64282D01*
X796752Y66137D01*
X800179Y67556D01*
X803761Y68516D01*
X807438Y69000D01*
X809293Y69000D01*
X843526Y69000D01*
Y6474D01*
D02*
G37*
G36*
X40707Y69000D02*
X42562Y69000D01*
X46239Y68516D01*
X49821Y67556D01*
X53248Y66137D01*
X56460Y64282D01*
X59402Y62024D01*
X62024Y59402D01*
X64282Y56460D01*
X66137Y53248D01*
X67556Y49821D01*
X68516Y46239D01*
X69000Y42562D01*
X69000Y40707D01*
X69000D01*
X69000Y40707D01*
Y6474D01*
X6474D01*
Y69000D01*
X40707Y69000D01*
D02*
G37*
%LPC*%
G36*
X823842Y840620D02*
X821845Y840620D01*
X822542Y838937D01*
X820195Y837965D01*
X819498Y839648D01*
X818085Y838235D01*
X817248Y836214D01*
X817248Y834216D01*
X818931Y834913D01*
X819903Y832567D01*
X818220Y831870D01*
X819633Y830457D01*
X821654Y829620D01*
X823652Y829620D01*
X822955Y831302D01*
X825301Y832274D01*
X825998Y830592D01*
X827411Y832004D01*
X828248Y834026D01*
X828248Y836023D01*
X826566Y835327D01*
X825594Y837673D01*
X827276Y838370D01*
X825864Y839782D01*
X823842Y840620D01*
D02*
G37*
G36*
X804158Y840620D02*
X802136Y839783D01*
X800724Y838370D01*
X802406Y837673D01*
X801434Y835327D01*
X799752Y836023D01*
X799752Y834026D01*
X800589Y832004D01*
X802002Y830592D01*
X802699Y832274D01*
X805045Y831302D01*
X804348Y829620D01*
X806346Y829620D01*
X808367Y830457D01*
X809780Y831870D01*
X808097Y832567D01*
X809069Y834913D01*
X810752Y834216D01*
X810752Y836214D01*
X809914Y838235D01*
X808502Y839648D01*
X807805Y837965D01*
X805459Y838937D01*
X806155Y840620D01*
X804158Y840620D01*
D02*
G37*
G36*
X793974Y828248D02*
X791977Y828248D01*
X792673Y826566D01*
X790327Y825594D01*
X789630Y827276D01*
X788217Y825864D01*
X787380Y823842D01*
X787380Y821845D01*
X789063Y822542D01*
X790035Y820195D01*
X788352Y819498D01*
X789765Y818085D01*
X791786Y817248D01*
X793784Y817248D01*
X793087Y818931D01*
X795433Y819903D01*
X796130Y818220D01*
X797543Y819633D01*
X798380Y821654D01*
X798380Y823652D01*
X796698Y822955D01*
X795726Y825301D01*
X797408Y825998D01*
X795996Y827411D01*
X793974Y828248D01*
D02*
G37*
G36*
X834026D02*
X832004Y827411D01*
X830592Y825998D01*
X832274Y825301D01*
X831302Y822955D01*
X829620Y823652D01*
X829620Y821654D01*
X830457Y819633D01*
X831870Y818220D01*
X832567Y819903D01*
X834913Y818931D01*
X834216Y817248D01*
X836214Y817248D01*
X838235Y818085D01*
X839648Y819498D01*
X837965Y820195D01*
X838937Y822542D01*
X840620Y821845D01*
X840620Y823842D01*
X839783Y825864D01*
X838370Y827276D01*
X837673Y825594D01*
X835327Y826566D01*
X836023Y828248D01*
X834026Y828248D01*
D02*
G37*
G36*
X836214Y810752D02*
X834216Y810752D01*
X834913Y809069D01*
X832567Y808097D01*
X831870Y809780D01*
X830457Y808367D01*
X829620Y806346D01*
X829620Y804348D01*
X831302Y805045D01*
X832274Y802699D01*
X830592Y802002D01*
X832004Y800589D01*
X834026Y799752D01*
X836023Y799752D01*
X835327Y801434D01*
X837673Y802406D01*
X838370Y800724D01*
X839782Y802136D01*
X840620Y804158D01*
X840620Y806155D01*
X838937Y805459D01*
X837965Y807805D01*
X839648Y808502D01*
X838235Y809914D01*
X836214Y810752D01*
D02*
G37*
G36*
X791786D02*
X789765Y809914D01*
X788352Y808502D01*
X790035Y807805D01*
X789063Y805459D01*
X787380Y806155D01*
X787380Y804158D01*
X788217Y802136D01*
X789630Y800724D01*
X790327Y802406D01*
X792673Y801434D01*
X791977Y799752D01*
X793974Y799752D01*
X795996Y800589D01*
X797408Y802002D01*
X795726Y802699D01*
X796698Y805045D01*
X798380Y804348D01*
X798380Y806346D01*
X797543Y808367D01*
X796130Y809780D01*
X795433Y808097D01*
X793087Y809069D01*
X793784Y810752D01*
X791786Y810752D01*
D02*
G37*
G36*
X806346Y798380D02*
X804348Y798380D01*
X805045Y796698D01*
X802699Y795726D01*
X802002Y797408D01*
X800589Y795996D01*
X799752Y793974D01*
X799752Y791977D01*
X801434Y792673D01*
X802406Y790327D01*
X800724Y789630D01*
X802136Y788217D01*
X804158Y787380D01*
X806155Y787380D01*
X805459Y789063D01*
X807805Y790035D01*
X808502Y788352D01*
X809914Y789765D01*
X810752Y791786D01*
X810752Y793784D01*
X809069Y793087D01*
X808097Y795433D01*
X809780Y796130D01*
X808367Y797543D01*
X806346Y798380D01*
D02*
G37*
G36*
X821654Y798380D02*
X819633Y797543D01*
X818220Y796130D01*
X819903Y795433D01*
X818931Y793087D01*
X817248Y793784D01*
X817248Y791786D01*
X818085Y789765D01*
X819498Y788352D01*
X820195Y790035D01*
X822542Y789063D01*
X821845Y787380D01*
X823842Y787380D01*
X825864Y788217D01*
X827276Y789630D01*
X825594Y790327D01*
X826566Y792673D01*
X828248Y791977D01*
X828248Y793974D01*
X827411Y795996D01*
X825998Y797408D01*
X825301Y795726D01*
X822955Y796698D01*
X823652Y798380D01*
X821654Y798380D01*
D02*
G37*
G36*
X45842Y840620D02*
X43845Y840620D01*
X44542Y838937D01*
X42195Y837965D01*
X41498Y839648D01*
X40086Y838235D01*
X39248Y836214D01*
X39248Y834216D01*
X40931Y834913D01*
X41903Y832567D01*
X40220Y831870D01*
X41633Y830457D01*
X43654Y829620D01*
X45652Y829620D01*
X44955Y831302D01*
X47301Y832274D01*
X47998Y830592D01*
X49411Y832004D01*
X50248Y834026D01*
X50248Y836023D01*
X48566Y835327D01*
X47594Y837673D01*
X49276Y838370D01*
X47864Y839782D01*
X45842Y840620D01*
D02*
G37*
G36*
X26158Y840620D02*
X24136Y839783D01*
X22724Y838370D01*
X24406Y837673D01*
X23434Y835327D01*
X21752Y836023D01*
X21752Y834026D01*
X22589Y832004D01*
X24002Y830592D01*
X24699Y832274D01*
X27045Y831302D01*
X26348Y829620D01*
X28346Y829620D01*
X30367Y830457D01*
X31780Y831870D01*
X30097Y832567D01*
X31069Y834913D01*
X32752Y834216D01*
X32752Y836214D01*
X31915Y838235D01*
X30502Y839648D01*
X29805Y837965D01*
X27459Y838937D01*
X28155Y840620D01*
X26158Y840620D01*
D02*
G37*
G36*
X15974Y828248D02*
X13977Y828248D01*
X14674Y826566D01*
X12327Y825594D01*
X11630Y827276D01*
X10217Y825864D01*
X9380Y823842D01*
X9380Y821845D01*
X11063Y822542D01*
X12035Y820195D01*
X10352Y819498D01*
X11765Y818085D01*
X13786Y817248D01*
X15784Y817248D01*
X15087Y818931D01*
X17433Y819903D01*
X18130Y818220D01*
X19543Y819633D01*
X20380Y821654D01*
X20380Y823652D01*
X18698Y822955D01*
X17726Y825301D01*
X19408Y825998D01*
X17996Y827411D01*
X15974Y828248D01*
D02*
G37*
G36*
X56026D02*
X54004Y827411D01*
X52592Y825998D01*
X54274Y825301D01*
X53302Y822955D01*
X51620Y823652D01*
X51620Y821654D01*
X52457Y819633D01*
X53870Y818220D01*
X54567Y819903D01*
X56913Y818931D01*
X56216Y817248D01*
X58214Y817248D01*
X60235Y818085D01*
X61648Y819498D01*
X59965Y820195D01*
X60937Y822542D01*
X62620Y821845D01*
X62620Y823842D01*
X61783Y825864D01*
X60370Y827276D01*
X59673Y825594D01*
X57326Y826566D01*
X58023Y828248D01*
X56026Y828248D01*
D02*
G37*
G36*
X58214Y810752D02*
X56216Y810752D01*
X56913Y809069D01*
X54567Y808097D01*
X53870Y809780D01*
X52457Y808367D01*
X51620Y806346D01*
X51620Y804348D01*
X53302Y805045D01*
X54274Y802699D01*
X52592Y802002D01*
X54004Y800589D01*
X56026Y799752D01*
X58023Y799752D01*
X57326Y801434D01*
X59673Y802406D01*
X60370Y800724D01*
X61783Y802136D01*
X62620Y804158D01*
X62620Y806155D01*
X60937Y805459D01*
X59965Y807805D01*
X61648Y808502D01*
X60235Y809914D01*
X58214Y810752D01*
D02*
G37*
G36*
X13786D02*
X11765Y809914D01*
X10352Y808502D01*
X12035Y807805D01*
X11063Y805459D01*
X9380Y806155D01*
X9380Y804158D01*
X10217Y802136D01*
X11630Y800724D01*
X12327Y802406D01*
X14674Y801434D01*
X13977Y799752D01*
X15974Y799752D01*
X17996Y800589D01*
X19408Y802002D01*
X17726Y802699D01*
X18698Y805045D01*
X20380Y804348D01*
X20380Y806346D01*
X19543Y808367D01*
X18130Y809780D01*
X17433Y808097D01*
X15087Y809069D01*
X15784Y810752D01*
X13786Y810752D01*
D02*
G37*
G36*
X28346Y798380D02*
X26348Y798380D01*
X27045Y796698D01*
X24699Y795726D01*
X24002Y797408D01*
X22589Y795996D01*
X21752Y793974D01*
X21752Y791977D01*
X23434Y792673D01*
X24406Y790327D01*
X22724Y789630D01*
X24136Y788217D01*
X26158Y787380D01*
X28155Y787380D01*
X27459Y789063D01*
X29805Y790035D01*
X30502Y788352D01*
X31915Y789765D01*
X32752Y791786D01*
X32752Y793784D01*
X31069Y793087D01*
X30097Y795433D01*
X31780Y796130D01*
X30367Y797543D01*
X28346Y798380D01*
D02*
G37*
G36*
X43654Y798380D02*
X41633Y797543D01*
X40220Y796130D01*
X41903Y795433D01*
X40931Y793087D01*
X39248Y793784D01*
X39248Y791786D01*
X40086Y789765D01*
X41498Y788352D01*
X42195Y790035D01*
X44542Y789063D01*
X43845Y787380D01*
X45842Y787380D01*
X47864Y788217D01*
X49276Y789630D01*
X47594Y790327D01*
X48566Y792673D01*
X50248Y791977D01*
X50248Y793974D01*
X49411Y795996D01*
X47998Y797408D01*
X47301Y795726D01*
X44955Y796698D01*
X45652Y798380D01*
X43654Y798380D01*
D02*
G37*
G36*
X385362Y748822D02*
X385362Y748822D01*
X363338D01*
X362257Y748607D01*
X361341Y747995D01*
X361341Y747995D01*
X359853Y746507D01*
X359241Y745591D01*
X359026Y744510D01*
X359026Y744510D01*
Y737203D01*
X358921Y736675D01*
Y731536D01*
X358720Y731172D01*
X358178Y730630D01*
X357814Y730429D01*
X352675D01*
X352147Y730324D01*
X229152D01*
X229152Y730324D01*
X228071Y730109D01*
X227155Y729497D01*
X227155Y729497D01*
X225482Y727824D01*
X176390D01*
X176247Y727967D01*
X174960Y728500D01*
X173568D01*
X172281Y727967D01*
X171297Y726982D01*
X170764Y725696D01*
Y724304D01*
X171297Y723017D01*
X172281Y722033D01*
X173568Y721500D01*
X174960D01*
X176247Y722033D01*
X176390Y722176D01*
X226652D01*
X226652Y722176D01*
X227733Y722391D01*
X228649Y723003D01*
X230322Y724676D01*
X349146D01*
X349498Y724224D01*
X349926Y723406D01*
X349746Y722500D01*
X349969Y721379D01*
X350294Y720892D01*
X350503Y720000D01*
X350294Y719108D01*
X349969Y718621D01*
X349746Y717500D01*
X349969Y716379D01*
X350604Y715429D01*
Y714571D01*
X349969Y713621D01*
X349746Y712500D01*
X349969Y711379D01*
X350294Y710892D01*
X350503Y710000D01*
X350294Y709108D01*
X349969Y708621D01*
X349746Y707500D01*
X349969Y706379D01*
X350604Y705429D01*
Y704571D01*
X349969Y703621D01*
X349746Y702500D01*
X349969Y701379D01*
X350604Y700429D01*
X351554Y699794D01*
X352675Y699571D01*
X354056D01*
Y701315D01*
X356596D01*
Y699571D01*
X357814D01*
X358178Y699370D01*
X358720Y698828D01*
X358921Y698464D01*
Y693325D01*
X359026Y692797D01*
Y683986D01*
X357314Y682274D01*
X351282D01*
X351029Y683544D01*
X351761Y683847D01*
X352745Y684832D01*
X353278Y686118D01*
Y687511D01*
X352745Y688797D01*
X351761Y689781D01*
X350474Y690314D01*
X349082D01*
X347795Y689781D01*
X347653Y689639D01*
X341458D01*
Y692316D01*
X331458D01*
Y681316D01*
X341458D01*
Y683990D01*
X347413D01*
X347889Y683544D01*
X347387Y682274D01*
X346724D01*
X346724Y682274D01*
X345643Y682059D01*
X344727Y681447D01*
X337464Y674184D01*
X331458D01*
Y663184D01*
X341458D01*
Y670190D01*
X347894Y676626D01*
X358484D01*
X358484Y676626D01*
X359565Y676841D01*
X360481Y677453D01*
X361850Y678822D01*
X362685Y677987D01*
X362267Y676609D01*
X362257Y676607D01*
X361341Y675995D01*
X361341Y675995D01*
X359853Y674507D01*
X359241Y673591D01*
X359026Y672510D01*
X359026Y672510D01*
Y665203D01*
X358921Y664675D01*
Y659537D01*
X358720Y659172D01*
X358178Y658630D01*
X357814Y658429D01*
X352675D01*
X352147Y658324D01*
X229152D01*
X229152Y658324D01*
X228071Y658109D01*
X227155Y657497D01*
X227155Y657497D01*
X225482Y655824D01*
X176390D01*
X176247Y655967D01*
X174960Y656500D01*
X173568D01*
X172281Y655967D01*
X171297Y654983D01*
X170764Y653696D01*
Y652304D01*
X171297Y651017D01*
X172281Y650033D01*
X173568Y649500D01*
X174960D01*
X176247Y650033D01*
X176390Y650176D01*
X226652D01*
X226652Y650176D01*
X227733Y650391D01*
X228649Y651003D01*
X230322Y652676D01*
X349146D01*
X349498Y652224D01*
X349926Y651406D01*
X349746Y650500D01*
X349969Y649379D01*
X350604Y648429D01*
Y647571D01*
X349969Y646621D01*
X349746Y645500D01*
X349969Y644379D01*
X350604Y643429D01*
Y642571D01*
X349969Y641621D01*
X349746Y640500D01*
X349969Y639379D01*
X350604Y638429D01*
Y637571D01*
X349969Y636621D01*
X349746Y635500D01*
X349969Y634379D01*
X350294Y633892D01*
X350503Y633000D01*
X350294Y632108D01*
X349969Y631621D01*
X349746Y630500D01*
X349969Y629379D01*
X350604Y628429D01*
X351554Y627794D01*
X352675Y627571D01*
X354056D01*
Y629315D01*
X356596D01*
Y627571D01*
X357814D01*
X358178Y627370D01*
X358720Y626828D01*
X358921Y626464D01*
Y621325D01*
X359026Y620797D01*
Y611986D01*
X357314Y610274D01*
X351282D01*
X351029Y611544D01*
X351761Y611847D01*
X352745Y612832D01*
X353278Y614118D01*
Y615511D01*
X352745Y616797D01*
X351761Y617782D01*
X350474Y618314D01*
X349082D01*
X347795Y617782D01*
X347653Y617639D01*
X341458D01*
Y620316D01*
X331458D01*
Y609316D01*
X341458D01*
Y611990D01*
X347413D01*
X347889Y611544D01*
X347387Y610274D01*
X346724D01*
X346724Y610274D01*
X345643Y610059D01*
X344727Y609447D01*
X337464Y602184D01*
X331458D01*
Y591184D01*
X341458D01*
Y598190D01*
X347894Y604626D01*
X358484D01*
X358484Y604626D01*
X359565Y604841D01*
X360481Y605453D01*
X361850Y606822D01*
X362685Y605987D01*
X362267Y604609D01*
X362257Y604607D01*
X361341Y603995D01*
X361341Y603995D01*
X359853Y602507D01*
X359241Y601591D01*
X359026Y600510D01*
X359026Y600510D01*
Y593203D01*
X358921Y592675D01*
Y587536D01*
X358720Y587172D01*
X358178Y586630D01*
X357814Y586429D01*
X352675D01*
X352147Y586324D01*
X229152D01*
X229152Y586324D01*
X228071Y586109D01*
X227155Y585497D01*
X227155Y585497D01*
X225482Y583824D01*
X176390D01*
X176247Y583967D01*
X174960Y584500D01*
X173568D01*
X172281Y583967D01*
X171297Y582982D01*
X170764Y581696D01*
Y580304D01*
X171297Y579017D01*
X172281Y578033D01*
X173568Y577500D01*
X174960D01*
X176247Y578033D01*
X176390Y578176D01*
X226652D01*
X226652Y578176D01*
X227733Y578391D01*
X228649Y579003D01*
X230322Y580676D01*
X349146D01*
X349498Y580224D01*
X349926Y579406D01*
X349746Y578500D01*
X349969Y577379D01*
X350294Y576892D01*
X350503Y576000D01*
X350294Y575108D01*
X349969Y574621D01*
X349746Y573500D01*
X349969Y572379D01*
X350604Y571429D01*
Y570571D01*
X349969Y569621D01*
X349746Y568500D01*
X349969Y567379D01*
X350294Y566892D01*
X350503Y566000D01*
X350294Y565108D01*
X349969Y564621D01*
X349746Y563500D01*
X349969Y562379D01*
X350604Y561429D01*
Y560571D01*
X349969Y559621D01*
X349746Y558500D01*
X349969Y557379D01*
X350604Y556429D01*
X351554Y555794D01*
X352675Y555571D01*
X354056D01*
Y557315D01*
X356596D01*
Y555571D01*
X357814D01*
X358178Y555370D01*
X358720Y554828D01*
X358921Y554464D01*
Y549325D01*
X359026Y548797D01*
Y539986D01*
X357314Y538274D01*
X351282D01*
X351029Y539544D01*
X351761Y539847D01*
X352745Y540832D01*
X353278Y542118D01*
Y543511D01*
X352745Y544797D01*
X351761Y545782D01*
X350474Y546314D01*
X349082D01*
X347795Y545782D01*
X347653Y545639D01*
X341458D01*
Y548316D01*
X331458D01*
Y537316D01*
X341458D01*
Y539990D01*
X347413D01*
X347889Y539544D01*
X347387Y538274D01*
X346724D01*
X346724Y538274D01*
X345643Y538059D01*
X344727Y537447D01*
X337464Y530184D01*
X331458D01*
Y519184D01*
X341458D01*
Y526190D01*
X347894Y532626D01*
X358484D01*
X358484Y532626D01*
X359565Y532841D01*
X360481Y533453D01*
X361850Y534822D01*
X362685Y533987D01*
X362267Y532609D01*
X362257Y532607D01*
X361341Y531995D01*
X361341Y531995D01*
X359853Y530507D01*
X359241Y529591D01*
X359026Y528510D01*
X359026Y528510D01*
Y521203D01*
X358921Y520675D01*
Y515536D01*
X358720Y515172D01*
X358178Y514630D01*
X357814Y514429D01*
X352675D01*
X352147Y514324D01*
X229152D01*
X229152Y514324D01*
X228071Y514109D01*
X227155Y513497D01*
X227155Y513497D01*
X225482Y511824D01*
X176390D01*
X176247Y511967D01*
X174960Y512500D01*
X173568D01*
X172281Y511967D01*
X171297Y510983D01*
X170764Y509696D01*
Y508304D01*
X171297Y507017D01*
X172281Y506033D01*
X173568Y505500D01*
X174960D01*
X176247Y506033D01*
X176390Y506176D01*
X226652D01*
X226652Y506176D01*
X227733Y506391D01*
X228649Y507003D01*
X230322Y508676D01*
X349146D01*
X349498Y508224D01*
X349926Y507406D01*
X349746Y506500D01*
X349969Y505379D01*
X350294Y504892D01*
X350503Y504000D01*
X350294Y503108D01*
X349969Y502621D01*
X349746Y501500D01*
X349969Y500379D01*
X350604Y499429D01*
Y498571D01*
X349969Y497621D01*
X349746Y496500D01*
X349969Y495379D01*
X350294Y494892D01*
X350503Y494000D01*
X350294Y493108D01*
X349969Y492621D01*
X349746Y491500D01*
X349969Y490379D01*
X350604Y489429D01*
Y488571D01*
X349969Y487621D01*
X349746Y486500D01*
X349969Y485379D01*
X350604Y484429D01*
X351554Y483794D01*
X352675Y483571D01*
X354056D01*
Y485315D01*
X356596D01*
Y483571D01*
X357814D01*
X358178Y483370D01*
X358720Y482828D01*
X358921Y482463D01*
Y477325D01*
X359026Y476797D01*
Y467986D01*
X357314Y466274D01*
X351282D01*
X351029Y467544D01*
X351761Y467847D01*
X352745Y468832D01*
X353278Y470118D01*
Y471511D01*
X352745Y472797D01*
X351761Y473782D01*
X350474Y474314D01*
X349082D01*
X347795Y473782D01*
X347653Y473639D01*
X341458D01*
Y476316D01*
X331458D01*
Y465316D01*
X341458D01*
Y467990D01*
X347413D01*
X347889Y467544D01*
X347387Y466274D01*
X346724D01*
X346724Y466274D01*
X345643Y466059D01*
X344727Y465447D01*
X337464Y458184D01*
X331458D01*
Y447184D01*
X341458D01*
Y454190D01*
X347894Y460626D01*
X358484D01*
X358484Y460626D01*
X359565Y460841D01*
X360481Y461453D01*
X361850Y462822D01*
X362685Y461987D01*
X362267Y460609D01*
X362257Y460607D01*
X361341Y459995D01*
X361341Y459995D01*
X359853Y458507D01*
X359241Y457591D01*
X359026Y456510D01*
X359026Y456510D01*
Y449203D01*
X358921Y448675D01*
Y443536D01*
X358720Y443172D01*
X358178Y442630D01*
X357814Y442429D01*
X352675D01*
X352147Y442324D01*
X229152D01*
X229152Y442324D01*
X228071Y442109D01*
X227155Y441497D01*
X227155Y441497D01*
X225482Y439824D01*
X176390D01*
X176247Y439967D01*
X174960Y440500D01*
X173568D01*
X172281Y439967D01*
X171297Y438983D01*
X170764Y437696D01*
Y436304D01*
X171297Y435017D01*
X172281Y434033D01*
X173568Y433500D01*
X174960D01*
X176247Y434033D01*
X176390Y434176D01*
X226652D01*
X226652Y434176D01*
X227733Y434391D01*
X228649Y435003D01*
X230322Y436676D01*
X349146D01*
X349498Y436224D01*
X349926Y435406D01*
X349746Y434500D01*
X349969Y433379D01*
X350294Y432892D01*
X350503Y432000D01*
X350294Y431108D01*
X349969Y430621D01*
X349746Y429500D01*
X349969Y428379D01*
X350604Y427429D01*
Y426571D01*
X349969Y425621D01*
X349746Y424500D01*
X349969Y423379D01*
X350294Y422892D01*
X350503Y422000D01*
X350294Y421108D01*
X349969Y420621D01*
X349746Y419500D01*
X349969Y418379D01*
X350604Y417429D01*
Y416571D01*
X349969Y415621D01*
X349746Y414500D01*
X349969Y413379D01*
X350604Y412429D01*
X351554Y411794D01*
X352675Y411571D01*
X354056D01*
Y413315D01*
X356596D01*
Y411571D01*
X357814D01*
X358178Y411370D01*
X358720Y410828D01*
X358921Y410463D01*
Y405325D01*
X359026Y404797D01*
Y395986D01*
X357314Y394274D01*
X351282D01*
X351029Y395544D01*
X351761Y395847D01*
X352745Y396832D01*
X353278Y398118D01*
Y399511D01*
X352745Y400797D01*
X351761Y401782D01*
X350474Y402314D01*
X349082D01*
X347795Y401782D01*
X347653Y401639D01*
X341458D01*
Y404316D01*
X331458D01*
Y393316D01*
X341458D01*
Y395990D01*
X347413D01*
X347889Y395544D01*
X347387Y394274D01*
X346724D01*
X346724Y394274D01*
X345643Y394059D01*
X344727Y393447D01*
X337464Y386184D01*
X331458D01*
Y375184D01*
X341458D01*
Y382190D01*
X347894Y388626D01*
X358484D01*
X358484Y388626D01*
X359565Y388841D01*
X360481Y389453D01*
X361850Y390822D01*
X362685Y389987D01*
X362267Y388609D01*
X362257Y388607D01*
X361341Y387995D01*
X361341Y387995D01*
X359853Y386507D01*
X359241Y385591D01*
X359026Y384510D01*
X359026Y384510D01*
Y377203D01*
X358921Y376675D01*
Y371536D01*
X358720Y371172D01*
X358178Y370630D01*
X357814Y370429D01*
X352675D01*
X352147Y370324D01*
X229152D01*
X229152Y370324D01*
X228071Y370109D01*
X227155Y369497D01*
X227155Y369497D01*
X225482Y367824D01*
X176390D01*
X176247Y367967D01*
X174960Y368500D01*
X173568D01*
X172281Y367967D01*
X171297Y366982D01*
X170764Y365696D01*
Y364304D01*
X171297Y363017D01*
X172281Y362033D01*
X173568Y361500D01*
X174960D01*
X176247Y362033D01*
X176390Y362176D01*
X226652D01*
X226652Y362176D01*
X227733Y362391D01*
X228649Y363003D01*
X230322Y364676D01*
X349146D01*
X349498Y364224D01*
X349926Y363406D01*
X349746Y362500D01*
X349969Y361379D01*
X350294Y360892D01*
X350503Y360000D01*
X350294Y359108D01*
X349969Y358621D01*
X349746Y357500D01*
X349969Y356379D01*
X350604Y355429D01*
Y354571D01*
X349969Y353621D01*
X349746Y352500D01*
X349969Y351379D01*
X350294Y350892D01*
X350503Y350000D01*
X350294Y349108D01*
X349969Y348621D01*
X349746Y347500D01*
X349969Y346379D01*
X350604Y345429D01*
Y344571D01*
X349969Y343621D01*
X349746Y342500D01*
X349969Y341379D01*
X350604Y340429D01*
X351554Y339794D01*
X352675Y339571D01*
X354056D01*
Y341315D01*
X356596D01*
Y339571D01*
X357814D01*
X358178Y339370D01*
X358720Y338828D01*
X358921Y338464D01*
Y333325D01*
X359026Y332797D01*
Y323986D01*
X347048Y312008D01*
X341458D01*
Y314684D01*
X331458D01*
Y303684D01*
X333634D01*
Y296168D01*
X332390Y294924D01*
X172983D01*
X171902Y294709D01*
X170986Y294097D01*
X170986Y294097D01*
X152566Y275677D01*
X151984Y276013D01*
X149695Y276627D01*
X147325D01*
X145036Y276013D01*
X142984Y274828D01*
X141308Y273153D01*
X140123Y271101D01*
X139510Y268812D01*
Y266442D01*
X140123Y264153D01*
X141308Y262101D01*
X142984Y260425D01*
X145036Y259240D01*
X147325Y258627D01*
X149695D01*
X151984Y259240D01*
X154036Y260425D01*
X155712Y262101D01*
X156896Y264153D01*
X157510Y266442D01*
Y268812D01*
X156896Y271101D01*
X156560Y271683D01*
X174153Y289276D01*
X333560D01*
X333560Y289276D01*
X334641Y289491D01*
X335557Y290103D01*
X338455Y293001D01*
X338455Y293001D01*
X339067Y293918D01*
X339282Y294998D01*
Y303684D01*
X341458D01*
Y306360D01*
X348218D01*
X348218Y306360D01*
X349299Y306575D01*
X350215Y307187D01*
X363847Y320819D01*
X364459Y321735D01*
X364626Y322574D01*
X365234Y323074D01*
X365944Y323403D01*
X366154Y323316D01*
X367546D01*
X367756Y323403D01*
X369026Y322554D01*
Y299532D01*
X356798Y287304D01*
X207273D01*
X206192Y287089D01*
X205276Y286477D01*
X205276Y286477D01*
X194476Y275677D01*
X193894Y276013D01*
X191605Y276627D01*
X189235D01*
X186946Y276013D01*
X184894Y274828D01*
X183218Y273153D01*
X182033Y271101D01*
X181420Y268812D01*
Y266442D01*
X182033Y264153D01*
X183218Y262101D01*
X184894Y260425D01*
X186946Y259240D01*
X189235Y258627D01*
X191605D01*
X193894Y259240D01*
X195946Y260425D01*
X197622Y262101D01*
X198806Y264153D01*
X199420Y266442D01*
Y268812D01*
X198806Y271101D01*
X198470Y271683D01*
X208443Y281656D01*
X357967D01*
X357968Y281656D01*
X359048Y281871D01*
X359965Y282483D01*
X373847Y296365D01*
X373847Y296365D01*
X374459Y297282D01*
X374674Y298362D01*
X374674Y298363D01*
Y322552D01*
X375944Y323401D01*
X376154Y323314D01*
X377546D01*
X378833Y323847D01*
X379817Y324832D01*
X379822Y324844D01*
X381068Y325092D01*
X381341Y324819D01*
X381341Y324819D01*
X382257Y324207D01*
X383338Y323992D01*
X408242D01*
Y321314D01*
X418242D01*
Y332314D01*
X417258D01*
X416740Y333089D01*
Y334482D01*
X416207Y335768D01*
X415223Y336752D01*
X413936Y337285D01*
X412544D01*
X411257Y336752D01*
X410273Y335768D01*
X409740Y334482D01*
Y333089D01*
X409222Y332314D01*
X408242D01*
Y329640D01*
X388793D01*
X388408Y330910D01*
X388921Y331254D01*
X389556Y332204D01*
X389745Y333152D01*
X394790D01*
X394933Y333009D01*
X396220Y332476D01*
X397612D01*
X398899Y333009D01*
X399883Y333993D01*
X400416Y335280D01*
Y336672D01*
X399883Y337958D01*
X398899Y338943D01*
X398442Y339132D01*
X398259Y339819D01*
X398212Y340602D01*
X398731Y341379D01*
X398954Y342500D01*
X398774Y343406D01*
X399202Y344224D01*
X399554Y344676D01*
X482319D01*
X483992Y343003D01*
X483992Y343003D01*
X484909Y342391D01*
X485989Y342176D01*
X485989Y342176D01*
X638839D01*
X638981Y342033D01*
X640268Y341500D01*
X641660D01*
X642947Y342033D01*
X643931Y343017D01*
X644464Y344304D01*
Y345696D01*
X643931Y346982D01*
X642947Y347967D01*
X641660Y348500D01*
X640268D01*
X638981Y347967D01*
X638839Y347824D01*
X487159D01*
X485486Y349497D01*
X484570Y350109D01*
X483489Y350324D01*
X483489Y350324D01*
X407265D01*
X406676Y351135D01*
X406504Y351594D01*
X406684Y352500D01*
Y355424D01*
X406827Y355567D01*
X407360Y356854D01*
Y358246D01*
X407294Y358406D01*
X408143Y359676D01*
X483487D01*
X483488Y359676D01*
X484568Y359891D01*
X485485Y360503D01*
X487157Y362176D01*
X545499D01*
X545641Y362033D01*
X546928Y361500D01*
X548320D01*
X549607Y362033D01*
X550591Y363017D01*
X551124Y364304D01*
Y365696D01*
X550591Y366982D01*
X549607Y367967D01*
X548320Y368500D01*
X546928D01*
X545641Y367967D01*
X545499Y367824D01*
X485988D01*
X484907Y367609D01*
X483990Y366997D01*
X482318Y365324D01*
X459986D01*
X459137Y366594D01*
X459224Y366804D01*
Y368196D01*
X458691Y369482D01*
X457707Y370467D01*
X456420Y371000D01*
X455028D01*
X453742Y370467D01*
X453599Y370324D01*
X406906D01*
X406380Y371594D01*
X406827Y372041D01*
X407360Y373328D01*
Y374720D01*
X406827Y376007D01*
X405843Y376991D01*
X404556Y377524D01*
X403164D01*
X401877Y376991D01*
X401735Y376848D01*
X389745D01*
X389674Y377203D01*
Y384510D01*
X389459Y385591D01*
X388847Y386507D01*
X388847Y386507D01*
X387999Y387356D01*
X388525Y388626D01*
X394790D01*
X394933Y388483D01*
X396220Y387950D01*
X397612D01*
X398899Y388483D01*
X399883Y389467D01*
X400416Y390754D01*
Y392146D01*
X399883Y393433D01*
X398899Y394417D01*
X398163Y394722D01*
X398416Y395992D01*
X408244D01*
Y393316D01*
X418244D01*
Y404316D01*
X417259D01*
X416742Y405091D01*
Y406483D01*
X416209Y407770D01*
X415224Y408754D01*
X413938Y409287D01*
X412545D01*
X411259Y408754D01*
X410275Y407770D01*
X409742Y406483D01*
Y405091D01*
X409224Y404316D01*
X408244D01*
Y401640D01*
X388793D01*
X388408Y402910D01*
X388921Y403254D01*
X389556Y404204D01*
X389745Y405152D01*
X394790D01*
X394933Y405009D01*
X396220Y404476D01*
X397612D01*
X398899Y405009D01*
X399883Y405993D01*
X400416Y407280D01*
Y408672D01*
X399883Y409959D01*
X398899Y410943D01*
X398442Y411132D01*
X398259Y411819D01*
X398212Y412602D01*
X398731Y413379D01*
X398954Y414500D01*
X398774Y415406D01*
X399202Y416224D01*
X399554Y416676D01*
X482319D01*
X483992Y415003D01*
X483992Y415003D01*
X484909Y414391D01*
X485989Y414176D01*
X485989Y414176D01*
X638839D01*
X638981Y414033D01*
X640268Y413500D01*
X641660D01*
X642947Y414033D01*
X643931Y415017D01*
X644464Y416304D01*
Y417696D01*
X643931Y418983D01*
X642947Y419967D01*
X641660Y420500D01*
X640268D01*
X638981Y419967D01*
X638839Y419824D01*
X487159D01*
X485486Y421497D01*
X484570Y422109D01*
X483489Y422324D01*
X483489Y422324D01*
X407265D01*
X406676Y423135D01*
X406504Y423594D01*
X406684Y424500D01*
Y427425D01*
X406827Y427567D01*
X407360Y428854D01*
Y430246D01*
X407294Y430406D01*
X408143Y431676D01*
X483487D01*
X483488Y431676D01*
X484568Y431891D01*
X485485Y432503D01*
X487157Y434176D01*
X545499D01*
X545641Y434033D01*
X546928Y433500D01*
X548320D01*
X549607Y434033D01*
X550591Y435017D01*
X551124Y436304D01*
Y437696D01*
X550591Y438983D01*
X549607Y439967D01*
X548320Y440500D01*
X546928D01*
X545641Y439967D01*
X545499Y439824D01*
X485988D01*
X484907Y439609D01*
X483990Y438997D01*
X482318Y437324D01*
X459261D01*
X458412Y438594D01*
X458499Y438804D01*
Y440196D01*
X457966Y441483D01*
X456982Y442467D01*
X455695Y443000D01*
X454303D01*
X453016Y442467D01*
X452874Y442324D01*
X406906D01*
X406380Y443594D01*
X406827Y444041D01*
X407360Y445328D01*
Y446720D01*
X406827Y448007D01*
X405843Y448991D01*
X404556Y449524D01*
X403164D01*
X401877Y448991D01*
X401735Y448848D01*
X389745D01*
X389674Y449203D01*
Y456510D01*
X389459Y457591D01*
X388847Y458507D01*
X388847Y458507D01*
X387999Y459356D01*
X388525Y460626D01*
X394790D01*
X394933Y460483D01*
X396220Y459950D01*
X397612D01*
X398899Y460483D01*
X399883Y461467D01*
X400416Y462754D01*
Y464146D01*
X399883Y465433D01*
X398899Y466417D01*
X398163Y466722D01*
X398416Y467992D01*
X408244D01*
Y465316D01*
X418244D01*
Y476316D01*
X417259D01*
X416742Y477091D01*
Y478483D01*
X416209Y479770D01*
X415224Y480754D01*
X413938Y481287D01*
X412545D01*
X411259Y480754D01*
X410275Y479770D01*
X409742Y478483D01*
Y477091D01*
X409224Y476316D01*
X408244D01*
Y473640D01*
X388793D01*
X388408Y474910D01*
X388921Y475254D01*
X389556Y476204D01*
X389745Y477152D01*
X394790D01*
X394933Y477009D01*
X396220Y476476D01*
X397612D01*
X398899Y477009D01*
X399883Y477993D01*
X400416Y479280D01*
Y480672D01*
X399883Y481959D01*
X398899Y482943D01*
X398442Y483132D01*
X398259Y483819D01*
X398212Y484602D01*
X398731Y485379D01*
X398954Y486500D01*
X398774Y487406D01*
X399202Y488224D01*
X399554Y488676D01*
X482319D01*
X483992Y487003D01*
X483992Y487003D01*
X484909Y486391D01*
X485989Y486176D01*
X485989Y486176D01*
X638839D01*
X638981Y486033D01*
X640268Y485500D01*
X641660D01*
X642947Y486033D01*
X643931Y487017D01*
X644464Y488304D01*
Y489696D01*
X643931Y490983D01*
X642947Y491967D01*
X641660Y492500D01*
X640268D01*
X638981Y491967D01*
X638839Y491824D01*
X487159D01*
X485486Y493497D01*
X484570Y494109D01*
X483489Y494324D01*
X483489Y494324D01*
X407265D01*
X406676Y495135D01*
X406504Y495594D01*
X406684Y496500D01*
Y499425D01*
X406827Y499567D01*
X407360Y500854D01*
Y502246D01*
X407294Y502406D01*
X408143Y503676D01*
X483487D01*
X483488Y503676D01*
X484568Y503891D01*
X485485Y504503D01*
X487157Y506176D01*
X545499D01*
X545641Y506033D01*
X546928Y505500D01*
X548320D01*
X549607Y506033D01*
X550591Y507017D01*
X551124Y508304D01*
Y509696D01*
X550591Y510983D01*
X549607Y511967D01*
X548320Y512500D01*
X546928D01*
X545641Y511967D01*
X545499Y511824D01*
X485988D01*
X484907Y511609D01*
X483990Y510997D01*
X482318Y509324D01*
X459261D01*
X458412Y510594D01*
X458499Y510804D01*
Y512196D01*
X457966Y513483D01*
X456982Y514467D01*
X455695Y515000D01*
X454303D01*
X453016Y514467D01*
X452874Y514324D01*
X406906D01*
X406380Y515594D01*
X406827Y516041D01*
X407360Y517328D01*
Y518720D01*
X406827Y520007D01*
X405843Y520991D01*
X404556Y521524D01*
X403164D01*
X401877Y520991D01*
X401735Y520848D01*
X389745D01*
X389674Y521203D01*
Y528510D01*
X389459Y529591D01*
X388847Y530507D01*
X388847Y530507D01*
X387999Y531356D01*
X388525Y532626D01*
X394790D01*
X394933Y532483D01*
X396220Y531950D01*
X397612D01*
X398899Y532483D01*
X399883Y533467D01*
X400416Y534754D01*
Y536146D01*
X399883Y537433D01*
X398899Y538417D01*
X398163Y538722D01*
X398416Y539992D01*
X408244D01*
Y537316D01*
X418244D01*
Y548316D01*
X417259D01*
X416742Y549091D01*
Y550483D01*
X416209Y551769D01*
X415224Y552754D01*
X413938Y553287D01*
X412545D01*
X411259Y552754D01*
X410275Y551769D01*
X409742Y550483D01*
Y549091D01*
X409224Y548316D01*
X408244D01*
Y545640D01*
X388793D01*
X388408Y546910D01*
X388921Y547254D01*
X389556Y548204D01*
X389745Y549152D01*
X394790D01*
X394933Y549009D01*
X396220Y548476D01*
X397612D01*
X398899Y549009D01*
X399883Y549993D01*
X400416Y551280D01*
Y552672D01*
X399883Y553959D01*
X398899Y554943D01*
X398442Y555132D01*
X398259Y555819D01*
X398212Y556602D01*
X398731Y557379D01*
X398954Y558500D01*
X398774Y559406D01*
X399202Y560224D01*
X399554Y560676D01*
X482319D01*
X483992Y559003D01*
X483992Y559003D01*
X484909Y558391D01*
X485989Y558176D01*
X485989Y558176D01*
X638839D01*
X638981Y558033D01*
X640268Y557500D01*
X641660D01*
X642947Y558033D01*
X643931Y559017D01*
X644464Y560304D01*
Y561696D01*
X643931Y562982D01*
X642947Y563967D01*
X641660Y564500D01*
X640268D01*
X638981Y563967D01*
X638839Y563824D01*
X487159D01*
X485486Y565497D01*
X484570Y566109D01*
X483489Y566324D01*
X483489Y566324D01*
X407265D01*
X406676Y567135D01*
X406504Y567594D01*
X406684Y568500D01*
Y571424D01*
X406827Y571567D01*
X407360Y572854D01*
Y574246D01*
X407294Y574406D01*
X408143Y575676D01*
X483487D01*
X483488Y575676D01*
X484568Y575891D01*
X485485Y576503D01*
X487157Y578176D01*
X545499D01*
X545641Y578033D01*
X546928Y577500D01*
X548320D01*
X549607Y578033D01*
X550591Y579017D01*
X551124Y580304D01*
Y581696D01*
X550591Y582982D01*
X549607Y583967D01*
X548320Y584500D01*
X546928D01*
X545641Y583967D01*
X545499Y583824D01*
X485988D01*
X484907Y583609D01*
X483990Y582997D01*
X482318Y581324D01*
X459261D01*
X458412Y582594D01*
X458499Y582804D01*
Y584196D01*
X457966Y585482D01*
X456982Y586467D01*
X455695Y587000D01*
X454303D01*
X453016Y586467D01*
X452874Y586324D01*
X406906D01*
X406380Y587594D01*
X406827Y588041D01*
X407360Y589328D01*
Y590720D01*
X406827Y592007D01*
X405843Y592991D01*
X404556Y593524D01*
X403164D01*
X401877Y592991D01*
X401735Y592848D01*
X389745D01*
X389674Y593203D01*
Y600510D01*
X389459Y601591D01*
X388847Y602507D01*
X388847Y602507D01*
X387999Y603356D01*
X388525Y604626D01*
X394790D01*
X394933Y604483D01*
X396220Y603950D01*
X397612D01*
X398899Y604483D01*
X399883Y605467D01*
X400416Y606754D01*
Y608146D01*
X399883Y609433D01*
X398899Y610417D01*
X398163Y610722D01*
X398416Y611992D01*
X408244D01*
Y609316D01*
X418244D01*
Y620316D01*
X417259D01*
X416742Y621091D01*
Y622483D01*
X416209Y623769D01*
X415224Y624754D01*
X413938Y625287D01*
X412545D01*
X411259Y624754D01*
X410275Y623769D01*
X409742Y622483D01*
Y621091D01*
X409224Y620316D01*
X408244D01*
Y617640D01*
X388793D01*
X388408Y618910D01*
X388921Y619254D01*
X389556Y620204D01*
X389745Y621152D01*
X394790D01*
X394933Y621009D01*
X396220Y620476D01*
X397612D01*
X398899Y621009D01*
X399883Y621993D01*
X400416Y623280D01*
Y624672D01*
X399883Y625959D01*
X398899Y626943D01*
X398442Y627132D01*
X398259Y627819D01*
X398212Y628602D01*
X398731Y629379D01*
X398954Y630500D01*
X398774Y631406D01*
X399202Y632224D01*
X399554Y632676D01*
X482319D01*
X483992Y631003D01*
X483992Y631003D01*
X484909Y630391D01*
X485989Y630176D01*
X485989Y630176D01*
X638839D01*
X638981Y630033D01*
X640268Y629500D01*
X641660D01*
X642947Y630033D01*
X643931Y631017D01*
X644464Y632304D01*
Y633696D01*
X643931Y634983D01*
X642947Y635967D01*
X641660Y636500D01*
X640268D01*
X638981Y635967D01*
X638839Y635824D01*
X487159D01*
X485486Y637497D01*
X484570Y638109D01*
X483489Y638324D01*
X483489Y638324D01*
X407265D01*
X406676Y639135D01*
X406504Y639594D01*
X406684Y640500D01*
Y643425D01*
X406827Y643567D01*
X407360Y644854D01*
Y646246D01*
X407294Y646406D01*
X408143Y647676D01*
X483487D01*
X483488Y647676D01*
X484568Y647891D01*
X485485Y648503D01*
X487157Y650176D01*
X545499D01*
X545641Y650033D01*
X546928Y649500D01*
X548320D01*
X549607Y650033D01*
X550591Y651017D01*
X551124Y652304D01*
Y653696D01*
X550591Y654983D01*
X549607Y655967D01*
X548320Y656500D01*
X546928D01*
X545641Y655967D01*
X545499Y655824D01*
X485988D01*
X484907Y655609D01*
X483990Y654997D01*
X482318Y653324D01*
X459261D01*
X458412Y654594D01*
X458499Y654804D01*
Y656196D01*
X457966Y657483D01*
X456982Y658467D01*
X455695Y659000D01*
X454303D01*
X453016Y658467D01*
X452874Y658324D01*
X406906D01*
X406380Y659594D01*
X406827Y660041D01*
X407360Y661328D01*
Y662720D01*
X406827Y664007D01*
X405843Y664991D01*
X404556Y665524D01*
X403164D01*
X401877Y664991D01*
X401735Y664848D01*
X389745D01*
X389674Y665203D01*
Y672510D01*
X389459Y673591D01*
X388847Y674507D01*
X388847Y674507D01*
X387999Y675356D01*
X388525Y676626D01*
X394790D01*
X394933Y676483D01*
X396220Y675950D01*
X397612D01*
X398899Y676483D01*
X399883Y677467D01*
X400416Y678754D01*
Y680146D01*
X399883Y681433D01*
X398899Y682417D01*
X398163Y682722D01*
X398416Y683992D01*
X408244D01*
Y681316D01*
X418244D01*
Y692316D01*
X417259D01*
X416742Y693091D01*
Y694483D01*
X416209Y695770D01*
X415224Y696754D01*
X413938Y697287D01*
X412545D01*
X411259Y696754D01*
X410275Y695770D01*
X409742Y694483D01*
Y693091D01*
X409224Y692316D01*
X408244D01*
Y689640D01*
X388793D01*
X388408Y690910D01*
X388921Y691254D01*
X389556Y692204D01*
X389745Y693152D01*
X394790D01*
X394933Y693009D01*
X396220Y692476D01*
X397612D01*
X398899Y693009D01*
X399883Y693993D01*
X400416Y695280D01*
Y696672D01*
X399883Y697959D01*
X398899Y698943D01*
X398442Y699132D01*
X398259Y699819D01*
X398212Y700602D01*
X398731Y701379D01*
X398954Y702500D01*
X398774Y703406D01*
X399202Y704224D01*
X399554Y704676D01*
X482319D01*
X483992Y703003D01*
X483992Y703003D01*
X484909Y702391D01*
X485989Y702176D01*
X485989Y702176D01*
X638839D01*
X638981Y702033D01*
X640268Y701500D01*
X641660D01*
X642947Y702033D01*
X643931Y703017D01*
X644464Y704304D01*
Y705696D01*
X643931Y706982D01*
X642947Y707967D01*
X641660Y708500D01*
X640268D01*
X638981Y707967D01*
X638839Y707824D01*
X487159D01*
X485486Y709497D01*
X484570Y710109D01*
X483489Y710324D01*
X483489Y710324D01*
X407265D01*
X406676Y711135D01*
X406504Y711594D01*
X406684Y712500D01*
Y715424D01*
X406827Y715567D01*
X407360Y716854D01*
Y718246D01*
X407294Y718406D01*
X408143Y719676D01*
X483487D01*
X483488Y719676D01*
X484568Y719891D01*
X485485Y720503D01*
X487157Y722176D01*
X545499D01*
X545641Y722033D01*
X546928Y721500D01*
X548320D01*
X549607Y722033D01*
X550591Y723017D01*
X551124Y724304D01*
Y725696D01*
X550591Y726982D01*
X549607Y727967D01*
X548320Y728500D01*
X546928D01*
X545641Y727967D01*
X545499Y727824D01*
X485988D01*
X484907Y727609D01*
X483990Y726997D01*
X482318Y725324D01*
X459261D01*
X458412Y726594D01*
X458499Y726804D01*
Y728196D01*
X457966Y729483D01*
X456982Y730467D01*
X455695Y731000D01*
X454303D01*
X453016Y730467D01*
X452874Y730324D01*
X406906D01*
X406380Y731594D01*
X406827Y732041D01*
X407360Y733328D01*
Y734720D01*
X406827Y736007D01*
X405843Y736991D01*
X404556Y737524D01*
X403164D01*
X401877Y736991D01*
X401735Y736848D01*
X389745D01*
X389674Y737203D01*
Y744510D01*
X389459Y745591D01*
X388847Y746507D01*
X388847Y746507D01*
X387359Y747995D01*
X386443Y748607D01*
X385362Y748822D01*
D02*
G37*
G36*
X698734Y683211D02*
X686234D01*
Y680036D01*
X682110D01*
X681967Y680179D01*
X680680Y680711D01*
X679288D01*
X678001Y680179D01*
X677017Y679194D01*
X676484Y677908D01*
Y676515D01*
X677017Y675229D01*
X678001Y674244D01*
X679288Y673711D01*
X680680D01*
X681967Y674244D01*
X682110Y674387D01*
X686234D01*
Y671211D01*
X688915D01*
Y664211D01*
X686234D01*
Y652211D01*
X698734D01*
Y654643D01*
X708274D01*
X723688Y639229D01*
X724846Y638455D01*
X726211Y638183D01*
X740946D01*
Y636188D01*
X760964D01*
Y647316D01*
X740946D01*
Y645321D01*
X727690D01*
X712275Y660735D01*
X711118Y661508D01*
X709752Y661780D01*
X698734D01*
Y664211D01*
X696053D01*
Y671211D01*
X698734D01*
Y683211D01*
D02*
G37*
G36*
X418242Y675084D02*
X414512D01*
Y673396D01*
X411972D01*
Y675084D01*
X408242D01*
Y670854D01*
X409930D01*
Y668314D01*
X408242D01*
Y664084D01*
X411972D01*
Y665772D01*
X414512D01*
Y664084D01*
X418242D01*
Y668314D01*
X416554D01*
Y670854D01*
X418242D01*
Y675084D01*
D02*
G37*
G36*
X673734Y673711D02*
X668754D01*
Y672024D01*
X666214D01*
Y673711D01*
X661234D01*
Y668981D01*
X662922D01*
Y666441D01*
X661234D01*
Y661711D01*
X666214D01*
Y663399D01*
X668754D01*
Y661711D01*
X673734D01*
Y666441D01*
X672047D01*
Y668981D01*
X673734D01*
Y673711D01*
D02*
G37*
G36*
X434244Y692316D02*
X424244D01*
Y681316D01*
X426418D01*
Y675084D01*
X424242D01*
Y664084D01*
X434242D01*
Y675084D01*
X432066D01*
Y681316D01*
X434244D01*
Y692316D01*
D02*
G37*
G36*
X325458D02*
X315458D01*
Y681316D01*
X317634D01*
Y679877D01*
X317491Y679734D01*
X316959Y678448D01*
Y677055D01*
X317491Y675769D01*
X317634Y675626D01*
Y674184D01*
X315458D01*
Y663184D01*
X325458D01*
Y674184D01*
X323283D01*
Y675626D01*
X323426Y675769D01*
X323959Y677055D01*
Y678448D01*
X323426Y679734D01*
X323283Y679877D01*
Y681316D01*
X325458D01*
Y692316D01*
D02*
G37*
G36*
X567116Y661994D02*
X565724D01*
X564437Y661461D01*
X563453Y660477D01*
X562920Y659190D01*
Y657798D01*
X563453Y656511D01*
X564437Y655527D01*
X565724Y654994D01*
X567116D01*
X568403Y655527D01*
X569387Y656511D01*
X569920Y657798D01*
Y659190D01*
X569387Y660477D01*
X568403Y661461D01*
X567116Y661994D01*
D02*
G37*
G36*
X796949Y679801D02*
X762961D01*
Y654703D01*
X796949D01*
Y679801D01*
D02*
G37*
G36*
X698734Y644320D02*
X686234D01*
Y641144D01*
X682110D01*
X681967Y641287D01*
X680680Y641820D01*
X679288D01*
X678001Y641287D01*
X677017Y640302D01*
X676484Y639016D01*
Y637623D01*
X677017Y636337D01*
X678001Y635352D01*
X679288Y634820D01*
X680680D01*
X681967Y635352D01*
X682110Y635495D01*
X686234D01*
Y632320D01*
X698734D01*
Y634751D01*
X707274D01*
X715296Y626729D01*
X716454Y625955D01*
X717820Y625683D01*
X740946D01*
Y623688D01*
X760964D01*
Y634816D01*
X740946D01*
Y632821D01*
X719298D01*
X711275Y640843D01*
X710118Y641617D01*
X708752Y641888D01*
X698734D01*
Y644320D01*
D02*
G37*
G36*
X673734Y634820D02*
X668754D01*
Y633132D01*
X666214D01*
Y634820D01*
X661234D01*
Y630090D01*
X662922D01*
Y627550D01*
X661234D01*
Y622820D01*
X666214D01*
Y624507D01*
X668754D01*
Y622820D01*
X673734D01*
Y627550D01*
X672047D01*
Y630090D01*
X673734D01*
Y634820D01*
D02*
G37*
G36*
X698734Y625320D02*
X686234D01*
Y622144D01*
X682110D01*
X681967Y622287D01*
X680680Y622820D01*
X679288D01*
X678001Y622287D01*
X677017Y621302D01*
X676484Y620016D01*
Y618623D01*
X677017Y617337D01*
X678001Y616352D01*
X679288Y615820D01*
X680680D01*
X681967Y616352D01*
X682110Y616495D01*
X686234D01*
Y613320D01*
X698734D01*
Y615751D01*
X708274D01*
X709796Y614229D01*
X710954Y613455D01*
X712320Y613183D01*
X740946D01*
Y611188D01*
X760964D01*
Y622316D01*
X740946D01*
Y620321D01*
X713798D01*
X712275Y621843D01*
X711118Y622617D01*
X709752Y622888D01*
X698734D01*
Y625320D01*
D02*
G37*
G36*
X760964Y609816D02*
X740946D01*
Y607821D01*
X713576D01*
X712211Y607549D01*
X711053Y606775D01*
X707274Y602996D01*
X698734D01*
Y605428D01*
X686234D01*
Y602252D01*
X682110D01*
X681967Y602395D01*
X680680Y602928D01*
X679288D01*
X678001Y602395D01*
X677017Y601410D01*
X676484Y600124D01*
Y598732D01*
X677017Y597445D01*
X678001Y596461D01*
X679288Y595928D01*
X680680D01*
X681967Y596461D01*
X682110Y596604D01*
X686234D01*
Y593428D01*
X698734D01*
Y595859D01*
X708752D01*
X710118Y596131D01*
X711275Y596904D01*
X715054Y600683D01*
X740946D01*
Y598688D01*
X760964D01*
Y609816D01*
D02*
G37*
G36*
X418242Y603084D02*
X414512D01*
Y601396D01*
X411972D01*
Y603084D01*
X408242D01*
Y598854D01*
X409930D01*
Y596314D01*
X408242D01*
Y592084D01*
X411972D01*
Y593772D01*
X414512D01*
Y592084D01*
X418242D01*
Y596314D01*
X416554D01*
Y598854D01*
X418242D01*
Y603084D01*
D02*
G37*
G36*
X567116Y605480D02*
X565724D01*
X564437Y604947D01*
X563453Y603963D01*
X562920Y602676D01*
Y601284D01*
X563453Y599997D01*
X564437Y599013D01*
X565724Y598480D01*
X567116D01*
X568403Y599013D01*
X569387Y599997D01*
X569920Y601284D01*
Y602676D01*
X569387Y603963D01*
X568403Y604947D01*
X567116Y605480D01*
D02*
G37*
G36*
X673734Y595928D02*
X668754D01*
Y594240D01*
X666214D01*
Y595928D01*
X661234D01*
Y591198D01*
X662922D01*
Y588658D01*
X661234D01*
Y583928D01*
X666214D01*
Y585615D01*
X668754D01*
Y583928D01*
X673734D01*
Y588658D01*
X672047D01*
Y591198D01*
X673734D01*
Y595928D01*
D02*
G37*
G36*
X434244Y620316D02*
X424244D01*
Y609316D01*
X426418D01*
Y603084D01*
X424242D01*
Y592084D01*
X434242D01*
Y603084D01*
X432066D01*
Y609316D01*
X434244D01*
Y620316D01*
D02*
G37*
G36*
X325458D02*
X315458D01*
Y609316D01*
X317634D01*
Y607876D01*
X317491Y607733D01*
X316958Y606446D01*
Y605054D01*
X317491Y603767D01*
X317634Y603625D01*
Y602184D01*
X315458D01*
Y591184D01*
X325458D01*
Y602184D01*
X323282D01*
Y603625D01*
X323425Y603767D01*
X323958Y605054D01*
Y606446D01*
X323425Y607733D01*
X323282Y607876D01*
Y609316D01*
X325458D01*
Y620316D01*
D02*
G37*
G36*
X760964Y597316D02*
X740946D01*
Y595321D01*
X720400D01*
X719035Y595049D01*
X717877Y594275D01*
X707598Y583996D01*
X698734D01*
Y586428D01*
X686234D01*
Y583252D01*
X682110D01*
X681967Y583395D01*
X680680Y583928D01*
X679288D01*
X678001Y583395D01*
X677017Y582410D01*
X676484Y581124D01*
Y579732D01*
X677017Y578445D01*
X678001Y577461D01*
X679288Y576928D01*
X680680D01*
X681967Y577461D01*
X682110Y577603D01*
X686234D01*
Y574428D01*
X698734D01*
Y576859D01*
X709076D01*
X710442Y577131D01*
X711600Y577904D01*
X721879Y588183D01*
X740946D01*
Y586188D01*
X760964D01*
Y597316D01*
D02*
G37*
G36*
Y584816D02*
X740946D01*
Y582821D01*
X728837D01*
X727471Y582549D01*
X726313Y581775D01*
X708642Y564104D01*
X698734D01*
Y566536D01*
X686234D01*
Y563360D01*
X680305D01*
X680163Y563503D01*
X678876Y564036D01*
X677484D01*
X676197Y563503D01*
X675213Y562519D01*
X674680Y561232D01*
Y559840D01*
X675213Y558553D01*
X676197Y557569D01*
X677484Y557036D01*
X678876D01*
X680163Y557569D01*
X680305Y557712D01*
X686234D01*
Y554536D01*
X698734D01*
Y556967D01*
X710120D01*
X711486Y557239D01*
X712644Y558013D01*
X730315Y575683D01*
X740946D01*
Y573688D01*
X760964D01*
Y584816D01*
D02*
G37*
G36*
Y572316D02*
X740946D01*
Y570321D01*
X735053D01*
X733687Y570049D01*
X732529Y569275D01*
X708358Y545104D01*
X698734D01*
Y547536D01*
X686234D01*
Y545639D01*
X680305D01*
X680163Y545782D01*
X678876Y546314D01*
X677484D01*
X676197Y545782D01*
X675213Y544797D01*
X674680Y543511D01*
Y542118D01*
X675213Y540832D01*
X676197Y539847D01*
X677484Y539314D01*
X678876D01*
X680163Y539847D01*
X680305Y539990D01*
X686234D01*
Y535536D01*
X698734D01*
Y537967D01*
X709837D01*
X711202Y538239D01*
X712360Y539013D01*
X736531Y563183D01*
X740946D01*
Y561188D01*
X760964D01*
Y572316D01*
D02*
G37*
G36*
Y559816D02*
X752225D01*
Y558128D01*
X749685D01*
Y559816D01*
X740946D01*
Y555522D01*
X742634D01*
Y552982D01*
X740946D01*
Y548688D01*
X749685D01*
Y550376D01*
X752225D01*
Y548688D01*
X760964D01*
Y552982D01*
X759276D01*
Y555522D01*
X760964D01*
Y559816D01*
D02*
G37*
G36*
X673734Y557036D02*
X668754D01*
Y555348D01*
X666214D01*
Y557036D01*
X661234D01*
Y552306D01*
X662922D01*
Y549766D01*
X661234D01*
Y545036D01*
X666214D01*
Y546724D01*
X668754D01*
Y545036D01*
X673734D01*
Y549766D01*
X672047D01*
Y552306D01*
X673734D01*
Y557036D01*
D02*
G37*
G36*
X760964Y547316D02*
X740946D01*
Y546340D01*
X733553D01*
X731797Y545991D01*
X730308Y544996D01*
X711544Y526232D01*
X698734D01*
Y527644D01*
X686234D01*
Y515644D01*
X687896D01*
Y508644D01*
X686234D01*
Y496644D01*
X688915D01*
Y490220D01*
X688984Y489875D01*
Y489524D01*
X689119Y489199D01*
X689187Y488854D01*
X689382Y488562D01*
X689517Y488237D01*
X689765Y487989D01*
X689961Y487697D01*
X690253Y487501D01*
X690501Y487253D01*
X690826Y487118D01*
X691118Y486923D01*
X691463Y486855D01*
X691788Y486720D01*
X692139D01*
X692484Y486651D01*
X692829Y486720D01*
X693180D01*
X693505Y486855D01*
X693850Y486923D01*
X694142Y487118D01*
X694467Y487253D01*
X694715Y487501D01*
X695007Y487697D01*
X695203Y487989D01*
X695451Y488237D01*
X695586Y488562D01*
X695781Y488854D01*
X695850Y489199D01*
X695984Y489524D01*
Y489875D01*
X696053Y490220D01*
Y496644D01*
X698734D01*
Y508644D01*
X697072D01*
Y515644D01*
X698734D01*
Y517056D01*
X713445D01*
X715201Y517405D01*
X716689Y518400D01*
X735453Y537164D01*
X740946D01*
Y536188D01*
X760964D01*
Y547316D01*
D02*
G37*
G36*
X418242Y531084D02*
X414512D01*
Y529396D01*
X411972D01*
Y531084D01*
X408242D01*
Y526854D01*
X409930D01*
Y524314D01*
X408242D01*
Y520084D01*
X411972D01*
Y521772D01*
X414512D01*
Y520084D01*
X418242D01*
Y524314D01*
X416554D01*
Y526854D01*
X418242D01*
Y531084D01*
D02*
G37*
G36*
X434244Y548316D02*
X424244D01*
Y537316D01*
X426418D01*
Y531084D01*
X424242D01*
Y520084D01*
X434242D01*
Y531084D01*
X432066D01*
Y537316D01*
X434244D01*
Y548316D01*
D02*
G37*
G36*
X325458D02*
X315458D01*
Y537316D01*
X317634D01*
Y535876D01*
X317491Y535733D01*
X316958Y534446D01*
Y533054D01*
X317491Y531767D01*
X317634Y531624D01*
Y530184D01*
X315458D01*
Y519184D01*
X325458D01*
Y530184D01*
X323282D01*
Y531624D01*
X323425Y531767D01*
X323958Y533054D01*
Y534446D01*
X323425Y535733D01*
X323282Y535876D01*
Y537316D01*
X325458D01*
Y548316D01*
D02*
G37*
G36*
X673734Y518144D02*
X668754D01*
Y516456D01*
X666214D01*
Y518144D01*
X661234D01*
Y513414D01*
X662922D01*
Y510874D01*
X661234D01*
Y506144D01*
X666214D01*
Y507832D01*
X668754D01*
Y506144D01*
X673734D01*
Y510874D01*
X672047D01*
Y513414D01*
X673734D01*
Y518144D01*
D02*
G37*
G36*
X796949Y528801D02*
X762961D01*
Y503703D01*
X796949D01*
Y528801D01*
D02*
G37*
G36*
X418242Y459084D02*
X414512D01*
Y457396D01*
X411972D01*
Y459084D01*
X408242D01*
Y454854D01*
X409930D01*
Y452314D01*
X408242D01*
Y448084D01*
X411972D01*
Y449772D01*
X414512D01*
Y448084D01*
X418242D01*
Y452314D01*
X416554D01*
Y454854D01*
X418242D01*
Y459084D01*
D02*
G37*
G36*
X434244Y476316D02*
X424244D01*
Y465316D01*
X426418D01*
Y459084D01*
X424242D01*
Y448084D01*
X434242D01*
Y459084D01*
X432066D01*
Y465316D01*
X434244D01*
Y476316D01*
D02*
G37*
G36*
X325458D02*
X315458D01*
Y465316D01*
X317634D01*
Y463876D01*
X317491Y463733D01*
X316958Y462446D01*
Y461054D01*
X317491Y459767D01*
X317634Y459624D01*
Y458184D01*
X315458D01*
Y447184D01*
X325458D01*
Y458184D01*
X323282D01*
Y459624D01*
X323425Y459767D01*
X323958Y461054D01*
Y462446D01*
X323425Y463733D01*
X323282Y463876D01*
Y465316D01*
X325458D01*
Y476316D01*
D02*
G37*
G36*
X418242Y387084D02*
X414512D01*
Y385396D01*
X411972D01*
Y387084D01*
X408242D01*
Y382854D01*
X409930D01*
Y380314D01*
X408242D01*
Y376084D01*
X411972D01*
Y377772D01*
X414512D01*
Y376084D01*
X418242D01*
Y380314D01*
X416554D01*
Y382854D01*
X418242D01*
Y387084D01*
D02*
G37*
G36*
X434244Y404316D02*
X424244D01*
Y393316D01*
X426418D01*
Y387084D01*
X424242D01*
Y376084D01*
X434242D01*
Y387084D01*
X432066D01*
Y393316D01*
X434244D01*
Y404316D01*
D02*
G37*
G36*
X325458D02*
X315458D01*
Y393316D01*
X317634D01*
Y391875D01*
X317491Y391733D01*
X316958Y390446D01*
Y389054D01*
X317491Y387767D01*
X317634Y387625D01*
Y386184D01*
X315458D01*
Y375184D01*
X325458D01*
Y386184D01*
X323282D01*
Y387625D01*
X323425Y387767D01*
X323958Y389054D01*
Y390446D01*
X323425Y391733D01*
X323282Y391875D01*
Y393316D01*
X325458D01*
Y404316D01*
D02*
G37*
G36*
X341460Y332314D02*
X331460D01*
Y321314D01*
X341460D01*
Y323990D01*
X347653D01*
X347795Y323847D01*
X349082Y323314D01*
X350474D01*
X351761Y323847D01*
X352745Y324832D01*
X353278Y326118D01*
Y327510D01*
X352745Y328797D01*
X351761Y329781D01*
X350474Y330314D01*
X349082D01*
X347795Y329781D01*
X347653Y329639D01*
X341460D01*
Y332314D01*
D02*
G37*
G36*
X418242Y315084D02*
X414512D01*
Y313396D01*
X411972D01*
Y315084D01*
X408242D01*
Y310854D01*
X409930D01*
Y308314D01*
X408242D01*
Y304084D01*
X411972D01*
Y305772D01*
X414512D01*
Y304084D01*
X418242D01*
Y308314D01*
X416554D01*
Y310854D01*
X418242D01*
Y315084D01*
D02*
G37*
G36*
X434242Y332314D02*
X424242D01*
Y321314D01*
X426418D01*
Y315084D01*
X424242D01*
Y304084D01*
X434242D01*
Y315084D01*
X432066D01*
Y321314D01*
X434242D01*
Y332314D01*
D02*
G37*
G36*
X677782Y304010D02*
X677329Y303822D01*
X676851Y303716D01*
X676109D01*
X675630Y303822D01*
X675178Y304010D01*
X675041Y303953D01*
X674896Y303985D01*
X674379Y303894D01*
X674278Y303830D01*
X674159Y303839D01*
X673162Y303515D01*
X673071Y303437D01*
X672952Y303430D01*
X672009Y302970D01*
X671930Y302881D01*
X671813Y302857D01*
X670943Y302271D01*
X670877Y302171D01*
X670765Y302131D01*
X669985Y301429D01*
X669934Y301321D01*
X669828Y301266D01*
X669154Y300463D01*
X669118Y300349D01*
X669021Y300280D01*
X668465Y299390D01*
X668445Y299272D01*
X668359Y299190D01*
X668082Y298569D01*
X643420D01*
X642054Y298297D01*
X640897Y297523D01*
X635457Y292083D01*
X634683Y290926D01*
X634411Y289560D01*
Y250930D01*
X619980D01*
Y222169D01*
X613727Y215916D01*
X600051D01*
Y222226D01*
X573429D01*
Y215916D01*
X544171D01*
Y222226D01*
X517549D01*
Y200430D01*
X544171D01*
Y206740D01*
X553852D01*
X576082Y184510D01*
Y166170D01*
X575170D01*
Y165758D01*
X567969D01*
Y166169D01*
X556969D01*
Y165758D01*
X545682D01*
Y175411D01*
X536358D01*
Y165758D01*
X532982D01*
Y175411D01*
X523658D01*
Y148956D01*
X532982D01*
Y156582D01*
X536358D01*
Y148956D01*
X545682D01*
Y156582D01*
X556969D01*
Y156169D01*
X567969D01*
Y156582D01*
X575170D01*
Y156170D01*
X586170D01*
Y158346D01*
X592470D01*
Y156170D01*
X603470D01*
Y166170D01*
X592470D01*
Y163994D01*
X586170D01*
Y166170D01*
X585258D01*
Y186410D01*
X584909Y188166D01*
X583914Y189655D01*
X574409Y199160D01*
X574935Y200430D01*
X600051D01*
Y206740D01*
X615628D01*
X617384Y207089D01*
X618872Y208084D01*
X627219Y216430D01*
X655980D01*
Y250930D01*
X641549D01*
Y288082D01*
X644898Y291431D01*
X668082D01*
X668359Y290810D01*
X668445Y290728D01*
X668465Y290610D01*
X669021Y289720D01*
X669118Y289651D01*
X669154Y289537D01*
X669828Y288734D01*
X669934Y288679D01*
X669985Y288571D01*
X670765Y287869D01*
X670877Y287829D01*
X670943Y287729D01*
X671813Y287143D01*
X671930Y287119D01*
X672009Y287030D01*
X672952Y286570D01*
X673071Y286563D01*
X673162Y286485D01*
X674159Y286161D01*
X674278Y286170D01*
X674379Y286106D01*
X674896Y286015D01*
X675041Y286047D01*
X675178Y285990D01*
X675630Y286178D01*
X676109Y286284D01*
X676851D01*
X677329Y286178D01*
X677782Y285990D01*
X677919Y286047D01*
X678064Y286015D01*
X678581Y286106D01*
X678681Y286170D01*
X678801Y286161D01*
X679798Y286485D01*
X679889Y286563D01*
X680008Y286570D01*
X680951Y287030D01*
X681030Y287119D01*
X681147Y287143D01*
X682017Y287729D01*
X682083Y287829D01*
X682195Y287869D01*
X682975Y288571D01*
X683026Y288679D01*
X683132Y288734D01*
X683806Y289537D01*
X683842Y289651D01*
X683939Y289720D01*
X684495Y290610D01*
X684515Y290728D01*
X684602Y290810D01*
X684878Y291431D01*
X703480D01*
X703825Y291500D01*
X704176D01*
X704501Y291635D01*
X704846Y291703D01*
X705138Y291898D01*
X705463Y292033D01*
X705711Y292281D01*
X706003Y292477D01*
X706199Y292769D01*
X706447Y293017D01*
X706582Y293342D01*
X706777Y293634D01*
X706845Y293979D01*
X706980Y294304D01*
Y294655D01*
X707049Y295000D01*
X706980Y295345D01*
Y295696D01*
X706845Y296021D01*
X706777Y296366D01*
X706582Y296658D01*
X706447Y296983D01*
X706199Y297231D01*
X706003Y297523D01*
X705711Y297719D01*
X705463Y297967D01*
X705138Y298102D01*
X704846Y298297D01*
X704501Y298365D01*
X704176Y298500D01*
X703825D01*
X703480Y298569D01*
X684878D01*
X684602Y299190D01*
X684515Y299272D01*
X684495Y299390D01*
X683939Y300280D01*
X683842Y300349D01*
X683806Y300463D01*
X683132Y301266D01*
X683026Y301321D01*
X682975Y301429D01*
X682195Y302131D01*
X682083Y302171D01*
X682017Y302271D01*
X681147Y302857D01*
X681030Y302881D01*
X680951Y302970D01*
X680008Y303430D01*
X679889Y303437D01*
X679798Y303515D01*
X678801Y303839D01*
X678682Y303830D01*
X678581Y303894D01*
X678064Y303985D01*
X677919Y303953D01*
X677808Y303999D01*
X677782Y304010D01*
D02*
G37*
G36*
X325460Y332314D02*
X315460D01*
Y321314D01*
X317635D01*
Y319874D01*
X317493Y319731D01*
X316960Y318444D01*
Y317052D01*
X317415Y315954D01*
X317060Y315054D01*
X316836Y314684D01*
X315458D01*
Y303684D01*
X325458D01*
Y314684D01*
X324083D01*
X323859Y315054D01*
X323505Y315954D01*
X323960Y317052D01*
Y318444D01*
X323427Y319731D01*
X323284Y319874D01*
Y321314D01*
X325460D01*
Y332314D01*
D02*
G37*
G36*
X489431Y267049D02*
X477390D01*
Y265361D01*
X474850D01*
Y267049D01*
X462809D01*
Y257421D01*
X464497D01*
Y254881D01*
X462809D01*
Y245253D01*
X474850D01*
Y246940D01*
X477390D01*
Y245253D01*
X489431D01*
Y254881D01*
X487743D01*
Y257421D01*
X489431D01*
Y267049D01*
D02*
G37*
G36*
X600051Y266930D02*
X588010D01*
Y265242D01*
X585470D01*
Y266930D01*
X573429D01*
Y257302D01*
X575117D01*
Y254762D01*
X573429D01*
Y245134D01*
X585470D01*
Y246822D01*
X588010D01*
Y245134D01*
X600051D01*
Y254762D01*
X598363D01*
Y257302D01*
X600051D01*
Y266930D01*
D02*
G37*
G36*
X544171D02*
X532130D01*
Y265242D01*
X529590D01*
Y266930D01*
X517549D01*
Y257302D01*
X519237D01*
Y254762D01*
X517549D01*
Y245134D01*
X529590D01*
Y246822D01*
X532130D01*
Y245134D01*
X544171D01*
Y254762D01*
X542483D01*
Y257302D01*
X544171D01*
Y266930D01*
D02*
G37*
G36*
X760061Y260887D02*
X748331D01*
Y259199D01*
X745791D01*
Y260887D01*
X734061D01*
Y249227D01*
X735749D01*
Y246687D01*
X734061D01*
Y235027D01*
X745791D01*
Y236714D01*
X748331D01*
Y235027D01*
X760061D01*
Y246687D01*
X758373D01*
Y249227D01*
X760061D01*
Y260887D01*
D02*
G37*
G36*
X258646Y277820D02*
X257254D01*
X255967Y277287D01*
X254983Y276303D01*
X254450Y275016D01*
Y273624D01*
X254983Y272337D01*
X255124Y272196D01*
Y266877D01*
X252948D01*
Y260371D01*
X248052Y255474D01*
X246948Y256167D01*
X246948Y257027D01*
Y260107D01*
X245261D01*
Y262647D01*
X246948D01*
Y266877D01*
X243218D01*
Y265189D01*
X240678D01*
Y266877D01*
X236948D01*
Y262647D01*
X238636D01*
Y260107D01*
X236948D01*
Y255877D01*
X240678D01*
Y257564D01*
X243218D01*
Y255877D01*
X245715D01*
X246658Y255877D01*
X247351Y254774D01*
X244322Y251744D01*
X126476D01*
X114650Y263570D01*
X114986Y264153D01*
X115600Y266442D01*
Y268811D01*
X114986Y271101D01*
X113802Y273153D01*
X112126Y274828D01*
X110074Y276013D01*
X107785Y276627D01*
X105415D01*
X103126Y276013D01*
X101074Y274828D01*
X99398Y273153D01*
X98213Y271101D01*
X97600Y268811D01*
Y266442D01*
X98213Y264153D01*
X99398Y262101D01*
X101074Y260425D01*
X103126Y259240D01*
X105415Y258627D01*
X107785D01*
X110074Y259240D01*
X110656Y259576D01*
X123309Y246923D01*
X123309Y246923D01*
X124226Y246311D01*
X125307Y246096D01*
X245492D01*
X245492Y246096D01*
X246572Y246311D01*
X247489Y246923D01*
X256443Y255877D01*
X259454D01*
X268766Y246565D01*
Y226561D01*
X268766Y226561D01*
X268981Y225480D01*
X269593Y224564D01*
X270450Y223707D01*
X269924Y222437D01*
X269288D01*
X268002Y221904D01*
X267580Y221482D01*
X265143D01*
X264062Y221267D01*
X263146Y220655D01*
X263146Y220655D01*
X258954Y216463D01*
X252948D01*
Y205463D01*
X262948D01*
Y208138D01*
X271590D01*
X271590Y208138D01*
X272671Y208353D01*
X273587Y208965D01*
X276384Y211763D01*
X278435D01*
X278820Y210492D01*
X278433Y210234D01*
X278433Y210234D01*
X259454Y191255D01*
X252948D01*
Y180255D01*
X262948D01*
Y186761D01*
X281600Y205413D01*
X291861D01*
X292246Y204142D01*
X291227Y203461D01*
X290280Y202045D01*
X289947Y200373D01*
X289977D01*
Y196707D01*
X268815Y175544D01*
X254120D01*
X253039Y175329D01*
X252123Y174717D01*
X252123Y174717D01*
X243454Y166048D01*
X236948D01*
Y163873D01*
X147094D01*
X114650Y196317D01*
X114986Y196899D01*
X115600Y199188D01*
Y201558D01*
X114986Y203847D01*
X113802Y205899D01*
X112126Y207575D01*
X110074Y208760D01*
X107785Y209373D01*
X105415D01*
X103126Y208760D01*
X101074Y207575D01*
X99398Y205899D01*
X98213Y203847D01*
X97600Y201558D01*
Y199188D01*
X98213Y196899D01*
X99398Y194847D01*
X101074Y193171D01*
X103126Y191987D01*
X105415Y191373D01*
X107785D01*
X110074Y191987D01*
X110656Y192323D01*
X143928Y159051D01*
X143928Y159051D01*
X144844Y158439D01*
X145925Y158224D01*
X145925Y158224D01*
X236948D01*
Y155048D01*
X239124D01*
Y150941D01*
X239124Y150941D01*
X239339Y149860D01*
X239951Y148944D01*
X252948Y135947D01*
Y128941D01*
X262948D01*
Y139941D01*
X256943D01*
X244773Y152111D01*
Y155048D01*
X246948D01*
Y161554D01*
X251625Y166230D01*
X251881Y166248D01*
X252948Y165355D01*
X252948Y164899D01*
Y155048D01*
X262948D01*
Y157724D01*
X292218D01*
Y155048D01*
X298724D01*
X305910Y147863D01*
X305910Y147863D01*
X306826Y147251D01*
X307907Y147036D01*
X307907Y147036D01*
X341799D01*
X341799Y147036D01*
X342880Y147251D01*
X343796Y147863D01*
X350982Y155048D01*
X357488D01*
Y166048D01*
X347488D01*
Y159543D01*
X340629Y152684D01*
X309077D01*
X308036Y153724D01*
X308019Y153981D01*
X308911Y155048D01*
X309368Y155048D01*
X318218D01*
Y160654D01*
X329657Y172093D01*
X330269Y173009D01*
X330484Y174090D01*
Y204401D01*
X330484Y204401D01*
X330269Y205482D01*
X329657Y206398D01*
X325821Y210234D01*
X324905Y210846D01*
X323824Y211061D01*
X323824Y211061D01*
X318676D01*
Y217437D01*
Y224463D01*
X325660D01*
X325660Y224463D01*
X326741Y224678D01*
X327657Y225290D01*
X334850Y232483D01*
X334851Y232483D01*
X335463Y233399D01*
X335678Y234480D01*
Y258553D01*
X347488D01*
Y255877D01*
X349663D01*
Y247868D01*
X349663Y247868D01*
X349878Y246787D01*
X350490Y245871D01*
X351978Y244383D01*
X351978Y244383D01*
X352895Y243771D01*
X353975Y243556D01*
X401735D01*
X401877Y243413D01*
X403164Y242880D01*
X404556D01*
X405843Y243413D01*
X406827Y244397D01*
X407360Y245684D01*
Y247076D01*
X406827Y248363D01*
X405843Y249347D01*
X404556Y249880D01*
X403164D01*
X401877Y249347D01*
X401735Y249204D01*
X355312D01*
Y255877D01*
X357488D01*
Y266877D01*
X347488D01*
Y264201D01*
X318219D01*
Y266877D01*
X308219D01*
Y255877D01*
X318219D01*
Y258553D01*
X330029D01*
Y235650D01*
X324490Y230111D01*
X318676D01*
Y237137D01*
X311000D01*
Y241463D01*
X310786Y242544D01*
X310173Y243460D01*
X310173Y243460D01*
X300044Y253590D01*
Y255877D01*
X302219D01*
Y266877D01*
X300044D01*
Y270610D01*
X300929Y271496D01*
X365663D01*
Y266877D01*
X363488D01*
Y255877D01*
X373488D01*
Y258553D01*
X402757D01*
Y255877D01*
X412757D01*
Y266877D01*
X402757D01*
Y264201D01*
X373488D01*
Y266877D01*
X371312D01*
Y272832D01*
X371097Y273913D01*
X370485Y274829D01*
X370485Y274829D01*
X368997Y276317D01*
X368080Y276929D01*
X367000Y277144D01*
X367000Y277144D01*
X299759D01*
X298678Y276929D01*
X297762Y276317D01*
X297762Y276317D01*
X295222Y273777D01*
X294610Y272861D01*
X294395Y271780D01*
X294395Y271780D01*
Y266877D01*
X292219D01*
Y255877D01*
X294395D01*
Y252420D01*
X294395Y252420D01*
X294610Y251339D01*
X295222Y250423D01*
X305352Y240293D01*
Y237137D01*
X297676D01*
Y230137D01*
Y223761D01*
X278384D01*
X274414Y227731D01*
Y247735D01*
X274414Y247735D01*
X274199Y248816D01*
X273587Y249732D01*
X262948Y260371D01*
Y266877D01*
X260773D01*
Y272193D01*
X260917Y272337D01*
X261450Y273624D01*
Y275016D01*
X260917Y276303D01*
X259933Y277287D01*
X258646Y277820D01*
D02*
G37*
G36*
X262950Y241670D02*
X259220D01*
Y239982D01*
X256680D01*
Y241670D01*
X252950D01*
Y237440D01*
X254638D01*
Y234900D01*
X252950D01*
Y230670D01*
X256680D01*
Y232357D01*
X259220D01*
Y230670D01*
X262950D01*
Y234900D01*
X261262D01*
Y237440D01*
X262950D01*
Y241670D01*
D02*
G37*
G36*
X428757Y266877D02*
X418757D01*
Y255877D01*
X420933D01*
Y234017D01*
X418756D01*
Y227511D01*
X413859Y222614D01*
X412756Y223307D01*
X412756Y224167D01*
Y227247D01*
X411068D01*
Y229787D01*
X412756D01*
Y234017D01*
X409026D01*
Y232330D01*
X406486D01*
Y234017D01*
X402756D01*
Y229787D01*
X404444D01*
Y227247D01*
X402756D01*
Y223017D01*
X406486D01*
Y224705D01*
X409026D01*
Y223017D01*
X411523D01*
X412467Y223017D01*
X413160Y221915D01*
X409332Y218087D01*
X409130D01*
X407844Y217554D01*
X406859Y216569D01*
X406326Y215283D01*
Y213891D01*
X406859Y212604D01*
X407844Y211620D01*
X409130Y211087D01*
X410522D01*
X411809Y211620D01*
X412793Y212604D01*
X413326Y213891D01*
Y214093D01*
X419759Y220526D01*
X420933Y220040D01*
Y199358D01*
X418757D01*
Y188358D01*
X428757D01*
Y199358D01*
X426581D01*
Y223017D01*
X428756D01*
Y234017D01*
X426581D01*
Y255877D01*
X428757D01*
Y266877D01*
D02*
G37*
G36*
X246950Y241670D02*
X236950D01*
Y230670D01*
X239126D01*
Y216463D01*
X236948D01*
Y205463D01*
X246948D01*
Y216463D01*
X244774D01*
Y230670D01*
X246950D01*
Y241670D01*
D02*
G37*
G36*
X710980Y250930D02*
X674980D01*
Y216430D01*
X688392D01*
Y203764D01*
X676316Y191688D01*
X675321Y190200D01*
X674972Y188444D01*
Y178220D01*
X674560D01*
Y167220D01*
X674972D01*
Y155972D01*
X673560D01*
X671804Y155623D01*
X670316Y154628D01*
X669321Y153140D01*
X668972Y151384D01*
X669321Y149628D01*
X670316Y148140D01*
X671804Y147145D01*
X673560Y146796D01*
X685560D01*
X687316Y147145D01*
X688804Y148140D01*
X689799Y149628D01*
X690148Y151384D01*
X689799Y153140D01*
X688804Y154628D01*
X687316Y155623D01*
X685560Y155972D01*
X684148D01*
Y167220D01*
X684560D01*
Y178220D01*
X684148D01*
Y186544D01*
X696224Y198620D01*
X697219Y200108D01*
X697568Y201864D01*
Y216430D01*
X703741D01*
X715459Y204713D01*
X716947Y203718D01*
X718703Y203369D01*
X734061D01*
Y195027D01*
X760061D01*
Y220887D01*
X734061D01*
Y212545D01*
X720604D01*
X710980Y222169D01*
Y250930D01*
D02*
G37*
G36*
X191605Y209373D02*
X189235D01*
X186946Y208760D01*
X184894Y207575D01*
X183218Y205899D01*
X182033Y203847D01*
X181420Y201558D01*
Y199188D01*
X182033Y196899D01*
X183218Y194847D01*
X184894Y193171D01*
X186946Y191987D01*
X189235Y191373D01*
X191605D01*
X193894Y191987D01*
X195946Y193171D01*
X197622Y194847D01*
X198806Y196899D01*
X199420Y199188D01*
Y201558D01*
X198806Y203847D01*
X197622Y205899D01*
X195946Y207575D01*
X193894Y208760D01*
X191605Y209373D01*
D02*
G37*
G36*
X149695D02*
X147325D01*
X145036Y208760D01*
X142984Y207575D01*
X141308Y205899D01*
X140123Y203847D01*
X139510Y201558D01*
Y199188D01*
X140123Y196899D01*
X141308Y194847D01*
X142984Y193171D01*
X145036Y191987D01*
X147325Y191373D01*
X149695D01*
X151984Y191987D01*
X154036Y193171D01*
X155712Y194847D01*
X156896Y196899D01*
X157510Y199188D01*
Y201558D01*
X156896Y203847D01*
X155712Y205899D01*
X154036Y207575D01*
X151984Y208760D01*
X149695Y209373D01*
D02*
G37*
G36*
X246948Y191255D02*
X243218D01*
Y189568D01*
X240678D01*
Y191255D01*
X236948D01*
Y187025D01*
X238636D01*
Y184485D01*
X236948D01*
Y180255D01*
X240678D01*
Y181943D01*
X243218D01*
Y180255D01*
X246948D01*
Y184485D01*
X245261D01*
Y187025D01*
X246948D01*
Y191255D01*
D02*
G37*
G36*
X520282Y175411D02*
X516890D01*
Y173723D01*
X514350D01*
Y175411D01*
X510958D01*
Y163453D01*
X512645D01*
Y160913D01*
X510958D01*
Y148956D01*
X514350D01*
Y150643D01*
X516890D01*
Y148956D01*
X520282D01*
Y160913D01*
X518595D01*
Y163453D01*
X520282D01*
Y175411D01*
D02*
G37*
G36*
X668560Y178220D02*
X658560D01*
Y176289D01*
X625403D01*
X624038Y176017D01*
X622880Y175243D01*
X620537Y172900D01*
X619763Y171742D01*
X619491Y170377D01*
Y155972D01*
X617060D01*
X615304Y155623D01*
X613816Y154628D01*
X612821Y153140D01*
X612472Y151384D01*
X612821Y149628D01*
X613816Y148140D01*
X615304Y147145D01*
X617060Y146796D01*
X629060D01*
X630816Y147145D01*
X632304Y148140D01*
X633299Y149628D01*
X633648Y151384D01*
X633299Y153140D01*
X632304Y154628D01*
X630816Y155623D01*
X629060Y155972D01*
X626629D01*
Y168899D01*
X626881Y169151D01*
X658560D01*
Y167220D01*
X668560D01*
Y178220D01*
D02*
G37*
G36*
X760372Y167362D02*
X733750D01*
Y165757D01*
X715240D01*
Y166169D01*
X704240D01*
Y165757D01*
X700734D01*
X698978Y165408D01*
X697489Y164414D01*
X693975Y160899D01*
X692980Y159410D01*
X692631Y157654D01*
Y144099D01*
X691804Y143272D01*
X673560D01*
X671804Y142923D01*
X670316Y141928D01*
X669321Y140440D01*
X668972Y138684D01*
X669321Y136928D01*
X670316Y135440D01*
X671804Y134445D01*
X673560Y134096D01*
X693704D01*
X695460Y134445D01*
X696948Y135440D01*
X700463Y138954D01*
X701458Y140443D01*
X701807Y142199D01*
Y155754D01*
X702634Y156581D01*
X704240D01*
Y156169D01*
X715240D01*
Y156581D01*
X733750D01*
Y145566D01*
X760372D01*
Y167362D01*
D02*
G37*
G36*
X428758Y166499D02*
X425028D01*
Y164811D01*
X422488D01*
Y166499D01*
X418758D01*
Y162269D01*
X420445D01*
Y159728D01*
X418758D01*
Y155499D01*
X422488D01*
Y157186D01*
X425028D01*
Y155499D01*
X428758D01*
Y159728D01*
X427070D01*
Y162269D01*
X428758D01*
Y166499D01*
D02*
G37*
G36*
X369730Y237137D02*
X348730D01*
Y230137D01*
Y223787D01*
Y217437D01*
Y215857D01*
X350418D01*
Y213317D01*
X348730D01*
Y211087D01*
Y204737D01*
Y198387D01*
Y192037D01*
Y185687D01*
X369730D01*
Y192712D01*
X373288D01*
X375636Y190365D01*
Y170791D01*
X370893Y166048D01*
X363488D01*
Y155048D01*
X373488D01*
Y160654D01*
X380457Y167624D01*
X380457Y167624D01*
X381069Y168540D01*
X381284Y169621D01*
Y191534D01*
X381284Y191534D01*
X381069Y192615D01*
X380457Y193531D01*
X380457Y193531D01*
X377282Y196707D01*
Y200399D01*
X377067Y201480D01*
X376455Y202396D01*
X376455Y202396D01*
X374967Y203884D01*
X374580Y204142D01*
X374965Y205413D01*
X402238D01*
X404933Y202717D01*
Y199358D01*
X402757D01*
Y188358D01*
X404933D01*
Y166499D01*
X402758D01*
Y155499D01*
X412758D01*
Y166499D01*
X410582D01*
Y188358D01*
X412757D01*
Y199358D01*
X410582D01*
Y203887D01*
X410367Y204968D01*
X409755Y205884D01*
X409755Y205884D01*
X405405Y210234D01*
X404488Y210846D01*
X403408Y211061D01*
X403408Y211061D01*
X369730D01*
Y213317D01*
X368043D01*
Y215857D01*
X369730D01*
Y217437D01*
Y223787D01*
Y230137D01*
Y237137D01*
D02*
G37*
G36*
X489431Y222345D02*
X462809D01*
Y200549D01*
X466101D01*
Y189836D01*
X462297Y186031D01*
X461523Y184874D01*
X461251Y183508D01*
Y166169D01*
X459320D01*
Y163993D01*
X449709D01*
X449709Y163993D01*
X448628Y163778D01*
X447712Y163166D01*
X447712Y163166D01*
X434930Y150384D01*
X398093D01*
X398092Y150384D01*
X397012Y150169D01*
X396095Y149557D01*
X394143Y147604D01*
X370612D01*
X370469Y147747D01*
X369183Y148280D01*
X367791D01*
X366504Y147747D01*
X365520Y146763D01*
X364987Y145476D01*
Y144084D01*
X365520Y142797D01*
X365662Y142654D01*
Y140841D01*
X363487D01*
Y134335D01*
X358590Y129439D01*
X357487Y130132D01*
X357487Y130991D01*
Y140841D01*
X347487D01*
Y138166D01*
X318218D01*
Y140841D01*
X308218D01*
Y129841D01*
X318218D01*
Y132517D01*
X347487D01*
Y129841D01*
X356254D01*
X357197Y129841D01*
X357889Y128738D01*
X353498Y124347D01*
X311527D01*
X311527Y124347D01*
X310446Y124132D01*
X309530Y123520D01*
X309530Y123520D01*
X303206Y117196D01*
X302594Y116280D01*
X302379Y115199D01*
X302379Y115199D01*
Y104784D01*
X300453D01*
X299185Y104531D01*
X298110Y103813D01*
X297392Y102738D01*
X297140Y101470D01*
X297392Y100202D01*
X298110Y99127D01*
X298324Y98984D01*
Y97456D01*
X298110Y97313D01*
X297392Y96238D01*
X297140Y94970D01*
X297392Y93702D01*
X298029Y92748D01*
X297890Y92181D01*
X297544Y91478D01*
X294506D01*
X273853Y112131D01*
X272937Y112744D01*
X271856Y112958D01*
X271856Y112958D01*
X262950D01*
Y115634D01*
X256444D01*
X244773Y127306D01*
Y128941D01*
X246948D01*
Y139941D01*
X236948D01*
Y128941D01*
X239124D01*
Y126136D01*
X239124Y126136D01*
X239339Y125055D01*
X239951Y124139D01*
X247132Y116958D01*
X247149Y116701D01*
X246257Y115634D01*
X245800Y115634D01*
X236950D01*
Y104634D01*
X239126D01*
Y100526D01*
X239126Y100526D01*
X239341Y99445D01*
X239953Y98529D01*
X252949Y85533D01*
Y78527D01*
X262949D01*
Y81203D01*
X283310D01*
X284540Y79973D01*
X284540Y79973D01*
X285456Y79361D01*
X286537Y79146D01*
X286537Y79146D01*
X297819D01*
X298204Y77876D01*
X298110Y77813D01*
X297392Y76738D01*
X297140Y75470D01*
X297391Y74204D01*
X298836Y75649D01*
X300632Y73853D01*
X298999Y72220D01*
X300632Y70587D01*
X298836Y68791D01*
X297391Y70236D01*
X297140Y68970D01*
X297392Y67702D01*
X298110Y66627D01*
X298204Y66564D01*
X297819Y65294D01*
X279610D01*
X279610Y65294D01*
X278529Y65079D01*
X277613Y64467D01*
X277613Y64467D01*
X275690Y62544D01*
X262948D01*
Y65220D01*
X252948D01*
Y54220D01*
X255124D01*
Y51084D01*
X209196D01*
X198470Y61810D01*
X198806Y62392D01*
X199420Y64681D01*
Y67051D01*
X198806Y69340D01*
X197622Y71392D01*
X195946Y73068D01*
X193894Y74253D01*
X191605Y74866D01*
X189235D01*
X186946Y74253D01*
X184894Y73068D01*
X183218Y71392D01*
X182033Y69340D01*
X181420Y67051D01*
Y64681D01*
X182033Y62392D01*
X183218Y60340D01*
X184894Y58664D01*
X186946Y57480D01*
X189235Y56866D01*
X191605D01*
X193894Y57480D01*
X194476Y57816D01*
X206029Y46263D01*
X206029Y46263D01*
X206945Y45651D01*
X208026Y45436D01*
X208026Y45436D01*
X255823D01*
X255966Y45293D01*
X257252Y44760D01*
X258645D01*
X259931Y45293D01*
X260916Y46277D01*
X261448Y47564D01*
Y48956D01*
X260916Y50243D01*
X260773Y50385D01*
Y54220D01*
X262948D01*
Y56896D01*
X276860D01*
X276860Y56896D01*
X277941Y57111D01*
X278857Y57723D01*
X280780Y59646D01*
X297819D01*
X298204Y58376D01*
X298110Y58313D01*
X297392Y57238D01*
X297140Y55970D01*
X297392Y54702D01*
X298110Y53627D01*
X299185Y52909D01*
X300453Y52656D01*
X309953D01*
X311221Y52909D01*
X312296Y53627D01*
X313015Y54702D01*
X313267Y55970D01*
X313015Y57238D01*
X312296Y58313D01*
X312082Y58456D01*
Y59984D01*
X312296Y60127D01*
X313015Y61202D01*
X313267Y62470D01*
X313015Y63738D01*
X312296Y64813D01*
X312082Y64956D01*
Y65045D01*
X309774Y67353D01*
X311570Y69149D01*
X313015Y67704D01*
X313267Y68970D01*
X313015Y70238D01*
X312296Y71313D01*
X312082Y71456D01*
Y71545D01*
X309774Y73853D01*
X311570Y75649D01*
X313015Y74204D01*
X313267Y75470D01*
X313015Y76738D01*
X312296Y77813D01*
X312082Y77956D01*
Y79484D01*
X312296Y79627D01*
X313015Y80702D01*
X313267Y81970D01*
X313015Y83238D01*
X312296Y84313D01*
X312082Y84456D01*
Y85984D01*
X312296Y86127D01*
X313015Y87202D01*
X313267Y88470D01*
X313015Y89738D01*
X312296Y90813D01*
X312082Y90956D01*
Y92484D01*
X312296Y92627D01*
X313015Y93702D01*
X313267Y94970D01*
X313015Y96238D01*
X312296Y97313D01*
X312082Y97456D01*
Y98984D01*
X312296Y99127D01*
X313015Y100202D01*
X313267Y101470D01*
X313015Y102738D01*
X312296Y103813D01*
X311221Y104531D01*
X309953Y104784D01*
X308027D01*
Y114029D01*
X312697Y118698D01*
X354668D01*
X354668Y118698D01*
X355749Y118913D01*
X356665Y119525D01*
X364489Y127350D01*
X365662Y126864D01*
Y122692D01*
X360206Y117236D01*
X359594Y116320D01*
X359379Y115239D01*
X359379Y115239D01*
Y104784D01*
X357453D01*
X356185Y104531D01*
X355110Y103813D01*
X354392Y102738D01*
X354140Y101470D01*
X354392Y100202D01*
X355110Y99127D01*
X355324Y98984D01*
Y97456D01*
X355110Y97313D01*
X354392Y96238D01*
X354140Y94970D01*
X354392Y93702D01*
X355110Y92627D01*
X355324Y92484D01*
Y92395D01*
X357632Y90087D01*
X355836Y88291D01*
X354391Y89736D01*
X354140Y88470D01*
X354392Y87202D01*
X355110Y86127D01*
X355204Y86064D01*
X354819Y84794D01*
X348643D01*
X348500Y84937D01*
X347214Y85470D01*
X345821D01*
X344535Y84937D01*
X343550Y83953D01*
X343018Y82666D01*
Y81274D01*
X343550Y79987D01*
X344535Y79003D01*
X345821Y78470D01*
X347214D01*
X348500Y79003D01*
X348643Y79146D01*
X354819D01*
X355204Y77876D01*
X355110Y77813D01*
X354392Y76738D01*
X354140Y75470D01*
X354392Y74202D01*
X355110Y73127D01*
X355324Y72984D01*
Y71456D01*
X355110Y71313D01*
X354392Y70238D01*
X354140Y68970D01*
X354392Y67702D01*
X355110Y66627D01*
X355324Y66484D01*
Y64956D01*
X355110Y64813D01*
X354392Y63738D01*
X354140Y62470D01*
X354392Y61202D01*
X355110Y60127D01*
X355324Y59984D01*
Y58456D01*
X355110Y58313D01*
X354392Y57238D01*
X354140Y55970D01*
X354392Y54702D01*
X355110Y53627D01*
X356185Y52909D01*
X357453Y52656D01*
X366953D01*
X368221Y52909D01*
X368576Y53146D01*
X381805D01*
X381947Y53003D01*
X383234Y52470D01*
X384626D01*
X385913Y53003D01*
X386055Y53146D01*
X392462D01*
X392463Y53146D01*
X393543Y53361D01*
X394460Y53973D01*
X396482Y55996D01*
X402757D01*
Y53320D01*
X412757D01*
Y64320D01*
X412207D01*
X411681Y65590D01*
X416251Y70160D01*
X416453D01*
X417739Y70693D01*
X418724Y71677D01*
X419257Y72964D01*
Y74356D01*
X418724Y75643D01*
X417739Y76627D01*
X416453Y77160D01*
X415061D01*
X413774Y76627D01*
X412790Y75643D01*
X412257Y74356D01*
Y74154D01*
X405760Y67657D01*
X405148Y66741D01*
X404933Y65660D01*
X404933Y65660D01*
Y64320D01*
X402757D01*
Y61644D01*
X395313D01*
X394941Y61570D01*
X394315Y62741D01*
X409754Y78180D01*
X409754Y78180D01*
X410366Y79096D01*
X410581Y80177D01*
Y87080D01*
X412757D01*
Y88834D01*
X413156Y89139D01*
X414027Y89508D01*
X415061Y89080D01*
X416453D01*
X417487Y89508D01*
X418357Y89139D01*
X418757Y88834D01*
Y87080D01*
X420933D01*
Y64320D01*
X418757D01*
Y53320D01*
X428757D01*
Y64320D01*
X426581D01*
Y87080D01*
X428757D01*
Y98080D01*
X426581D01*
Y120839D01*
X428757D01*
Y123515D01*
X443040D01*
X443040Y123515D01*
X444121Y123730D01*
X445037Y124342D01*
X447213Y126518D01*
X448386Y126032D01*
Y86166D01*
X448386Y86166D01*
X448601Y85085D01*
X449214Y84169D01*
X456640Y76743D01*
X457556Y76131D01*
X458637Y75916D01*
X458637Y75916D01*
X544539D01*
X544539Y75916D01*
X545620Y76131D01*
X546536Y76743D01*
X553329Y83536D01*
X681166D01*
X684256Y80446D01*
Y76671D01*
X681580D01*
Y75995D01*
X664410D01*
Y77671D01*
X651410D01*
Y75995D01*
X638910D01*
Y77671D01*
X625910D01*
Y68671D01*
X638910D01*
Y70346D01*
X650512D01*
X651410Y69448D01*
Y68671D01*
X651410Y67401D01*
Y64941D01*
X653098D01*
Y62401D01*
X651410D01*
Y59941D01*
X651410Y59171D01*
X651410Y57901D01*
Y49671D01*
X664410D01*
Y57901D01*
X664410Y58671D01*
X664410Y59941D01*
Y62401D01*
X662722D01*
Y64941D01*
X664410D01*
Y67401D01*
X664410Y68171D01*
X664410Y69448D01*
X665308Y70346D01*
X681580D01*
Y66671D01*
X692580D01*
Y76671D01*
X689904D01*
Y81616D01*
X689904Y81616D01*
X689689Y82697D01*
X689077Y83613D01*
X684333Y88357D01*
X683416Y88969D01*
X682336Y89184D01*
X682336Y89184D01*
X552159D01*
X551078Y88969D01*
X550162Y88357D01*
X543369Y81564D01*
X459807D01*
X454035Y87336D01*
Y134510D01*
Y146890D01*
X463314Y156169D01*
X470320D01*
Y166169D01*
X468389D01*
Y182030D01*
X472193Y185835D01*
X472967Y186992D01*
X473239Y188358D01*
Y200549D01*
X478955D01*
Y188954D01*
X479227Y187589D01*
X480000Y186431D01*
X486651Y179780D01*
Y175411D01*
X485558D01*
Y148956D01*
X494882D01*
Y158615D01*
X498258D01*
Y148956D01*
X507582D01*
Y175411D01*
X498258D01*
Y165752D01*
X494882D01*
Y175411D01*
X493789D01*
Y181258D01*
X493517Y182624D01*
X492743Y183781D01*
X486092Y190432D01*
Y200549D01*
X489431D01*
Y222345D01*
D02*
G37*
G36*
X664310Y147834D02*
X652580D01*
Y146146D01*
X650040D01*
Y147834D01*
X638310D01*
Y133604D01*
X639998D01*
Y131064D01*
X638310D01*
Y116834D01*
X650040D01*
Y118522D01*
X652580D01*
Y116834D01*
X664310D01*
Y131064D01*
X662622D01*
Y133604D01*
X664310D01*
Y147834D01*
D02*
G37*
G36*
X302218Y140841D02*
X298488D01*
Y139154D01*
X295948D01*
Y140841D01*
X292218D01*
Y136611D01*
X293905D01*
Y134071D01*
X292218D01*
Y129841D01*
X295948D01*
Y131529D01*
X298488D01*
Y129841D01*
X302218D01*
Y134071D01*
X300530D01*
Y136611D01*
X302218D01*
Y140841D01*
D02*
G37*
G36*
X629060Y143272D02*
X617060D01*
X615304Y142923D01*
X613816Y141928D01*
X612821Y140440D01*
X612472Y138684D01*
X612821Y136928D01*
X613816Y135440D01*
X615304Y134445D01*
X617060Y134096D01*
X629060D01*
X630816Y134445D01*
X632304Y135440D01*
X633299Y136928D01*
X633648Y138684D01*
X633299Y140440D01*
X632304Y141928D01*
X630816Y142923D01*
X629060Y143272D01*
D02*
G37*
G36*
X685560Y130572D02*
X680830D01*
Y128796D01*
X678290D01*
Y130572D01*
X673560D01*
X671804Y130223D01*
X671392Y129948D01*
X672669Y128672D01*
X670872Y126875D01*
X669596Y128152D01*
X669321Y127740D01*
X668972Y125984D01*
X669321Y124228D01*
X669596Y123816D01*
X670872Y125092D01*
X672669Y123296D01*
X671392Y122020D01*
X671804Y121745D01*
X673560Y121396D01*
X678290D01*
Y123172D01*
X680830D01*
Y121396D01*
X685560D01*
X687316Y121745D01*
X687728Y122020D01*
X686452Y123296D01*
X688248Y125092D01*
X689524Y123816D01*
X689799Y124228D01*
X690148Y125984D01*
X689799Y127740D01*
X689524Y128152D01*
X688248Y126875D01*
X686452Y128672D01*
X687728Y129948D01*
X687316Y130223D01*
X685560Y130572D01*
D02*
G37*
G36*
X191605Y142120D02*
X189235D01*
X186946Y141506D01*
X184894Y140321D01*
X183218Y138646D01*
X182033Y136594D01*
X181420Y134305D01*
Y131935D01*
X182033Y129646D01*
X183218Y127593D01*
X184894Y125918D01*
X186946Y124733D01*
X189235Y124120D01*
X191605D01*
X193894Y124733D01*
X195946Y125918D01*
X197622Y127593D01*
X198806Y129646D01*
X199420Y131935D01*
Y134305D01*
X198806Y136594D01*
X197622Y138646D01*
X195946Y140321D01*
X193894Y141506D01*
X191605Y142120D01*
D02*
G37*
G36*
X149695D02*
X147325D01*
X145036Y141506D01*
X142984Y140321D01*
X141308Y138646D01*
X140123Y136594D01*
X139510Y134305D01*
Y131935D01*
X140123Y129646D01*
X141308Y127593D01*
X142984Y125918D01*
X145036Y124733D01*
X147325Y124120D01*
X149695D01*
X151984Y124733D01*
X154036Y125918D01*
X155712Y127593D01*
X156896Y129646D01*
X157510Y131935D01*
Y134305D01*
X156896Y136594D01*
X155712Y138646D01*
X154036Y140321D01*
X151984Y141506D01*
X149695Y142120D01*
D02*
G37*
G36*
X107785D02*
X105415D01*
X103126Y141506D01*
X101074Y140321D01*
X99398Y138646D01*
X98213Y136594D01*
X97600Y134305D01*
Y131935D01*
X98213Y129646D01*
X99398Y127593D01*
X101074Y125918D01*
X103126Y124733D01*
X105415Y124120D01*
X107785D01*
X110074Y124733D01*
X112126Y125918D01*
X113802Y127593D01*
X114986Y129646D01*
X115600Y131935D01*
Y134305D01*
X114986Y136594D01*
X113802Y138646D01*
X112126Y140321D01*
X110074Y141506D01*
X107785Y142120D01*
D02*
G37*
G36*
X629060Y130572D02*
X617060D01*
X615304Y130223D01*
X613816Y129228D01*
X612821Y127740D01*
X612472Y125984D01*
X612821Y124228D01*
X613816Y122740D01*
X615304Y121745D01*
X617060Y121396D01*
X629060D01*
X630816Y121745D01*
X632304Y122740D01*
X633299Y124228D01*
X633648Y125984D01*
X633299Y127740D01*
X632304Y129228D01*
X630816Y130223D01*
X629060Y130572D01*
D02*
G37*
G36*
X760372Y122658D02*
X748331D01*
Y120970D01*
X745791D01*
Y122658D01*
X733750D01*
Y113030D01*
X735438D01*
Y110490D01*
X733750D01*
Y100862D01*
X745791D01*
Y102550D01*
X748331D01*
Y100862D01*
X760372D01*
Y110490D01*
X758684D01*
Y113030D01*
X760372D01*
Y122658D01*
D02*
G37*
G36*
X586170Y150170D02*
X575170D01*
Y140170D01*
X577101D01*
Y128054D01*
X575170D01*
Y118054D01*
X586170D01*
Y128054D01*
X584238D01*
Y140170D01*
X586170D01*
Y150170D01*
D02*
G37*
G36*
X567969Y150169D02*
X556969D01*
Y140169D01*
X558901D01*
Y128054D01*
X556969D01*
Y118054D01*
X567969D01*
Y128054D01*
X566038D01*
Y140169D01*
X567969D01*
Y150169D01*
D02*
G37*
G36*
X470320D02*
X459320D01*
Y140169D01*
X461251D01*
Y128054D01*
X459320D01*
Y118054D01*
X470320D01*
Y128054D01*
X468389D01*
Y140169D01*
X470320D01*
Y150169D01*
D02*
G37*
G36*
X715240D02*
X704240D01*
Y140169D01*
X706916D01*
Y128053D01*
X704240D01*
Y118053D01*
X715240D01*
Y128053D01*
X712564D01*
Y140169D01*
X715240D01*
Y150169D01*
D02*
G37*
G36*
X532982Y115204D02*
X516890D01*
Y113517D01*
X514350D01*
Y115204D01*
X498258D01*
Y103247D01*
X499945D01*
Y100707D01*
X498258D01*
Y88749D01*
X514350D01*
Y90437D01*
X516890D01*
Y88749D01*
X532982D01*
Y100707D01*
X531295D01*
Y103247D01*
X532982D01*
Y115204D01*
D02*
G37*
G36*
X586170Y112054D02*
X581940D01*
Y110366D01*
X579400D01*
Y112054D01*
X575170D01*
Y108324D01*
X576857D01*
Y105784D01*
X575170D01*
Y102054D01*
X579400D01*
Y103742D01*
X581940D01*
Y102054D01*
X586170D01*
Y105784D01*
X584482D01*
Y108324D01*
X586170D01*
Y112054D01*
D02*
G37*
G36*
X567969D02*
X563739D01*
Y110366D01*
X561199D01*
Y112054D01*
X556969D01*
Y108324D01*
X558657D01*
Y105784D01*
X556969D01*
Y102054D01*
X561199D01*
Y103742D01*
X563739D01*
Y102054D01*
X567969D01*
Y105784D01*
X566282D01*
Y108324D01*
X567969D01*
Y112054D01*
D02*
G37*
G36*
X470320D02*
X466090D01*
Y110366D01*
X463550D01*
Y112054D01*
X459320D01*
Y108324D01*
X461008D01*
Y105784D01*
X459320D01*
Y102054D01*
X463550D01*
Y103742D01*
X466090D01*
Y102054D01*
X470320D01*
Y105784D01*
X468632D01*
Y108324D01*
X470320D01*
Y112054D01*
D02*
G37*
G36*
X715240Y112053D02*
X711010D01*
Y110366D01*
X708470D01*
Y112053D01*
X704240D01*
Y108323D01*
X705928D01*
Y105783D01*
X704240D01*
Y102053D01*
X708470D01*
Y103741D01*
X711010D01*
Y102053D01*
X715240D01*
Y105783D01*
X713552D01*
Y108323D01*
X715240D01*
Y112053D01*
D02*
G37*
G36*
X685560Y117872D02*
X673560D01*
X671804Y117523D01*
X670316Y116528D01*
X669321Y115040D01*
X668972Y113284D01*
X669321Y111528D01*
X670316Y110040D01*
X671804Y109045D01*
X673560Y108696D01*
X685560D01*
X687316Y109045D01*
X688804Y110040D01*
X689799Y111528D01*
X690148Y113284D01*
X689799Y115040D01*
X688804Y116528D01*
X687316Y117523D01*
X685560Y117872D01*
D02*
G37*
G36*
X603470Y150170D02*
X592470D01*
Y140170D01*
X595146D01*
Y128054D01*
X592470D01*
Y118054D01*
X598976D01*
X603873Y113157D01*
X603180Y112054D01*
X602320Y112054D01*
X599240D01*
Y110366D01*
X596700D01*
Y112054D01*
X592470D01*
Y108324D01*
X594158D01*
Y105784D01*
X592470D01*
Y102054D01*
X596700D01*
Y103742D01*
X599240D01*
Y102054D01*
X603470D01*
Y105784D01*
X601782D01*
Y108324D01*
X603470D01*
Y110821D01*
X603470Y111764D01*
X604573Y112457D01*
X605743Y111287D01*
X605743Y111287D01*
X606659Y110675D01*
X607740Y110460D01*
X607740Y110460D01*
X613535D01*
X613816Y110040D01*
X615304Y109045D01*
X617060Y108696D01*
X629060D01*
X630816Y109045D01*
X632304Y110040D01*
X633299Y111528D01*
X633648Y113284D01*
X633299Y115040D01*
X632304Y116528D01*
X630816Y117523D01*
X629060Y117872D01*
X617060D01*
X615304Y117523D01*
X613816Y116528D01*
X613535Y116108D01*
X608910D01*
X603470Y121548D01*
Y128054D01*
X600794D01*
Y140170D01*
X603470D01*
Y150170D01*
D02*
G37*
G36*
X433810Y113450D02*
X432417D01*
X431131Y112917D01*
X430146Y111933D01*
X429613Y110646D01*
Y109254D01*
X430146Y107967D01*
X431131Y106983D01*
X432417Y106450D01*
X433810D01*
X435096Y106983D01*
X436080Y107967D01*
X436613Y109254D01*
Y110646D01*
X436080Y111933D01*
X435096Y112917D01*
X433810Y113450D01*
D02*
G37*
G36*
X246949Y89527D02*
X243219D01*
Y87840D01*
X240679D01*
Y89527D01*
X236949D01*
Y85297D01*
X238637D01*
Y82757D01*
X236949D01*
Y78527D01*
X240679D01*
Y80215D01*
X243219D01*
Y78527D01*
X246949D01*
Y82757D01*
X245262D01*
Y85297D01*
X246949D01*
Y89527D01*
D02*
G37*
G36*
X715240Y76671D02*
X711010D01*
Y74983D01*
X708470D01*
Y76671D01*
X704240D01*
Y72941D01*
X705928D01*
Y70401D01*
X704240D01*
Y66671D01*
X708470D01*
Y68358D01*
X711010D01*
Y66671D01*
X715240D01*
Y70401D01*
X713552D01*
Y72941D01*
X715240D01*
Y76671D01*
D02*
G37*
G36*
X607470D02*
X596470D01*
Y74495D01*
X586170D01*
Y76671D01*
X575170D01*
Y74495D01*
X558470D01*
X558469Y74495D01*
X557389Y74280D01*
X556472Y73668D01*
X556472Y73668D01*
X548449Y65644D01*
X519244D01*
X518481Y66965D01*
X517225Y68221D01*
X515685Y69110D01*
X513969Y69570D01*
X512191D01*
X510475Y69110D01*
X508935Y68221D01*
X507679Y66965D01*
X507463Y66592D01*
X505997D01*
X505781Y66965D01*
X504525Y68221D01*
X502985Y69110D01*
X501269Y69570D01*
X499491D01*
X497775Y69110D01*
X496235Y68221D01*
X495700Y67686D01*
X494430Y68212D01*
Y69570D01*
X488950D01*
Y67882D01*
X486410D01*
Y69570D01*
X480930D01*
Y64090D01*
X482618D01*
Y61550D01*
X480930D01*
Y56070D01*
X486410D01*
Y57758D01*
X488950D01*
Y56070D01*
X494430D01*
Y57428D01*
X495700Y57954D01*
X496235Y57419D01*
X497775Y56530D01*
X499491Y56070D01*
X501269D01*
X502985Y56530D01*
X504525Y57419D01*
X505781Y58675D01*
X505997Y59049D01*
X507463D01*
X507679Y58675D01*
X508935Y57419D01*
X510475Y56530D01*
X512191Y56070D01*
X513969D01*
X515685Y56530D01*
X517225Y57419D01*
X518481Y58675D01*
X519244Y59996D01*
X549619D01*
X549619Y59996D01*
X550700Y60211D01*
X551616Y60823D01*
X559639Y68847D01*
X575170D01*
Y66671D01*
X586170D01*
Y68847D01*
X596470D01*
Y66671D01*
X607470D01*
Y76671D01*
D02*
G37*
G36*
X246948Y65220D02*
X243218D01*
Y63533D01*
X240678D01*
Y65220D01*
X236948D01*
Y60990D01*
X238636D01*
Y58450D01*
X236948D01*
Y54220D01*
X240678D01*
Y55908D01*
X243218D01*
Y54220D01*
X246948D01*
Y58450D01*
X245261D01*
Y60990D01*
X246948D01*
Y65220D01*
D02*
G37*
G36*
X586170Y60671D02*
X581940D01*
Y58983D01*
X579400D01*
Y60671D01*
X575170D01*
Y56941D01*
X576857D01*
Y54401D01*
X575170D01*
Y50671D01*
X579400D01*
Y52358D01*
X581940D01*
Y50671D01*
X586170D01*
Y54401D01*
X584482D01*
Y56941D01*
X586170D01*
Y60671D01*
D02*
G37*
G36*
X715240D02*
X704240D01*
Y58495D01*
X692580D01*
Y60671D01*
X681580D01*
Y50671D01*
X692580D01*
Y52846D01*
X704240D01*
Y50671D01*
X715240D01*
Y60671D01*
D02*
G37*
G36*
X633106Y64171D02*
X631714D01*
X630427Y63638D01*
X629443Y62653D01*
X628910Y61367D01*
Y59975D01*
X628924Y59941D01*
X628075Y58671D01*
X625910D01*
Y56995D01*
X618828D01*
X618155Y57668D01*
X617239Y58280D01*
X616158Y58495D01*
X616158Y58495D01*
X607470D01*
Y60671D01*
X596470D01*
Y50671D01*
X607470D01*
Y52846D01*
X614989D01*
X615661Y52174D01*
X615661Y52174D01*
X616578Y51561D01*
X617658Y51347D01*
X617659Y51347D01*
X625910D01*
Y49671D01*
X638910D01*
Y58671D01*
X636745D01*
X635896Y59941D01*
X635910Y59975D01*
Y61367D01*
X635377Y62653D01*
X634393Y63638D01*
X633106Y64171D01*
D02*
G37*
G36*
X149695Y74866D02*
X147325D01*
X145036Y74253D01*
X142984Y73068D01*
X141308Y71392D01*
X140123Y69340D01*
X139510Y67051D01*
Y64681D01*
X140123Y62392D01*
X141308Y60340D01*
X142984Y58664D01*
X145036Y57480D01*
X147325Y56866D01*
X149695D01*
X151984Y57480D01*
X154036Y58664D01*
X155712Y60340D01*
X156896Y62392D01*
X157510Y64681D01*
Y67051D01*
X156896Y69340D01*
X155712Y71392D01*
X154036Y73068D01*
X151984Y74253D01*
X149695Y74866D01*
D02*
G37*
G36*
X107785D02*
X105415D01*
X103126Y74253D01*
X101074Y73068D01*
X99398Y71392D01*
X98213Y69340D01*
X97600Y67051D01*
Y64681D01*
X98213Y62392D01*
X99398Y60340D01*
X101074Y58664D01*
X103126Y57480D01*
X105415Y56866D01*
X107785D01*
X110074Y57480D01*
X112126Y58664D01*
X113802Y60340D01*
X114986Y62392D01*
X115600Y64681D01*
Y67051D01*
X114986Y69340D01*
X113802Y71392D01*
X112126Y73068D01*
X110074Y74253D01*
X107785Y74866D01*
D02*
G37*
G36*
X823842Y62620D02*
X821845Y62620D01*
X822542Y60937D01*
X820195Y59965D01*
X819498Y61648D01*
X818085Y60235D01*
X817248Y58214D01*
X817248Y56216D01*
X818931Y56913D01*
X819903Y54567D01*
X818220Y53870D01*
X819633Y52457D01*
X821654Y51620D01*
X823652Y51620D01*
X822955Y53302D01*
X825301Y54274D01*
X825998Y52592D01*
X827411Y54004D01*
X828248Y56026D01*
X828248Y58023D01*
X826566Y57326D01*
X825594Y59673D01*
X827276Y60370D01*
X825864Y61783D01*
X823842Y62620D01*
D02*
G37*
G36*
X804158Y62620D02*
X802136Y61783D01*
X800724Y60370D01*
X802406Y59673D01*
X801434Y57326D01*
X799752Y58023D01*
X799752Y56026D01*
X800589Y54004D01*
X802002Y52592D01*
X802699Y54274D01*
X805045Y53302D01*
X804348Y51620D01*
X806346Y51620D01*
X808367Y52457D01*
X809780Y53870D01*
X808097Y54567D01*
X809069Y56913D01*
X810752Y56216D01*
X810752Y58214D01*
X809914Y60235D01*
X808502Y61648D01*
X807805Y59965D01*
X805459Y60937D01*
X806155Y62620D01*
X804158Y62620D01*
D02*
G37*
G36*
X793974Y50248D02*
X791977Y50248D01*
X792673Y48566D01*
X790327Y47594D01*
X789630Y49276D01*
X788217Y47864D01*
X787380Y45842D01*
X787380Y43845D01*
X789063Y44542D01*
X790035Y42195D01*
X788352Y41498D01*
X789765Y40086D01*
X791786Y39248D01*
X793784Y39248D01*
X793087Y40931D01*
X795433Y41903D01*
X796130Y40220D01*
X797543Y41633D01*
X798380Y43654D01*
X798380Y45652D01*
X796698Y44955D01*
X795726Y47301D01*
X797408Y47998D01*
X795996Y49411D01*
X793974Y50248D01*
D02*
G37*
G36*
X834026D02*
X832004Y49411D01*
X830592Y47998D01*
X832274Y47301D01*
X831302Y44955D01*
X829620Y45652D01*
X829620Y43654D01*
X830457Y41633D01*
X831870Y40220D01*
X832567Y41903D01*
X834913Y40931D01*
X834216Y39248D01*
X836214Y39248D01*
X838235Y40086D01*
X839648Y41498D01*
X837965Y42195D01*
X838937Y44542D01*
X840620Y43845D01*
X840620Y45842D01*
X839783Y47864D01*
X838370Y49276D01*
X837673Y47594D01*
X835327Y48566D01*
X836023Y50248D01*
X834026Y50248D01*
D02*
G37*
G36*
X836214Y32752D02*
X834216Y32752D01*
X834913Y31069D01*
X832567Y30097D01*
X831870Y31780D01*
X830457Y30367D01*
X829620Y28346D01*
X829620Y26348D01*
X831302Y27045D01*
X832274Y24699D01*
X830592Y24002D01*
X832004Y22589D01*
X834026Y21752D01*
X836023Y21752D01*
X835327Y23434D01*
X837673Y24406D01*
X838370Y22724D01*
X839782Y24136D01*
X840620Y26158D01*
X840620Y28155D01*
X838937Y27459D01*
X837965Y29805D01*
X839648Y30502D01*
X838235Y31915D01*
X836214Y32752D01*
D02*
G37*
G36*
X791786D02*
X789765Y31915D01*
X788352Y30502D01*
X790035Y29805D01*
X789063Y27459D01*
X787380Y28155D01*
X787380Y26158D01*
X788217Y24136D01*
X789630Y22724D01*
X790327Y24406D01*
X792673Y23434D01*
X791977Y21752D01*
X793974Y21752D01*
X795996Y22589D01*
X797408Y24002D01*
X795726Y24699D01*
X796698Y27045D01*
X798380Y26348D01*
X798380Y28346D01*
X797543Y30367D01*
X796130Y31780D01*
X795433Y30097D01*
X793087Y31069D01*
X793784Y32752D01*
X791786Y32752D01*
D02*
G37*
G36*
X806346Y20380D02*
X804348Y20380D01*
X805045Y18698D01*
X802699Y17726D01*
X802002Y19408D01*
X800589Y17996D01*
X799752Y15974D01*
X799752Y13977D01*
X801434Y14674D01*
X802406Y12327D01*
X800724Y11630D01*
X802136Y10217D01*
X804158Y9380D01*
X806155Y9380D01*
X805459Y11063D01*
X807805Y12035D01*
X808502Y10352D01*
X809914Y11765D01*
X810752Y13786D01*
X810752Y15784D01*
X809069Y15087D01*
X808097Y17433D01*
X809780Y18130D01*
X808367Y19543D01*
X806346Y20380D01*
D02*
G37*
G36*
X821654Y20380D02*
X819633Y19543D01*
X818220Y18130D01*
X819903Y17433D01*
X818931Y15087D01*
X817248Y15784D01*
X817248Y13786D01*
X818085Y11765D01*
X819498Y10352D01*
X820195Y12035D01*
X822542Y11063D01*
X821845Y9380D01*
X823842Y9380D01*
X825864Y10217D01*
X827276Y11630D01*
X825594Y12327D01*
X826566Y14674D01*
X828248Y13977D01*
X828248Y15974D01*
X827411Y17996D01*
X825998Y19408D01*
X825301Y17726D01*
X822955Y18698D01*
X823652Y20380D01*
X821654Y20380D01*
D02*
G37*
G36*
X45842Y62620D02*
X43845Y62620D01*
X44542Y60937D01*
X42195Y59965D01*
X41498Y61648D01*
X40086Y60235D01*
X39248Y58214D01*
X39248Y56216D01*
X40931Y56913D01*
X41903Y54567D01*
X40220Y53870D01*
X41633Y52457D01*
X43654Y51620D01*
X45652Y51620D01*
X44955Y53302D01*
X47301Y54274D01*
X47998Y52592D01*
X49411Y54004D01*
X50248Y56026D01*
X50248Y58023D01*
X48566Y57326D01*
X47594Y59673D01*
X49276Y60370D01*
X47864Y61783D01*
X45842Y62620D01*
D02*
G37*
G36*
X26158Y62620D02*
X24136Y61783D01*
X22724Y60370D01*
X24406Y59673D01*
X23434Y57326D01*
X21752Y58023D01*
X21752Y56026D01*
X22589Y54004D01*
X24002Y52592D01*
X24699Y54274D01*
X27045Y53302D01*
X26348Y51620D01*
X28346Y51620D01*
X30367Y52457D01*
X31780Y53870D01*
X30097Y54567D01*
X31069Y56913D01*
X32752Y56216D01*
X32752Y58214D01*
X31915Y60235D01*
X30502Y61648D01*
X29805Y59965D01*
X27459Y60937D01*
X28155Y62620D01*
X26158Y62620D01*
D02*
G37*
G36*
X15974Y50248D02*
X13977Y50248D01*
X14674Y48566D01*
X12327Y47594D01*
X11630Y49276D01*
X10217Y47864D01*
X9380Y45842D01*
X9380Y43845D01*
X11063Y44542D01*
X12035Y42195D01*
X10352Y41498D01*
X11765Y40086D01*
X13786Y39248D01*
X15784Y39248D01*
X15087Y40931D01*
X17433Y41903D01*
X18130Y40220D01*
X19543Y41633D01*
X20380Y43654D01*
X20380Y45652D01*
X18698Y44955D01*
X17726Y47301D01*
X19408Y47998D01*
X17996Y49411D01*
X15974Y50248D01*
D02*
G37*
G36*
X56026D02*
X54004Y49411D01*
X52592Y47998D01*
X54274Y47301D01*
X53302Y44955D01*
X51620Y45652D01*
X51620Y43654D01*
X52457Y41633D01*
X53870Y40220D01*
X54567Y41903D01*
X56913Y40931D01*
X56216Y39248D01*
X58214Y39248D01*
X60235Y40086D01*
X61648Y41498D01*
X59965Y42195D01*
X60937Y44542D01*
X62620Y43845D01*
X62620Y45842D01*
X61783Y47864D01*
X60370Y49276D01*
X59673Y47594D01*
X57326Y48566D01*
X58023Y50248D01*
X56026Y50248D01*
D02*
G37*
G36*
X58214Y32752D02*
X56216Y32752D01*
X56913Y31069D01*
X54567Y30097D01*
X53870Y31780D01*
X52457Y30367D01*
X51620Y28346D01*
X51620Y26348D01*
X53302Y27045D01*
X54274Y24699D01*
X52592Y24002D01*
X54004Y22589D01*
X56026Y21752D01*
X58023Y21752D01*
X57326Y23434D01*
X59673Y24406D01*
X60370Y22724D01*
X61783Y24136D01*
X62620Y26158D01*
X62620Y28155D01*
X60937Y27459D01*
X59965Y29805D01*
X61648Y30502D01*
X60235Y31915D01*
X58214Y32752D01*
D02*
G37*
G36*
X13786D02*
X11765Y31915D01*
X10352Y30502D01*
X12035Y29805D01*
X11063Y27459D01*
X9380Y28155D01*
X9380Y26158D01*
X10217Y24136D01*
X11630Y22724D01*
X12327Y24406D01*
X14674Y23434D01*
X13977Y21752D01*
X15974Y21752D01*
X17996Y22589D01*
X19408Y24002D01*
X17726Y24699D01*
X18698Y27045D01*
X20380Y26348D01*
X20380Y28346D01*
X19543Y30367D01*
X18130Y31780D01*
X17433Y30097D01*
X15087Y31069D01*
X15784Y32752D01*
X13786Y32752D01*
D02*
G37*
G36*
X28346Y20380D02*
X26348Y20380D01*
X27045Y18698D01*
X24699Y17726D01*
X24002Y19408D01*
X22589Y17996D01*
X21752Y15974D01*
X21752Y13977D01*
X23434Y14674D01*
X24406Y12327D01*
X22724Y11630D01*
X24136Y10217D01*
X26158Y9380D01*
X28155Y9380D01*
X27459Y11063D01*
X29805Y12035D01*
X30502Y10352D01*
X31915Y11765D01*
X32752Y13786D01*
X32752Y15784D01*
X31069Y15087D01*
X30097Y17433D01*
X31780Y18130D01*
X30367Y19543D01*
X28346Y20380D01*
D02*
G37*
G36*
X43654Y20380D02*
X41633Y19543D01*
X40220Y18130D01*
X41903Y17433D01*
X40931Y15087D01*
X39248Y15784D01*
X39248Y13786D01*
X40086Y11765D01*
X41498Y10352D01*
X42195Y12035D01*
X44542Y11063D01*
X43845Y9380D01*
X45842Y9380D01*
X47864Y10217D01*
X49276Y11630D01*
X47594Y12327D01*
X48566Y14674D01*
X50248Y13977D01*
X50248Y15974D01*
X49411Y17996D01*
X47998Y19408D01*
X47301Y17726D01*
X44955Y18698D01*
X45652Y20380D01*
X43654Y20380D01*
D02*
G37*
%LPD*%
G36*
G01X675178Y287614D02*
G02Y302386I1302J7386D01*
G01Y287614D01*
D02*
G37*
G36*
G01X677782Y302386D02*
G02Y287614I-1302J-7386D01*
G01Y302386D01*
D02*
G37*
D16*
X700734Y161169D02*
X742356D01*
X697219Y157654D02*
X700734Y161169D01*
X679560Y138684D02*
X693704D01*
X697219Y142199D02*
Y157654D01*
X693704Y138684D02*
X697219Y142199D01*
X742356Y161169D02*
X747061Y156464D01*
X747412D01*
X747757Y156119D01*
X692484Y502644D02*
Y521644D01*
X713445D01*
X733553Y541752D01*
X750955D01*
X706480Y220180D02*
X718703Y207957D01*
X692980Y233680D02*
X693730D01*
X706480Y220930D01*
Y220180D02*
Y220930D01*
X718703Y207957D02*
X747061D01*
X679560Y172720D02*
Y188444D01*
Y151384D02*
Y172720D01*
X692980Y201864D02*
Y233680D01*
X679560Y188444D02*
X692980Y201864D01*
X529333Y161170D02*
X580670D01*
Y186410D01*
X555752Y211328D02*
X586740D01*
X555752D02*
X580670Y186410D01*
X530860Y211328D02*
X555752D01*
X615628D02*
X624480Y220180D01*
Y220930D02*
X637230Y233680D01*
X637980D01*
X624480Y220180D02*
Y220930D01*
X586740Y211328D02*
X615628D01*
D20*
X294315Y201887D02*
X292801Y200373D01*
X451211Y148060D02*
X464320Y161169D01*
X451211Y134510D02*
Y148060D01*
X241948Y150941D02*
X257948Y134941D01*
X241948Y150941D02*
Y160548D01*
X348218Y309184D02*
X361850Y322816D01*
X336458Y309184D02*
X348218D01*
X336458Y294998D02*
Y309184D01*
X292801Y195537D02*
Y200373D01*
X294315Y201887D02*
X308176D01*
X254120Y172720D02*
X269985D01*
X372970Y201887D02*
X374458Y200399D01*
Y195537D02*
Y200399D01*
X359230Y201887D02*
X372970D01*
X394350Y702500D02*
X404836D01*
X394350Y630500D02*
X404836D01*
X393374Y558500D02*
X403860D01*
X393374Y486500D02*
X403860D01*
X393374Y414500D02*
X403860D01*
X393374Y342500D02*
X403860D01*
Y352500D02*
Y357550D01*
X393374Y352500D02*
X403860D01*
Y712500D02*
Y717550D01*
X393374Y712500D02*
X403860D01*
Y640500D02*
Y645550D01*
X393374Y640500D02*
X403860D01*
Y568500D02*
Y573550D01*
X393374Y568500D02*
X403860D01*
Y496500D02*
Y501550D01*
X393374Y496500D02*
X403860D01*
X393374Y424500D02*
X403860D01*
X393374Y429500D02*
X393424Y429550D01*
X403860Y424500D02*
Y429550D01*
X393424D02*
X403860D01*
X172983Y292100D02*
X333560D01*
X148510Y267627D02*
X172983Y292100D01*
X333560D02*
X336458Y294998D01*
X357968Y284480D02*
X371850Y298362D01*
X190420Y267627D02*
X207273Y284480D01*
X357968D01*
X106600Y267627D02*
X125307Y248920D01*
X245492D01*
X265143Y218657D02*
X269705D01*
X269985Y218937D01*
X257948Y211463D02*
X265143Y218657D01*
X106600Y200373D02*
X145925Y161048D01*
X241948D01*
X320460Y317748D02*
Y326814D01*
Y309186D02*
Y317748D01*
X320458Y309184D02*
X320460Y309186D01*
X336460Y326814D02*
X349778D01*
X366850Y326816D02*
Y335976D01*
X361850Y322816D02*
Y335976D01*
X552159Y86360D02*
X682336D01*
X687080Y71671D02*
Y81616D01*
X682336Y86360D02*
X687080Y81616D01*
X451211Y86166D02*
Y134510D01*
Y86166D02*
X458637Y78740D01*
X544539D01*
X552159Y86360D01*
X368487Y144780D02*
X395313D01*
X398092Y147560D02*
X436100D01*
X395313Y144780D02*
X398092Y147560D01*
X464320Y161169D02*
X464820D01*
X449709D02*
X464320D01*
X436100Y147560D02*
X449709Y161169D01*
X388223Y125246D02*
X402177Y139200D01*
X441960D01*
X423757Y126339D02*
X443040D01*
X451211Y134510D01*
X395313Y80353D02*
Y97506D01*
X407757Y109950D01*
Y109950D02*
Y126339D01*
X368487Y135341D02*
Y144780D01*
Y134841D02*
Y135341D01*
X260678Y188486D02*
X280430Y208237D01*
X313218Y159648D02*
Y160148D01*
X257948Y185756D02*
Y186255D01*
X260178Y188486D01*
X260678D01*
X280430Y208237D02*
X308176D01*
X269985Y172720D02*
X292801Y195537D01*
X257948Y210963D02*
Y211463D01*
Y274318D02*
X257950Y274320D01*
X257948Y260877D02*
Y274318D01*
X371850Y298362D02*
Y330814D01*
X255718Y258647D02*
X257948Y260877D01*
X245492Y248920D02*
X255218Y258647D01*
X255718D01*
X353975Y246380D02*
X403860D01*
X423757Y228018D02*
Y261377D01*
Y193858D02*
Y228018D01*
X409826Y214587D02*
X421027Y225787D01*
X421526D01*
X423757Y228018D01*
X393374Y367500D02*
X455724D01*
X407757Y58820D02*
Y65660D01*
X415757Y73660D01*
X383930Y55970D02*
X392463D01*
X362203D02*
X383930D01*
X407757Y92579D02*
X415757D01*
X393374Y362500D02*
X483488D01*
X485988Y509000D02*
X547624D01*
X679984Y619320D02*
X692484D01*
X393424Y357550D02*
X403860D01*
X413240Y333166D02*
Y333785D01*
X413242Y326814D02*
Y333166D01*
X386850Y335976D02*
X396916D01*
X679984Y677211D02*
X692484D01*
X679984Y638320D02*
X692484D01*
X423757Y92579D02*
Y126339D01*
Y58820D02*
Y92579D01*
X241948Y126136D02*
X255220Y112864D01*
X255720D01*
X241948Y126136D02*
Y134441D01*
X346518Y81970D02*
X362203D01*
Y75470D02*
X376850D01*
X413244Y470816D02*
Y477785D01*
X485989Y561000D02*
X640964D01*
X485988Y437000D02*
X547624D01*
X362203Y81970D02*
X383350D01*
X388223Y86843D02*
Y125246D01*
X383350Y81970D02*
X388223Y86843D01*
X362203Y68970D02*
X383930D01*
X386850Y551976D02*
X396916D01*
X413244Y542816D02*
Y549785D01*
X365216Y535450D02*
X396916D01*
X678180Y560536D02*
X692484D01*
X413244Y686816D02*
Y693785D01*
X413242Y693787D02*
X413244Y693785D01*
X386850Y695976D02*
X396916D01*
X485989Y633000D02*
X640964D01*
X365216Y607450D02*
X396916D01*
X386850Y623976D02*
X396916D01*
X386850Y590024D02*
X403860D01*
X381850D02*
Y596684D01*
X678180Y542814D02*
X691206D01*
X692484Y541536D01*
X679984Y599428D02*
X692484D01*
X376850Y614814D02*
Y623976D01*
X679984Y580428D02*
X692484D01*
X365216Y679450D02*
X396916D01*
X386850Y662024D02*
X403860D01*
X381850Y662024D02*
Y668684D01*
X376850Y686814D02*
Y695976D01*
X366850Y686816D02*
Y695976D01*
X371850Y690814D02*
Y695976D01*
X390050Y62470D02*
X407757Y80177D01*
X362203Y62470D02*
X390050D01*
X395313Y58820D02*
X407757D01*
Y80177D02*
Y92579D01*
X190420Y65866D02*
X208026Y48260D01*
X257948D01*
Y59720D01*
X632410Y54171D02*
Y60671D01*
X393374Y347500D02*
X483489D01*
X393374Y357500D02*
X393424Y357550D01*
X352488Y247868D02*
X353975Y246380D01*
X352488Y247868D02*
Y261377D01*
X371850Y330814D02*
Y335976D01*
X362203Y94970D02*
X376850D01*
X687080Y55671D02*
X709740D01*
X657910Y73171D02*
X685580D01*
X632410D02*
X657910D01*
X685580D02*
X687080Y71671D01*
X605970Y55671D02*
X616158D01*
X617658Y54171D01*
X632410D01*
X580670Y71671D02*
X601970D01*
X558469D02*
X580670D01*
X513080Y62820D02*
X549619D01*
X558469Y71671D01*
X580670Y161170D02*
X597970D01*
X598470Y123054D02*
X600700Y120824D01*
Y120324D02*
X607740Y113284D01*
X623060D01*
X597970Y123054D02*
X598470D01*
X600700Y120324D02*
Y120824D01*
X597970Y123054D02*
Y145170D01*
X709740Y123053D02*
Y145169D01*
X383930Y68970D02*
X395313Y80353D01*
X392463Y55970D02*
X395313Y58820D01*
X276860Y59720D02*
X279610Y62470D01*
X257948Y59720D02*
X276860D01*
X279610Y62470D02*
X305203D01*
X255719Y86757D02*
X255719D01*
X241950Y100526D02*
X255719Y86757D01*
X241950Y100526D02*
Y110134D01*
X255719Y86757D02*
X257949Y84527D01*
Y84027D02*
Y84527D01*
X284480Y84027D02*
X286537Y81970D01*
X257949Y84027D02*
X284480D01*
X286537Y81970D02*
X305203D01*
X257950Y110134D02*
X271856D01*
X293336Y88654D02*
X305020D01*
X271856Y110134D02*
X293336Y88654D01*
X305020D02*
X305203Y88470D01*
X255720Y112864D02*
X257950Y110634D01*
Y110134D02*
Y110634D01*
X257948Y134441D02*
Y134941D01*
X241948Y161048D02*
X244178Y163278D01*
X244678D02*
X254120Y172720D01*
X241948Y160548D02*
Y161048D01*
X244178Y163278D02*
X244678D01*
X292801Y195537D02*
X308176D01*
X297218Y160048D02*
X299448Y157818D01*
X299948D02*
X307907Y149860D01*
X297218Y160048D02*
Y160548D01*
X299448Y157818D02*
X299948D01*
X307907Y149860D02*
X341799D01*
X350258Y157818D02*
X352488Y160048D01*
Y160548D01*
X349758Y157818D02*
X350258D01*
X341799Y149860D02*
X349758Y157818D01*
X257948Y160548D02*
X297218D01*
X423757Y261377D02*
X423757Y261377D01*
X368487Y121523D02*
Y134841D01*
X366257Y132611D02*
X368487Y134841D01*
X354668Y121523D02*
X365757Y132611D01*
X366257D01*
X311527Y121523D02*
X354668D01*
X305203Y115199D02*
X311527Y121523D01*
X305203Y101470D02*
Y115199D01*
X362203Y115239D02*
X368487Y121523D01*
X362203Y101470D02*
Y115239D01*
X313218Y135341D02*
X352487D01*
X368488Y160148D02*
X370718Y162378D01*
X371218D02*
X378460Y169621D01*
X368488Y159648D02*
Y160148D01*
X370718Y162378D02*
X371218D01*
X378460Y169621D02*
Y191534D01*
X374458Y195537D02*
X378460Y191534D01*
X359230Y195537D02*
X374458D01*
X407758Y160998D02*
Y203887D01*
X403408Y208237D02*
X407758Y203887D01*
X359230Y208237D02*
X403408D01*
X308176D02*
X323824D01*
X327660Y204401D01*
Y174090D02*
Y204401D01*
X313218Y160148D02*
X315448Y162378D01*
X315948D02*
X327660Y174090D01*
X315448Y162378D02*
X315948D01*
X257948Y260877D02*
X260178Y258647D01*
X260678D02*
X271590Y247735D01*
Y226561D02*
Y247735D01*
X260178Y258647D02*
X260678D01*
X277214Y220937D02*
X308176D01*
X271590Y226561D02*
X277214Y220937D01*
X257948Y210963D02*
X271590D01*
X275214Y214587D02*
X308176D01*
X271590Y210963D02*
X275214Y214587D01*
X241948Y210963D02*
X241950Y210964D01*
Y236170D01*
X368488Y261377D02*
Y272832D01*
X299759Y274320D02*
X367000D01*
X368488Y272832D01*
X297219Y271780D02*
X299759Y274320D01*
X297219Y261377D02*
Y271780D01*
X332853Y261377D02*
X352488D01*
X313219D02*
X332853D01*
Y234480D02*
Y261377D01*
X325660Y227287D02*
X332853Y234480D01*
X308176Y227287D02*
X325660D01*
X297219Y252420D02*
X308176Y241463D01*
X297219Y252420D02*
Y261377D01*
X308176Y233637D02*
Y241463D01*
X368488Y261377D02*
X407757D01*
X413244Y614816D02*
Y621785D01*
X320458Y380684D02*
Y389750D01*
Y398816D01*
Y452684D02*
Y461750D01*
Y470816D01*
Y524684D02*
Y533750D01*
Y542816D01*
X320458Y668686D02*
Y677752D01*
Y686818D01*
X320458Y605750D02*
Y614816D01*
Y596684D02*
Y605750D01*
X381850Y688304D02*
Y695976D01*
X383338Y686816D02*
X413244D01*
X381850Y688304D02*
X383338Y686816D01*
X381850Y616304D02*
X383338Y614816D01*
X381850Y616304D02*
Y623976D01*
X383338Y614816D02*
X413244D01*
Y398816D02*
Y405785D01*
X346724Y679450D02*
X358484D01*
X361850Y672510D02*
X363338Y673998D01*
X361850Y682816D02*
X365216Y679450D01*
X361850Y662024D02*
Y672510D01*
X363338Y673998D02*
X371850D01*
X358484Y679450D02*
X361850Y682816D01*
Y695976D01*
X366850Y662024D02*
Y668684D01*
X371850Y662024D02*
Y673998D01*
X376850D01*
X386850Y662024D02*
Y672510D01*
X376850Y326814D02*
Y335976D01*
X386850Y407976D02*
X396916D01*
X376850Y398814D02*
Y407976D01*
X361850Y394816D02*
Y407976D01*
Y394816D02*
X365216Y391450D01*
X396916D01*
X358484D02*
X361850Y394816D01*
X336458Y381184D02*
X346724Y391450D01*
X358484D01*
X386850Y479976D02*
X396916D01*
X376850Y470814D02*
Y479976D01*
X361850Y466816D02*
Y479976D01*
Y466816D02*
X365216Y463450D01*
X396916D01*
X358484D02*
X361850Y466816D01*
X336458Y453184D02*
X346724Y463450D01*
X358484D01*
X376850Y542814D02*
Y551976D01*
X361850Y538816D02*
Y551976D01*
Y538816D02*
X365216Y535450D01*
X358484D02*
X361850Y538816D01*
X336458Y525184D02*
X346724Y535450D01*
X358484D01*
X361850Y610816D02*
Y623976D01*
Y610816D02*
X365216Y607450D01*
X358484D02*
X361850Y610816D01*
X336458Y597184D02*
X346724Y607450D01*
X358484D01*
X336458Y669184D02*
X346724Y679450D01*
X383338Y398816D02*
X412242D01*
X386850Y374024D02*
X403860D01*
X376850D02*
Y385998D01*
X371850Y374024D02*
Y385998D01*
X376850D01*
X385362D01*
X386850Y374024D02*
Y384510D01*
X385362Y385998D02*
X386850Y384510D01*
X361850Y374024D02*
Y384510D01*
X363338Y385998D01*
X371850D01*
X386850Y446024D02*
X403860D01*
X376850D02*
Y457998D01*
X371850Y446024D02*
Y457998D01*
X376850D01*
X385362D01*
X386850Y446024D02*
Y456510D01*
X385362Y457998D02*
X386850Y456510D01*
X361850Y446024D02*
Y456510D01*
X363338Y457998D01*
X371850D01*
X393374Y501500D02*
X393424Y501550D01*
X403860D01*
X386850Y518024D02*
X403860D01*
X376850D02*
Y529998D01*
X371850Y518024D02*
Y529998D01*
X376850D01*
X385362D01*
X386850Y518024D02*
Y528510D01*
X385362Y529998D02*
X386850Y528510D01*
X361850Y518024D02*
Y528510D01*
X363338Y529998D01*
X371850D01*
X393374Y573500D02*
X393424Y573550D01*
X403860D01*
X376850Y590024D02*
Y601998D01*
X371850Y590024D02*
Y601998D01*
X376850D01*
X385362D01*
X386850Y590024D02*
Y600510D01*
X385362Y601998D02*
X386850Y600510D01*
X361850Y590024D02*
Y600510D01*
X363338Y601998D01*
X371850D01*
X393374Y645500D02*
X393424Y645550D01*
X403860D01*
X376850Y662024D02*
Y673998D01*
X385362D01*
X386850Y672510D01*
X429242Y309584D02*
Y326814D01*
X383338Y326816D02*
X412242D01*
X381850Y328304D02*
X383338Y326816D01*
X381850Y328304D02*
Y335976D01*
X485989Y345000D02*
X640964D01*
X483489Y347500D02*
X485989Y345000D01*
X485988Y365000D02*
X547624D01*
X483488Y362500D02*
X485988Y365000D01*
X381850Y374024D02*
Y380684D01*
X366850Y374024D02*
Y380684D01*
X174264Y365000D02*
X226652D01*
X229152Y367500D01*
X355326D01*
X366850Y398816D02*
Y407976D01*
X336460Y398814D02*
X349778D01*
X229152Y439500D02*
X355326D01*
X226652Y437000D02*
X229152Y439500D01*
X174264Y437000D02*
X226652D01*
X366850Y446024D02*
Y452684D01*
X381850Y446024D02*
Y452684D01*
X393374Y439500D02*
X454999D01*
X393374Y434500D02*
X483488D01*
X485988Y437000D01*
X393374Y419500D02*
X483489D01*
X485989Y417000D01*
X640964D01*
X381850Y400304D02*
Y407976D01*
Y400304D02*
X383338Y398816D01*
X429242Y381584D02*
Y398814D01*
X366850Y470816D02*
Y479976D01*
X336460Y470814D02*
X349778D01*
X229152Y511500D02*
X355326D01*
X226652Y509000D02*
X229152Y511500D01*
X174264Y509000D02*
X226652D01*
X366850Y518024D02*
Y524684D01*
X381850Y518024D02*
Y524684D01*
X393374Y511500D02*
X454999D01*
X393374Y506500D02*
X483488D01*
X485988Y509000D01*
X393374Y491500D02*
X483489D01*
X485989Y489000D01*
X640964D01*
X381850Y472304D02*
Y479976D01*
Y472304D02*
X383338Y470816D01*
X412242D01*
X429242Y453584D02*
Y470814D01*
X366850Y542816D02*
Y551976D01*
X336460Y542814D02*
X349778D01*
X229152Y583500D02*
X355326D01*
X226652Y581000D02*
X229152Y583500D01*
X174264Y581000D02*
X226652D01*
X366850Y590024D02*
Y596684D01*
X393374Y583500D02*
X454999D01*
X393374Y578500D02*
X483488D01*
X485988Y581000D01*
X547624D01*
X393374Y563500D02*
X483489D01*
X485989Y561000D01*
X381850Y544304D02*
Y551976D01*
Y544304D02*
X383338Y542816D01*
X412242D01*
X429242Y525584D02*
Y542814D01*
X366850Y614816D02*
Y623976D01*
X336460Y614814D02*
X349778D01*
X229152Y655500D02*
X355326D01*
X226652Y653000D02*
X229152Y655500D01*
X174264Y653000D02*
X226652D01*
X393374Y655500D02*
X454999D01*
X393374Y650500D02*
X483488D01*
X485988Y653000D01*
X547624D01*
X393374Y635500D02*
X483489D01*
X485989Y633000D01*
X429242Y597584D02*
Y614814D01*
Y669584D02*
Y686814D01*
X429244Y686816D01*
X336460Y686814D02*
X349778D01*
X336458Y686816D02*
X336460Y686814D01*
X363338Y745998D02*
X371850D01*
X361850Y744510D02*
X363338Y745998D01*
X361850Y734024D02*
Y744510D01*
X385362Y745998D02*
X386850Y744510D01*
Y734024D02*
Y744510D01*
X376850Y745998D02*
X385362D01*
X371850D02*
X376850D01*
X371850Y734024D02*
Y745998D01*
X376850Y734024D02*
Y745998D01*
X366850Y734024D02*
Y740684D01*
X381850Y734024D02*
Y740684D01*
X393374Y727500D02*
X454999D01*
X393374Y722500D02*
X483488D01*
X386850Y734024D02*
X403860D01*
X226652Y725000D02*
X229152Y727500D01*
X174264Y725000D02*
X226652D01*
X229152Y727500D02*
X355326D01*
X393424Y717550D02*
X403860D01*
X393374Y717500D02*
X393424Y717550D01*
X485989Y705000D02*
X640964D01*
X483489Y707500D02*
X485989Y705000D01*
X393374Y707500D02*
X483489D01*
X485988Y725000D02*
X547624D01*
X483488Y722500D02*
X485988Y725000D01*
D22*
X692484Y521644D02*
D03*
X667484Y512144D02*
D03*
X692484Y502644D02*
D03*
Y560536D02*
D03*
X667484Y551036D02*
D03*
X692484Y541536D02*
D03*
Y599428D02*
D03*
X667484Y589928D02*
D03*
X692484Y580428D02*
D03*
Y638320D02*
D03*
X667484Y628820D02*
D03*
X692484Y619320D02*
D03*
Y658211D02*
D03*
X667484Y667711D02*
D03*
X692484Y677211D02*
D03*
D23*
X352487Y135341D02*
D03*
X368487D02*
D03*
X241948Y134441D02*
D03*
X257948D02*
D03*
X336458Y309184D02*
D03*
X320458D02*
D03*
X663560Y172720D02*
D03*
X679560D02*
D03*
X313218Y135341D02*
D03*
X297218D02*
D03*
X297219Y261377D02*
D03*
X313219D02*
D03*
X368488D02*
D03*
X352488D02*
D03*
X313218Y160548D02*
D03*
X297218D02*
D03*
X352488D02*
D03*
X368488D02*
D03*
X423756Y228517D02*
D03*
X407756D02*
D03*
X407758Y160998D02*
D03*
X423758D02*
D03*
X407757Y193858D02*
D03*
X423757D02*
D03*
X423757Y261377D02*
D03*
X407757D02*
D03*
X423757Y126339D02*
D03*
X407757D02*
D03*
X423757Y58820D02*
D03*
X407757D02*
D03*
X423757Y92579D02*
D03*
X407757D02*
D03*
X257948Y160548D02*
D03*
X241948D02*
D03*
X257948Y185755D02*
D03*
X241948D02*
D03*
X257948Y210963D02*
D03*
X241948D02*
D03*
X241950Y236170D02*
D03*
X257950D02*
D03*
X257948Y261377D02*
D03*
X241948D02*
D03*
X257950Y110134D02*
D03*
X241950D02*
D03*
X257948Y59720D02*
D03*
X241948D02*
D03*
X241949Y84027D02*
D03*
X257949D02*
D03*
X413244Y470816D02*
D03*
X429244D02*
D03*
X413244Y686816D02*
D03*
X429244D02*
D03*
X429242Y669584D02*
D03*
X413242D02*
D03*
X413244Y614816D02*
D03*
X429244D02*
D03*
X429242Y597584D02*
D03*
X413242D02*
D03*
X413244Y542816D02*
D03*
X429244D02*
D03*
X429242Y525584D02*
D03*
X413242D02*
D03*
X429242Y453584D02*
D03*
X413242D02*
D03*
X413244Y398816D02*
D03*
X429244D02*
D03*
X429242Y381584D02*
D03*
X413242D02*
D03*
Y326814D02*
D03*
X429242D02*
D03*
Y309584D02*
D03*
X413242D02*
D03*
X320458Y614816D02*
D03*
X336458D02*
D03*
X320458Y668684D02*
D03*
X336458D02*
D03*
X320458Y542816D02*
D03*
X336458D02*
D03*
X320458Y596684D02*
D03*
X336458D02*
D03*
X320458Y524684D02*
D03*
X336458D02*
D03*
Y452684D02*
D03*
X320458D02*
D03*
Y380684D02*
D03*
X336458D02*
D03*
Y470816D02*
D03*
X320458D02*
D03*
Y398816D02*
D03*
X336458D02*
D03*
X320460Y326814D02*
D03*
X336460D02*
D03*
X320458Y686816D02*
D03*
X336458D02*
D03*
D24*
X190420Y267627D02*
D03*
X106600Y267627D02*
D03*
X148510Y267627D02*
D03*
X190420Y200373D02*
D03*
X148510D02*
D03*
X106600D02*
D03*
Y65866D02*
D03*
X148510D02*
D03*
X190420D02*
D03*
Y133120D02*
D03*
X148510D02*
D03*
X106600D02*
D03*
D25*
X747061Y207957D02*
D03*
Y247957D02*
D03*
D26*
X750955Y541752D02*
D03*
Y554252D02*
D03*
Y566752D02*
D03*
Y579252D02*
D03*
Y591752D02*
D03*
Y604252D02*
D03*
Y616752D02*
D03*
Y629252D02*
D03*
Y641752D02*
D03*
D27*
X779955Y667252D02*
D03*
Y516252D02*
D03*
D28*
X657910Y54171D02*
D03*
Y63671D02*
D03*
Y73171D02*
D03*
X632410D02*
D03*
Y54171D02*
D03*
D29*
X709740Y55671D02*
D03*
Y71671D02*
D03*
X709740Y123053D02*
D03*
Y107053D02*
D03*
X580670Y123054D02*
D03*
Y107054D02*
D03*
X601970Y55671D02*
D03*
Y71671D02*
D03*
X709740Y161169D02*
D03*
Y145169D02*
D03*
X580670Y55671D02*
D03*
Y71671D02*
D03*
Y161170D02*
D03*
Y145170D02*
D03*
X687080Y71671D02*
D03*
Y55671D02*
D03*
X597970Y123054D02*
D03*
Y107054D02*
D03*
Y161170D02*
D03*
Y145170D02*
D03*
X562469Y107054D02*
D03*
Y123054D02*
D03*
X464820Y107054D02*
D03*
Y123054D02*
D03*
Y145169D02*
D03*
Y161169D02*
D03*
X562469Y145169D02*
D03*
Y161169D02*
D03*
D30*
X586740Y211328D02*
D03*
Y256032D02*
D03*
X530860D02*
D03*
Y211328D02*
D03*
X476120Y256151D02*
D03*
Y211447D02*
D03*
X747061Y111760D02*
D03*
Y156464D02*
D03*
D31*
X393374Y367500D02*
D03*
X355326Y630500D02*
D03*
X355326Y635500D02*
D03*
Y640500D02*
D03*
Y645500D02*
D03*
Y650500D02*
D03*
Y655500D02*
D03*
X393374D02*
D03*
X393374Y650500D02*
D03*
Y645500D02*
D03*
Y640500D02*
D03*
Y635500D02*
D03*
Y630500D02*
D03*
Y702500D02*
D03*
Y707500D02*
D03*
Y712500D02*
D03*
Y717500D02*
D03*
Y722500D02*
D03*
Y727500D02*
D03*
X355326D02*
D03*
Y722500D02*
D03*
Y717500D02*
D03*
Y712500D02*
D03*
Y707500D02*
D03*
Y702500D02*
D03*
X393374Y558500D02*
D03*
Y563500D02*
D03*
Y568500D02*
D03*
Y573500D02*
D03*
Y578500D02*
D03*
Y583500D02*
D03*
X355326D02*
D03*
Y578500D02*
D03*
Y573500D02*
D03*
Y568500D02*
D03*
Y563500D02*
D03*
Y558500D02*
D03*
X393374Y486500D02*
D03*
Y491500D02*
D03*
Y496500D02*
D03*
Y501500D02*
D03*
Y506500D02*
D03*
Y511500D02*
D03*
X355326D02*
D03*
Y506500D02*
D03*
Y501500D02*
D03*
Y496500D02*
D03*
Y491500D02*
D03*
Y486500D02*
D03*
X393374Y414500D02*
D03*
Y419500D02*
D03*
Y424500D02*
D03*
Y429500D02*
D03*
Y434500D02*
D03*
Y439500D02*
D03*
X355326D02*
D03*
Y434500D02*
D03*
Y429500D02*
D03*
Y424500D02*
D03*
Y419500D02*
D03*
Y414500D02*
D03*
X393374Y342500D02*
D03*
Y347500D02*
D03*
Y352500D02*
D03*
Y357500D02*
D03*
Y362500D02*
D03*
X355326Y367500D02*
D03*
Y362500D02*
D03*
Y357500D02*
D03*
Y352500D02*
D03*
Y347500D02*
D03*
Y342500D02*
D03*
D32*
X692980Y233680D02*
D03*
X637980D02*
D03*
D33*
X623060Y151384D02*
D03*
Y138684D02*
D03*
Y125984D02*
D03*
Y113284D02*
D03*
X679560Y151384D02*
D03*
Y138684D02*
D03*
Y125984D02*
D03*
Y113284D02*
D03*
D34*
X651310Y132334D02*
D03*
D35*
X515620Y101977D02*
D03*
D36*
X490220Y162183D02*
D03*
X502920D02*
D03*
X515620D02*
D03*
X528320D02*
D03*
X541020D02*
D03*
D37*
X305203Y101470D02*
D03*
Y94970D02*
D03*
Y88470D02*
D03*
Y81970D02*
D03*
Y75470D02*
D03*
Y68970D02*
D03*
Y62470D02*
D03*
Y55970D02*
D03*
X362203Y101470D02*
D03*
Y94970D02*
D03*
Y88470D02*
D03*
Y81970D02*
D03*
Y75470D02*
D03*
Y68970D02*
D03*
Y62470D02*
D03*
Y55970D02*
D03*
D38*
X359230Y233637D02*
D03*
Y227287D02*
D03*
Y220937D02*
D03*
Y214587D02*
D03*
Y208237D02*
D03*
Y201887D02*
D03*
Y195537D02*
D03*
Y189187D02*
D03*
X308176D02*
D03*
Y195537D02*
D03*
Y201887D02*
D03*
Y208237D02*
D03*
Y214587D02*
D03*
Y220937D02*
D03*
Y227287D02*
D03*
Y233637D02*
D03*
D39*
X374350Y643000D02*
D03*
Y715000D02*
D03*
Y571000D02*
D03*
Y499000D02*
D03*
Y427000D02*
D03*
Y355000D02*
D03*
D40*
X386850Y623976D02*
D03*
X381850Y623976D02*
D03*
X376850D02*
D03*
X371850D02*
D03*
X366850D02*
D03*
X361850D02*
D03*
Y662024D02*
D03*
X366850Y662024D02*
D03*
X371850D02*
D03*
X376850D02*
D03*
X381850D02*
D03*
X386850D02*
D03*
Y734024D02*
D03*
X381850D02*
D03*
X376850D02*
D03*
X371850D02*
D03*
X366850D02*
D03*
X361850D02*
D03*
Y695976D02*
D03*
X366850D02*
D03*
X371850D02*
D03*
X376850D02*
D03*
X381850D02*
D03*
X386850D02*
D03*
Y590024D02*
D03*
X381850D02*
D03*
X376850D02*
D03*
X371850D02*
D03*
X366850D02*
D03*
X361850D02*
D03*
Y551976D02*
D03*
X366850D02*
D03*
X371850D02*
D03*
X376850D02*
D03*
X381850D02*
D03*
X386850D02*
D03*
Y518024D02*
D03*
X381850D02*
D03*
X376850D02*
D03*
X371850D02*
D03*
X366850D02*
D03*
X361850D02*
D03*
Y479976D02*
D03*
X366850D02*
D03*
X371850D02*
D03*
X376850D02*
D03*
X381850D02*
D03*
X386850D02*
D03*
Y446024D02*
D03*
X381850D02*
D03*
X376850D02*
D03*
X371850D02*
D03*
X366850D02*
D03*
X361850D02*
D03*
Y407976D02*
D03*
X366850D02*
D03*
X371850D02*
D03*
X376850D02*
D03*
X381850D02*
D03*
X386850D02*
D03*
Y374024D02*
D03*
X381850D02*
D03*
X376850D02*
D03*
X371850D02*
D03*
X366850D02*
D03*
X361850D02*
D03*
Y335976D02*
D03*
X366850D02*
D03*
X371850D02*
D03*
X376850D02*
D03*
X381850D02*
D03*
X386850D02*
D03*
D41*
X843150Y500497D02*
X842227Y502724D01*
X840000Y503647D01*
X838000Y6850D02*
X840575Y7540D01*
X842460Y9425D01*
X843150Y12000D01*
X840000Y679908D02*
X842227Y680830D01*
X843150Y683057D01*
X12000Y843150D02*
X9425Y842460D01*
X7540Y840575D01*
X6850Y838000D01*
X843150Y838000D02*
X842460Y840575D01*
X840575Y842460D01*
X838000Y843150D01*
X6850Y12000D02*
X7540Y9425D01*
X9425Y7540D01*
X12000Y6850D01*
X828860Y679908D02*
X826223Y679610D01*
X823719Y678734D01*
X821472Y677322D01*
X819595Y675446D01*
X818184Y673199D01*
X817307Y670694D01*
X817010Y668057D01*
Y515497D02*
X817307Y512860D01*
X818184Y510356D01*
X819595Y508109D01*
X821472Y506232D01*
X823719Y504821D01*
X826223Y503944D01*
X828860Y503647D01*
X843150Y683099D02*
Y838000D01*
X12059Y6850D02*
X838000D01*
X828860Y679908D02*
X840000D01*
X6850Y12000D02*
Y837941D01*
X843150Y12042D02*
Y500497D01*
X817010Y515497D02*
Y668057D01*
X828860Y503647D02*
X840000D01*
X12000Y843150D02*
X837941D01*
D65*
X637980Y233680D02*
Y289560D01*
X643420Y295000D01*
X672079D01*
X680881D02*
X703480D01*
X623060Y170377D02*
X625403Y172720D01*
X663560D01*
X623060Y151384D02*
Y170377D01*
X482524Y188954D02*
Y205043D01*
X490220Y162183D02*
Y181258D01*
X482524Y188954D02*
X490220Y181258D01*
X476120Y211447D02*
X482524Y205043D01*
X464820Y161169D02*
Y183508D01*
X469670Y188358D02*
Y204997D01*
X464820Y183508D02*
X469670Y188358D01*
Y204997D02*
X476120Y211447D01*
X490220Y162183D02*
X502920D01*
X692484Y490220D02*
Y502644D01*
Y541536D02*
X709837D01*
X735053Y566752D01*
X750955D01*
X692484Y560536D02*
X710120D01*
X728837Y579252D01*
X750955D01*
X692484Y580428D02*
X709076D01*
X720400Y591752D01*
X750955D01*
X692484Y599428D02*
X708752D01*
X713576Y604252D01*
X750955D01*
X692484Y619320D02*
X709752D01*
X712320Y616752D01*
X750955D01*
X692484Y638320D02*
X708752D01*
X717820Y629252D01*
X750955D01*
X692484Y658211D02*
Y677211D01*
X726211Y641752D02*
X750955D01*
X692484Y658211D02*
X709752D01*
X726211Y641752D01*
X464820Y123054D02*
Y145169D01*
X528320Y162183D02*
X529333Y161170D01*
X562469Y123054D02*
Y145169D01*
X580670Y123054D02*
Y145170D01*
D66*
X36000Y814000D02*
D03*
Y256000D02*
D03*
Y364000D02*
D03*
X814477Y256000D02*
D03*
X814000Y364000D02*
D03*
Y36000D02*
D03*
Y814000D02*
D03*
X36000Y36000D02*
D03*
D67*
X27252Y835120D02*
D03*
X14880Y805252D02*
D03*
X44748Y792880D02*
D03*
X57120Y822748D02*
D03*
X44748Y835120D02*
D03*
X14880Y822748D02*
D03*
X27252Y792880D02*
D03*
X57120Y805252D02*
D03*
X27252Y277120D02*
D03*
X14880Y247252D02*
D03*
X44748Y234880D02*
D03*
X57120Y264748D02*
D03*
X44748Y277120D02*
D03*
X14880Y264748D02*
D03*
X27252Y234880D02*
D03*
X57120Y247252D02*
D03*
X27252Y385120D02*
D03*
X14880Y355252D02*
D03*
X44748Y342880D02*
D03*
X57120Y372748D02*
D03*
X44748Y385120D02*
D03*
X14880Y372748D02*
D03*
X27252Y342880D02*
D03*
X57120Y355252D02*
D03*
X805729Y277120D02*
D03*
X793357Y247252D02*
D03*
X823225Y234880D02*
D03*
X835597Y264748D02*
D03*
X823225Y277120D02*
D03*
X793357Y264748D02*
D03*
X805729Y234880D02*
D03*
X835597Y247252D02*
D03*
X805252Y385120D02*
D03*
X792880Y355252D02*
D03*
X822748Y342880D02*
D03*
X835120Y372748D02*
D03*
X822748Y385120D02*
D03*
X792880Y372748D02*
D03*
X805252Y342880D02*
D03*
X835120Y355252D02*
D03*
X805252Y57120D02*
D03*
X792880Y27252D02*
D03*
X822748Y14880D02*
D03*
X835120Y44748D02*
D03*
X822748Y57120D02*
D03*
X792880Y44748D02*
D03*
X805252Y14880D02*
D03*
X835120Y27252D02*
D03*
X805252Y835120D02*
D03*
X792880Y805252D02*
D03*
X822748Y792880D02*
D03*
X835120Y822748D02*
D03*
X822748Y835120D02*
D03*
X792880Y822748D02*
D03*
X805252Y792880D02*
D03*
X835120Y805252D02*
D03*
X27252Y57120D02*
D03*
X14880Y27252D02*
D03*
X44748Y14880D02*
D03*
X57120Y44748D02*
D03*
X44748Y57120D02*
D03*
X14880Y44748D02*
D03*
X27252Y14880D02*
D03*
X57120Y27252D02*
D03*
D68*
X487680Y62820D02*
D03*
D69*
X500380D02*
D03*
X513080D02*
D03*
D70*
X160070Y391490D02*
D03*
X70070Y331490D02*
D03*
X640070Y31490D02*
D03*
X790070Y331490D02*
D03*
X310070D02*
D03*
X70070Y91490D02*
D03*
X520070Y751490D02*
D03*
X40070D02*
D03*
X790070Y91490D02*
D03*
X190070Y691490D02*
D03*
X40070Y511490D02*
D03*
X100070Y391490D02*
D03*
X790070Y571490D02*
D03*
X580070Y751490D02*
D03*
X250070Y331490D02*
D03*
X100070Y511490D02*
D03*
Y151490D02*
D03*
X130070Y91490D02*
D03*
X190070Y571490D02*
D03*
X490070Y331490D02*
D03*
X760070Y271490D02*
D03*
X340070Y31490D02*
D03*
X790070Y691490D02*
D03*
X70070Y451490D02*
D03*
X220070Y31490D02*
D03*
Y151490D02*
D03*
X460070Y271490D02*
D03*
X160070Y151490D02*
D03*
X730070Y691490D02*
D03*
X190070Y451490D02*
D03*
X700070Y751490D02*
D03*
X70070Y211490D02*
D03*
X130070D02*
D03*
X400070Y31490D02*
D03*
X490070Y571490D02*
D03*
X550070Y451490D02*
D03*
X130070D02*
D03*
X520070Y391490D02*
D03*
X280070Y31490D02*
D03*
Y271490D02*
D03*
X220070Y391490D02*
D03*
X670070Y451490D02*
D03*
X490070Y691490D02*
D03*
X790070Y211490D02*
D03*
X640070Y391490D02*
D03*
X670070Y331490D02*
D03*
X730070Y451490D02*
D03*
X580070Y391490D02*
D03*
X610070Y331490D02*
D03*
X70070Y691490D02*
D03*
X790070Y451490D02*
D03*
X280070Y631490D02*
D03*
X610070Y691490D02*
D03*
X670070D02*
D03*
X70070Y571490D02*
D03*
X610070Y451490D02*
D03*
X670070Y571490D02*
D03*
X220070Y271490D02*
D03*
X100070Y31490D02*
D03*
X40070Y151490D02*
D03*
X520070Y271490D02*
D03*
X160070Y31490D02*
D03*
X250070Y691490D02*
D03*
X100070Y751490D02*
D03*
X520070Y31490D02*
D03*
X250070Y451490D02*
D03*
X400070Y751490D02*
D03*
X340070D02*
D03*
X640070D02*
D03*
X760070D02*
D03*
X460070Y31490D02*
D03*
X700070Y391490D02*
D03*
X670070Y211490D02*
D03*
X550070Y571490D02*
D03*
X310070Y691490D02*
D03*
X130070D02*
D03*
X220070Y751490D02*
D03*
X130070Y331490D02*
D03*
X160070Y751490D02*
D03*
X550070Y691490D02*
D03*
X580070Y31490D02*
D03*
Y271490D02*
D03*
X730070Y91490D02*
D03*
X490070D02*
D03*
X550070Y331490D02*
D03*
X40070Y631490D02*
D03*
X280070Y391490D02*
D03*
X100070Y631490D02*
D03*
X760070Y31490D02*
D03*
X700070D02*
D03*
X280070Y751490D02*
D03*
X460070D02*
D03*
X280070Y151490D02*
D03*
X190070Y331490D02*
D03*
X760070Y391490D02*
D03*
X730070Y331490D02*
D03*
D71*
X838017Y843529D02*
D03*
X828017Y843526D02*
D03*
X818017D02*
D03*
X808017D02*
D03*
X798017D02*
D03*
X788017D02*
D03*
X778017D02*
D03*
X768017D02*
D03*
X758017D02*
D03*
X748017D02*
D03*
X738017D02*
D03*
X728017D02*
D03*
X718017D02*
D03*
X708017D02*
D03*
X698017D02*
D03*
X688017D02*
D03*
X678017D02*
D03*
X668017D02*
D03*
X658017D02*
D03*
X648017D02*
D03*
X638017D02*
D03*
X628017D02*
D03*
X618017D02*
D03*
X608017D02*
D03*
X598017D02*
D03*
X588017D02*
D03*
X578017D02*
D03*
X568017D02*
D03*
X558017D02*
D03*
X548017D02*
D03*
X538017D02*
D03*
X528017D02*
D03*
X518017D02*
D03*
X508017D02*
D03*
X498017D02*
D03*
X488018D02*
D03*
X478018D02*
D03*
X468018D02*
D03*
X458018D02*
D03*
X448018D02*
D03*
X438018D02*
D03*
X428018D02*
D03*
X418018D02*
D03*
X408018D02*
D03*
X398018D02*
D03*
X388018D02*
D03*
X378018D02*
D03*
X368018D02*
D03*
X358018D02*
D03*
X348018D02*
D03*
X338018D02*
D03*
X328018D02*
D03*
X318018D02*
D03*
X308018D02*
D03*
X298018D02*
D03*
X288018D02*
D03*
X278018D02*
D03*
X268018D02*
D03*
X258018D02*
D03*
X248018D02*
D03*
X238018D02*
D03*
X228018D02*
D03*
X218018D02*
D03*
X208018D02*
D03*
X198018D02*
D03*
X188018D02*
D03*
X178018D02*
D03*
X168018D02*
D03*
X158018D02*
D03*
X148018D02*
D03*
X138018D02*
D03*
X128018D02*
D03*
X118018D02*
D03*
X108018D02*
D03*
X98018D02*
D03*
X88018D02*
D03*
X78018D02*
D03*
X68018D02*
D03*
X58018D02*
D03*
X48018D02*
D03*
X38018D02*
D03*
X28018D02*
D03*
X18018D02*
D03*
X8143Y841953D02*
D03*
X6474Y832093D02*
D03*
Y822093D02*
D03*
Y812093D02*
D03*
Y802093D02*
D03*
Y792093D02*
D03*
Y782093D02*
D03*
Y772093D02*
D03*
Y762093D02*
D03*
Y752093D02*
D03*
Y742093D02*
D03*
Y732093D02*
D03*
Y722093D02*
D03*
Y712093D02*
D03*
Y702093D02*
D03*
Y692093D02*
D03*
Y682093D02*
D03*
Y672093D02*
D03*
Y662093D02*
D03*
Y652093D02*
D03*
Y642093D02*
D03*
Y632094D02*
D03*
Y622094D02*
D03*
Y612094D02*
D03*
Y602094D02*
D03*
Y592094D02*
D03*
Y582094D02*
D03*
Y572094D02*
D03*
Y562094D02*
D03*
Y552094D02*
D03*
Y542094D02*
D03*
Y532094D02*
D03*
Y522094D02*
D03*
Y512094D02*
D03*
Y502094D02*
D03*
Y492094D02*
D03*
Y482094D02*
D03*
Y472094D02*
D03*
Y462094D02*
D03*
Y452094D02*
D03*
Y442094D02*
D03*
Y432094D02*
D03*
Y422094D02*
D03*
Y412094D02*
D03*
Y402094D02*
D03*
Y392094D02*
D03*
Y382094D02*
D03*
Y372094D02*
D03*
Y362094D02*
D03*
Y352094D02*
D03*
Y342094D02*
D03*
Y332094D02*
D03*
Y322094D02*
D03*
Y312094D02*
D03*
Y302094D02*
D03*
Y292094D02*
D03*
Y282094D02*
D03*
Y272094D02*
D03*
Y262094D02*
D03*
Y252094D02*
D03*
Y242094D02*
D03*
Y232094D02*
D03*
Y222094D02*
D03*
Y212094D02*
D03*
Y202094D02*
D03*
Y192094D02*
D03*
Y182094D02*
D03*
Y172094D02*
D03*
Y162094D02*
D03*
Y152094D02*
D03*
Y142094D02*
D03*
Y132094D02*
D03*
Y122094D02*
D03*
Y112094D02*
D03*
Y102094D02*
D03*
Y92094D02*
D03*
Y82095D02*
D03*
Y72095D02*
D03*
Y62095D02*
D03*
Y52095D02*
D03*
Y42095D02*
D03*
Y32095D02*
D03*
Y22095D02*
D03*
Y12095D02*
D03*
X14745Y6474D02*
D03*
X24745D02*
D03*
X34745D02*
D03*
X44745D02*
D03*
X54745D02*
D03*
X64745D02*
D03*
X74745D02*
D03*
X84745D02*
D03*
X94745D02*
D03*
X104745D02*
D03*
X114745D02*
D03*
X124745D02*
D03*
X134745D02*
D03*
X144745D02*
D03*
X154745D02*
D03*
X164745D02*
D03*
X174745D02*
D03*
X184745D02*
D03*
X194745D02*
D03*
X204745D02*
D03*
X214745D02*
D03*
X224745D02*
D03*
X234745D02*
D03*
X244745D02*
D03*
X254745D02*
D03*
X264745D02*
D03*
X274745D02*
D03*
X284745D02*
D03*
X294745D02*
D03*
X304745D02*
D03*
X314745D02*
D03*
X324745D02*
D03*
X334745D02*
D03*
X344745D02*
D03*
X354745D02*
D03*
X364745D02*
D03*
X374745D02*
D03*
X384745D02*
D03*
X394745D02*
D03*
X404745D02*
D03*
X414744D02*
D03*
X424744D02*
D03*
X434744D02*
D03*
X444744D02*
D03*
X454744D02*
D03*
X464744D02*
D03*
X474744D02*
D03*
X484744D02*
D03*
X494744D02*
D03*
X504744D02*
D03*
X514744D02*
D03*
X524744D02*
D03*
X534744D02*
D03*
X544744D02*
D03*
X554744D02*
D03*
X564744D02*
D03*
X574744D02*
D03*
X584744D02*
D03*
X594744D02*
D03*
X604744D02*
D03*
X614744D02*
D03*
X624744D02*
D03*
X634744D02*
D03*
X644744D02*
D03*
X654744D02*
D03*
X664744D02*
D03*
X674744D02*
D03*
X684744D02*
D03*
X694744D02*
D03*
X704744D02*
D03*
X714744D02*
D03*
X724744D02*
D03*
X734744D02*
D03*
X744744D02*
D03*
X754744D02*
D03*
X764744D02*
D03*
X774744D02*
D03*
X784744D02*
D03*
X794744D02*
D03*
X804744D02*
D03*
X814744D02*
D03*
X824744D02*
D03*
X834744D02*
D03*
X843451Y11391D02*
D03*
X843526Y21391D02*
D03*
Y31391D02*
D03*
Y41391D02*
D03*
Y51391D02*
D03*
Y61391D02*
D03*
Y71391D02*
D03*
Y81391D02*
D03*
Y91391D02*
D03*
Y101391D02*
D03*
Y111391D02*
D03*
Y121391D02*
D03*
Y131391D02*
D03*
Y141391D02*
D03*
Y151391D02*
D03*
Y161391D02*
D03*
Y171391D02*
D03*
Y181391D02*
D03*
Y191391D02*
D03*
Y201391D02*
D03*
Y211391D02*
D03*
Y221391D02*
D03*
Y231391D02*
D03*
Y241391D02*
D03*
Y271391D02*
D03*
Y281391D02*
D03*
Y291391D02*
D03*
Y301391D02*
D03*
Y311391D02*
D03*
Y321390D02*
D03*
Y331390D02*
D03*
Y341390D02*
D03*
Y351390D02*
D03*
Y361390D02*
D03*
Y371390D02*
D03*
Y381390D02*
D03*
Y391390D02*
D03*
Y401390D02*
D03*
Y411390D02*
D03*
Y421390D02*
D03*
Y431390D02*
D03*
Y441390D02*
D03*
Y451390D02*
D03*
Y461390D02*
D03*
Y471390D02*
D03*
Y481390D02*
D03*
Y491390D02*
D03*
X843375Y501389D02*
D03*
X833728Y504023D02*
D03*
X823805Y505263D02*
D03*
X817680Y513168D02*
D03*
X817386Y523163D02*
D03*
Y533163D02*
D03*
Y543163D02*
D03*
Y553163D02*
D03*
Y563163D02*
D03*
Y573163D02*
D03*
Y583163D02*
D03*
Y593163D02*
D03*
Y603163D02*
D03*
Y613163D02*
D03*
Y623163D02*
D03*
Y633163D02*
D03*
Y643163D02*
D03*
Y653163D02*
D03*
Y663163D02*
D03*
X818616Y673087D02*
D03*
X826504Y679234D02*
D03*
X836499Y679532D02*
D03*
X843526Y686646D02*
D03*
Y696646D02*
D03*
Y706646D02*
D03*
Y716646D02*
D03*
Y726646D02*
D03*
Y736646D02*
D03*
Y746646D02*
D03*
Y756646D02*
D03*
Y766646D02*
D03*
Y776646D02*
D03*
Y786646D02*
D03*
Y796646D02*
D03*
Y806646D02*
D03*
Y816646D02*
D03*
Y826646D02*
D03*
Y836646D02*
D03*
X843526Y251391D02*
D03*
Y261391D02*
D03*
X747077Y156119D02*
D03*
X738815D02*
D03*
X755340D02*
D03*
X703480Y295000D02*
D03*
X269985Y218937D02*
D03*
X349778Y326814D02*
D03*
X366850Y326816D02*
D03*
X365216Y357500D02*
D03*
Y347500D02*
D03*
Y419500D02*
D03*
Y429500D02*
D03*
X365477Y491500D02*
D03*
Y501500D02*
D03*
Y563500D02*
D03*
Y573550D02*
D03*
X365216Y717550D02*
D03*
Y707500D02*
D03*
Y645550D02*
D03*
Y634127D02*
D03*
X441960Y139200D02*
D03*
X407757Y109950D02*
D03*
X433113D02*
D03*
X368487Y144780D02*
D03*
X257950Y274320D02*
D03*
X403860Y246380D02*
D03*
X409826Y214587D02*
D03*
X413244Y470816D02*
D03*
X455724Y367500D02*
D03*
X415757Y73660D02*
D03*
Y92579D02*
D03*
X547624Y509000D02*
D03*
X679984Y619320D02*
D03*
X413240Y333785D02*
D03*
X403860Y357550D02*
D03*
X396916Y335976D02*
D03*
X679984Y677211D02*
D03*
Y638320D02*
D03*
X346518Y81970D02*
D03*
X376850Y75470D02*
D03*
X413242Y477787D02*
D03*
X692484Y490220D02*
D03*
X640964Y561000D02*
D03*
X547624Y437000D02*
D03*
X383930Y68970D02*
D03*
X413242Y549787D02*
D03*
X396916Y551976D02*
D03*
Y535450D02*
D03*
X678180Y560536D02*
D03*
X566420Y658494D02*
D03*
X413242Y693787D02*
D03*
X396916Y695976D02*
D03*
X566420Y601980D02*
D03*
X396916Y607450D02*
D03*
Y623976D02*
D03*
X403860Y590024D02*
D03*
X381850Y596684D02*
D03*
X679984Y580428D02*
D03*
X678180Y542814D02*
D03*
X679984Y599428D02*
D03*
X376850Y614814D02*
D03*
X396916Y679450D02*
D03*
X403860Y662024D02*
D03*
X381850Y668684D02*
D03*
X371850Y690814D02*
D03*
X376850Y686814D02*
D03*
X383930Y55970D02*
D03*
X257948Y48260D02*
D03*
X632410Y60671D02*
D03*
X371850Y330814D02*
D03*
X376850Y94970D02*
D03*
X413242Y621787D02*
D03*
X320460Y317748D02*
D03*
X320458Y389750D02*
D03*
Y461750D02*
D03*
Y533750D02*
D03*
X320458Y677752D02*
D03*
X320458Y605750D02*
D03*
X413242Y405787D02*
D03*
X366850Y686816D02*
D03*
Y668684D02*
D03*
X371850Y618814D02*
D03*
X366850Y614816D02*
D03*
X376850Y326814D02*
D03*
X396916Y407976D02*
D03*
X371850Y402814D02*
D03*
X376850Y398814D02*
D03*
X396916Y391450D02*
D03*
Y479976D02*
D03*
X371850Y474814D02*
D03*
X376850Y470814D02*
D03*
X396916Y463450D02*
D03*
X371850Y546814D02*
D03*
X376850Y542814D02*
D03*
X403860Y374024D02*
D03*
Y429550D02*
D03*
Y446024D02*
D03*
Y501550D02*
D03*
Y518024D02*
D03*
Y573550D02*
D03*
Y645550D02*
D03*
X640964Y345000D02*
D03*
X547624Y365000D02*
D03*
X381850Y380684D02*
D03*
X366850D02*
D03*
X174264Y365000D02*
D03*
X366850Y398816D02*
D03*
X349778Y398814D02*
D03*
X174264Y437000D02*
D03*
X366850Y452684D02*
D03*
X381850D02*
D03*
X454999Y439500D02*
D03*
X640964Y417000D02*
D03*
X366850Y470816D02*
D03*
X349778Y470814D02*
D03*
X174264Y509000D02*
D03*
X366850Y524684D02*
D03*
X381850D02*
D03*
X454999Y511500D02*
D03*
X640964Y489000D02*
D03*
X366850Y542816D02*
D03*
X349778Y542814D02*
D03*
X174264Y581000D02*
D03*
X366850Y596684D02*
D03*
X454999Y583500D02*
D03*
X547624Y581000D02*
D03*
X349778Y614814D02*
D03*
X174264Y653000D02*
D03*
X454999Y655500D02*
D03*
X547624Y653000D02*
D03*
X640964Y633000D02*
D03*
X349778Y686814D02*
D03*
X366850Y740684D02*
D03*
X381850D02*
D03*
X403860Y734024D02*
D03*
X174264Y725000D02*
D03*
X403860Y717550D02*
D03*
X640964Y705000D02*
D03*
X547624Y725000D02*
D03*
X454999Y727500D02*
D03*
D72*
X148510Y200373D02*
D03*
Y133120D02*
D03*
Y65866D02*
D03*
X190420Y200373D02*
D03*
Y133120D02*
D03*
X106600D02*
D03*
Y65866D02*
D03*
M02*
