G04*
G04 #@! TF.GenerationSoftware,Altium Limited,Altium Designer,24.1.2 (44)*
G04*
G04 Layer_Color=8388736*
%FSLAX44Y44*%
%MOMM*%
G71*
G04*
G04 #@! TF.SameCoordinates,9195950A-8220-4955-82C2-9B8F86C7291D*
G04*
G04*
G04 #@! TF.FilePolarity,Negative*
G04*
G01*
G75*
%ADD25R,0.9500X0.9000*%
%ADD28R,1.7018X0.8128*%
%ADD40C,1.2700*%
%ADD41R,1.0032X0.9032*%
%ADD42R,1.2032X0.8032*%
%ADD43R,2.4622X1.9796*%
%ADD44R,1.1532X1.1032*%
%ADD45R,0.9032X1.0032*%
%ADD46C,1.7032*%
%ADD47R,2.5032X2.4892*%
%ADD48R,3.3020X2.4130*%
%ADD49R,3.5032X3.3532*%
%ADD50O,2.0032X0.8032*%
%ADD51R,2.5032X3.0032*%
%ADD52R,3.2725X2.4455*%
%ADD53R,0.7325X2.4455*%
%ADD54O,1.4000X0.4500*%
%ADD55R,1.9000X0.5000*%
%ADD56R,2.6000X2.6000*%
%ADD57C,6.2032*%
%ADD58C,1.0032*%
%ADD59R,1.2532X1.2532*%
%ADD60C,1.2532*%
%ADD61C,0.6032*%
G36*
X843526Y781000D02*
X809293D01*
Y781000D01*
X807438Y781000D01*
X803761Y781484D01*
X800179Y782444D01*
X796752Y783863D01*
X793540Y785718D01*
X790598Y787975D01*
X787975Y790598D01*
X785718Y793540D01*
X783863Y796752D01*
X782444Y800179D01*
X781484Y803761D01*
X781000Y807438D01*
X781000Y809293D01*
X781000Y843526D01*
X843526D01*
Y781000D01*
D02*
G37*
G36*
X69000Y809293D02*
X69000D01*
X69000Y807438D01*
X68516Y803761D01*
X67556Y800179D01*
X66137Y796752D01*
X64282Y793540D01*
X62024Y790598D01*
X59402Y787975D01*
X56460Y785718D01*
X53248Y783863D01*
X49821Y782444D01*
X46239Y781484D01*
X42562Y781000D01*
X40707Y781000D01*
X6474Y781000D01*
Y843526D01*
X69000D01*
Y809293D01*
D02*
G37*
G36*
X379350Y729499D02*
X369350D01*
Y738549D01*
X379350D01*
Y729499D01*
D02*
G37*
G36*
X389350Y730000D02*
X397899D01*
Y725000D01*
Y720000D01*
X388849D01*
Y725000D01*
Y729499D01*
X379350D01*
Y738549D01*
X389350D01*
Y730000D01*
D02*
G37*
G36*
X369350Y729499D02*
X359851D01*
Y725000D01*
Y720000D01*
X350801D01*
Y725000D01*
Y730000D01*
X359350D01*
Y738549D01*
X369350D01*
Y729499D01*
D02*
G37*
G36*
X397899Y715000D02*
Y710000D01*
X388849D01*
Y715000D01*
Y720000D01*
X397899D01*
Y715000D01*
D02*
G37*
G36*
X359851D02*
Y710000D01*
X350801D01*
Y715000D01*
Y720000D01*
X359851D01*
Y715000D01*
D02*
G37*
G36*
X397899Y705000D02*
Y700000D01*
X389350D01*
Y691451D01*
X379350D01*
Y700501D01*
X388849D01*
Y705000D01*
Y710000D01*
X397899D01*
Y705000D01*
D02*
G37*
G36*
X379350Y691451D02*
X369350D01*
Y700501D01*
X379350D01*
Y691451D01*
D02*
G37*
G36*
X359851Y705000D02*
Y700501D01*
X369350D01*
Y691451D01*
X359350D01*
Y700000D01*
X350801D01*
Y705000D01*
Y710000D01*
X359851D01*
Y705000D01*
D02*
G37*
G36*
X384350Y657499D02*
X364350D01*
Y666549D01*
X384350D01*
Y657499D01*
D02*
G37*
G36*
X389350Y658000D02*
X397899D01*
Y653000D01*
X388849D01*
Y657499D01*
X384350D01*
Y666549D01*
X389350D01*
Y658000D01*
D02*
G37*
G36*
X364350Y657499D02*
X359851D01*
Y653000D01*
X350801D01*
Y658000D01*
X359350D01*
Y666549D01*
X364350D01*
Y657499D01*
D02*
G37*
G36*
X397899Y648000D02*
Y643000D01*
Y638000D01*
Y633000D01*
X388849D01*
Y638000D01*
Y643000D01*
Y648000D01*
Y653000D01*
X397899D01*
Y648000D01*
D02*
G37*
G36*
X359851D02*
Y643000D01*
Y638000D01*
Y633000D01*
X350801D01*
Y638000D01*
Y643000D01*
Y648000D01*
Y653000D01*
X359851D01*
Y648000D01*
D02*
G37*
G36*
X397899Y628000D02*
X389350D01*
Y619451D01*
X384350D01*
Y628501D01*
X388849D01*
Y633000D01*
X397899D01*
Y628000D01*
D02*
G37*
G36*
X384350Y619451D02*
X364350D01*
Y628501D01*
X384350D01*
Y619451D01*
D02*
G37*
G36*
X359851Y628501D02*
X364350D01*
Y619451D01*
X359350D01*
Y628000D01*
X350801D01*
Y633000D01*
X359851D01*
Y628501D01*
D02*
G37*
G36*
X379350Y585499D02*
X369350D01*
Y594549D01*
X379350D01*
Y585499D01*
D02*
G37*
G36*
X389350Y586000D02*
X397899D01*
Y581000D01*
Y576000D01*
X388849D01*
Y581000D01*
Y585499D01*
X379350D01*
Y594549D01*
X389350D01*
Y586000D01*
D02*
G37*
G36*
X369350Y585499D02*
X359851D01*
Y581000D01*
Y576000D01*
X350801D01*
Y581000D01*
Y586000D01*
X359350D01*
Y594549D01*
X369350D01*
Y585499D01*
D02*
G37*
G36*
X397899Y571000D02*
Y566000D01*
X388849D01*
Y571000D01*
Y576000D01*
X397899D01*
Y571000D01*
D02*
G37*
G36*
X359851D02*
Y566000D01*
X350801D01*
Y571000D01*
Y576000D01*
X359851D01*
Y571000D01*
D02*
G37*
G36*
X397899Y561000D02*
Y556000D01*
X389350D01*
Y547451D01*
X379350D01*
Y556501D01*
X388849D01*
Y561000D01*
Y566000D01*
X397899D01*
Y561000D01*
D02*
G37*
G36*
X379350Y547451D02*
X369350D01*
Y556501D01*
X379350D01*
Y547451D01*
D02*
G37*
G36*
X359851Y561000D02*
Y556501D01*
X369350D01*
Y547451D01*
X359350D01*
Y556000D01*
X350801D01*
Y561000D01*
Y566000D01*
X359851D01*
Y561000D01*
D02*
G37*
G36*
X379350Y513499D02*
X369350D01*
Y522549D01*
X379350D01*
Y513499D01*
D02*
G37*
G36*
X389350Y514000D02*
X397899D01*
Y509000D01*
Y504000D01*
X388849D01*
Y509000D01*
Y513499D01*
X379350D01*
Y522549D01*
X389350D01*
Y514000D01*
D02*
G37*
G36*
X369350Y513499D02*
X359851D01*
Y509000D01*
Y504000D01*
X350801D01*
Y509000D01*
Y514000D01*
X359350D01*
Y522549D01*
X369350D01*
Y513499D01*
D02*
G37*
G36*
X397899Y499000D02*
Y494000D01*
X388849D01*
Y499000D01*
Y504000D01*
X397899D01*
Y499000D01*
D02*
G37*
G36*
X359851D02*
Y494000D01*
X350801D01*
Y499000D01*
Y504000D01*
X359851D01*
Y499000D01*
D02*
G37*
G36*
X397899Y489000D02*
Y484000D01*
X389350D01*
Y475451D01*
X379350D01*
Y484501D01*
X388849D01*
Y489000D01*
Y494000D01*
X397899D01*
Y489000D01*
D02*
G37*
G36*
X379350Y475451D02*
X369350D01*
Y484501D01*
X379350D01*
Y475451D01*
D02*
G37*
G36*
X359851Y489000D02*
Y484501D01*
X369350D01*
Y475451D01*
X359350D01*
Y484000D01*
X350801D01*
Y489000D01*
Y494000D01*
X359851D01*
Y489000D01*
D02*
G37*
G36*
X379350Y441499D02*
X369350D01*
Y450549D01*
X379350D01*
Y441499D01*
D02*
G37*
G36*
X389350Y442000D02*
X397899D01*
Y437000D01*
Y432000D01*
X388849D01*
Y437000D01*
Y441499D01*
X379350D01*
Y450549D01*
X389350D01*
Y442000D01*
D02*
G37*
G36*
X369350Y441499D02*
X359851D01*
Y437000D01*
Y432000D01*
X350801D01*
Y437000D01*
Y442000D01*
X359350D01*
Y450549D01*
X369350D01*
Y441499D01*
D02*
G37*
G36*
X397899Y427000D02*
Y422000D01*
X388849D01*
Y427000D01*
Y432000D01*
X397899D01*
Y427000D01*
D02*
G37*
G36*
X359851D02*
Y422000D01*
X350801D01*
Y427000D01*
Y432000D01*
X359851D01*
Y427000D01*
D02*
G37*
G36*
X397899Y417000D02*
Y412000D01*
X389350D01*
Y403451D01*
X379350D01*
Y412501D01*
X388849D01*
Y417000D01*
Y422000D01*
X397899D01*
Y417000D01*
D02*
G37*
G36*
X379350Y403451D02*
X369350D01*
Y412501D01*
X379350D01*
Y403451D01*
D02*
G37*
G36*
X359851Y417000D02*
Y412501D01*
X369350D01*
Y403451D01*
X359350D01*
Y412000D01*
X350801D01*
Y417000D01*
Y422000D01*
X359851D01*
Y417000D01*
D02*
G37*
G36*
X379350Y369499D02*
X369350D01*
Y378549D01*
X379350D01*
Y369499D01*
D02*
G37*
G36*
X389350Y370000D02*
X397899D01*
Y365000D01*
Y360000D01*
X388849D01*
Y365000D01*
Y369499D01*
X379350D01*
Y378549D01*
X389350D01*
Y370000D01*
D02*
G37*
G36*
X369350Y369499D02*
X359851D01*
Y365000D01*
Y360000D01*
X350801D01*
Y365000D01*
Y370000D01*
X359350D01*
Y378549D01*
X369350D01*
Y369499D01*
D02*
G37*
G36*
X397899Y355000D02*
Y350000D01*
X388849D01*
Y355000D01*
Y360000D01*
X397899D01*
Y355000D01*
D02*
G37*
G36*
X359851D02*
Y350000D01*
X350801D01*
Y355000D01*
Y360000D01*
X359851D01*
Y355000D01*
D02*
G37*
G36*
X397899Y345000D02*
Y340000D01*
X389350D01*
Y331451D01*
X379350D01*
Y340501D01*
X388849D01*
Y345000D01*
Y350000D01*
X397899D01*
Y345000D01*
D02*
G37*
G36*
X379350Y331451D02*
X369350D01*
Y340501D01*
X379350D01*
Y331451D01*
D02*
G37*
G36*
X359851Y345000D02*
Y340501D01*
X369350D01*
Y331451D01*
X359350D01*
Y340000D01*
X350801D01*
Y345000D01*
Y350000D01*
X359851D01*
Y345000D01*
D02*
G37*
G36*
X675222Y303401D02*
X675266Y303400D01*
X675288Y303397D01*
X675311Y303396D01*
X675354Y303387D01*
X675398Y303380D01*
X675419Y303374D01*
X675441Y303370D01*
X675484Y303355D01*
X675526Y303343D01*
X675546Y303334D01*
X675567Y303327D01*
X675608Y303307D01*
X675648Y303289D01*
X675667Y303278D01*
X675687Y303268D01*
X675724Y303243D01*
X675762Y303220D01*
X675779Y303206D01*
X675798Y303194D01*
X675831Y303164D01*
X675865Y303137D01*
X675881Y303121D01*
X675898Y303106D01*
X675927Y303072D01*
X675958Y303041D01*
X675971Y303023D01*
X675985Y303006D01*
X676010Y302969D01*
X676036Y302933D01*
X676047Y302914D01*
X676059Y302895D01*
X676079Y302855D01*
X676100Y302816D01*
X676108Y302796D01*
X676118Y302776D01*
X676133Y302733D01*
X676149Y302692D01*
X676154Y302671D01*
X676161Y302650D01*
X676170Y302606D01*
X676180Y302563D01*
X676183Y302541D01*
X676187Y302519D01*
X676190Y302474D01*
X676195Y302430D01*
X676194Y302409D01*
X676196Y302386D01*
X676196Y287614D01*
X676194Y287592D01*
X676195Y287570D01*
X676190Y287525D01*
X676187Y287481D01*
X676183Y287459D01*
X676180Y287437D01*
X676170Y287394D01*
X676161Y287350D01*
X676154Y287329D01*
X676149Y287308D01*
X676133Y287267D01*
X676118Y287224D01*
X676108Y287204D01*
X676100Y287184D01*
X676079Y287145D01*
X676059Y287105D01*
X676047Y287087D01*
X676036Y287067D01*
X676010Y287031D01*
X675985Y286994D01*
X675971Y286977D01*
X675957Y286959D01*
X675927Y286927D01*
X675898Y286894D01*
X675881Y286879D01*
X675865Y286863D01*
X675831Y286835D01*
X675797Y286806D01*
X675779Y286794D01*
X675762Y286780D01*
X675724Y286757D01*
X675687Y286732D01*
X675667Y286722D01*
X675648Y286711D01*
X675607Y286693D01*
X675567Y286673D01*
X675546Y286666D01*
X675526Y286657D01*
X675483Y286645D01*
X675441Y286630D01*
X675419Y286626D01*
X675398Y286620D01*
X675354Y286613D01*
X675311Y286604D01*
X675288Y286603D01*
X675266Y286600D01*
X675222Y286599D01*
X675178Y286596D01*
X675155Y286597D01*
X675133Y286597D01*
X675089Y286602D01*
X675045Y286604D01*
X675023Y286609D01*
X675001Y286611D01*
X674484Y286702D01*
X674480Y286703D01*
X674476Y286704D01*
X674415Y286719D01*
X674355Y286734D01*
X674351Y286735D01*
X674346Y286737D01*
X673349Y287061D01*
X673345Y287062D01*
X673341Y287064D01*
X673283Y287087D01*
X673225Y287110D01*
X673221Y287112D01*
X673217Y287114D01*
X672274Y287574D01*
X672271Y287576D01*
X672266Y287578D01*
X672212Y287609D01*
X672159Y287640D01*
X672155Y287643D01*
X672151Y287645D01*
X671282Y288231D01*
X671279Y288234D01*
X671275Y288236D01*
X671224Y288276D01*
X671177Y288313D01*
X671174Y288316D01*
X671170Y288319D01*
X670390Y289021D01*
X670387Y289024D01*
X670384Y289027D01*
X670341Y289072D01*
X670297Y289116D01*
X670295Y289119D01*
X670292Y289123D01*
X669618Y289926D01*
X669615Y289930D01*
X669612Y289933D01*
X669576Y289983D01*
X669539Y290034D01*
X669537Y290038D01*
X669534Y290041D01*
X668978Y290931D01*
X668976Y290935D01*
X668974Y290938D01*
X668945Y290993D01*
X668915Y291048D01*
X668914Y291052D01*
X668912Y291056D01*
X668485Y292015D01*
X668483Y292019D01*
X668481Y292023D01*
X668461Y292080D01*
X668439Y292139D01*
X668438Y292144D01*
X668436Y292148D01*
X668147Y293156D01*
X668146Y293160D01*
X668145Y293165D01*
X668132Y293226D01*
X668119Y293286D01*
X668119Y293291D01*
X668118Y293295D01*
X667972Y294334D01*
X667971Y294338D01*
X667971Y294343D01*
X667966Y294405D01*
X667962Y294467D01*
X667962Y294471D01*
X667962Y294476D01*
Y295524D01*
X667962Y295529D01*
X667962Y295533D01*
X667966Y295595D01*
X667971Y295657D01*
X667971Y295662D01*
X667972Y295666D01*
X668118Y296705D01*
X668119Y296709D01*
X668119Y296714D01*
X668132Y296774D01*
X668145Y296835D01*
X668146Y296840D01*
X668147Y296844D01*
X668436Y297852D01*
X668438Y297856D01*
X668439Y297861D01*
X668461Y297920D01*
X668481Y297977D01*
X668483Y297981D01*
X668485Y297985D01*
X668912Y298944D01*
X668914Y298948D01*
X668915Y298952D01*
X668945Y299007D01*
X668974Y299062D01*
X668976Y299065D01*
X668978Y299069D01*
X669534Y299959D01*
X669537Y299962D01*
X669539Y299966D01*
X669575Y300016D01*
X669612Y300067D01*
X669615Y300070D01*
X669618Y300074D01*
X670292Y300877D01*
X670295Y300880D01*
X670297Y300884D01*
X670341Y300928D01*
X670384Y300973D01*
X670387Y300976D01*
X670390Y300979D01*
X671170Y301681D01*
X671173Y301684D01*
X671177Y301687D01*
X671225Y301724D01*
X671275Y301764D01*
X671279Y301766D01*
X671282Y301769D01*
X672151Y302355D01*
X672155Y302357D01*
X672159Y302360D01*
X672213Y302391D01*
X672266Y302422D01*
X672271Y302424D01*
X672274Y302426D01*
X673217Y302886D01*
X673221Y302888D01*
X673225Y302890D01*
X673283Y302913D01*
X673341Y302936D01*
X673345Y302938D01*
X673349Y302939D01*
X674346Y303263D01*
X674351Y303264D01*
X674355Y303266D01*
X674414Y303281D01*
X674475Y303296D01*
X674480Y303297D01*
X674484Y303298D01*
X675001Y303389D01*
X675023Y303391D01*
X675045Y303396D01*
X675089Y303398D01*
X675133Y303403D01*
X675155Y303403D01*
X675178Y303404D01*
X675178D01*
X675222Y303401D01*
D02*
G37*
G36*
X677804Y303403D02*
X677827Y303403D01*
X677871Y303398D01*
X677915Y303396D01*
X677937Y303391D01*
X677959Y303389D01*
X678476Y303298D01*
X678480Y303297D01*
X678484Y303296D01*
X678545Y303281D01*
X678605Y303266D01*
X678609Y303264D01*
X678614Y303263D01*
X679611Y302939D01*
X679615Y302938D01*
X679620Y302936D01*
X679677Y302913D01*
X679735Y302890D01*
X679739Y302888D01*
X679743Y302886D01*
X680686Y302426D01*
X680689Y302424D01*
X680694Y302422D01*
X680748Y302391D01*
X680801Y302360D01*
X680805Y302357D01*
X680808Y302355D01*
X681678Y301769D01*
X681682Y301766D01*
X681685Y301764D01*
X681736Y301724D01*
X681783Y301687D01*
X681786Y301684D01*
X681790Y301681D01*
X682570Y300979D01*
X682573Y300976D01*
X682576Y300973D01*
X682619Y300928D01*
X682662Y300884D01*
X682665Y300880D01*
X682668Y300877D01*
X683342Y300074D01*
X683345Y300070D01*
X683348Y300067D01*
X683384Y300017D01*
X683421Y299966D01*
X683423Y299962D01*
X683426Y299959D01*
X683982Y299069D01*
X683984Y299065D01*
X683986Y299062D01*
X684015Y299007D01*
X684045Y298952D01*
X684046Y298948D01*
X684048Y298944D01*
X684475Y297985D01*
X684477Y297981D01*
X684479Y297977D01*
X684499Y297920D01*
X684521Y297861D01*
X684522Y297856D01*
X684524Y297852D01*
X684813Y296844D01*
X684814Y296840D01*
X684815Y296835D01*
X684828Y296774D01*
X684841Y296714D01*
X684841Y296709D01*
X684842Y296705D01*
X684988Y295666D01*
X684989Y295662D01*
X684989Y295657D01*
X684994Y295595D01*
X684998Y295533D01*
X684998Y295529D01*
X684998Y295524D01*
Y294476D01*
X684998Y294471D01*
X684998Y294467D01*
X684994Y294405D01*
X684989Y294343D01*
X684989Y294338D01*
X684988Y294334D01*
X684842Y293295D01*
X684841Y293291D01*
X684841Y293286D01*
X684828Y293226D01*
X684815Y293165D01*
X684814Y293160D01*
X684813Y293156D01*
X684524Y292148D01*
X684522Y292144D01*
X684521Y292139D01*
X684499Y292080D01*
X684479Y292023D01*
X684477Y292019D01*
X684475Y292015D01*
X684048Y291056D01*
X684046Y291052D01*
X684045Y291048D01*
X684015Y290993D01*
X683986Y290938D01*
X683984Y290935D01*
X683982Y290931D01*
X683426Y290041D01*
X683423Y290037D01*
X683421Y290034D01*
X683385Y289984D01*
X683348Y289933D01*
X683345Y289930D01*
X683342Y289926D01*
X682668Y289123D01*
X682665Y289119D01*
X682662Y289116D01*
X682619Y289072D01*
X682576Y289027D01*
X682573Y289024D01*
X682570Y289021D01*
X681790Y288319D01*
X681786Y288316D01*
X681783Y288313D01*
X681735Y288276D01*
X681685Y288236D01*
X681682Y288234D01*
X681678Y288231D01*
X680808Y287645D01*
X680805Y287643D01*
X680801Y287640D01*
X680747Y287609D01*
X680694Y287578D01*
X680689Y287576D01*
X680686Y287574D01*
X679743Y287114D01*
X679739Y287112D01*
X679735Y287110D01*
X679677Y287087D01*
X679620Y287064D01*
X679615Y287062D01*
X679611Y287061D01*
X678614Y286737D01*
X678609Y286735D01*
X678605Y286734D01*
X678546Y286719D01*
X678484Y286704D01*
X678480Y286703D01*
X678476Y286702D01*
X677959Y286611D01*
X677937Y286609D01*
X677915Y286604D01*
X677871Y286602D01*
X677827Y286597D01*
X677804Y286597D01*
X677782Y286596D01*
X677782D01*
X677738Y286599D01*
X677694Y286600D01*
X677672Y286603D01*
X677649Y286604D01*
X677606Y286613D01*
X677562Y286620D01*
X677541Y286626D01*
X677519Y286630D01*
X677476Y286645D01*
X677434Y286657D01*
X677414Y286666D01*
X677393Y286673D01*
X677353Y286693D01*
X677312Y286711D01*
X677293Y286722D01*
X677273Y286732D01*
X677236Y286757D01*
X677198Y286780D01*
X677181Y286794D01*
X677162Y286806D01*
X677129Y286836D01*
X677094Y286863D01*
X677079Y286879D01*
X677062Y286894D01*
X677033Y286928D01*
X677002Y286959D01*
X676989Y286977D01*
X676975Y286994D01*
X676950Y287031D01*
X676924Y287067D01*
X676913Y287086D01*
X676901Y287105D01*
X676881Y287145D01*
X676860Y287184D01*
X676852Y287204D01*
X676842Y287224D01*
X676827Y287267D01*
X676811Y287308D01*
X676806Y287329D01*
X676799Y287350D01*
X676790Y287394D01*
X676780Y287437D01*
X676777Y287459D01*
X676773Y287481D01*
X676770Y287526D01*
X676765Y287570D01*
X676766Y287591D01*
X676764Y287614D01*
X676764Y302386D01*
X676766Y302408D01*
X676765Y302430D01*
X676770Y302475D01*
X676773Y302519D01*
X676777Y302541D01*
X676780Y302563D01*
X676790Y302606D01*
X676799Y302650D01*
X676806Y302671D01*
X676811Y302692D01*
X676827Y302733D01*
X676842Y302776D01*
X676852Y302796D01*
X676860Y302816D01*
X676881Y302855D01*
X676901Y302895D01*
X676913Y302913D01*
X676924Y302933D01*
X676950Y302969D01*
X676975Y303006D01*
X676989Y303023D01*
X677002Y303041D01*
X677033Y303072D01*
X677062Y303106D01*
X677079Y303121D01*
X677094Y303137D01*
X677129Y303165D01*
X677162Y303194D01*
X677181Y303206D01*
X677198Y303220D01*
X677236Y303243D01*
X677273Y303268D01*
X677293Y303278D01*
X677312Y303289D01*
X677353Y303307D01*
X677393Y303327D01*
X677414Y303334D01*
X677434Y303343D01*
X677476Y303355D01*
X677519Y303370D01*
X677541Y303374D01*
X677562Y303380D01*
X677606Y303387D01*
X677650Y303396D01*
X677672Y303397D01*
X677694Y303400D01*
X677738Y303401D01*
X677782Y303404D01*
X677804Y303403D01*
D02*
G37*
G36*
X843526Y6474D02*
X781000D01*
Y40707D01*
X781000Y40707D01*
X781000Y40707D01*
X781000Y42562D01*
X781484Y46239D01*
X782444Y49821D01*
X783863Y53248D01*
X785718Y56460D01*
X787975Y59402D01*
X790598Y62024D01*
X793540Y64282D01*
X796752Y66137D01*
X800179Y67556D01*
X803761Y68516D01*
X807438Y69000D01*
X809293Y69000D01*
X843526Y69000D01*
Y6474D01*
D02*
G37*
G36*
X40707Y69000D02*
X42562Y69000D01*
X46239Y68516D01*
X49821Y67556D01*
X53248Y66137D01*
X56460Y64282D01*
X59402Y62024D01*
X62024Y59402D01*
X64282Y56460D01*
X66137Y53248D01*
X67556Y49821D01*
X68516Y46239D01*
X69000Y42562D01*
X69000Y40707D01*
X69000D01*
X69000Y40707D01*
Y6474D01*
X6474D01*
Y69000D01*
X40707Y69000D01*
D02*
G37*
D25*
X692484Y521644D02*
D03*
Y560536D02*
D03*
Y599428D02*
D03*
Y638320D02*
D03*
Y677211D02*
D03*
D28*
X750955Y541752D02*
D03*
Y554252D02*
D03*
Y566752D02*
D03*
Y579252D02*
D03*
Y591752D02*
D03*
Y604252D02*
D03*
Y616752D02*
D03*
Y629252D02*
D03*
Y641752D02*
D03*
D40*
X843150Y500497D02*
X842227Y502724D01*
X840000Y503647D01*
X838000Y6850D02*
X840575Y7540D01*
X842460Y9425D01*
X843150Y12000D01*
X840000Y679908D02*
X842227Y680830D01*
X843150Y683057D01*
X12000Y843150D02*
X9425Y842460D01*
X7540Y840575D01*
X6850Y838000D01*
X843150Y838000D02*
X842460Y840575D01*
X840575Y842460D01*
X838000Y843150D01*
X6850Y12000D02*
X7540Y9425D01*
X9425Y7540D01*
X12000Y6850D01*
X828860Y679908D02*
X826223Y679610D01*
X823719Y678734D01*
X821472Y677322D01*
X819595Y675446D01*
X818184Y673199D01*
X817307Y670694D01*
X817010Y668057D01*
Y515497D02*
X817307Y512860D01*
X818184Y510356D01*
X819595Y508109D01*
X821472Y506232D01*
X823719Y504821D01*
X826223Y503944D01*
X828860Y503647D01*
X843150Y683099D02*
Y838000D01*
X12059Y6850D02*
X838000D01*
X828860Y679908D02*
X840000D01*
X6850Y12000D02*
Y837941D01*
X843150Y12042D02*
Y500497D01*
X817010Y515497D02*
Y668057D01*
X828860Y503647D02*
X840000D01*
X12000Y843150D02*
X837941D01*
D41*
X709740Y71671D02*
D03*
Y55671D02*
D03*
X580670Y71671D02*
D03*
Y55671D02*
D03*
X687080D02*
D03*
Y71671D02*
D03*
X601970D02*
D03*
Y55671D02*
D03*
X709740Y123053D02*
D03*
Y107053D02*
D03*
X580670Y123054D02*
D03*
Y107054D02*
D03*
X709740Y161169D02*
D03*
Y145169D02*
D03*
X580670Y161170D02*
D03*
Y145170D02*
D03*
X597970Y123054D02*
D03*
Y107054D02*
D03*
Y161170D02*
D03*
Y145170D02*
D03*
X562469Y107054D02*
D03*
Y123054D02*
D03*
X464820Y107054D02*
D03*
Y123054D02*
D03*
Y145169D02*
D03*
Y161169D02*
D03*
X562469Y145169D02*
D03*
Y161169D02*
D03*
D42*
X632410Y54171D02*
D03*
Y73171D02*
D03*
X657910D02*
D03*
Y63671D02*
D03*
Y54171D02*
D03*
D43*
X747061Y156464D02*
D03*
Y111760D02*
D03*
X586740Y211328D02*
D03*
Y256032D02*
D03*
X530860D02*
D03*
Y211328D02*
D03*
X476120Y256151D02*
D03*
Y211447D02*
D03*
D44*
X667484Y512144D02*
D03*
X692484Y502644D02*
D03*
X667484Y551036D02*
D03*
X692484Y541536D02*
D03*
X667484Y589928D02*
D03*
X692484Y580428D02*
D03*
X667484Y628820D02*
D03*
X692484Y619320D02*
D03*
Y658211D02*
D03*
X667484Y667711D02*
D03*
D45*
X352487Y135341D02*
D03*
X368487D02*
D03*
X241948Y134441D02*
D03*
X257948D02*
D03*
X336458Y309184D02*
D03*
X320458D02*
D03*
X663560Y172720D02*
D03*
X679560D02*
D03*
X313218Y135341D02*
D03*
X297218D02*
D03*
X297219Y261377D02*
D03*
X313219D02*
D03*
X368488D02*
D03*
X352488D02*
D03*
X313218Y160548D02*
D03*
X297218D02*
D03*
X352488D02*
D03*
X368488D02*
D03*
X423756Y228517D02*
D03*
X407756D02*
D03*
X407758Y160998D02*
D03*
X423758D02*
D03*
X407757Y193858D02*
D03*
X423757D02*
D03*
X423757Y261377D02*
D03*
X407757D02*
D03*
X423757Y126339D02*
D03*
X407757D02*
D03*
X423757Y58820D02*
D03*
X407757D02*
D03*
X423757Y92579D02*
D03*
X407757D02*
D03*
X257948Y160548D02*
D03*
X241948D02*
D03*
X257948Y185755D02*
D03*
X241948D02*
D03*
X257948Y210963D02*
D03*
X241948D02*
D03*
X241950Y236170D02*
D03*
X257950D02*
D03*
X257948Y261377D02*
D03*
X241948D02*
D03*
X257950Y110134D02*
D03*
X241950D02*
D03*
X257948Y59720D02*
D03*
X241948D02*
D03*
X241949Y84027D02*
D03*
X257949D02*
D03*
X413244Y470816D02*
D03*
X429244D02*
D03*
X413244Y686816D02*
D03*
X429244D02*
D03*
X429242Y669584D02*
D03*
X413242D02*
D03*
X413244Y614816D02*
D03*
X429244D02*
D03*
X429242Y597584D02*
D03*
X413242D02*
D03*
X413244Y542816D02*
D03*
X429244D02*
D03*
X429242Y525584D02*
D03*
X413242D02*
D03*
X429242Y453584D02*
D03*
X413242D02*
D03*
X413244Y398816D02*
D03*
X429244D02*
D03*
X429242Y381584D02*
D03*
X413242D02*
D03*
Y326814D02*
D03*
X429242D02*
D03*
Y309584D02*
D03*
X413242D02*
D03*
X320458Y614816D02*
D03*
X336458D02*
D03*
X320458Y668684D02*
D03*
X336458D02*
D03*
X320458Y542816D02*
D03*
X336458D02*
D03*
X320458Y596684D02*
D03*
X336458D02*
D03*
X320458Y524684D02*
D03*
X336458D02*
D03*
Y452684D02*
D03*
X320458D02*
D03*
Y380684D02*
D03*
X336458D02*
D03*
Y470816D02*
D03*
X320458D02*
D03*
Y398816D02*
D03*
X336458D02*
D03*
X320460Y326814D02*
D03*
X336460D02*
D03*
X320458Y686816D02*
D03*
X336458D02*
D03*
D46*
X190420Y267627D02*
D03*
X106600Y267627D02*
D03*
X148510Y267627D02*
D03*
X190420Y200373D02*
D03*
X148510D02*
D03*
X106600D02*
D03*
Y65866D02*
D03*
X148510D02*
D03*
X190420D02*
D03*
Y133120D02*
D03*
X148510D02*
D03*
X106600D02*
D03*
D47*
X747061Y207957D02*
D03*
Y247957D02*
D03*
D48*
X779955Y667252D02*
D03*
Y516252D02*
D03*
D49*
X692980Y233680D02*
D03*
X637980D02*
D03*
D50*
X623060Y151384D02*
D03*
Y138684D02*
D03*
Y125984D02*
D03*
Y113284D02*
D03*
X679560Y151384D02*
D03*
Y138684D02*
D03*
Y125984D02*
D03*
Y113284D02*
D03*
D51*
X651310Y132334D02*
D03*
D52*
X515620Y101977D02*
D03*
D53*
X490220Y162183D02*
D03*
X502920D02*
D03*
X515620D02*
D03*
X528320D02*
D03*
X541020D02*
D03*
D54*
X305203Y101470D02*
D03*
Y94970D02*
D03*
Y88470D02*
D03*
Y81970D02*
D03*
Y75470D02*
D03*
Y68970D02*
D03*
Y62470D02*
D03*
Y55970D02*
D03*
X362203Y101470D02*
D03*
Y94970D02*
D03*
Y88470D02*
D03*
Y81970D02*
D03*
Y75470D02*
D03*
Y68970D02*
D03*
Y62470D02*
D03*
Y55970D02*
D03*
D55*
X359230Y233637D02*
D03*
Y227287D02*
D03*
Y220937D02*
D03*
Y214587D02*
D03*
Y208237D02*
D03*
Y201887D02*
D03*
Y195537D02*
D03*
Y189187D02*
D03*
X308176D02*
D03*
Y195537D02*
D03*
Y201887D02*
D03*
Y208237D02*
D03*
Y214587D02*
D03*
Y220937D02*
D03*
Y227287D02*
D03*
Y233637D02*
D03*
D56*
X374350Y643000D02*
D03*
Y715000D02*
D03*
Y571000D02*
D03*
Y499000D02*
D03*
Y427000D02*
D03*
Y355000D02*
D03*
D57*
X36000Y814000D02*
D03*
Y256000D02*
D03*
Y364000D02*
D03*
X814477Y256000D02*
D03*
X814000Y364000D02*
D03*
Y36000D02*
D03*
Y814000D02*
D03*
X36000Y36000D02*
D03*
D58*
X27252Y835120D02*
D03*
X14880Y805252D02*
D03*
X44748Y792880D02*
D03*
X57120Y822748D02*
D03*
X44748Y835120D02*
D03*
X14880Y822748D02*
D03*
X27252Y792880D02*
D03*
X57120Y805252D02*
D03*
X27252Y277120D02*
D03*
X14880Y247252D02*
D03*
X44748Y234880D02*
D03*
X57120Y264748D02*
D03*
X44748Y277120D02*
D03*
X14880Y264748D02*
D03*
X27252Y234880D02*
D03*
X57120Y247252D02*
D03*
X27252Y385120D02*
D03*
X14880Y355252D02*
D03*
X44748Y342880D02*
D03*
X57120Y372748D02*
D03*
X44748Y385120D02*
D03*
X14880Y372748D02*
D03*
X27252Y342880D02*
D03*
X57120Y355252D02*
D03*
X805729Y277120D02*
D03*
X793357Y247252D02*
D03*
X823225Y234880D02*
D03*
X835597Y264748D02*
D03*
X823225Y277120D02*
D03*
X793357Y264748D02*
D03*
X805729Y234880D02*
D03*
X835597Y247252D02*
D03*
X805252Y385120D02*
D03*
X792880Y355252D02*
D03*
X822748Y342880D02*
D03*
X835120Y372748D02*
D03*
X822748Y385120D02*
D03*
X792880Y372748D02*
D03*
X805252Y342880D02*
D03*
X835120Y355252D02*
D03*
X805252Y57120D02*
D03*
X792880Y27252D02*
D03*
X822748Y14880D02*
D03*
X835120Y44748D02*
D03*
X822748Y57120D02*
D03*
X792880Y44748D02*
D03*
X805252Y14880D02*
D03*
X835120Y27252D02*
D03*
X805252Y835120D02*
D03*
X792880Y805252D02*
D03*
X822748Y792880D02*
D03*
X835120Y822748D02*
D03*
X822748Y835120D02*
D03*
X792880Y822748D02*
D03*
X805252Y792880D02*
D03*
X835120Y805252D02*
D03*
X27252Y57120D02*
D03*
X14880Y27252D02*
D03*
X44748Y14880D02*
D03*
X57120Y44748D02*
D03*
X44748Y57120D02*
D03*
X14880Y44748D02*
D03*
X27252Y14880D02*
D03*
X57120Y27252D02*
D03*
D59*
X487680Y62820D02*
D03*
D60*
X500380D02*
D03*
X513080D02*
D03*
D61*
X838017Y843529D02*
D03*
X828017Y843526D02*
D03*
X818017D02*
D03*
X808017D02*
D03*
X798017D02*
D03*
X788017D02*
D03*
X778017D02*
D03*
X768017D02*
D03*
X758017D02*
D03*
X748017D02*
D03*
X738017D02*
D03*
X728017D02*
D03*
X718017D02*
D03*
X708017D02*
D03*
X698017D02*
D03*
X688017D02*
D03*
X678017D02*
D03*
X668017D02*
D03*
X658017D02*
D03*
X648017D02*
D03*
X638017D02*
D03*
X628017D02*
D03*
X618017D02*
D03*
X608017D02*
D03*
X598017D02*
D03*
X588017D02*
D03*
X578017D02*
D03*
X568017D02*
D03*
X558017D02*
D03*
X548017D02*
D03*
X538017D02*
D03*
X528017D02*
D03*
X518017D02*
D03*
X508017D02*
D03*
X498017D02*
D03*
X488018D02*
D03*
X478018D02*
D03*
X468018D02*
D03*
X458018D02*
D03*
X448018D02*
D03*
X438018D02*
D03*
X428018D02*
D03*
X418018D02*
D03*
X408018D02*
D03*
X398018D02*
D03*
X388018D02*
D03*
X378018D02*
D03*
X368018D02*
D03*
X358018D02*
D03*
X348018D02*
D03*
X338018D02*
D03*
X328018D02*
D03*
X318018D02*
D03*
X308018D02*
D03*
X298018D02*
D03*
X288018D02*
D03*
X278018D02*
D03*
X268018D02*
D03*
X258018D02*
D03*
X248018D02*
D03*
X238018D02*
D03*
X228018D02*
D03*
X218018D02*
D03*
X208018D02*
D03*
X198018D02*
D03*
X188018D02*
D03*
X178018D02*
D03*
X168018D02*
D03*
X158018D02*
D03*
X148018D02*
D03*
X138018D02*
D03*
X128018D02*
D03*
X118018D02*
D03*
X108018D02*
D03*
X98018D02*
D03*
X88018D02*
D03*
X78018D02*
D03*
X68018D02*
D03*
X58018D02*
D03*
X48018D02*
D03*
X38018D02*
D03*
X28018D02*
D03*
X18018D02*
D03*
X8143Y841953D02*
D03*
X6474Y832093D02*
D03*
Y822093D02*
D03*
Y812093D02*
D03*
Y802093D02*
D03*
Y792093D02*
D03*
Y782093D02*
D03*
Y772093D02*
D03*
Y762093D02*
D03*
Y752093D02*
D03*
Y742093D02*
D03*
Y732093D02*
D03*
Y722093D02*
D03*
Y712093D02*
D03*
Y702093D02*
D03*
Y692093D02*
D03*
Y682093D02*
D03*
Y672093D02*
D03*
Y662093D02*
D03*
Y652093D02*
D03*
Y642093D02*
D03*
Y632094D02*
D03*
Y622094D02*
D03*
Y612094D02*
D03*
Y602094D02*
D03*
Y592094D02*
D03*
Y582094D02*
D03*
Y572094D02*
D03*
Y562094D02*
D03*
Y552094D02*
D03*
Y542094D02*
D03*
Y532094D02*
D03*
Y522094D02*
D03*
Y512094D02*
D03*
Y502094D02*
D03*
Y492094D02*
D03*
Y482094D02*
D03*
Y472094D02*
D03*
Y462094D02*
D03*
Y452094D02*
D03*
Y442094D02*
D03*
Y432094D02*
D03*
Y422094D02*
D03*
Y412094D02*
D03*
Y402094D02*
D03*
Y392094D02*
D03*
Y382094D02*
D03*
Y372094D02*
D03*
Y362094D02*
D03*
Y352094D02*
D03*
Y342094D02*
D03*
Y332094D02*
D03*
Y322094D02*
D03*
Y312094D02*
D03*
Y302094D02*
D03*
Y292094D02*
D03*
Y282094D02*
D03*
Y272094D02*
D03*
Y262094D02*
D03*
Y252094D02*
D03*
Y242094D02*
D03*
Y232094D02*
D03*
Y222094D02*
D03*
Y212094D02*
D03*
Y202094D02*
D03*
Y192094D02*
D03*
Y182094D02*
D03*
Y172094D02*
D03*
Y162094D02*
D03*
Y152094D02*
D03*
Y142094D02*
D03*
Y132094D02*
D03*
Y122094D02*
D03*
Y112094D02*
D03*
Y102094D02*
D03*
Y92094D02*
D03*
Y82095D02*
D03*
Y72095D02*
D03*
Y62095D02*
D03*
Y52095D02*
D03*
Y42095D02*
D03*
Y32095D02*
D03*
Y22095D02*
D03*
Y12095D02*
D03*
X14745Y6474D02*
D03*
X24745D02*
D03*
X34745D02*
D03*
X44745D02*
D03*
X54745D02*
D03*
X64745D02*
D03*
X74745D02*
D03*
X84745D02*
D03*
X94745D02*
D03*
X104745D02*
D03*
X114745D02*
D03*
X124745D02*
D03*
X134745D02*
D03*
X144745D02*
D03*
X154745D02*
D03*
X164745D02*
D03*
X174745D02*
D03*
X184745D02*
D03*
X194745D02*
D03*
X204745D02*
D03*
X214745D02*
D03*
X224745D02*
D03*
X234745D02*
D03*
X244745D02*
D03*
X254745D02*
D03*
X264745D02*
D03*
X274745D02*
D03*
X284745D02*
D03*
X294745D02*
D03*
X304745D02*
D03*
X314745D02*
D03*
X324745D02*
D03*
X334745D02*
D03*
X344745D02*
D03*
X354745D02*
D03*
X364745D02*
D03*
X374745D02*
D03*
X384745D02*
D03*
X394745D02*
D03*
X404745D02*
D03*
X414744D02*
D03*
X424744D02*
D03*
X434744D02*
D03*
X444744D02*
D03*
X454744D02*
D03*
X464744D02*
D03*
X474744D02*
D03*
X484744D02*
D03*
X494744D02*
D03*
X504744D02*
D03*
X514744D02*
D03*
X524744D02*
D03*
X534744D02*
D03*
X544744D02*
D03*
X554744D02*
D03*
X564744D02*
D03*
X574744D02*
D03*
X584744D02*
D03*
X594744D02*
D03*
X604744D02*
D03*
X614744D02*
D03*
X624744D02*
D03*
X634744D02*
D03*
X644744D02*
D03*
X654744D02*
D03*
X664744D02*
D03*
X674744D02*
D03*
X684744D02*
D03*
X694744D02*
D03*
X704744D02*
D03*
X714744D02*
D03*
X724744D02*
D03*
X734744D02*
D03*
X744744D02*
D03*
X754744D02*
D03*
X764744D02*
D03*
X774744D02*
D03*
X784744D02*
D03*
X794744D02*
D03*
X804744D02*
D03*
X814744D02*
D03*
X824744D02*
D03*
X834744D02*
D03*
X843451Y11391D02*
D03*
X843526Y21391D02*
D03*
Y31391D02*
D03*
Y41391D02*
D03*
Y51391D02*
D03*
Y61391D02*
D03*
Y71391D02*
D03*
Y81391D02*
D03*
Y91391D02*
D03*
Y101391D02*
D03*
Y111391D02*
D03*
Y121391D02*
D03*
Y131391D02*
D03*
Y141391D02*
D03*
Y151391D02*
D03*
Y161391D02*
D03*
Y171391D02*
D03*
Y181391D02*
D03*
Y191391D02*
D03*
Y201391D02*
D03*
Y211391D02*
D03*
Y221391D02*
D03*
Y231391D02*
D03*
Y241391D02*
D03*
Y271391D02*
D03*
Y281391D02*
D03*
Y291391D02*
D03*
Y301391D02*
D03*
Y311391D02*
D03*
Y321390D02*
D03*
Y331390D02*
D03*
Y341390D02*
D03*
Y351390D02*
D03*
Y361390D02*
D03*
Y371390D02*
D03*
Y381390D02*
D03*
Y391390D02*
D03*
Y401390D02*
D03*
Y411390D02*
D03*
Y421390D02*
D03*
Y431390D02*
D03*
Y441390D02*
D03*
Y451390D02*
D03*
Y461390D02*
D03*
Y471390D02*
D03*
Y481390D02*
D03*
Y491390D02*
D03*
X843375Y501389D02*
D03*
X833728Y504023D02*
D03*
X823805Y505263D02*
D03*
X817680Y513168D02*
D03*
X817386Y523163D02*
D03*
Y533163D02*
D03*
Y543163D02*
D03*
Y553163D02*
D03*
Y563163D02*
D03*
Y573163D02*
D03*
Y583163D02*
D03*
Y593163D02*
D03*
Y603163D02*
D03*
Y613163D02*
D03*
Y623163D02*
D03*
Y633163D02*
D03*
Y643163D02*
D03*
Y653163D02*
D03*
Y663163D02*
D03*
X818616Y673087D02*
D03*
X826504Y679234D02*
D03*
X836499Y679532D02*
D03*
X843526Y686646D02*
D03*
Y696646D02*
D03*
Y706646D02*
D03*
Y716646D02*
D03*
Y726646D02*
D03*
Y736646D02*
D03*
Y746646D02*
D03*
Y756646D02*
D03*
Y766646D02*
D03*
Y776646D02*
D03*
Y786646D02*
D03*
Y796646D02*
D03*
Y806646D02*
D03*
Y816646D02*
D03*
Y826646D02*
D03*
Y836646D02*
D03*
X843526Y251391D02*
D03*
Y261391D02*
D03*
M02*
